<?xml version="1.0" encoding="utf-8"?>
<!-- Generator: Adobe Illustrator 24.0.1, SVG Export Plug-In . SVG Version: 6.00 Build 0)  -->
<svg version="1.1" id="图层_1" xmlns="http://www.w3.org/2000/svg" xmlns:xlink="http://www.w3.org/1999/xlink" x="0px" y="0px"
	 viewBox="0 0 200 200" style="enable-background:new 0 0 200 200;" xml:space="preserve">
<style type="text/css">
	.st0{fill:#D81617;}
</style>
<path class="st0" d="M173.4,140.4L112.5,35.1c-3.2-5.6-11.2-5.6-14.4,0L37.3,140.4c-3.2,5.6,0.8,12.5,7.2,12.5h121.6
	C172.6,152.9,176.6,145.9,173.4,140.4z M108.6,129.1c0,1.9-1.5,3.4-3.4,3.4c-1.9,0-3.4-1.5-3.4-3.4c0-1.9,1.5-3.4,3.4-3.4
	C107.1,125.8,108.6,127.3,108.6,129.1C108.6,129.1,108.6,129.1,108.6,129.1z M107.4,113.3c-0.1,1.5-1,2.6-2.1,2.6
	c-1.1,0-2.1-1.1-2.1-2.6l-1.7-38c-0.1-2.8,1.6-5.2,3.8-5.2c2.2,0,3.9,2.4,3.8,5.2L107.4,113.3z"/>
</svg>
