<?xml version="1.0" encoding="UTF-8"?>
<svg width="320px" height="320px" viewBox="0 0 320 320" version="1.1" xmlns="http://www.w3.org/2000/svg" xmlns:xlink="http://www.w3.org/1999/xlink">
    <title>images / ZV9001NK8</title>
    <g id="images-/-ZV9001NK8" stroke="none" stroke-width="1" fill="none" fill-rule="evenodd">
        <path d="M307,10 C308.656854,10 310,11.3431458 310,13 L310,307 C310,308.656854 308.656854,310 307,310 L13,310 C11.3431458,310 10,308.656854 10,307 L10,13 C10,11.3431458 11.3431458,10 13,10 L307,10 Z M303,17 L17,17 L17,303 L303,303 L303,17 Z M260,60 L260,260 L60,260 L60,60 L260,60 Z M109,68 L68,68 L68,252 L109,252 L109,68 Z M157,68 L116,68 L116,252 L157,252 L157,68 Z M205,68 L164,68 L164,252 L205,252 L205,68 Z M252,68 L212,68 L212,252 L252,252 L252,68 Z M236,81 L236,88 L229,88 L229,81 L236,81 Z" id="Combined-Shape" fill="#000000"></path>
    </g>
</svg>