<?xml version="1.0" encoding="UTF-8"?>
<!-- Created with Inkscape (http://www.inkscape.org/) -->
<svg width="100" height="100" version="1.1" viewBox="0 0 26.458 26.458" xmlns="http://www.w3.org/2000/svg">
 <g>
  <g transform="matrix(.7349 0 0 .7349 -32.865 -53.27)" fill="none" stroke="#000">
   <path d="m74.96 91.781-0.68146-1.5461s0.01977-0.26762 0.10745-0.31918c0.08768-0.05156 0.31867 0.10593 0.31867 0.10593l0.83465 1.4588m-0.04083 6.0318-0.5229 0.1983m-1.5253-3.9129-1.0415-0.38186-0.03455-0.01693m5.0162-2.7603c-1.1998 2.5538-3.3476 3.1014-3.9402 3.1591 1.4778 2.2651 1.6198 2.8049 2.0482 3.7146 1.9048 3.0791 4.2118-0.32184 3.541-2.135m-1.9962-6.0579c-0.0749 1.8637-2.1859 4.1562-4.946 3.7657l0.3664-0.45588m-4.143-2.7077 0.50998-0.28708m7.5357-6.1125c-1.0286-1.7764-2.5017-2.7237-4.099-2.6755-3.7928 0.11435-5.249 5.1273-3.4367 8.7881 1.3449 0.83089 2.5499 1.8367 3.6331 2.9948 1.0965 0.15353 1.9294-0.3185 2.5897-0.75604 0.13563-0.08987 0.3664-0.29044 0.48584-0.39272 1.1184-0.9578 1.4637-2.0558 1.504-2.1611m-30.211 1.951c-1.3005-3.3879-0.72155-8.7158 3.8447-9.4843l20.552-1.3539m3.7471 17.278c0.62954 1.0298 1.0176 1.2962 1.5078 1.4904l-21.022 1.3882c-0.77834-0.0238-1.4419-0.49024-1.9735-1.4659m-6.6563-7.8529 21.489-1.3489c1.4187 0.92041 2.6911 1.965 3.7766 3.1636 0.05215 0.05759 0.10388 0.11553 0.15517 0.17384 0.04085 0.04643 0.08142 0.0931 0.12171 0.13998 1.0832 1.2606 1.965 2.687 2.6013 4.3117l-21.487 1.4127c-1.5817-2.8959-3.3306-5.0943-6.0925-7.3248-0.19827-0.16013-0.24103-0.19312-0.56382-0.52811zm21.489-1.3489c-1.4754-2.7543-1.4487-7.8175 2.9077-9.4893 1.67-0.24932 4.0089 0.47058 5.1379 3.0897 0.12118 0.76316-0.06724 1.2675 0.24367 3.2258 0.26922 1.6957 0.13982 1.4565 0.43329 2.5717l0.34716 1.3192c0.39118 1.4865 1.1298 3.0249 1.649 4.7387 0.76064 2.5107-1.0843 4.0027-2.556 3.8237" stroke-linejoin="round" stroke-width=".36003"/>
   <path d="m57.534 83.348c-0.58542 0.65445-0.85584 1.5918-1.0154 2.4301-0.05 0.26264-0.06366 0.42921 0.01736 0.59017 0.05434 0.10795 0.14828 0.23867 0.26905 0.24301 0.15037 0.0054 0.26934-0.15461 0.35584-0.27773 0.10676-0.15196 0.10789-0.20325 0.17358-0.52941 0.11482-0.57012 0.16361-1.2717 0.74639-2.3607 0.04284-0.08005-0.05369-0.20287-0.13886-0.23433-0.13473-0.04977-0.28419 5.37e-4 -0.40791 0.13886z" stroke-width=".36003"/>
   <path d="m58.28 91.031c-0.28687 0.32849 0.36865 0.82433 1.0361 1.2282 0.83834 0.5073 1.8353 0.63129 1.82-0.04833m-3.3764-1.0346c-0.33104 0.38855 0.77186 1.2793 1.406 1.5969 0.64872 0.32494 1.8314 0.81544 2.1697 0.17358 0.04491-0.29263-0.04368-0.53362-0.19933-0.73593-0.24676-0.32075-0.66206-0.54426-0.98101-0.72213-0.39306-0.21986-1.0123-0.38949-1.5285-0.4415-0.12285-0.01238-0.23986-0.01809-0.34658-0.01624-0.24657 0.0043-0.43826 0.04898-0.52032 0.1453z" stroke-width=".32402"/>
  </g>
 </g>
</svg>
