<?xml version="1.0" encoding="UTF-8" standalone="no"?>
<!-- Created with Inkscape (http://www.inkscape.org/) -->
<svg
  width="1e3"
  height="1e3"
  version="1.1"
  viewBox="0 0 264.58 264.58"
  id="svg32"
  xmlns="http://www.w3.org/2000/svg"
  xmlns:svg="http://www.w3.org/2000/svg">
  <style type="text/css">
    #circle8 {
    animation: button-down 8s infinite step-end;
    }
    #circle10 {
    animation: button-check 8s infinite step-end;
    }

    @keyframes button-down {
    0%, 10%, 20%, 30%, 60%, 70%, 100% {
    fill: rgba(255,255,255,0);
    }
    5%, 15%, 25%, 55%, 65% {
    fill: #0078CC;
    }
    }

    @keyframes button-check {
    0%, 45%, 85%, 100% {
    fill: rgba(255,255,255,0);
    }
    40%, 80% {
    fill: #0078CC;
    }
    }
  </style>
  <g
    transform="matrix(.54649 0 0 .54649 7.4635 20.856)"
    id="g30">
    <g
      fill="none"
      stroke-width="5.2917"
      id="g26">
      <g
        stroke="#000"
        stroke-linejoin="round"
        id="g14">
        <rect
          x="50.475"
          y="-22.312"
          width="355.89"
          height="452.45"
          ry="9.5099"
          opacity=".99"
          id="rect2"/>
        <circle
          cx="132.67"
          cy="34.648"
          r="40.521"
          opacity=".99"
          id="circle4"/>
        <circle
          cx="324.07"
          cy="34.648"
          r="40.521"
          opacity=".99"
          id="circle6"/>
        <circle
          cx="324.07"
          cy="374.54"
          r="40.521"
          opacity=".99"
          id="circle8"/>
        <circle
          cx="132.67"
          cy="374.54"
          r="40.521"
          opacity=".99"
          id="circle10"/>
        <rect
          x="82.663"
          y="117.78"
          width="291.15"
          height="171.91"
          ry="7.3153"
          opacity=".99"
          id="rect12"/>
      </g>
      <g
        stroke-linecap="round"
        id="g24">
        <path
          d="m114.85 375.09 17.922 18.105 17.922-38.405"
          stroke="#0f0"
          id="path16"/>
        <path
          d="m117.68 19.398 29.484 29.484m-29.484 2e-6 29.484-29.484"
          stroke="#f00"
          id="path18"/>
        <path
          d="m 324.07,13.449 -15.001,17.328 m 14.742,24.053 0.25863,-41.381 m 0,0 14.742,17.587"
          stroke="#000000"
          id="path20"/>
        <path
          d="m 323.81,395.64 15.001,-17.328 m -14.742,-24.053 -0.25863,41.381 m 0,0 -14.742,-17.587"
          stroke="#000000"
          id="path22"/>
      </g>
    </g>
    <g
      aria-label="FireFence"
      id="text2389"
      style="font-size:27.3879px;line-height:1.25;stroke-width:0.684698">
      <path
        d="m 177.85835,304.8085 h -10.06986 v 5.61666 h 8.65233 v 2.35365 h -8.65233 v 9.58844 h -2.64786 v -19.9124 h 12.71772 z"
        id="path5467"/>
      <path
        d="m 183.3814,304.92886 h -2.83507 v -2.60774 h 2.83507 z m -0.16047,17.43839 h -2.51413 v -14.93764 h 2.51413 z"
        id="path5469"/>
      <path
        d="m 197.51666,310.17107 h -0.13373 q -0.56167,-0.13373 -1.09659,-0.18722 -0.52154,-0.0669 -1.24368,-0.0669 -1.16346,0 -2.24667,0.52154 -1.08321,0.50818 -2.08619,1.32393 v 10.60479 h -2.51412 v -14.93764 h 2.51412 v 2.20654 q 1.49778,-1.20357 2.63448,-1.69837 1.15008,-0.50817 2.34028,-0.50817 0.65528,0 0.94948,0.0401 0.29421,0.0267 0.88262,0.12036 z"
        id="path5471"/>
      <path
        d="m 212.38743,315.1592 h -11.00597 q 0,1.37742 0.41456,2.40714 0.41456,1.01635 1.1367,1.67163 0.6954,0.6419 1.64488,0.96285 0.96286,0.32095 2.11294,0.32095 1.52452,0 3.06241,-0.60178 1.55127,-0.61516 2.20655,-1.20357 h 0.13373 v 2.74146 q -1.27044,0.53492 -2.59436,0.896 -1.32393,0.36107 -2.78159,0.36107 -3.71769,0 -5.80388,-2.00595 -2.08619,-2.01933 -2.08619,-5.72365 0,-3.6642 1.99258,-5.81725 2.00595,-2.15305 5.26896,-2.15305 3.0223,0 4.6538,1.76523 1.64488,1.76524 1.64488,5.01488 z m -2.44726,-1.92571 q -0.0134,-1.9792 -1.00297,-3.06242 -0.97623,-1.08321 -2.98218,-1.08321 -2.01932,0 -3.22289,1.1902 -1.1902,1.1902 -1.35067,2.95543 z"
        id="path5473"/>
      <path
        d="m 229.11706,304.8085 h -10.06987 v 5.61666 h 8.65233 v 2.35365 h -8.65233 v 9.58844 h -2.64786 v -19.9124 h 12.71773 z"
        id="path5475"/>
      <path
        d="m 243.77386,315.1592 h -11.00598 q 0,1.37742 0.41457,2.40714 0.41456,1.01635 1.1367,1.67163 0.6954,0.6419 1.64488,0.96285 0.96286,0.32095 2.11293,0.32095 1.52453,0 3.06242,-0.60178 1.55127,-0.61516 2.20655,-1.20357 h 0.13373 v 2.74146 q -1.27044,0.53492 -2.59437,0.896 -1.32392,0.36107 -2.78158,0.36107 -3.71769,0 -5.80388,-2.00595 -2.08619,-2.01933 -2.08619,-5.72365 0,-3.6642 1.99258,-5.81725 2.00595,-2.15305 5.26896,-2.15305 3.0223,0 4.6538,1.76523 1.64488,1.76524 1.64488,5.01488 z m -2.44726,-1.92571 q -0.0134,-1.9792 -1.00297,-3.06242 -0.97623,-1.08321 -2.98218,-1.08321 -2.01932,0 -3.22289,1.1902 -1.1902,1.1902 -1.35068,2.95543 z"
        id="path5477"/>
      <path
        d="m 260.07554,322.36725 h -2.51412 v -8.50523 q 0,-1.02972 -0.12036,-1.92571 -0.12035,-0.90936 -0.4413,-1.41754 -0.33433,-0.56166 -0.96286,-0.82912 -0.62853,-0.28084 -1.63151,-0.28084 -1.02972,0 -2.15305,0.50818 -1.12333,0.50817 -2.15305,1.29718 v 11.15308 h -2.51413 v -14.93764 h 2.51413 v 1.65825 q 1.17682,-0.97623 2.43388,-1.52452 1.25707,-0.54829 2.58099,-0.54829 2.42052,0 3.69095,1.45765 1.27043,1.45766 1.27043,4.19913 z"
        id="path5479"/>
      <path
        d="m 275.96267,321.43114 q -1.25707,0.60178 -2.39377,0.93611 -1.12333,0.33432 -2.39377,0.33432 -1.61813,0 -2.9688,-0.46805 -1.35067,-0.48143 -2.31353,-1.44429 -0.97623,-0.96285 -1.51115,-2.43388 -0.53492,-1.47103 -0.53492,-3.43686 0,-3.6642 2.00595,-5.75039 2.01932,-2.08619 5.32245,-2.08619 1.28381,0 2.51413,0.36107 1.24369,0.36107 2.27341,0.88262 v 2.79496 h -0.13373 q -1.15008,-0.89599 -2.3804,-1.37742 -1.21694,-0.48143 -2.38039,-0.48143 -2.13968,0 -3.38337,1.44428 -1.23031,1.43092 -1.23031,4.2125 0,2.70134 1.20357,4.159 1.21694,1.44428 3.41011,1.44428 0.76226,0 1.55127,-0.20059 0.789,-0.2006 1.41753,-0.52155 0.5483,-0.28083 1.02973,-0.58841 0.48142,-0.32095 0.76226,-0.54829 h 0.13373 z"
        id="path5481"/>
      <path
        d="m 291.68931,315.1592 h -11.00597 q 0,1.37742 0.41456,2.40714 0.41456,1.01635 1.1367,1.67163 0.6954,0.6419 1.64488,0.96285 0.96286,0.32095 2.11294,0.32095 1.52452,0 3.06241,-0.60178 1.55127,-0.61516 2.20655,-1.20357 h 0.13373 v 2.74146 q -1.27044,0.53492 -2.59436,0.896 -1.32393,0.36107 -2.78159,0.36107 -3.71769,0 -5.80388,-2.00595 -2.08619,-2.01933 -2.08619,-5.72365 0,-3.6642 1.99258,-5.81725 2.00595,-2.15305 5.26896,-2.15305 3.0223,0 4.6538,1.76523 1.64488,1.76524 1.64488,5.01488 z m -2.44726,-1.92571 q -0.0134,-1.9792 -1.00297,-3.06242 -0.97623,-1.08321 -2.98218,-1.08321 -2.01932,0 -3.22289,1.1902 -1.1902,1.1902 -1.35067,2.95543 z"
        id="path5483"/>
    </g>
  </g>
</svg>
