<?xml version="1.0" encoding="utf-8"?>
<!-- Generator: Adobe Illustrator 25.2.1, SVG Export Plug-In . SVG Version: 6.00 Build 0)  -->
<svg version="1.1" id="图层_1" xmlns="http://www.w3.org/2000/svg" xmlns:xlink="http://www.w3.org/1999/xlink" x="0px" y="0px"
	 viewBox="0 0 989.2 1029.5" style="enable-background:new 0 0 989.2 1029.5;" xml:space="preserve">
<style type="text/css">
	.st0{fill:none;stroke:#231815;stroke-width:3;stroke-linecap:round;stroke-linejoin:round;stroke-miterlimit:10;}
</style>
<g>
	<path class="st0" d="M205.4,986.5v0.4 M412.1,1014.7l-177.6-13.9 M515.9,1008.2h-44.7 M752.5,1000.8l-178,13.9"/>
	<path class="st0" d="M361.3,1010.8l0.9-10.4 M285.3,1004.7l0.9-10.4 M237.1,50.8l-1.3-7.8 M242.8,98.5l-3.9-33 M236.3,989.5
		l0.9-4.3 M242.8,937.4l-3.9,33 M909.3,828.8l8.2,1.3 M861.9,822.3l33,4.3 M69.5,830.1l7.8-1.3 M125.1,822.3l-33,4.3"/>
	<path class="st0" d="M523.7,543.6v-51.2 M515.9,1006.9v1.3 M514.1,492.3v51.2 M498.1,543.6v-51.2 M488.5,492.3v51.2 M472.9,543.6
		v-51.2 M471.2,1006.9v1.3 M463.3,492.3v51.2"/>
	<path class="st0" d="M750.3,989.5l-0.4-4.3 M744.3,937.4l3.9,33 M749.9,50.8l0.9-7.8 M744.3,98.5l3.9-33 M701.7,1004.7l-0.9-10.4
		 M625.3,1010.8l-0.9-10.4"/>
	<line class="st0" x1="781.2" y1="986.9" x2="781.2" y2="986.5"/>
	<path class="st0" d="M69.5,205.8l7.8,1.3 M125.1,213.6l-33-4.8 M909.3,207.1l8.2-1.3 M861.9,213.6l33-4.8"/>
	<line class="st0" x1="210.2" y1="985.6" x2="221.5" y2="988.2"/>
	<line class="st0" x1="205" y1="986.5" x2="223.2" y2="991.2"/>
	<polyline class="st0" points="69.5,830.1 73,847.9 77.8,865.3 84.7,882.2 93,898.7 103,913.9 113.8,928.3 126.4,941.3 140.3,953.5 
		155.1,963.9 171.1,973 187.6,980.8 204.6,986.9 	"/>
	<polyline class="st0" points="76,829.3 79.5,847.5 85.2,865.3 92.1,882.2 100.8,898.7 111.2,913.9 123.4,928.3 136.4,941.3 
		151.2,953 166.8,963 183.3,971.7 200.7,978.2 218.5,983 236.7,986.5 	"/>
	<polyline class="st0" points="77.3,828.8 80.8,847.1 86,864.9 93.4,881.8 102.1,897.9 112.5,913.5 124.2,927.4 137.3,940.4 
		151.6,951.7 167.2,962.1 183.7,970.4 201.1,976.9 218.9,982.1 237.1,985.2 	"/>
	<polyline class="st0" points="92.1,826.7 95.1,843.6 99.9,859.7 106.4,875.3 114.7,890.5 124.2,904.4 135.1,917.4 147.2,929.6 
		160.3,940 174.6,949.1 189.8,956.9 205.4,963 221.9,967.8 238.9,970.4 	"/>
	<polyline class="st0" points="125.1,822.3 127.7,836.7 132.5,850.6 138.1,864 145.5,877 154.2,888.8 164.2,899.6 175.5,909.6 
		187.2,917.9 200.2,924.8 214.1,930.4 228,934.8 242.8,937.4 	"/>
	<path class="st0" d="M917.5,830.1l7.8-62.1l6.1-62.5l4.3-62.5l2.6-62.5l0.9-62.5l-0.9-62.5l-2.6-62.5l-4.3-62.5l-6.1-62.5
		l-7.8-62.1 M463.3,543.6l0.4,2.2l1.7,1.7l2.6,0.9l2.2-0.9l1.7-1.7l0.9-2.2 M222.8,988.2l0.4,3.5l1.7,3.5l2.6,3l3,1.7l3.9,0.9
		 M412.1,1014.7h3.9l3.5-1.3l3-2.6l2.2-2.6l0.9-3.5 M222.4,988.6h0.4 M471.6,1006.9h-0.4"/>
	<polyline class="st0" points="910.6,829.3 918.4,767.2 924.9,705.1 929.2,642.6 931.8,580.5 932.7,518 931.8,455.4 929.2,392.9 
		924.9,330.8 918.4,268.7 910.6,206.6 	"/>
	<polyline class="st0" points="909.3,828.8 917.5,767.2 923.6,705.1 927.9,642.6 930.5,580.5 931.4,518 930.5,455.4 927.9,393.3 
		923.6,330.8 917.5,268.7 909.3,207.1 	"/>
	<polyline class="st0" points="894.9,826.7 902.7,765.4 908.8,703.8 913.2,641.7 915.8,580 916.6,518 915.8,455.9 913.2,394.2 
		908.8,332.1 902.7,270.5 894.9,208.8 	"/>
	<polyline class="st0" points="861.9,822.3 869.3,761.5 875.4,700.8 879.7,640 882.3,578.7 883.2,518 882.3,456.7 879.7,395.9 
		875.4,335.2 869.3,274.4 861.9,213.6 	"/>
	<polyline class="st0" points="235.8,42.9 218.5,45.6 201.1,50.3 184.2,56.4 168.1,64.2 152.9,73.3 138.1,84.2 125.1,95.9 
		112.9,108.9 101.7,123.3 92.1,138.5 84.3,154.5 77.8,171 72.6,188.4 69.5,205.8 	"/>
	<polyline class="st0" points="236.7,49.5 218.5,52.5 200.7,57.7 183.3,64.2 166.8,72.9 151.2,82.9 136.4,94.6 123.4,107.6 
		111.2,121.5 100.8,137.2 92.1,153.7 85.2,170.6 79.5,188.4 76,206.6 	"/>
	<polyline class="st0" points="237.1,50.8 218.9,53.8 201.1,59 183.7,65.5 167.2,73.8 151.6,83.8 137.3,95.5 124.2,108.5 
		112.5,122.4 102.1,137.6 93.4,154.1 86,171 80.8,188.8 77.3,207.1 	"/>
	<polyline class="st0" points="238.9,65.5 221.9,68.1 205.4,72.9 189.8,79 174.6,86.8 160.3,95.9 147.2,106.3 135.1,118.5 
		124.2,131.5 114.7,145.4 106.4,160.2 99.9,176.2 95.1,192.3 92.1,208.8 	"/>
	<polyline class="st0" points="242.8,98.5 228,101.1 214.1,105 200.2,110.7 187.2,118.1 175.5,126.3 164.2,136.3 154.2,147.2 
		145.5,158.9 138.1,171.5 132.5,184.9 127.7,199.3 125.1,213.6 	"/>
	<path class="st0" d="M750.8,42.9L686.5,36l-64.3-4.8l-64.3-3l-64.7-0.9L429,28.2l-64.7,3L300.1,36l-64.3,6.9 M472.9,492.3l-0.9-2.2
		l-1.7-1.7l-2.2-0.9l-2.6,0.9l-1.7,1.7l-0.4,2.2"/>
	<polyline class="st0" points="749.9,49.5 686.1,42.9 621.8,38.2 557.6,35.1 493.3,34.3 429,35.1 364.8,38.2 300.5,42.9 236.7,49.5 
			"/>
	<polyline class="st0" points="749.9,50.8 686.1,44.2 621.8,39.5 557.6,36.4 493.3,35.6 429,36.4 364.8,39.5 300.9,44.2 237.1,50.8 
			"/>
	<polyline class="st0" points="748.2,65.5 684.8,58.6 621,53.8 557.1,51.2 493.3,50.3 429.5,51.2 365.6,53.8 302.3,58.6 238.9,65.5 
			"/>
	<polyline class="st0" points="744.3,98.5 681.7,92 619.2,87.2 556.3,84.6 493.3,83.8 430.8,84.6 367.8,87.2 305.3,92 242.8,98.5 	
		"/>
	<path class="st0" d="M765.1,988.2l11.7-2.6 M763.8,991.2l18.2-4.8 M782,986.9l17.4-6.1l16.5-7.8l15.6-9.1l14.8-10.4l13.9-12.2
		l12.6-13l11.3-14.3l10-15.2l8.2-16.5l6.5-16.9l5.2-17.4l3.5-17.8"/>
	<polyline class="st0" points="749.9,986.5 768.6,983 786.4,978.2 803.8,971.7 820.2,963 835.9,953 850.2,941.3 863.7,928.3 
		875.4,913.9 885.8,898.7 894.9,882.2 901.9,865.3 907.1,847.5 910.6,829.3 	"/>
	<polyline class="st0" points="749.9,985.2 768.1,982.1 785.9,976.9 802.9,970.4 819.4,962.1 835,951.7 849.3,940.4 862.8,927.4 
		874.5,913.5 884.9,897.9 893.6,881.8 900.6,864.9 905.8,847.1 909.3,828.8 	"/>
	<polyline class="st0" points="748.2,970.4 765.1,967.8 781.2,963 797.2,956.9 812,949.1 826.3,940 839.8,929.6 851.9,917.4 
		862.8,904.4 872.4,890.5 880.2,875.3 886.7,859.7 891.9,843.6 894.9,826.7 	"/>
	<polyline class="st0" points="744.3,937.4 758.6,934.8 772.9,930.4 786.4,924.8 799.4,917.9 811.6,909.6 822.4,899.6 832.4,888.8 
		841.1,877 848.5,864 854.6,850.6 858.9,836.7 861.9,822.3 	"/>
	<path class="st0" d="M69.5,205.8l-8.2,62.1l-6.1,62.5l-4.3,62.5l-2.6,62.5L47.4,518l0.9,62.5l2.6,62.5l4.3,62.5l6.1,62.5l8.2,62.1
		 M514.1,543.6l0.4,2.2l1.7,1.7l2.6,0.9l2.2-0.9l1.7-1.7l0.9-2.2 M488.5,543.6l0.9,2.2l1.7,1.7l2.2,0.9l2.6-0.9l1.7-1.7l0.4-2.2
		 M561,1004.7l1.3,3.5l2.2,2.6l3,2.6l3.5,1.3h3.5 M752.5,1000.8l3.5-0.9l3.5-1.7l2.6-3l1.3-3.5l0.9-3.5 M764.2,988.6v-0.4"/>
	<polyline class="st0" points="76,206.6 68.2,268.7 62.1,330.8 57.8,392.9 55.2,455.4 54.3,518 55.2,580.5 57.8,642.6 62.1,705.1 
		68.2,767.2 76,829.3 	"/>
	<polyline class="st0" points="77.3,207.1 69.5,268.7 63.4,330.8 59.1,393.3 56.5,455.4 55.6,518 56.5,580.5 59.1,642.6 63.4,705.1 
		69.5,767.2 77.3,828.8 	"/>
	<polyline class="st0" points="92.1,208.8 84.3,270.5 78.2,332.1 73.9,394.2 71.3,455.9 70.4,518 71.3,580 73.9,641.7 78.2,703.8 
		84.3,765.4 92.1,826.7 	"/>
	<polyline class="st0" points="125.1,213.6 117.3,274.4 111.2,335.2 106.9,395.9 104.3,456.7 103.4,518 104.3,578.7 106.9,640 
		111.2,700.8 117.3,761.5 125.1,822.3 	"/>
	<path class="st0" d="M286.2,994.3l76,6.1 M624.4,1000.4l76.4-6.1 M426.9,1004.7l11.7,0.4 M548.4,1005.1l11.7-0.4 M543.2,1007.7
		l18.7-0.4 M424.7,1007.3l18.7,0.4 M443.8,1007.7l27.4,0.4 M475.5,1008.2h35.6 M515.9,1008.2l27.4-0.4"/>
	<polyline class="st0" points="236.7,986.5 300.5,993 364.8,997.7 429,1000.8 493.3,1001.7 557.6,1000.8 621.8,997.7 686.1,993 
		749.9,986.5 	"/>
	<polyline class="st0" points="237.1,985.2 300.9,991.7 364.8,996.4 429,999.5 493.3,1000.4 557.6,999.5 621.8,996.4 686.1,991.7 
		749.9,985.2 	"/>
	<polyline class="st0" points="238.9,970.4 302.3,977.3 365.6,981.7 429.5,984.7 493.3,985.6 557.1,984.7 621,981.7 684.8,977.3 
		748.2,970.4 	"/>
	<polyline class="st0" points="242.8,937.4 305.3,943.9 367.8,948.7 430.8,951.3 493.3,952.2 556.3,951.3 619.2,948.7 681.7,943.9 
		744.3,937.4 	"/>
	<polyline class="st0" points="917.5,205.8 914,188.4 909.3,171 902.7,154.5 894.5,138.5 884.9,123.3 874.1,108.9 861.9,95.9 
		848.5,84.2 834.1,73.3 818.9,64.2 802.4,56.4 785.9,50.3 768.6,45.6 750.8,42.9 	"/>
	<polyline class="st0" points="910.6,206.6 907.1,188.4 901.9,170.6 894.9,153.7 885.8,137.2 875.4,121.5 863.7,107.6 850.2,94.6 
		835.9,82.9 820.2,72.9 803.8,64.2 786.4,57.7 768.6,52.5 749.9,49.5 	"/>
	<polyline class="st0" points="909.3,207.1 905.8,188.8 900.6,171 893.6,154.1 884.9,137.6 874.5,122.4 862.8,108.5 849.3,95.5 
		835,83.8 819.4,73.8 802.9,65.5 785.9,59 768.1,53.8 749.9,50.8 	"/>
	<polyline class="st0" points="894.9,208.8 891.9,192.3 886.7,176.2 880.2,160.2 872.4,145.4 862.8,131.5 851.9,118.5 839.8,106.3 
		826.3,95.9 812,86.8 797.2,79 781.2,72.9 765.1,68.1 748.2,65.5 	"/>
	<polyline class="st0" points="861.9,213.6 858.9,199.3 854.6,184.9 848.5,171.5 841.1,158.9 832.4,147.2 822.4,136.3 811.6,126.3 
		799.4,118.1 786.4,110.7 772.9,105 758.6,101.1 744.3,98.5 	"/>
	<polyline class="st0" points="523.7,492.3 522.8,490.2 521.1,488.4 518.9,487.6 516.3,488.4 514.6,490.2 514.1,492.3 	"/>
	<polyline class="st0" points="498.1,492.3 497.6,490.2 495.9,488.4 493.3,487.6 491.1,488.4 489.4,490.2 488.5,492.3 	"/>
	<polyline class="st0" points="518.9,1006.9 518.5,1006.9 518,1007.3 517.6,1007.3 515.9,1007.3 	"/>
	<polyline class="st0" points="471.2,1007.3 469.4,1007.3 468.5,1007.3 468.1,1006.9 	"/>
	<polyline class="st0" points="221.5,988.2 221.9,988.2 222.4,988.2 222.8,988.2 236.3,989.5 	"/>
	<polyline class="st0" points="560.2,1004.7 560.6,1004.7 561.5,1004.3 563.2,1004.3 565.4,1003.8 569.3,1003.8 577.1,1003 
		592.7,1002.1 624.4,1000.4 	"/>
	<polyline class="st0" points="471.6,1006.9 477.2,1006.4 482.4,1006.4 493.3,1006.4 	"/>
	<polyline class="st0" points="468.1,1006.9 468.5,1006.9 469.4,1006.9 470.7,1006.9 471.2,1006.9 	"/>
	<polyline class="st0" points="236.3,989.5 261.4,991.7 286.2,994.3 	"/>
	<polyline class="st0" points="362.2,1000.4 393.9,1002.1 409.9,1003 417.7,1003.8 421.7,1003.8 423.4,1004.3 425.6,1004.3 
		426,1004.7 426.4,1004.7 426.9,1004.7 	"/>
	<polyline class="st0" points="700.8,994.3 725.6,991.7 750.3,989.5 	"/>
	<polyline class="st0" points="493.3,1006.4 504.6,1006.4 510.2,1006.4 515.9,1006.9 517.2,1006.9 518,1006.9 518.5,1006.9 
		518.9,1006.9 	"/>
	<polyline class="st0" points="750.3,989.5 764.2,988.2 764.7,988.2 765.1,988.2 	"/>
	<polyline class="st0" points="561,1005.1 560.6,1004.7 560.2,1004.7 	"/>
	<polyline class="st0" points="222.4,988.6 222.4,988.2 221.9,988.2 	"/>
	<polyline class="st0" points="426.9,1004.7 426,1004.7 425.6,1005.1 	"/>
	<polyline class="st0" points="765.1,988.2 764.7,988.2 764.2,988.6 	"/>
	<line class="st0" x1="204.6" y1="986.9" x2="210.2" y2="985.6"/>
	<line class="st0" x1="438.6" y1="1005.1" x2="443.8" y2="1007.7"/>
	<line class="st0" x1="543.2" y1="1007.7" x2="548.4" y2="1005.1"/>
	<line class="st0" x1="776.8" y1="985.6" x2="782" y2="986.9"/>
	<line class="st0" x1="205.4" y1="986.9" x2="210.6" y2="985.6"/>
	<line class="st0" x1="776" y1="985.6" x2="781.2" y2="986.9"/>
</g>
</svg>
