<?xml version="1.0" encoding="UTF-8"?>
<svg width="320px" height="320px" viewBox="0 0 320 320" version="1.1" xmlns="http://www.w3.org/2000/svg" xmlns:xlink="http://www.w3.org/1999/xlink">
    <title>images / ZV9001NK8 learnmore</title>
    <g id="images-/-ZV9001NK8-learnmore" stroke="none" stroke-width="1" fill="none" fill-rule="evenodd">
        <path d="M307,10 C308.656854,10 310,11.3431458 310,13 L310,307 C310,308.656854 308.656854,310 307,310 L13,310 C11.3431458,310 10,308.656854 10,307 L10,13 C10,11.3431458 11.3431458,10 13,10 L307,10 Z M303,17 L17,17 L17,303 L303,303 L303,17 Z M240,80 L240,240 L80,240 L80,80 L240,80 Z M233,87 L87,87 L87,233 L233,233 L233,87 Z M144.23543,211.569336 C145.64168,211.569336 146.608477,212.307617 146.933672,213.116211 L147.030352,213.116211 L147.030352,212.597656 C147.04793,211.938477 147.41707,211.613281 147.961992,211.613281 C148.550859,211.613281 148.92,211.982422 148.92,212.694336 L148.92,220.736328 C148.92,223.258789 147.250078,224.489258 144.753984,224.489258 C143.646562,224.489258 142.706133,224.269531 142.038164,223.874023 C141.449297,223.53125 141.036211,223.021484 141.036211,222.494141 C141.036211,222.02832 141.352617,221.711914 141.844805,221.711914 C142.213945,221.711914 142.416094,221.922852 142.706133,222.160156 C143.084062,222.458984 143.664141,222.87207 144.710039,222.87207 C146.151445,222.87207 146.977617,222.098633 146.977617,220.674805 L146.977617,219.40918 L146.880937,219.40918 C146.520586,220.226562 145.571367,220.868164 144.253008,220.868164 C142.213945,220.868164 140.675859,219.374023 140.675859,216.860352 L140.675859,215.585938 C140.675859,213.072266 142.213945,211.569336 144.23543,211.569336 Z M135.164766,211.53418 C137.581758,211.53418 139.313203,213.081055 139.313203,215.717773 L139.313203,216.96582 C139.313203,219.646484 137.581758,221.175781 135.164766,221.175781 C132.738984,221.175781 131.007539,219.646484 131.007539,216.96582 L131.007539,215.726562 C131.007539,213.081055 132.738984,211.53418 135.164766,211.53418 Z M119.915039,209.00293 C122.323242,209.00293 123.896484,210.532227 123.896484,212.84375 C123.896484,215.225586 122.314453,216.693359 119.862305,216.693359 L117.339844,216.693359 L117.339844,219.998047 C117.339844,220.683594 116.970703,221.087891 116.337891,221.087891 C115.713867,221.087891 115.344727,220.683594 115.344727,219.998047 L115.344727,210.549805 C115.344727,209.433594 115.792969,209.00293 116.935547,209.00293 Z M129.310898,211.569336 C129.618516,211.569336 129.873398,211.639648 130.04918,211.780273 C130.260117,211.920898 130.374375,212.158203 130.374375,212.448242 C130.374375,212.755859 130.268906,212.975586 130.057969,213.116211 C129.882187,213.239258 129.627305,213.291992 129.29332,213.300781 C127.966172,213.318359 127.289414,214.039062 127.289414,215.498047 L127.289414,220.006836 C127.289414,220.692383 126.929062,221.087891 126.305039,221.087891 C125.681016,221.087891 125.338242,220.692383 125.338242,220.006836 L125.338242,212.711914 C125.338242,212.026367 125.698594,211.630859 126.313828,211.630859 C126.893906,211.630859 127.227891,211.991211 127.254258,212.615234 L127.254258,212.896484 L127.32457,212.896484 C127.746445,212.017578 128.44957,211.569336 129.310898,211.569336 Z M103,210 C105.761424,210 108,212.238576 108,215 C108,217.761424 105.761424,220 103,220 C100.238576,220 98,217.761424 98,215 C98,212.238576 100.238576,210 103,210 Z M135.164766,213.116211 C133.837617,213.116211 133.002656,214.162109 133.002656,215.814453 L133.002656,216.895508 C133.002656,218.574219 133.837617,219.602539 135.164766,219.602539 C136.500703,219.602539 137.309297,218.574219 137.309297,216.895508 L137.309297,215.814453 C137.309297,214.162109 136.500703,213.116211 135.164766,213.116211 Z M144.841875,213.177734 C143.514727,213.177734 142.670977,214.232422 142.670977,215.832031 L142.670977,216.68457 C142.670977,218.275391 143.567461,219.321289 144.88582,219.321289 C146.239336,219.321289 146.977617,218.205078 146.977617,216.913086 L146.977617,215.629883 C146.977617,214.311523 146.221758,213.177734 144.841875,213.177734 Z M119.72168,210.655273 L117.339844,210.655273 L117.339844,215.067383 L119.000977,215.067383 C121.092773,215.067383 121.892578,214.496094 121.892578,212.861328 C121.892578,211.463867 121.101562,210.655273 119.72168,210.655273 Z" id="Combined-Shape" fill="#000000"></path>
    </g>
</svg>