<?xml version="1.0" encoding="utf-8"?>
<!-- Generator: Adobe Illustrator 23.0.0, SVG Export Plug-In . SVG Version: 6.00 Build 0)  -->
<svg version="1.1" id="图层_1" xmlns="http://www.w3.org/2000/svg" xmlns:xlink="http://www.w3.org/1999/xlink" x="0px" y="0px"
	 viewBox="0 0 500 500" style="enable-background:new 0 0 500 500;" xml:space="preserve">
<style type="text/css">
	.st0{fill:none;stroke:#000000;stroke-width:0.375;stroke-linecap:round;stroke-linejoin:round;stroke-miterlimit:10;}
	.st1{fill:none;stroke:#000000;stroke-width:4;stroke-linecap:round;stroke-linejoin:round;stroke-miterlimit:10;}
	.st2{fill:none;stroke:#000000;stroke-width:5;stroke-linecap:round;stroke-linejoin:round;stroke-miterlimit:10;}
	.st3{fill:none;stroke:#000000;stroke-width:3;stroke-linecap:round;stroke-linejoin:round;stroke-miterlimit:10;}
	.st4{fill:none;stroke:#000000;stroke-width:6;stroke-linecap:round;stroke-linejoin:round;stroke-miterlimit:10;}
	.st5{fill:none;stroke:#000000;stroke-width:5;stroke-miterlimit:10;}
	.st6{fill:none;stroke:#000000;stroke-width:4;stroke-miterlimit:10;}
</style>
<line class="st0" x1="446.17" y1="478.3" x2="446.63" y2="478.76"/>
<line class="st0" x1="10.34" y1="42.47" x2="9.88" y2="42.01"/>
<line class="st0" x1="44.71" y1="8.1" x2="44.25" y2="7.64"/>
<line class="st1" x1="18.24" y1="44.79" x2="68.39" y2="94.95"/>
<line class="st1" x1="453.85" y1="480.4" x2="403.69" y2="429.78"/>
<line class="st1" x1="47.03" y1="16" x2="97.19" y2="66.15"/>
<line class="st1" x1="482.64" y1="451.61" x2="432.02" y2="400.99"/>
<line class="st0" x1="490.54" y1="453.93" x2="491" y2="453.93"/>
<line class="st2" x1="456.63" y1="488.76" x2="44.25" y2="488.76"/>
<line class="st2" x1="47.03" y1="488.3" x2="453.85" y2="488.3"/>
<line class="st2" x1="47.03" y1="480.4" x2="453.85" y2="480.4"/>
<line class="st3" x1="482.64" y1="450.61" x2="490.54" y2="450.61"/>
<line class="st3" x1="18.24" y1="450.61" x2="10.34" y2="450.61"/>
<line class="st2" x1="403.69" y1="429.78" x2="97.19" y2="429.78"/>
<line class="st1" x1="403.69" y1="422.82" x2="97.19" y2="422.82"/>
<line class="st0" x1="100.9" y1="414.92" x2="399.98" y2="414.92"/>
<line class="st1" x1="100.9" y1="413.53" x2="399.98" y2="413.53"/>
<line class="st1" x1="396.37" y1="400" x2="104.06" y2="400"/>
<line class="st0" x1="407.87" y1="398.2" x2="406.48" y2="398.2"/>
<line class="st2" x1="68.39" y1="400.99" x2="74.83" y2="400.99"/>
<line class="st2" x1="432.02" y1="400.99" x2="426.05" y2="400.99"/>
<line class="st0" x1="85.11" y1="397.74" x2="83.72" y2="397.74"/>
<line class="st0" x1="417.16" y1="397.74" x2="415.77" y2="397.74"/>
<line class="st0" x1="416.23" y1="395.42" x2="416.7" y2="395.42"/>
<line class="st0" x1="84.65" y1="395.42" x2="84.18" y2="395.42"/>
<line class="st3" x1="386.97" y1="390.77" x2="113.91" y2="390.77"/>
<line class="st0" x1="84.18" y1="388.91" x2="84.65" y2="388.91"/>
<line class="st0" x1="416.7" y1="388.91" x2="416.23" y2="388.91"/>
<line class="st0" x1="416.23" y1="378.23" x2="416.7" y2="378.23"/>
<line class="st0" x1="84.65" y1="378.23" x2="84.18" y2="378.23"/>
<line class="st0" x1="84.18" y1="371.73" x2="84.65" y2="371.73"/>
<line class="st0" x1="416.7" y1="371.73" x2="416.23" y2="371.73"/>
<line class="st0" x1="416.23" y1="361.05" x2="416.7" y2="361.05"/>
<line class="st0" x1="84.65" y1="361.05" x2="84.18" y2="361.05"/>
<line class="st0" x1="84.18" y1="354.08" x2="84.65" y2="354.08"/>
<line class="st0" x1="416.7" y1="354.08" x2="416.23" y2="354.08"/>
<line class="st0" x1="93.01" y1="398.2" x2="94.4" y2="398.2"/>
<line class="st0" x1="416.23" y1="343.87" x2="416.7" y2="343.87"/>
<line class="st0" x1="84.65" y1="343.87" x2="85.11" y2="343.87"/>
<line class="st0" x1="84.65" y1="342.01" x2="85.11" y2="342.01"/>
<line class="st0" x1="84.65" y1="336.9" x2="85.11" y2="336.9"/>
<line class="st0" x1="416.7" y1="336.9" x2="416.23" y2="336.9"/>
<line class="st0" x1="416.23" y1="326.68" x2="416.7" y2="326.68"/>
<line class="st0" x1="84.65" y1="326.68" x2="85.11" y2="326.68"/>
<line class="st0" x1="85.11" y1="322.04" x2="84.65" y2="322.04"/>
<line class="st0" x1="84.65" y1="319.72" x2="85.11" y2="319.72"/>
<line class="st0" x1="416.7" y1="319.72" x2="416.23" y2="319.72"/>
<line class="st0" x1="416.23" y1="309.5" x2="416.7" y2="309.5"/>
<line class="st0" x1="84.65" y1="309.5" x2="84.18" y2="309.5"/>
<line class="st0" x1="84.18" y1="302.53" x2="84.65" y2="302.53"/>
<line class="st0" x1="416.7" y1="302.53" x2="416.23" y2="302.53"/>
<line class="st1" x1="151.06" y1="301.14" x2="349.82" y2="301.14"/>
<line class="st1" x1="155.88" y1="296.16" x2="343.47" y2="296.16"/>
<line class="st0" x1="348.89" y1="299.28" x2="151.52" y2="299.28"/>
<line class="st0" x1="150.13" y1="298.82" x2="148.74" y2="298.82"/>
<line class="st0" x1="350.75" y1="298.82" x2="352.14" y2="298.82"/>
<line class="st1" x1="150.59" y1="290.89" x2="350.29" y2="290.89"/>
<line class="st0" x1="416.23" y1="292.32" x2="416.7" y2="292.32"/>
<line class="st0" x1="84.65" y1="292.32" x2="84.18" y2="292.32"/>
<line class="st0" x1="84.18" y1="285.35" x2="84.65" y2="285.35"/>
<line class="st0" x1="416.7" y1="285.35" x2="416.23" y2="285.35"/>
<line class="st0" x1="416.23" y1="273.74" x2="416.7" y2="273.74"/>
<line class="st0" x1="84.65" y1="273.74" x2="84.18" y2="273.74"/>
<line class="st2" x1="491" y1="42.01" x2="491" y2="453.93"/>
<line class="st2" x1="490.54" y1="451.61" x2="490.54" y2="44.79"/>
<line class="st2" x1="482.64" y1="451.61" x2="482.64" y2="44.79"/>
<line class="st0" x1="84.18" y1="222.19" x2="84.65" y2="222.19"/>
<line class="st0" x1="416.7" y1="222.19" x2="416.23" y2="222.19"/>
<line class="st0" x1="84.18" y1="211.05" x2="84.65" y2="211.05"/>
<line class="st0" x1="416.7" y1="211.05" x2="416.23" y2="211.05"/>
<line class="st0" x1="416.23" y1="204.08" x2="416.7" y2="204.08"/>
<line class="st0" x1="84.65" y1="204.08" x2="84.18" y2="204.08"/>
<line class="st0" x1="84.18" y1="193.4" x2="84.65" y2="193.4"/>
<line class="st0" x1="416.7" y1="193.4" x2="416.23" y2="193.4"/>
<line class="st0" x1="416.23" y1="186.9" x2="416.7" y2="186.9"/>
<line class="st0" x1="84.65" y1="186.9" x2="84.18" y2="186.9"/>
<line class="st3" x1="452.85" y1="480.4" x2="452.85" y2="488.3"/>
<line class="st3" x1="453.85" y1="16" x2="453.85" y2="8.1"/>
<line class="st2" x1="432.02" y1="94.95" x2="432.02" y2="400.99"/>
<line class="st1" x1="425.05" y1="94.95" x2="425.05" y2="400.99"/>
<line class="st0" x1="84.18" y1="176.22" x2="84.65" y2="176.22"/>
<line class="st0" x1="416.7" y1="176.22" x2="416.23" y2="176.22"/>
<line class="st0" x1="416.23" y1="169.72" x2="416.7" y2="169.72"/>
<line class="st0" x1="84.65" y1="169.72" x2="84.18" y2="169.72"/>
<line class="st0" x1="84.18" y1="159.03" x2="84.65" y2="159.03"/>
<line class="st0" x1="416.7" y1="159.03" x2="416.23" y2="159.03"/>
<line class="st0" x1="416.23" y1="152.53" x2="416.7" y2="152.53"/>
<line class="st0" x1="84.65" y1="152.53" x2="84.18" y2="152.53"/>
<line class="st1" x1="150.59" y1="155.5" x2="350.29" y2="155.5"/>
<line class="st0" x1="350.75" y1="146.03" x2="352.14" y2="146.03"/>
<line class="st0" x1="150.13" y1="146.03" x2="148.74" y2="146.03"/>
<line class="st0" x1="151.52" y1="145.57" x2="348.89" y2="145.57"/>
<line class="st1" x1="343.47" y1="149.77" x2="155.88" y2="149.77"/>
<line class="st1" x1="349.82" y1="143.71" x2="151.06" y2="143.71"/>
<line class="st0" x1="84.18" y1="141.85" x2="84.65" y2="141.85"/>
<line class="st0" x1="416.7" y1="141.85" x2="416.23" y2="141.85"/>
<line class="st0" x1="416.23" y1="134.89" x2="416.7" y2="134.89"/>
<line class="st0" x1="84.65" y1="134.89" x2="84.18" y2="134.89"/>
<line class="st0" x1="84.18" y1="124.67" x2="84.65" y2="124.67"/>
<line class="st0" x1="416.7" y1="124.67" x2="416.23" y2="124.67"/>
<line class="st0" x1="400.44" y1="90.3" x2="400.44" y2="92.16"/>
<line class="st0" x1="417.16" y1="397.74" x2="417.16" y2="98.2"/>
<line class="st0" x1="416.7" y1="273.74" x2="416.7" y2="222.19"/>
<line class="st0" x1="416.23" y1="222.19" x2="416.23" y2="273.74"/>
<line class="st1" x1="415.77" y1="98.2" x2="415.77" y2="397.74"/>
<line class="st1" x1="403.69" y1="66.15" x2="403.69" y2="73.58"/>
<line class="st2" x1="403.69" y1="429.78" x2="403.69" y2="423.82"/>
<line class="st0" x1="399.98" y1="81.48" x2="399.98" y2="82.87"/>
<line class="st0" x1="399.98" y1="414.92" x2="399.98" y2="413.53"/>
<line class="st3" x1="393.01" y1="111.67" x2="393.01" y2="384.73"/>
<line class="st0" x1="400.44" y1="405.63" x2="400.44" y2="404.24"/>
<line class="st0" x1="93.01" y1="97.73" x2="94.4" y2="97.73"/>
<line class="st0" x1="416.23" y1="117.7" x2="416.7" y2="117.7"/>
<line class="st0" x1="84.65" y1="117.7" x2="84.18" y2="117.7"/>
<line class="st0" x1="84.18" y1="107.49" x2="84.65" y2="107.49"/>
<line class="st0" x1="416.7" y1="107.49" x2="416.23" y2="107.49"/>
<line class="st3" x1="113.91" y1="105.63" x2="386.97" y2="105.63"/>
<line class="st0" x1="416.23" y1="100.52" x2="416.7" y2="100.52"/>
<line class="st0" x1="84.65" y1="100.52" x2="84.18" y2="100.52"/>
<line class="st0" x1="415.77" y1="98.2" x2="417.16" y2="98.2"/>
<line class="st0" x1="83.72" y1="98.2" x2="85.11" y2="98.2"/>
<line class="st1" x1="68.39" y1="94.95" x2="75.83" y2="94.95"/>
<line class="st1" x1="432.02" y1="94.95" x2="425.05" y2="94.95"/>
<line class="st1" x1="104.06" y1="96.4" x2="396.37" y2="96.4"/>
<line class="st1" x1="399.98" y1="82.87" x2="100.9" y2="82.87"/>
<line class="st0" x1="399.98" y1="81.48" x2="100.9" y2="81.48"/>
<line class="st1" x1="97.19" y1="73.58" x2="403.69" y2="73.58"/>
<line class="st0" x1="407.87" y1="97.73" x2="406.48" y2="97.73"/>
<line class="st0" x1="490.54" y1="42.47" x2="491" y2="42.01"/>
<line class="st4" x1="97.19" y1="429.78" x2="47.03" y2="480.4"/>
<line class="st1" x1="482.64" y1="44.79" x2="432.02" y2="94.95"/>
<line class="st0" x1="44.25" y1="488.76" x2="44.71" y2="488.3"/>
<line class="st1" x1="352.14" y1="298.82" x2="352.14" y2="146.03"/>
<line class="st1" x1="344.35" y1="295.28" x2="344.35" y2="151.08"/>
<line class="st0" x1="350.29" y1="297.89" x2="350.29" y2="146.5"/>
<line class="st0" x1="349.82" y1="299.75" x2="349.82" y2="301.14"/>
<line class="st0" x1="349.82" y1="144.64" x2="349.82" y2="143.71"/>
<line class="st1" x1="338.89" y1="145.57" x2="338.89" y2="299.28"/>
<line class="st2" x1="97.19" y1="66.15" x2="403.69" y2="66.15"/>
<line class="st3" x1="482.64" y1="45.79" x2="490.54" y2="45.79"/>
<line class="st3" x1="18.24" y1="45.79" x2="10.34" y2="45.79"/>
<line class="st2" x1="453.85" y1="16" x2="47.03" y2="16"/>
<line class="st0" x1="10.34" y1="453.93" x2="9.88" y2="453.93"/>
<line class="st2" x1="18.24" y1="451.61" x2="68.39" y2="400.99"/>
<line class="st1" x1="453.85" y1="16" x2="403.69" y2="66.15"/>
<line class="st0" x1="456.17" y1="8.1" x2="456.63" y2="7.64"/>
<line class="st0" x1="453.85" y1="8.1" x2="47.03" y2="8.1"/>
<line class="st2" x1="44.25" y1="7.64" x2="456.63" y2="7.64"/>
<line class="st1" x1="160.52" y1="145.57" x2="160.52" y2="299.28"/>
<line class="st0" x1="151.06" y1="299.75" x2="151.06" y2="301.14"/>
<line class="st0" x1="151.06" y1="144.64" x2="151.06" y2="143.71"/>
<line class="st0" x1="150.59" y1="297.89" x2="150.59" y2="146.5"/>
<line class="st1" x1="155" y1="151.08" x2="155" y2="295.28"/>
<line class="st1" x1="148.74" y1="146.03" x2="148.74" y2="298.82"/>
<line class="st0" x1="99.97" y1="405.63" x2="99.97" y2="404.24"/>
<line class="st1" x1="107.87" y1="384.73" x2="107.87" y2="111.67"/>
<line class="st0" x1="100.9" y1="81.48" x2="100.9" y2="82.87"/>
<line class="st0" x1="100.9" y1="414.92" x2="100.9" y2="413.53"/>
<line class="st1" x1="97.19" y1="66.15" x2="97.19" y2="73.58"/>
<line class="st2" x1="97.19" y1="429.78" x2="97.19" y2="423.82"/>
<line class="st1" x1="98.64" y1="394.13" x2="98.64" y2="101.82"/>
<line class="st0" x1="99.97" y1="90.3" x2="99.97" y2="92.16"/>
<line class="st1" x1="85.11" y1="397.74" x2="85.11" y2="98.2"/>
<line class="st0" x1="84.65" y1="222.19" x2="84.65" y2="273.74"/>
<line class="st0" x1="84.18" y1="273.74" x2="84.18" y2="222.19"/>
<line class="st0" x1="83.72" y1="98.2" x2="83.72" y2="397.74"/>
<line class="st1" x1="75.83" y1="400.99" x2="75.83" y2="94.95"/>
<line class="st2" x1="68.39" y1="400.99" x2="68.39" y2="94.95"/>
<line class="st3" x1="47.03" y1="480.4" x2="47.03" y2="488.3"/>
<line class="st3" x1="48.03" y1="16" x2="48.03" y2="8.1"/>
<line class="st2" x1="18.24" y1="44.79" x2="18.24" y2="451.61"/>
<line class="st2" x1="10.34" y1="44.79" x2="10.34" y2="451.61"/>
<line class="st2" x1="9.88" y1="453.93" x2="9.88" y2="42.01"/>
<line class="st3" x1="406.48" y1="398.2" x2="393.01" y2="384.73"/>
<line class="st3" x1="113.91" y1="105.63" x2="99.97" y2="92.16"/>
<line class="st0" x1="47.03" y1="16" x2="44.25" y2="16.46"/>
<line class="st0" x1="482.18" y1="454.39" x2="482.64" y2="451.61"/>
<polyline class="st1" points="344.35,151.08 343.91,150.21 343.47,149.77 "/>
<polyline class="st0" points="350.29,146.5 349.82,145.57 348.89,145.57 "/>
<polyline class="st1" points="352.14,146.03 351.22,144.17 349.82,143.71 "/>
<polyline class="st3" points="393.01,111.67 392.08,108.42 389.76,106.56 386.97,105.63 "/>
<line class="st3" x1="386.97" y1="390.77" x2="400.44" y2="404.24"/>
<line class="st3" x1="94.4" y1="97.73" x2="107.87" y2="111.67"/>
<line class="st0" x1="18.7" y1="42.01" x2="18.24" y2="44.79"/>
<line class="st0" x1="453.85" y1="480.4" x2="456.63" y2="479.94"/>
<polyline class="st1" points="155.88,149.77 155,150.21 155,151.08 "/>
<polyline class="st0" points="151.52,145.57 151.06,145.57 150.59,146.5 "/>
<polyline class="st1" points="151.06,143.71 149.66,144.17 148.74,146.03 "/>
<polyline class="st3" points="113.91,105.63 110.66,106.56 108.8,108.42 107.87,111.67 "/>
<line class="st3" x1="99.97" y1="404.24" x2="113.91" y2="390.77"/>
<line class="st3" x1="393.01" y1="111.67" x2="406.48" y2="97.73"/>
<line class="st0" x1="44.25" y1="479.94" x2="47.03" y2="480.4"/>
<line class="st0" x1="482.64" y1="44.79" x2="482.18" y2="42.01"/>
<polygon class="st3" points="159.83,379.99 166.53,378.87 172.68,376.08 177.7,371.06 180.49,365.47 181.61,358.77 180.49,352.07 
	177.7,345.93 172.68,341.47 166.53,338.12 159.83,337 153.13,338.12 147.55,341.47 142.53,345.93 139.74,352.07 138.62,358.77 
	139.74,365.47 142.53,371.06 147.55,376.08 153.13,378.87 "/>
<polygon class="st3" points="220.21,379.99 226.91,378.87 233.05,376.08 237.51,371.06 240.86,365.47 241.98,358.77 240.86,352.07 
	237.51,345.93 233.05,341.47 226.91,338.12 220.21,337 213.51,338.12 207.37,341.47 202.9,345.93 199.55,352.07 198.99,358.77 
	199.55,365.47 202.9,371.06 207.37,376.08 213.51,378.87 "/>
<polygon class="st3" points="220.25,375.91 225.83,374.98 230.47,372.66 234.19,368.94 236.51,363.84 237.44,358.73 236.51,353.15 
	234.19,348.51 230.47,344.8 225.83,342.01 220.25,341.54 215.15,342.01 210.04,344.8 206.32,348.51 204,353.15 203.07,358.73 
	204,363.84 206.32,368.94 210.04,372.66 215.15,374.98 "/>
<polygon class="st3" points="159.88,375.91 165.45,374.98 170.1,372.66 173.81,368.94 176.6,363.84 177.06,358.73 176.6,353.15 
	173.81,348.51 170.1,344.8 165.45,342.01 159.88,341.54 154.77,342.01 150.13,344.8 145.95,348.51 143.63,353.15 142.7,358.73 
	143.63,363.84 145.95,368.94 150.13,372.66 154.77,374.98 "/>
<polygon class="st3" points="159.93,371.38 164.04,371.01 167.77,369.14 170.39,366.15 172.25,362.42 173,358.68 172.25,354.57 
	170.39,350.84 167.77,348.22 164.04,346.36 159.93,345.61 156.19,346.36 152.46,348.22 149.47,350.84 147.6,354.57 147.23,358.68 
	147.6,362.42 149.47,366.15 152.46,369.14 156.19,371.01 "/>
<polygon class="st3" points="220.25,371.06 224.26,370.7 227.54,368.87 230.45,365.96 232.27,362.32 233,358.68 232.27,354.67 
	230.45,351.03 227.54,348.48 224.26,346.66 220.25,345.93 216.25,346.66 212.97,348.48 210.06,351.03 208.24,354.67 207.51,358.68 
	208.24,362.32 210.06,365.96 212.97,368.87 216.25,370.7 "/>
<path class="st3" d="M393.24,91.96l-12.71,12.71 M108.11,385.09L95.4,397.8 M18.52,450.2l0.44,2.63 M150,299v0.44l0.88,0.44
	 M150.44,298.12l0.44,0.88l0.44,0.44 M148.69,299l0.88,1.31l1.31,0.88 M108.11,385.09l0.88,2.63l1.75,2.19l3.07,0.88"/>
<polygon class="st3" points="280.67,379.99 287.37,378.87 292.96,376.08 297.98,371.06 300.77,365.47 301.89,358.77 300.77,352.07 
	297.98,345.93 292.96,341.47 287.37,338.12 280.67,337 273.97,338.12 267.83,341.47 263.37,345.93 260.02,352.07 258.9,358.77 
	260.02,365.47 263.37,371.06 267.83,376.08 273.97,378.87 "/>
<polygon class="st3" points="341.05,379.99 347.19,378.87 353.33,376.08 358.35,371.06 361.14,365.47 362.26,358.77 361.14,352.07 
	358.35,345.93 353.33,341.47 347.19,338.12 341.05,337 334.35,338.12 328.2,341.47 323.18,345.93 320.39,352.07 319.27,358.77 
	320.39,365.47 323.18,371.06 328.2,376.08 334.35,378.87 "/>
<polygon class="st3" points="280.63,375.91 285.73,374.98 290.84,372.66 294.56,368.94 296.88,363.84 297.81,358.73 296.88,353.15 
	294.56,348.51 290.84,344.8 285.73,342.01 280.63,341.54 275.05,342.01 270.41,344.8 266.69,348.51 264.37,353.15 263.44,358.73 
	264.37,363.84 266.69,368.94 270.41,372.66 275.05,374.98 "/>
<polygon class="st3" points="341,375.91 346.11,374.98 350.75,372.66 354.93,368.94 357.25,363.84 358.18,358.73 357.25,353.15 
	354.93,348.51 350.75,344.8 346.11,342.01 341,341.54 335.43,342.01 330.78,344.8 327.07,348.51 324.28,353.15 323.82,358.73 
	324.28,363.84 327.07,368.94 330.78,372.66 335.43,374.98 "/>
<polygon class="st3" points="280.57,370.99 284.56,370.63 287.82,368.82 290.72,365.92 292.53,362.3 292.89,358.68 292.53,354.69 
	290.72,351.07 287.82,348.54 284.56,346.72 280.57,346 276.59,346.72 272.97,348.54 270.43,351.07 268.62,354.69 267.9,358.68 
	268.62,362.3 270.43,365.92 272.97,368.82 276.59,370.63 "/>
<polygon class="st3" points="340.94,370.73 344.49,370.37 348.04,368.6 350.87,365.76 352.29,362.22 353,358.67 352.29,354.77 
	350.87,351.23 348.04,348.74 344.49,346.97 340.94,346.26 337.04,346.97 333.5,348.74 331.01,351.23 329.24,354.77 328.53,358.67 
	329.24,362.22 331.01,365.76 333.5,368.6 337.04,370.37 "/>
<polyline class="st1" points="343.47,296.16 343.91,295.72 344.35,295.28 "/>
<polyline class="st1" points="350.89,299.28 351.82,298.82 352.29,297.89 "/>
<polyline class="st1" points="349.82,301.14 351.22,300.21 352.14,298.82 "/>
<polyline class="st3" points="386.97,390.77 389.76,389.84 392.08,387.52 393.01,384.73 "/>
<polyline class="st1" points="97.19,422.82 88.83,421.42 84.65,420.03 81.4,417.24 78.61,413.53 77.22,409.81 75.83,400.99 "/>
<polyline class="st1" points="425.05,400.99 423.66,409.81 422.27,413.53 419.48,417.24 416.23,420.03 412.05,421.42 403.69,422.82 
	"/>
<polyline class="st1" points="403.69,73.58 412.05,74.51 416.23,76.37 419.48,79.16 422.27,82.41 423.66,86.59 425.05,94.95 "/>
<polyline class="st1" points="75.83,94.95 77.22,86.59 78.61,82.41 81.4,79.16 84.65,76.37 88.83,74.51 97.19,73.58 "/>
<polyline class="st2" points="18.7,454.39 21.49,463.68 27.53,471.11 34.96,476.69 44.25,479.94 "/>
<polyline class="st2" points="97.19,429.78 86.51,426.99 81.86,424.67 77.68,420.96 73.97,416.78 71.18,412.13 68.39,400.99 "/>
<polyline class="st5" points="10.34,453.93 10.81,460.43 12.67,466.93 15.92,472.97 20.56,478.08 25.67,482.72 31.71,485.51 
	37.74,487.83 44.71,488.3 "/>
<line class="st0" x1="453.85" y1="488.3" x2="456.17" y2="488.3"/>
<line class="st0" x1="44.71" y1="488.3" x2="47.03" y2="488.3"/>
<polyline class="st2" points="456.17,488.3 462.67,487.83 469.17,485.51 475.21,482.72 480.32,478.08 484.96,472.97 487.75,466.93 
	490.07,460.43 490.54,453.93 "/>
<line class="st0" x1="490.54" y1="44.79" x2="490.54" y2="42.47"/>
<line class="st0" x1="490.54" y1="453.93" x2="490.54" y2="451.61"/>
<polyline class="st0" points="490.54,42.47 490.07,35.5 487.75,29 484.96,23.43 480.32,17.86 475.21,13.68 469.17,10.43 
	462.67,8.57 456.17,8.1 "/>
<polyline class="st3" points="18.7,454.39 10.34,453.93 10.34,451.61 "/>
<line class="st3" x1="43.25" y1="479.94" x2="43.71" y2="488.3"/>
<line class="st3" x1="456.63" y1="479.94" x2="456.17" y2="488.3"/>
<line class="st3" x1="482.18" y1="454.39" x2="490.54" y2="453.93"/>
<line class="st3" x1="482.18" y1="42.01" x2="490.54" y2="42.47"/>
<line class="st3" x1="457.63" y1="16.46" x2="457.17" y2="8.1"/>
<polyline class="st3" points="44.25,16.46 44.71,8.1 47.03,8.1 "/>
<line class="st3" x1="18.7" y1="42.01" x2="10.34" y2="42.47"/>
<line class="st0" x1="456.17" y1="8.1" x2="453.85" y2="8.1"/>
<polyline class="st0" points="44.71,8.1 37.74,8.57 31.71,10.43 25.67,13.68 20.56,17.86 15.92,23.43 12.67,29 10.81,35.5 
	10.34,42.47 "/>
<line class="st0" x1="10.34" y1="42.47" x2="10.34" y2="44.79"/>
<polyline class="st2" points="44.25,16.46 34.96,19.25 27.53,25.29 21.49,32.72 18.7,42.01 "/>
<polyline class="st2" points="68.39,94.95 71.18,84.27 73.97,79.62 77.68,75.44 81.86,71.73 86.51,68.94 97.19,66.15 "/>
<polyline class="st2" points="456.63,479.94 465.92,476.69 473.35,471.11 478.93,463.68 482.18,454.39 "/>
<polyline class="st2" points="432.02,400.99 429.23,412.13 426.91,416.78 423.2,420.96 419.02,424.67 414.37,426.99 403.69,429.78 
	"/>
<polyline class="st2" points="482.18,42.01 478.93,32.72 473.35,25.29 465.92,19.25 456.63,16.46 "/>
<polyline class="st2" points="403.69,66.15 414.37,68.94 419.02,71.73 423.2,75.44 426.91,79.62 429.23,84.27 432.02,94.95 "/>
<polyline class="st1" points="399.98,413.53 406.48,412.6 412.05,409.81 414.84,404.24 415.77,397.74 "/>
<polyline class="st1" points="415.77,98.2 414.84,91.7 412.05,86.59 406.48,83.8 399.98,82.87 "/>
<polyline class="st1" points="100.9,82.87 94.4,83.34 88.83,86.59 86.04,92.16 85.11,98.2 "/>
<polyline class="st6" points="85.11,397.74 86.04,404.24 88.83,409.81 94.4,412.6 100.9,413.53 "/>
<line class="st0" x1="84.65" y1="322.04" x2="84.65" y2="326.68"/>
<line class="st1" x1="402.24" y1="101.82" x2="402.24" y2="394.13"/>
<polyline class="st1" points="402.24,394.13 402.24,396.84 400.88,398.64 399.08,400 396.37,400 "/>
<line class="st1" x1="99.97" y1="90.3" x2="400.44" y2="90.3"/>
<line class="st0" x1="84.65" y1="336.9" x2="84.65" y2="342.01"/>
<polyline class="st1" points="104.06,400 101.8,400 100,398.64 98.64,396.84 98.64,394.13 "/>
<polyline class="st1" points="98.64,101.82 98.64,99.56 100,97.76 101.8,96.4 104.06,96.4 "/>
<polyline class="st1" points="400.44,90.3 403.69,91.23 406.01,92.63 407.41,94.95 407.87,97.73 "/>
<polyline class="st1" points="396.37,96.4 399.08,96.4 400.88,97.76 402.24,99.56 402.24,101.82 "/>
<line class="st1" x1="407.87" y1="97.73" x2="407.87" y2="398.2"/>
<polyline class="st1" points="407.87,398.2 407.41,401.45 406.01,403.77 403.69,405.17 400.44,405.63 "/>
<line class="st1" x1="400.44" y1="405.63" x2="99.97" y2="405.63"/>
<polyline class="st1" points="99.97,405.63 97.19,405.17 94.87,403.77 93.47,401.45 93.01,398.2 "/>
<line class="st1" x1="93.01" y1="398.2" x2="93.01" y2="97.73"/>
<polyline class="st1" points="93.01,97.73 93.47,94.95 94.87,92.63 97.19,91.23 99.97,90.3 "/>
<polyline class="st0" points="399.98,414.92 406.94,413.99 410.19,412.6 412.98,410.74 414.84,407.95 416.23,404.7 417.16,397.74 
	"/>
<polyline class="st0" points="417.16,98.2 416.23,91.7 414.84,88.45 412.98,85.66 410.19,83.34 406.94,82.41 399.98,81.48 "/>
<polyline class="st0" points="100.9,81.48 93.94,82.41 87.9,85.66 84.65,91.7 83.72,98.2 "/>
<polyline class="st0" points="83.72,397.74 84.65,404.7 85.58,407.95 87.9,410.74 90.69,412.6 93.94,413.99 100.9,414.92 "/>
<polyline class="st2" points="44.25,7.64 37.74,8.57 31.24,10.43 25.21,13.68 20.1,17.86 15.92,22.97 12.67,29 10.81,35.5 
	9.88,42.01 "/>
<polyline class="st2" points="491,42.01 490.07,35.5 488.21,29 484.96,22.97 480.78,17.86 475.67,13.68 469.64,10.43 463.14,8.57 
	456.63,7.64 "/>
<polyline class="st2" points="456.63,488.76 463.14,487.83 469.64,485.97 475.67,482.72 480.78,478.54 484.96,473.43 488.21,467.4 
	490.07,460.9 491,453.93 "/>
<polyline class="st2" points="9.88,453.93 10.81,460.9 12.67,467.4 15.92,473.43 20.1,478.54 25.21,482.72 31.24,485.97 
	37.74,487.83 44.25,488.76 "/>
<polyline class="st0" points="84.65,319.72 84.65,320.18 84.65,320.65 84.65,321.11 84.65,321.58 84.65,322.04 "/>
<polyline class="st0" points="416.7,395.42 416.7,394.95 416.7,394.02 416.7,393.56 416.7,393.09 416.7,392.63 416.7,391.7 
	416.7,391.24 416.7,390.77 416.7,390.31 416.7,389.84 416.7,389.38 416.7,388.91 "/>
<polyline class="st0" points="416.7,378.23 416.7,377.77 416.7,377.3 416.7,376.84 416.7,376.37 416.7,375.91 416.7,375.45 
	416.7,374.52 416.7,374.05 416.7,373.59 416.7,372.66 416.7,372.2 416.7,371.73 "/>
<polyline class="st0" points="84.18,134.89 84.18,135.35 84.18,135.81 84.18,136.28 84.18,137.21 84.18,137.67 84.18,138.14 
	84.18,139.07 84.18,139.53 84.18,139.99 84.18,140.46 84.18,140.92 84.18,141.39 84.18,141.85 "/>
<polyline class="st0" points="416.7,361.05 416.7,360.59 416.7,360.12 416.7,359.66 416.7,359.19 416.7,358.73 416.7,358.26 
	416.7,357.33 416.7,356.87 416.7,356.41 416.7,355.48 416.7,355.01 416.7,354.55 416.7,354.08 "/>
<polyline class="st0" points="84.18,388.91 84.18,389.38 84.18,389.84 84.18,390.31 84.18,390.77 84.18,391.24 84.18,391.7 
	84.18,392.63 84.18,393.09 84.18,393.56 84.18,394.02 84.18,394.95 84.18,395.42 "/>
<polyline class="st0" points="416.7,343.87 416.7,343.4 416.7,342.94 416.7,342.47 416.7,342.01 416.7,341.54 416.7,341.08 
	416.7,340.15 416.7,339.69 416.7,339.22 416.7,338.29 416.7,337.83 416.7,337.37 416.7,336.9 "/>
<polyline class="st0" points="84.18,371.73 84.18,372.2 84.18,372.66 84.18,373.59 84.18,374.05 84.18,374.52 84.18,375.45 
	84.18,375.91 84.18,376.37 84.18,376.84 84.18,377.3 84.18,377.77 84.18,378.23 "/>
<polyline class="st0" points="416.7,326.68 416.7,326.22 416.7,325.76 416.7,325.29 416.7,324.83 416.7,324.36 416.7,323.43 
	416.7,322.97 416.7,322.5 416.7,321.58 416.7,321.11 416.7,320.65 416.7,320.18 416.7,319.72 "/>
<polyline class="st0" points="416.7,309.5 416.7,309.04 416.7,308.57 416.7,308.11 416.7,307.64 416.7,307.18 416.7,306.25 
	416.7,305.79 416.7,305.32 416.7,304.39 416.7,303.93 416.7,303.46 416.7,303 416.7,302.53 "/>
<polyline class="st0" points="84.18,354.08 84.18,354.55 84.18,355.01 84.18,355.48 84.18,356.41 84.18,356.87 84.18,357.33 
	84.18,358.26 84.18,358.73 84.18,359.19 84.18,359.66 84.18,360.12 84.18,360.59 84.18,361.05 "/>
<polyline class="st0" points="416.7,292.32 416.7,291.85 416.7,291.39 416.7,290.92 416.7,290.46 416.7,290 416.7,289.07 
	416.7,288.6 416.7,288.14 416.7,287.21 416.7,286.75 416.7,286.28 416.7,285.82 416.7,285.35 "/>
<polyline class="st0" points="84.18,152.53 84.18,153 84.18,153.46 84.18,154.39 84.18,154.86 84.18,155.32 84.18,156.25 
	84.18,156.71 84.18,157.18 84.18,157.64 84.18,158.11 84.18,158.57 84.18,159.03 "/>
<polyline class="st0" points="416.7,159.03 416.7,158.57 416.7,158.11 416.7,157.64 416.7,157.18 416.7,156.71 416.7,156.25 
	416.7,155.32 416.7,154.86 416.7,154.39 416.7,153.46 416.7,153 416.7,152.53 "/>
<polyline class="st0" points="84.18,169.72 84.18,170.18 84.18,170.64 84.18,171.11 84.18,171.57 84.18,172.04 84.18,172.5 
	84.18,173.43 84.18,173.9 84.18,174.36 84.18,174.82 84.18,175.29 84.18,175.75 84.18,176.22 "/>
<polyline class="st0" points="84.18,186.9 84.18,187.36 84.18,187.83 84.18,188.29 84.18,188.76 84.18,189.22 84.18,189.69 
	84.18,190.61 84.18,191.08 84.18,191.54 84.18,192.47 84.18,192.94 84.18,193.4 "/>
<polyline class="st0" points="416.7,176.22 416.7,175.75 416.7,175.29 416.7,174.82 416.7,174.36 416.7,173.9 416.7,173.43 
	416.7,172.5 416.7,172.04 416.7,171.57 416.7,171.11 416.7,170.64 416.7,170.18 416.7,169.72 "/>
<polyline class="st0" points="84.65,342.01 84.65,342.47 84.65,342.94 84.65,343.4 84.65,343.87 "/>
<polyline class="st0" points="416.7,193.4 416.7,192.94 416.7,192.47 416.7,191.54 416.7,191.08 416.7,190.61 416.7,189.69 
	416.7,189.22 416.7,188.76 416.7,188.29 416.7,187.83 416.7,187.36 416.7,186.9 "/>
<polyline class="st0" points="84.18,204.08 84.18,204.55 84.18,205.01 84.18,205.48 84.18,205.94 84.18,206.4 84.18,206.87 
	84.18,207.8 84.18,208.26 84.18,208.73 84.18,209.65 84.18,210.12 84.18,210.58 84.18,211.05 "/>
<polyline class="st0" points="416.7,211.05 416.7,210.58 416.7,210.12 416.7,209.65 416.7,208.73 416.7,208.26 416.7,207.8 
	416.7,206.87 416.7,206.4 416.7,205.94 416.7,205.48 416.7,205.01 416.7,204.55 416.7,204.08 "/>
<polyline class="st0" points="416.7,107.49 416.7,107.02 416.7,106.56 416.7,106.09 416.7,105.63 416.7,105.16 416.7,104.24 
	416.7,103.77 416.7,103.31 416.7,102.38 416.7,101.91 416.7,101.45 416.7,100.98 416.7,100.52 "/>
<polyline class="st0" points="84.18,100.52 84.18,100.98 84.18,101.45 84.18,101.91 84.18,102.38 84.18,103.31 84.18,103.77 
	84.18,104.24 84.18,105.16 84.18,105.63 84.18,106.09 84.18,106.56 84.18,107.02 84.18,107.49 "/>
<polyline class="st0" points="416.7,124.67 416.7,124.2 416.7,123.74 416.7,123.28 416.7,122.81 416.7,122.35 416.7,121.42 
	416.7,120.95 416.7,120.49 416.7,119.56 416.7,119.1 416.7,118.63 416.7,118.17 416.7,117.7 "/>
<polyline class="st0" points="416.7,141.85 416.7,141.39 416.7,140.92 416.7,140.46 416.7,139.99 416.7,139.53 416.7,139.07 
	416.7,138.14 416.7,137.67 416.7,137.21 416.7,136.28 416.7,135.81 416.7,135.35 416.7,134.89 "/>
<polyline class="st0" points="84.18,323.9 84.18,324.36 84.18,325.29 84.18,325.76 84.18,327.15 84.18,328.54 84.18,329.93 
	84.18,331.33 84.18,332.72 84.18,334.11 84.18,335.51 84.18,336.9 84.18,337.83 84.18,338.76 84.18,339.22 84.18,339.69 
	84.18,340.15 "/>
<polyline class="st0" points="84.18,117.7 84.18,118.17 84.18,118.63 84.18,119.1 84.18,119.56 84.18,120.49 84.18,120.95 
	84.18,121.42 84.18,122.35 84.18,122.81 84.18,123.28 84.18,123.74 84.18,124.2 84.18,124.67 "/>
<polyline class="st0" points="84.18,302.53 84.18,303 84.18,303.46 84.18,303.93 84.18,304.39 84.18,305.32 84.18,305.79 
	84.18,306.25 84.18,307.18 84.18,307.64 84.18,308.11 84.18,308.57 84.18,309.04 84.18,309.5 "/>
<polyline class="st0" points="84.18,285.35 84.18,285.82 84.18,286.28 84.18,286.75 84.18,287.21 84.18,288.14 84.18,288.6 
	84.18,289.07 84.18,290 84.18,290.46 84.18,290.92 84.18,291.39 84.18,291.85 84.18,292.32 "/>
<polyline class="st0" points="84.65,395.42 84.65,394.95 84.65,394.02 85.11,393.56 85.11,393.09 85.11,392.63 85.11,391.7 
	85.11,391.24 85.11,390.77 84.65,390.31 84.65,389.84 84.65,389.38 84.65,388.91 "/>
<polyline class="st0" points="84.65,378.23 84.65,377.77 84.65,377.3 84.65,376.84 85.11,376.37 85.11,375.91 85.11,375.45 
	85.11,374.52 85.11,374.05 85.11,373.59 84.65,372.66 84.65,372.2 84.65,371.73 "/>
<polyline class="st0" points="84.65,361.05 84.65,360.59 84.65,360.12 84.65,359.66 85.11,359.19 85.11,358.73 85.11,358.26 
	85.11,357.33 85.11,356.87 85.11,356.41 84.65,355.48 84.65,355.01 84.65,354.55 84.65,354.08 "/>
<polyline class="st0" points="84.65,309.5 84.65,309.04 84.65,308.57 84.65,308.11 85.11,307.64 85.11,307.18 85.11,306.25 
	85.11,305.79 85.11,305.32 85.11,304.39 84.65,303.93 84.65,303.46 84.65,303 84.65,302.53 "/>
<polyline class="st0" points="84.65,292.32 84.65,291.85 84.65,291.39 84.65,290.92 85.11,290.46 85.11,290 85.11,289.07 
	85.11,288.6 85.11,288.14 85.11,287.21 84.65,286.75 84.65,286.28 84.65,285.82 84.65,285.35 "/>
<polyline class="st0" points="84.65,107.49 84.65,107.02 84.65,106.56 84.65,106.09 85.11,105.63 85.11,105.16 85.11,104.24 
	85.11,103.77 85.11,103.31 85.11,102.38 84.65,101.91 84.65,101.45 84.65,100.98 84.65,100.52 "/>
<polyline class="st0" points="84.65,124.67 84.65,124.2 84.65,123.74 84.65,123.28 85.11,122.81 85.11,122.35 85.11,121.42 
	85.11,120.95 85.11,120.49 85.11,119.56 84.65,119.1 84.65,118.63 84.65,118.17 84.65,117.7 "/>
<polyline class="st0" points="84.65,141.85 84.65,141.39 84.65,140.92 84.65,140.46 85.11,139.99 85.11,139.53 85.11,139.07 
	85.11,138.14 85.11,137.67 85.11,137.21 84.65,136.28 84.65,135.81 84.65,135.35 84.65,134.89 "/>
<polyline class="st0" points="84.65,159.03 84.65,158.57 84.65,158.11 84.65,157.64 85.11,157.18 85.11,156.71 85.11,156.25 
	85.11,155.32 85.11,154.86 85.11,154.39 84.65,153.46 84.65,153 84.65,152.53 "/>
<polyline class="st0" points="84.65,176.22 84.65,175.75 84.65,175.29 84.65,174.82 85.11,174.36 85.11,173.9 85.11,173.43 
	85.11,172.5 85.11,172.04 85.11,171.57 84.65,171.11 84.65,170.64 84.65,170.18 84.65,169.72 "/>
<polyline class="st0" points="84.65,193.4 84.65,192.94 84.65,192.47 85.11,191.54 85.11,191.08 85.11,190.61 85.11,189.69 
	85.11,189.22 85.11,188.76 84.65,188.29 84.65,187.83 84.65,187.36 84.65,186.9 "/>
<polyline class="st0" points="84.65,211.05 84.65,210.58 84.65,210.12 84.65,209.65 85.11,208.73 85.11,208.26 85.11,207.8 
	85.11,206.87 85.11,206.4 85.11,205.94 84.65,205.48 84.65,205.01 84.65,204.55 84.65,204.08 "/>
<polyline class="st0" points="84.65,326.68 84.65,326.22 84.65,325.76 84.65,325.29 85.11,324.83 85.11,324.36 85.11,323.43 
	85.11,322.97 85.11,322.5 85.11,321.58 84.65,321.11 84.65,320.65 84.65,320.18 84.65,319.72 "/>
<polyline class="st0" points="84.65,343.87 84.65,343.4 84.65,342.94 84.65,342.47 85.11,342.01 85.11,341.54 85.11,341.08 
	85.11,340.15 85.11,339.69 85.11,339.22 84.65,338.29 84.65,337.83 84.65,337.37 84.65,336.9 "/>
<polyline class="st0" points="416.23,100.52 416.23,100.98 415.77,100.98 415.77,101.45 415.77,101.91 415.77,102.38 415.77,103.31 
	415.77,103.77 415.77,104.24 415.77,105.16 415.77,105.63 415.77,106.09 415.77,106.56 415.77,107.02 416.23,107.49 "/>
<polyline class="st0" points="416.23,117.7 416.23,118.17 415.77,118.17 415.77,118.63 415.77,119.1 415.77,119.56 415.77,120.49 
	415.77,120.95 415.77,121.42 415.77,122.35 415.77,122.81 415.77,123.28 415.77,123.74 415.77,124.2 416.23,124.67 "/>
<polyline class="st0" points="416.23,134.89 416.23,135.35 415.77,135.81 415.77,136.28 415.77,137.21 415.77,137.67 415.77,138.14 
	415.77,139.07 415.77,139.53 415.77,139.99 415.77,140.46 415.77,140.92 415.77,141.39 416.23,141.85 "/>
<polyline class="st0" points="416.23,152.53 415.77,153 415.77,153.46 415.77,154.39 415.77,154.86 415.77,155.32 415.77,156.25 
	415.77,156.71 415.77,157.18 415.77,157.64 415.77,158.11 415.77,158.57 416.23,159.03 "/>
<polyline class="st0" points="416.23,169.72 415.77,170.18 415.77,170.64 415.77,171.11 415.77,171.57 415.77,172.04 415.77,172.5 
	415.77,173.43 415.77,173.9 415.77,174.36 415.77,174.82 415.77,175.29 415.77,175.75 416.23,176.22 "/>
<polyline class="st0" points="416.23,186.9 415.77,187.36 415.77,187.83 415.77,188.29 415.77,188.76 415.77,189.22 415.77,189.69 
	415.77,190.61 415.77,191.08 415.77,191.54 415.77,192.47 415.77,192.94 416.23,193.4 "/>
<polyline class="st0" points="416.23,204.08 415.77,204.55 415.77,205.01 415.77,205.48 415.77,205.94 415.77,206.4 415.77,206.87 
	415.77,207.8 415.77,208.26 415.77,208.73 415.77,209.65 415.77,210.12 416.23,210.58 416.23,211.05 "/>
<polyline class="st0" points="416.23,388.91 415.77,389.38 415.77,389.84 415.77,390.31 415.77,390.77 415.77,391.24 415.77,391.7 
	415.77,392.63 415.77,393.09 415.77,393.56 415.77,394.02 415.77,394.95 416.23,395.42 "/>
<polyline class="st0" points="416.23,371.73 415.77,372.2 415.77,372.66 415.77,373.59 415.77,374.05 415.77,374.52 415.77,375.45 
	415.77,375.91 415.77,376.37 415.77,376.84 415.77,377.3 415.77,377.77 416.23,378.23 "/>
<polyline class="st0" points="416.23,354.08 416.23,354.55 415.77,355.01 415.77,355.48 415.77,356.41 415.77,356.87 415.77,357.33 
	415.77,358.26 415.77,358.73 415.77,359.19 415.77,359.66 415.77,360.12 415.77,360.59 416.23,361.05 "/>
<polyline class="st0" points="416.23,336.9 416.23,337.37 415.77,337.83 415.77,338.29 415.77,339.22 415.77,339.69 415.77,340.15 
	415.77,341.08 415.77,341.54 415.77,342.01 415.77,342.47 415.77,342.94 415.77,343.4 416.23,343.87 "/>
<polyline class="st0" points="416.23,319.72 416.23,320.18 415.77,320.18 415.77,320.65 415.77,321.11 415.77,321.58 415.77,322.5 
	415.77,322.97 415.77,323.43 415.77,324.36 415.77,324.83 415.77,325.29 415.77,325.76 415.77,326.22 416.23,326.68 "/>
<polyline class="st0" points="416.23,302.53 416.23,303 415.77,303 415.77,303.46 415.77,303.93 415.77,304.39 415.77,305.32 
	415.77,305.79 415.77,306.25 415.77,307.18 415.77,307.64 415.77,308.11 415.77,308.57 415.77,309.04 416.23,309.5 "/>
<polyline class="st0" points="416.23,285.35 416.23,285.82 415.77,285.82 415.77,286.28 415.77,286.75 415.77,287.21 415.77,288.14 
	415.77,288.6 415.77,289.07 415.77,290 415.77,290.46 415.77,290.92 415.77,291.39 415.77,291.85 416.23,292.32 "/>
<polyline class="st0" points="84.18,340.15 84.18,339.69 84.18,339.22 84.18,338.76 84.18,337.83 84.65,336.9 84.65,335.51 
	84.65,334.11 84.65,332.72 84.65,331.33 84.65,329.93 84.65,328.54 84.65,327.15 84.18,325.76 84.18,325.29 84.18,324.36 
	84.18,323.9 "/>
<line class="st0" x1="-447.4" y1="286.24" x2="-447.28" y2="286.36"/>
<line class="st0" x1="-562.6" y1="171.04" x2="-562.72" y2="170.92"/>
<line class="st0" x1="-553.72" y1="162.16" x2="-553.84" y2="162.04"/>
<line class="st0" x1="-560.56" y1="171.64" x2="-547.6" y2="184.6"/>
<line class="st0" x1="-448" y1="284.2" x2="-460.96" y2="271.12"/>
<line class="st0" x1="-553.12" y1="164.2" x2="-540.16" y2="177.16"/>
<line class="st0" x1="-440.56" y1="276.76" x2="-453.64" y2="263.68"/>
<line class="st0" x1="-438.52" y1="277.36" x2="-438.4" y2="277.36"/>
<line class="st0" x1="-447.28" y1="286.36" x2="-553.84" y2="286.36"/>
<line class="st0" x1="-553.12" y1="286.24" x2="-448" y2="286.24"/>
<line class="st0" x1="-553.12" y1="284.2" x2="-448" y2="284.2"/>
<line class="st0" x1="-440.56" y1="276.76" x2="-438.52" y2="276.76"/>
<line class="st0" x1="-560.56" y1="276.76" x2="-562.6" y2="276.76"/>
<line class="st0" x1="-460.96" y1="271.12" x2="-540.16" y2="271.12"/>
<line class="st0" x1="-460.96" y1="269.32" x2="-540.16" y2="269.32"/>
<line class="st0" x1="-539.2" y1="267.28" x2="-461.92" y2="267.28"/>
<line class="st0" x1="-539.2" y1="266.92" x2="-461.92" y2="266.92"/>
<line class="st0" x1="-461.8" y1="264.52" x2="-539.44" y2="264.52"/>
<line class="st0" x1="-459.88" y1="262.96" x2="-460.24" y2="262.96"/>
<line class="st0" x1="-547.6" y1="263.68" x2="-545.68" y2="263.68"/>
<line class="st0" x1="-453.64" y1="263.68" x2="-455.44" y2="263.68"/>
<line class="st0" x1="-543.28" y1="262.84" x2="-543.64" y2="262.84"/>
<line class="st0" x1="-457.48" y1="262.84" x2="-457.84" y2="262.84"/>
<line class="st0" x1="-457.72" y1="262.24" x2="-457.6" y2="262.24"/>
<line class="st0" x1="-543.4" y1="262.24" x2="-543.52" y2="262.24"/>
<line class="st0" x1="-465.28" y1="261.04" x2="-535.84" y2="261.04"/>
<line class="st0" x1="-543.52" y1="260.56" x2="-543.4" y2="260.56"/>
<line class="st0" x1="-457.6" y1="260.56" x2="-457.72" y2="260.56"/>
<line class="st0" x1="-457.72" y1="257.8" x2="-457.6" y2="257.8"/>
<line class="st0" x1="-543.4" y1="257.8" x2="-543.52" y2="257.8"/>
<line class="st0" x1="-543.52" y1="256.12" x2="-543.4" y2="256.12"/>
<line class="st0" x1="-457.6" y1="256.12" x2="-457.72" y2="256.12"/>
<line class="st0" x1="-457.72" y1="253.36" x2="-457.6" y2="253.36"/>
<line class="st0" x1="-543.4" y1="253.36" x2="-543.52" y2="253.36"/>
<line class="st0" x1="-543.52" y1="251.56" x2="-543.4" y2="251.56"/>
<line class="st0" x1="-457.6" y1="251.56" x2="-457.72" y2="251.56"/>
<line class="st0" x1="-541.24" y1="262.96" x2="-540.88" y2="262.96"/>
<line class="st0" x1="-457.72" y1="248.92" x2="-457.6" y2="248.92"/>
<line class="st0" x1="-543.4" y1="248.92" x2="-543.28" y2="248.92"/>
<line class="st0" x1="-543.4" y1="248.44" x2="-543.28" y2="248.44"/>
<line class="st0" x1="-543.4" y1="247.12" x2="-543.28" y2="247.12"/>
<line class="st0" x1="-457.6" y1="247.12" x2="-457.72" y2="247.12"/>
<line class="st0" x1="-457.72" y1="244.48" x2="-457.6" y2="244.48"/>
<line class="st0" x1="-543.4" y1="244.48" x2="-543.28" y2="244.48"/>
<line class="st0" x1="-543.28" y1="243.28" x2="-543.4" y2="243.28"/>
<line class="st0" x1="-543.4" y1="242.68" x2="-543.28" y2="242.68"/>
<line class="st0" x1="-457.6" y1="242.68" x2="-457.72" y2="242.68"/>
<line class="st0" x1="-457.72" y1="240.04" x2="-457.6" y2="240.04"/>
<line class="st0" x1="-543.4" y1="240.04" x2="-543.52" y2="240.04"/>
<line class="st0" x1="-543.52" y1="238.24" x2="-543.4" y2="238.24"/>
<line class="st0" x1="-457.6" y1="238.24" x2="-457.72" y2="238.24"/>
<line class="st0" x1="-526.24" y1="237.88" x2="-474.88" y2="237.88"/>
<line class="st0" x1="-526.24" y1="237.52" x2="-474.88" y2="237.52"/>
<line class="st0" x1="-475.12" y1="237.4" x2="-526.12" y2="237.4"/>
<line class="st0" x1="-526.48" y1="237.28" x2="-526.84" y2="237.28"/>
<line class="st0" x1="-474.64" y1="237.28" x2="-474.28" y2="237.28"/>
<line class="st0" x1="-526.36" y1="237.04" x2="-474.76" y2="237.04"/>
<line class="st0" x1="-457.72" y1="235.6" x2="-457.6" y2="235.6"/>
<line class="st0" x1="-543.4" y1="235.6" x2="-543.52" y2="235.6"/>
<line class="st0" x1="-543.52" y1="233.8" x2="-543.4" y2="233.8"/>
<line class="st0" x1="-457.6" y1="233.8" x2="-457.72" y2="233.8"/>
<line class="st0" x1="-457.72" y1="230.8" x2="-457.6" y2="230.8"/>
<line class="st0" x1="-543.4" y1="230.8" x2="-543.52" y2="230.8"/>
<line class="st0" x1="-438.4" y1="170.92" x2="-438.4" y2="277.36"/>
<line class="st0" x1="-438.52" y1="276.76" x2="-438.52" y2="171.64"/>
<line class="st0" x1="-440.56" y1="276.76" x2="-440.56" y2="171.64"/>
<line class="st0" x1="-543.52" y1="217.48" x2="-543.4" y2="217.48"/>
<line class="st0" x1="-457.6" y1="217.48" x2="-457.72" y2="217.48"/>
<line class="st0" x1="-543.52" y1="214.6" x2="-543.4" y2="214.6"/>
<line class="st0" x1="-457.6" y1="214.6" x2="-457.72" y2="214.6"/>
<line class="st0" x1="-457.72" y1="212.8" x2="-457.6" y2="212.8"/>
<line class="st0" x1="-543.4" y1="212.8" x2="-543.52" y2="212.8"/>
<line class="st0" x1="-543.52" y1="210.04" x2="-543.4" y2="210.04"/>
<line class="st0" x1="-457.6" y1="210.04" x2="-457.72" y2="210.04"/>
<line class="st0" x1="-457.72" y1="208.36" x2="-457.6" y2="208.36"/>
<line class="st0" x1="-543.4" y1="208.36" x2="-543.52" y2="208.36"/>
<line class="st0" x1="-448" y1="284.2" x2="-448" y2="286.24"/>
<line class="st0" x1="-448" y1="164.2" x2="-448" y2="162.16"/>
<line class="st0" x1="-453.64" y1="184.6" x2="-453.64" y2="263.68"/>
<line class="st0" x1="-455.44" y1="184.6" x2="-455.44" y2="263.68"/>
<line class="st0" x1="-543.52" y1="205.6" x2="-543.4" y2="205.6"/>
<line class="st0" x1="-457.6" y1="205.6" x2="-457.72" y2="205.6"/>
<line class="st0" x1="-457.72" y1="203.92" x2="-457.6" y2="203.92"/>
<line class="st0" x1="-543.4" y1="203.92" x2="-543.52" y2="203.92"/>
<line class="st0" x1="-543.52" y1="201.16" x2="-543.4" y2="201.16"/>
<line class="st0" x1="-457.6" y1="201.16" x2="-457.72" y2="201.16"/>
<line class="st0" x1="-457.72" y1="199.48" x2="-457.6" y2="199.48"/>
<line class="st0" x1="-543.4" y1="199.48" x2="-543.52" y2="199.48"/>
<line class="st0" x1="-526.36" y1="197.92" x2="-474.76" y2="197.92"/>
<line class="st0" x1="-474.64" y1="197.8" x2="-474.28" y2="197.8"/>
<line class="st0" x1="-526.48" y1="197.8" x2="-526.84" y2="197.8"/>
<line class="st0" x1="-526.12" y1="197.68" x2="-475.12" y2="197.68"/>
<line class="st0" x1="-474.88" y1="197.44" x2="-526.24" y2="197.44"/>
<line class="st0" x1="-474.88" y1="197.2" x2="-526.24" y2="197.2"/>
<line class="st0" x1="-543.52" y1="196.72" x2="-543.4" y2="196.72"/>
<line class="st0" x1="-457.6" y1="196.72" x2="-457.72" y2="196.72"/>
<line class="st0" x1="-457.72" y1="194.92" x2="-457.6" y2="194.92"/>
<line class="st0" x1="-543.4" y1="194.92" x2="-543.52" y2="194.92"/>
<line class="st0" x1="-543.52" y1="192.28" x2="-543.4" y2="192.28"/>
<line class="st0" x1="-457.6" y1="192.28" x2="-457.72" y2="192.28"/>
<line class="st0" x1="-461.8" y1="183.4" x2="-461.8" y2="183.88"/>
<line class="st0" x1="-457.48" y1="262.84" x2="-457.48" y2="185.44"/>
<line class="st0" x1="-457.6" y1="230.8" x2="-457.6" y2="217.48"/>
<line class="st0" x1="-457.72" y1="217.48" x2="-457.72" y2="230.8"/>
<line class="st0" x1="-457.84" y1="185.44" x2="-457.84" y2="262.84"/>
<line class="st0" x1="-460.96" y1="177.16" x2="-460.96" y2="179.08"/>
<line class="st0" x1="-460.96" y1="271.12" x2="-460.96" y2="269.32"/>
<line class="st0" x1="-461.92" y1="181.12" x2="-461.92" y2="181.48"/>
<line class="st0" x1="-461.92" y1="267.28" x2="-461.92" y2="266.92"/>
<line class="st0" x1="-463.72" y1="188.92" x2="-463.72" y2="259.48"/>
<line class="st0" x1="-461.8" y1="264.88" x2="-461.8" y2="264.52"/>
<line class="st0" x1="-541.24" y1="185.32" x2="-540.88" y2="185.32"/>
<line class="st0" x1="-457.72" y1="190.48" x2="-457.6" y2="190.48"/>
<line class="st0" x1="-543.4" y1="190.48" x2="-543.52" y2="190.48"/>
<line class="st0" x1="-543.52" y1="187.84" x2="-543.4" y2="187.84"/>
<line class="st0" x1="-457.6" y1="187.84" x2="-457.72" y2="187.84"/>
<line class="st0" x1="-535.84" y1="187.36" x2="-465.28" y2="187.36"/>
<line class="st0" x1="-457.72" y1="186.04" x2="-457.6" y2="186.04"/>
<line class="st0" x1="-543.4" y1="186.04" x2="-543.52" y2="186.04"/>
<line class="st0" x1="-457.84" y1="185.44" x2="-457.48" y2="185.44"/>
<line class="st0" x1="-543.64" y1="185.44" x2="-543.28" y2="185.44"/>
<line class="st0" x1="-547.6" y1="184.6" x2="-545.68" y2="184.6"/>
<line class="st0" x1="-453.64" y1="184.6" x2="-455.44" y2="184.6"/>
<line class="st0" x1="-539.44" y1="183.88" x2="-461.8" y2="183.88"/>
<line class="st0" x1="-461.92" y1="181.48" x2="-539.2" y2="181.48"/>
<line class="st0" x1="-461.92" y1="181.12" x2="-539.2" y2="181.12"/>
<line class="st0" x1="-540.16" y1="179.08" x2="-460.96" y2="179.08"/>
<line class="st0" x1="-459.88" y1="185.32" x2="-460.24" y2="185.32"/>
<line class="st0" x1="-438.52" y1="171.04" x2="-438.4" y2="170.92"/>
<line class="st0" x1="-540.16" y1="271.12" x2="-553.12" y2="284.2"/>
<line class="st0" x1="-440.56" y1="171.64" x2="-453.64" y2="184.6"/>
<line class="st0" x1="-553.84" y1="286.36" x2="-553.72" y2="286.24"/>
<line class="st0" x1="-474.28" y1="237.28" x2="-474.28" y2="197.8"/>
<line class="st0" x1="-474.64" y1="237.28" x2="-474.64" y2="197.8"/>
<line class="st0" x1="-474.76" y1="237.04" x2="-474.76" y2="197.92"/>
<line class="st0" x1="-474.88" y1="237.52" x2="-474.88" y2="237.88"/>
<line class="st0" x1="-474.88" y1="197.44" x2="-474.88" y2="197.2"/>
<line class="st0" x1="-475.12" y1="197.68" x2="-475.12" y2="237.4"/>
<line class="st0" x1="-540.16" y1="177.16" x2="-460.96" y2="177.16"/>
<line class="st0" x1="-440.56" y1="171.64" x2="-438.52" y2="171.64"/>
<line class="st0" x1="-560.56" y1="171.64" x2="-562.6" y2="171.64"/>
<line class="st0" x1="-448" y1="164.2" x2="-553.12" y2="164.2"/>
<line class="st0" x1="-562.6" y1="277.36" x2="-562.72" y2="277.36"/>
<line class="st0" x1="-560.56" y1="276.76" x2="-547.6" y2="263.68"/>
<line class="st0" x1="-448" y1="164.2" x2="-460.96" y2="177.16"/>
<line class="st0" x1="-447.4" y1="162.16" x2="-447.28" y2="162.04"/>
<line class="st0" x1="-448" y1="162.16" x2="-553.12" y2="162.16"/>
<line class="st0" x1="-553.84" y1="162.04" x2="-447.28" y2="162.04"/>
<line class="st0" x1="-526.12" y1="197.68" x2="-526.12" y2="237.4"/>
<line class="st0" x1="-526.24" y1="237.52" x2="-526.24" y2="237.88"/>
<line class="st0" x1="-526.24" y1="197.44" x2="-526.24" y2="197.2"/>
<line class="st0" x1="-526.36" y1="237.04" x2="-526.36" y2="197.92"/>
<line class="st0" x1="-526.48" y1="197.8" x2="-526.48" y2="237.28"/>
<line class="st0" x1="-526.84" y1="197.8" x2="-526.84" y2="237.28"/>
<line class="st0" x1="-539.44" y1="264.88" x2="-539.44" y2="264.52"/>
<line class="st0" x1="-537.4" y1="259.48" x2="-537.4" y2="188.92"/>
<line class="st0" x1="-539.2" y1="181.12" x2="-539.2" y2="181.48"/>
<line class="st0" x1="-539.2" y1="267.28" x2="-539.2" y2="266.92"/>
<line class="st0" x1="-540.16" y1="177.16" x2="-540.16" y2="179.08"/>
<line class="st0" x1="-540.16" y1="271.12" x2="-540.16" y2="269.32"/>
<line class="st0" x1="-540.88" y1="262.96" x2="-540.88" y2="185.32"/>
<line class="st0" x1="-539.44" y1="183.4" x2="-539.44" y2="183.88"/>
<line class="st0" x1="-543.28" y1="262.84" x2="-543.28" y2="185.44"/>
<line class="st0" x1="-543.4" y1="217.48" x2="-543.4" y2="230.8"/>
<line class="st0" x1="-543.52" y1="230.8" x2="-543.52" y2="217.48"/>
<line class="st0" x1="-543.64" y1="185.44" x2="-543.64" y2="262.84"/>
<line class="st0" x1="-545.68" y1="263.68" x2="-545.68" y2="184.6"/>
<line class="st0" x1="-547.6" y1="263.68" x2="-547.6" y2="184.6"/>
<line class="st0" x1="-553.12" y1="284.2" x2="-553.12" y2="286.24"/>
<line class="st0" x1="-553.12" y1="164.2" x2="-553.12" y2="162.16"/>
<line class="st0" x1="-560.56" y1="171.64" x2="-560.56" y2="276.76"/>
<line class="st0" x1="-562.6" y1="171.64" x2="-562.6" y2="276.76"/>
<line class="st0" x1="-562.72" y1="277.36" x2="-562.72" y2="170.92"/>
<line class="st0" x1="-460.24" y1="262.96" x2="-463.72" y2="259.48"/>
<line class="st0" x1="-535.84" y1="187.36" x2="-539.44" y2="183.88"/>
<line class="st0" x1="-553.12" y1="164.2" x2="-553.84" y2="164.32"/>
<line class="st0" x1="-440.68" y1="277.48" x2="-440.56" y2="276.76"/>
<polyline class="st0" points="-474.64,197.8 -474.76,197.56 -474.88,197.44 "/>
<polyline class="st0" points="-474.76,197.92 -474.88,197.68 -475.12,197.68 "/>
<polyline class="st0" points="-474.28,197.8 -474.52,197.32 -474.88,197.2 "/>
<polyline class="st0" points="-463.72,188.92 -463.96,188.08 -464.56,187.6 -465.28,187.36 "/>
<line class="st0" x1="-465.28" y1="261.04" x2="-461.8" y2="264.52"/>
<line class="st0" x1="-540.88" y1="185.32" x2="-537.4" y2="188.92"/>
<line class="st0" x1="-560.44" y1="170.92" x2="-560.56" y2="171.64"/>
<line class="st0" x1="-448" y1="284.2" x2="-447.28" y2="284.08"/>
<polyline class="st0" points="-526.24,197.44 -526.48,197.56 -526.48,197.8 "/>
<polyline class="st0" points="-526.12,197.68 -526.24,197.68 -526.36,197.92 "/>
<polyline class="st0" points="-526.24,197.2 -526.6,197.32 -526.84,197.8 "/>
<polyline class="st0" points="-535.84,187.36 -536.68,187.6 -537.16,188.08 -537.4,188.92 "/>
<line class="st0" x1="-539.44" y1="264.52" x2="-535.84" y2="261.04"/>
<line class="st0" x1="-463.72" y1="188.92" x2="-460.24" y2="185.32"/>
<line class="st0" x1="-553.84" y1="284.08" x2="-553.12" y2="284.2"/>
<line class="st0" x1="-440.56" y1="171.64" x2="-440.68" y2="170.92"/>
<polygon class="st0" points="-523.96,257.32 -522.52,257.08 -521.2,256.48 -520.12,255.4 -519.52,254.2 -519.28,252.76 
	-519.52,251.32 -520.12,250 -521.2,249.04 -522.52,248.32 -523.96,248.08 -525.4,248.32 -526.6,249.04 -527.68,250 -528.28,251.32 
	-528.52,252.76 -528.28,254.2 -527.68,255.4 -526.6,256.48 -525.4,257.08 "/>
<polygon class="st0" points="-508.36,257.32 -506.92,257.08 -505.6,256.48 -504.64,255.4 -503.92,254.2 -503.68,252.76 
	-503.92,251.32 -504.64,250 -505.6,249.04 -506.92,248.32 -508.36,248.08 -509.8,248.32 -511.12,249.04 -512.08,250 -512.8,251.32 
	-512.92,252.76 -512.8,254.2 -512.08,255.4 -511.12,256.48 -509.8,257.08 "/>
<polygon class="st0" points="-508.36,257.2 -506.92,256.96 -505.72,256.36 -504.76,255.4 -504.16,254.08 -503.92,252.76 
	-504.16,251.32 -504.76,250.12 -505.72,249.16 -506.92,248.44 -508.36,248.32 -509.68,248.44 -511,249.16 -511.96,250.12 
	-512.56,251.32 -512.8,252.76 -512.56,254.08 -511.96,255.4 -511,256.36 -509.68,256.96 "/>
<polygon class="st0" points="-523.96,257.2 -522.52,256.96 -521.32,256.36 -520.36,255.4 -519.64,254.08 -519.52,252.76 
	-519.64,251.32 -520.36,250.12 -521.32,249.16 -522.52,248.44 -523.96,248.32 -525.28,248.44 -526.48,249.16 -527.56,250.12 
	-528.16,251.32 -528.4,252.76 -528.16,254.08 -527.56,255.4 -526.48,256.36 -525.28,256.96 "/>
<polygon class="st0" points="-523.96,256.84 -522.64,256.72 -521.44,256.12 -520.6,255.16 -520,253.96 -519.76,252.76 -520,251.44 
	-520.6,250.24 -521.44,249.4 -522.64,248.8 -523.96,248.56 -525.16,248.8 -526.36,249.4 -527.32,250.24 -527.92,251.44 
	-528.04,252.76 -527.92,253.96 -527.32,255.16 -526.36,256.12 -525.16,256.72 "/>
<polygon class="st0" points="-508.36,256.84 -507.04,256.72 -505.96,256.12 -505,255.16 -504.4,253.96 -504.16,252.76 
	-504.4,251.44 -505,250.24 -505.96,249.4 -507.04,248.8 -508.36,248.56 -509.68,248.8 -510.76,249.4 -511.72,250.24 -512.32,251.44 
	-512.56,252.76 -512.32,253.96 -511.72,255.16 -510.76,256.12 -509.68,256.72 "/>
<path class="st0" d="M-461.8,183.88l-3.48,3.48 M-537.4,259.48l-3.48,3.48 M-447.28,164.32l-0.72-0.12 M-560.56,276.76l0.12,0.72
	 M-526.48,237.28v0.12l0.24,0.12 M-526.36,237.04l0.12,0.24l0.12,0.12 M-526.84,237.28l0.24,0.36l0.36,0.24 M-537.4,259.48
	l0.24,0.72l0.48,0.6l0.84,0.24"/>
<polygon class="st0" points="-492.76,257.32 -491.32,257.08 -490.12,256.48 -489.04,255.4 -488.44,254.2 -488.2,252.76 
	-488.44,251.32 -489.04,250 -490.12,249.04 -491.32,248.32 -492.76,248.08 -494.2,248.32 -495.52,249.04 -496.48,250 -497.2,251.32 
	-497.44,252.76 -497.2,254.2 -496.48,255.4 -495.52,256.48 -494.2,257.08 "/>
<polygon class="st0" points="-477.16,257.32 -475.84,257.08 -474.52,256.48 -473.44,255.4 -472.84,254.2 -472.6,252.76 
	-472.84,251.32 -473.44,250 -474.52,249.04 -475.84,248.32 -477.16,248.08 -478.6,248.32 -479.92,249.04 -481,250 -481.6,251.32 
	-481.84,252.76 -481.6,254.2 -481,255.4 -479.92,256.48 -478.6,257.08 "/>
<polygon class="st0" points="-492.76,257.2 -491.44,256.96 -490.12,256.36 -489.16,255.4 -488.56,254.08 -488.32,252.76 
	-488.56,251.32 -489.16,250.12 -490.12,249.16 -491.44,248.44 -492.76,248.32 -494.2,248.44 -495.4,249.16 -496.36,250.12 
	-496.96,251.32 -497.2,252.76 -496.96,254.08 -496.36,255.4 -495.4,256.36 -494.2,256.96 "/>
<polygon class="st0" points="-477.16,257.2 -475.84,256.96 -474.64,256.36 -473.56,255.4 -472.96,254.08 -472.72,252.76 
	-472.96,251.32 -473.56,250.12 -474.64,249.16 -475.84,248.44 -477.16,248.32 -478.6,248.44 -479.8,249.16 -480.76,250.12 
	-481.48,251.32 -481.6,252.76 -481.48,254.08 -480.76,255.4 -479.8,256.36 -478.6,256.96 "/>
<polygon class="st0" points="-492.76,256.84 -491.44,256.72 -490.36,256.12 -489.4,255.16 -488.8,253.96 -488.68,252.76 
	-488.8,251.44 -489.4,250.24 -490.36,249.4 -491.44,248.8 -492.76,248.56 -494.08,248.8 -495.28,249.4 -496.12,250.24 
	-496.72,251.44 -496.96,252.76 -496.72,253.96 -496.12,255.16 -495.28,256.12 -494.08,256.72 "/>
<polygon class="st0" points="-477.16,256.84 -475.96,256.72 -474.76,256.12 -473.8,255.16 -473.32,253.96 -473.08,252.76 
	-473.32,251.44 -473.8,250.24 -474.76,249.4 -475.96,248.8 -477.16,248.56 -478.48,248.8 -479.68,249.4 -480.52,250.24 
	-481.12,251.44 -481.36,252.76 -481.12,253.96 -480.52,255.16 -479.68,256.12 -478.48,256.72 "/>
<polyline class="st0" points="-474.88,237.52 -474.76,237.4 -474.64,237.28 "/>
<polyline class="st0" points="-475.12,237.4 -474.88,237.28 -474.76,237.04 "/>
<polyline class="st0" points="-474.88,237.88 -474.52,237.64 -474.28,237.28 "/>
<polyline class="st0" points="-465.28,261.04 -464.56,260.8 -463.96,260.2 -463.72,259.48 "/>
<polyline class="st0" points="-540.16,269.32 -542.32,268.96 -543.4,268.6 -544.24,267.88 -544.96,266.92 -545.32,265.96 
	-545.68,263.68 "/>
<polyline class="st0" points="-455.44,263.68 -455.8,265.96 -456.16,266.92 -456.88,267.88 -457.72,268.6 -458.8,268.96 
	-460.96,269.32 "/>
<polyline class="st0" points="-460.96,179.08 -458.8,179.32 -457.72,179.8 -456.88,180.52 -456.16,181.36 -455.8,182.44 
	-455.44,184.6 "/>
<polyline class="st0" points="-545.68,184.6 -545.32,182.44 -544.96,181.36 -544.24,180.52 -543.4,179.8 -542.32,179.32 
	-540.16,179.08 "/>
<polyline class="st0" points="-560.44,277.48 -559.72,279.88 -558.16,281.8 -556.24,283.24 -553.84,284.08 "/>
<polyline class="st0" points="-540.16,271.12 -542.92,270.4 -544.12,269.8 -545.2,268.84 -546.16,267.76 -546.88,266.56 
	-547.6,263.68 "/>
<polyline class="st0" points="-562.6,277.36 -562.48,279.04 -562,280.72 -561.16,282.28 -559.96,283.6 -558.64,284.8 
	-557.08,285.52 -555.52,286.12 -553.72,286.24 "/>
<line class="st0" x1="-448" y1="286.24" x2="-447.4" y2="286.24"/>
<line class="st0" x1="-553.72" y1="286.24" x2="-553.12" y2="286.24"/>
<polyline class="st0" points="-447.4,286.24 -445.72,286.12 -444.04,285.52 -442.48,284.8 -441.16,283.6 -439.96,282.28 
	-439.24,280.72 -438.64,279.04 -438.52,277.36 "/>
<line class="st0" x1="-438.52" y1="171.64" x2="-438.52" y2="171.04"/>
<line class="st0" x1="-438.52" y1="277.36" x2="-438.52" y2="276.76"/>
<polyline class="st0" points="-438.52,171.04 -438.64,169.24 -439.24,167.56 -439.96,166.12 -441.16,164.68 -442.48,163.6 
	-444.04,162.76 -445.72,162.28 -447.4,162.16 "/>
<polyline class="st0" points="-560.44,277.48 -562.6,277.36 -562.6,276.76 "/>
<line class="st0" x1="-553.84" y1="284.08" x2="-553.72" y2="286.24"/>
<line class="st0" x1="-447.28" y1="284.08" x2="-447.4" y2="286.24"/>
<line class="st0" x1="-440.68" y1="277.48" x2="-438.52" y2="277.36"/>
<line class="st0" x1="-440.68" y1="170.92" x2="-438.52" y2="171.04"/>
<line class="st0" x1="-447.28" y1="164.32" x2="-447.4" y2="162.16"/>
<polyline class="st0" points="-553.84,164.32 -553.72,162.16 -553.12,162.16 "/>
<line class="st0" x1="-560.44" y1="170.92" x2="-562.6" y2="171.04"/>
<line class="st0" x1="-447.4" y1="162.16" x2="-448" y2="162.16"/>
<polyline class="st0" points="-553.72,162.16 -555.52,162.28 -557.08,162.76 -558.64,163.6 -559.96,164.68 -561.16,166.12 
	-562,167.56 -562.48,169.24 -562.6,171.04 "/>
<line class="st0" x1="-562.6" y1="171.04" x2="-562.6" y2="171.64"/>
<polyline class="st0" points="-553.84,164.32 -556.24,165.04 -558.16,166.6 -559.72,168.52 -560.44,170.92 "/>
<polyline class="st0" points="-547.6,184.6 -546.88,181.84 -546.16,180.64 -545.2,179.56 -544.12,178.6 -542.92,177.88 
	-540.16,177.16 "/>
<polyline class="st0" points="-447.28,284.08 -444.88,283.24 -442.96,281.8 -441.52,279.88 -440.68,277.48 "/>
<polyline class="st0" points="-453.64,263.68 -454.36,266.56 -454.96,267.76 -455.92,268.84 -457,269.8 -458.2,270.4 
	-460.96,271.12 "/>
<polyline class="st0" points="-440.68,170.92 -441.52,168.52 -442.96,166.6 -444.88,165.04 -447.28,164.32 "/>
<polyline class="st0" points="-460.96,177.16 -458.2,177.88 -457,178.6 -455.92,179.56 -454.96,180.64 -454.36,181.84 
	-453.64,184.6 "/>
<polyline class="st0" points="-461.92,266.92 -460.24,266.68 -458.8,265.96 -458.08,264.52 -457.84,262.84 "/>
<polyline class="st0" points="-457.84,185.44 -458.08,183.76 -458.8,182.44 -460.24,181.72 -461.92,181.48 "/>
<polyline class="st0" points="-539.2,181.48 -540.88,181.6 -542.32,182.44 -543.04,183.88 -543.28,185.44 "/>
<polyline class="st0" points="-543.28,262.84 -543.04,264.52 -542.32,265.96 -540.88,266.68 -539.2,266.92 "/>
<line class="st0" x1="-543.4" y1="243.28" x2="-543.4" y2="244.48"/>
<line class="st0" x1="-460.24" y1="185.32" x2="-460.24" y2="262.96"/>
<polyline class="st0" points="-460.24,262.96 -460.24,263.68 -460.6,264.16 -461.08,264.52 -461.8,264.52 "/>
<line class="st0" x1="-539.44" y1="183.4" x2="-461.8" y2="183.4"/>
<line class="st0" x1="-543.4" y1="247.12" x2="-543.4" y2="248.44"/>
<polyline class="st0" points="-539.44,264.52 -540.04,264.52 -540.52,264.16 -540.88,263.68 -540.88,262.96 "/>
<polyline class="st0" points="-540.88,185.32 -540.88,184.72 -540.52,184.24 -540.04,183.88 -539.44,183.88 "/>
<polyline class="st0" points="-461.8,183.4 -460.96,183.64 -460.36,184 -460,184.6 -459.88,185.32 "/>
<polyline class="st0" points="-461.8,183.88 -461.08,183.88 -460.6,184.24 -460.24,184.72 -460.24,185.32 "/>
<line class="st0" x1="-459.88" y1="185.32" x2="-459.88" y2="262.96"/>
<polyline class="st0" points="-459.88,262.96 -460,263.8 -460.36,264.4 -460.96,264.76 -461.8,264.88 "/>
<line class="st0" x1="-461.8" y1="264.88" x2="-539.44" y2="264.88"/>
<polyline class="st0" points="-539.44,264.88 -540.16,264.76 -540.76,264.4 -541.12,263.8 -541.24,262.96 "/>
<line class="st0" x1="-541.24" y1="262.96" x2="-541.24" y2="185.32"/>
<polyline class="st0" points="-541.24,185.32 -541.12,184.6 -540.76,184 -540.16,183.64 -539.44,183.4 "/>
<polyline class="st0" points="-461.92,267.28 -460.12,267.04 -459.28,266.68 -458.56,266.2 -458.08,265.48 -457.72,264.64 
	-457.48,262.84 "/>
<polyline class="st0" points="-457.48,185.44 -457.72,183.76 -458.08,182.92 -458.56,182.2 -459.28,181.6 -460.12,181.36 
	-461.92,181.12 "/>
<polyline class="st0" points="-539.2,181.12 -541,181.36 -542.56,182.2 -543.4,183.76 -543.64,185.44 "/>
<polyline class="st0" points="-543.64,262.84 -543.4,264.64 -543.16,265.48 -542.56,266.2 -541.84,266.68 -541,267.04 
	-539.2,267.28 "/>
<polyline class="st0" points="-553.84,162.04 -555.52,162.28 -557.2,162.76 -558.76,163.6 -560.08,164.68 -561.16,166 -562,167.56 
	-562.48,169.24 -562.72,170.92 "/>
<polyline class="st0" points="-438.4,170.92 -438.64,169.24 -439.12,167.56 -439.96,166 -441.04,164.68 -442.36,163.6 
	-443.92,162.76 -445.6,162.28 -447.28,162.04 "/>
<polyline class="st0" points="-447.28,286.36 -445.6,286.12 -443.92,285.64 -442.36,284.8 -441.04,283.72 -439.96,282.4 
	-439.12,280.84 -438.64,279.16 -438.4,277.36 "/>
<polyline class="st0" points="-562.72,277.36 -562.48,279.16 -562,280.84 -561.16,282.4 -560.08,283.72 -558.76,284.8 
	-557.2,285.64 -555.52,286.12 -553.84,286.36 "/>
<polyline class="st0" points="-543.4,242.68 -543.4,242.8 -543.4,242.92 -543.4,243.04 -543.4,243.16 -543.4,243.28 "/>
<polyline class="st0" points="-457.6,262.24 -457.6,262.12 -457.6,261.88 -457.6,261.76 -457.6,261.64 -457.6,261.52 -457.6,261.28 
	-457.6,261.16 -457.6,261.04 -457.6,260.92 -457.6,260.8 -457.6,260.68 -457.6,260.56 "/>
<polyline class="st0" points="-457.6,257.8 -457.6,257.68 -457.6,257.56 -457.6,257.44 -457.6,257.32 -457.6,257.2 -457.6,257.08 
	-457.6,256.84 -457.6,256.72 -457.6,256.6 -457.6,256.36 -457.6,256.24 -457.6,256.12 "/>
<polyline class="st0" points="-543.52,194.92 -543.52,195.04 -543.52,195.16 -543.52,195.28 -543.52,195.52 -543.52,195.64 
	-543.52,195.76 -543.52,196 -543.52,196.12 -543.52,196.24 -543.52,196.36 -543.52,196.48 -543.52,196.6 -543.52,196.72 "/>
<polyline class="st0" points="-457.6,253.36 -457.6,253.24 -457.6,253.12 -457.6,253 -457.6,252.88 -457.6,252.76 -457.6,252.64 
	-457.6,252.4 -457.6,252.28 -457.6,252.16 -457.6,251.92 -457.6,251.8 -457.6,251.68 -457.6,251.56 "/>
<polyline class="st0" points="-543.52,260.56 -543.52,260.68 -543.52,260.8 -543.52,260.92 -543.52,261.04 -543.52,261.16 
	-543.52,261.28 -543.52,261.52 -543.52,261.64 -543.52,261.76 -543.52,261.88 -543.52,262.12 -543.52,262.24 "/>
<polyline class="st0" points="-457.6,248.92 -457.6,248.8 -457.6,248.68 -457.6,248.56 -457.6,248.44 -457.6,248.32 -457.6,248.2 
	-457.6,247.96 -457.6,247.84 -457.6,247.72 -457.6,247.48 -457.6,247.36 -457.6,247.24 -457.6,247.12 "/>
<polyline class="st0" points="-543.52,256.12 -543.52,256.24 -543.52,256.36 -543.52,256.6 -543.52,256.72 -543.52,256.84 
	-543.52,257.08 -543.52,257.2 -543.52,257.32 -543.52,257.44 -543.52,257.56 -543.52,257.68 -543.52,257.8 "/>
<polyline class="st0" points="-457.6,244.48 -457.6,244.36 -457.6,244.24 -457.6,244.12 -457.6,244 -457.6,243.88 -457.6,243.64 
	-457.6,243.52 -457.6,243.4 -457.6,243.16 -457.6,243.04 -457.6,242.92 -457.6,242.8 -457.6,242.68 "/>
<polyline class="st0" points="-457.6,240.04 -457.6,239.92 -457.6,239.8 -457.6,239.68 -457.6,239.56 -457.6,239.44 -457.6,239.2 
	-457.6,239.08 -457.6,238.96 -457.6,238.72 -457.6,238.6 -457.6,238.48 -457.6,238.36 -457.6,238.24 "/>
<polyline class="st0" points="-543.52,251.56 -543.52,251.68 -543.52,251.8 -543.52,251.92 -543.52,252.16 -543.52,252.28 
	-543.52,252.4 -543.52,252.64 -543.52,252.76 -543.52,252.88 -543.52,253 -543.52,253.12 -543.52,253.24 -543.52,253.36 "/>
<polyline class="st0" points="-457.6,235.6 -457.6,235.48 -457.6,235.36 -457.6,235.24 -457.6,235.12 -457.6,235 -457.6,234.76 
	-457.6,234.64 -457.6,234.52 -457.6,234.28 -457.6,234.16 -457.6,234.04 -457.6,233.92 -457.6,233.8 "/>
<polyline class="st0" points="-543.52,199.48 -543.52,199.6 -543.52,199.72 -543.52,199.96 -543.52,200.08 -543.52,200.2 
	-543.52,200.44 -543.52,200.56 -543.52,200.68 -543.52,200.8 -543.52,200.92 -543.52,201.04 -543.52,201.16 "/>
<polyline class="st0" points="-457.6,201.16 -457.6,201.04 -457.6,200.92 -457.6,200.8 -457.6,200.68 -457.6,200.56 -457.6,200.44 
	-457.6,200.2 -457.6,200.08 -457.6,199.96 -457.6,199.72 -457.6,199.6 -457.6,199.48 "/>
<polyline class="st0" points="-543.52,203.92 -543.52,204.04 -543.52,204.16 -543.52,204.28 -543.52,204.4 -543.52,204.52 
	-543.52,204.64 -543.52,204.88 -543.52,205 -543.52,205.12 -543.52,205.24 -543.52,205.36 -543.52,205.48 -543.52,205.6 "/>
<polyline class="st0" points="-543.52,208.36 -543.52,208.48 -543.52,208.6 -543.52,208.72 -543.52,208.84 -543.52,208.96 
	-543.52,209.08 -543.52,209.32 -543.52,209.44 -543.52,209.56 -543.52,209.8 -543.52,209.92 -543.52,210.04 "/>
<polyline class="st0" points="-457.6,205.6 -457.6,205.48 -457.6,205.36 -457.6,205.24 -457.6,205.12 -457.6,205 -457.6,204.88 
	-457.6,204.64 -457.6,204.52 -457.6,204.4 -457.6,204.28 -457.6,204.16 -457.6,204.04 -457.6,203.92 "/>
<polyline class="st0" points="-543.4,248.44 -543.4,248.56 -543.4,248.68 -543.4,248.8 -543.4,248.92 "/>
<polyline class="st0" points="-457.6,210.04 -457.6,209.92 -457.6,209.8 -457.6,209.56 -457.6,209.44 -457.6,209.32 -457.6,209.08 
	-457.6,208.96 -457.6,208.84 -457.6,208.72 -457.6,208.6 -457.6,208.48 -457.6,208.36 "/>
<polyline class="st0" points="-543.52,212.8 -543.52,212.92 -543.52,213.04 -543.52,213.16 -543.52,213.28 -543.52,213.4 
	-543.52,213.52 -543.52,213.76 -543.52,213.88 -543.52,214 -543.52,214.24 -543.52,214.36 -543.52,214.48 -543.52,214.6 "/>
<polyline class="st0" points="-457.6,214.6 -457.6,214.48 -457.6,214.36 -457.6,214.24 -457.6,214 -457.6,213.88 -457.6,213.76 
	-457.6,213.52 -457.6,213.4 -457.6,213.28 -457.6,213.16 -457.6,213.04 -457.6,212.92 -457.6,212.8 "/>
<polyline class="st0" points="-457.6,187.84 -457.6,187.72 -457.6,187.6 -457.6,187.48 -457.6,187.36 -457.6,187.24 -457.6,187 
	-457.6,186.88 -457.6,186.76 -457.6,186.52 -457.6,186.4 -457.6,186.28 -457.6,186.16 -457.6,186.04 "/>
<polyline class="st0" points="-543.52,186.04 -543.52,186.16 -543.52,186.28 -543.52,186.4 -543.52,186.52 -543.52,186.76 
	-543.52,186.88 -543.52,187 -543.52,187.24 -543.52,187.36 -543.52,187.48 -543.52,187.6 -543.52,187.72 -543.52,187.84 "/>
<polyline class="st0" points="-457.6,192.28 -457.6,192.16 -457.6,192.04 -457.6,191.92 -457.6,191.8 -457.6,191.68 -457.6,191.44 
	-457.6,191.32 -457.6,191.2 -457.6,190.96 -457.6,190.84 -457.6,190.72 -457.6,190.6 -457.6,190.48 "/>
<polyline class="st0" points="-457.6,196.72 -457.6,196.6 -457.6,196.48 -457.6,196.36 -457.6,196.24 -457.6,196.12 -457.6,196 
	-457.6,195.76 -457.6,195.64 -457.6,195.52 -457.6,195.28 -457.6,195.16 -457.6,195.04 -457.6,194.92 "/>
<polyline class="st0" points="-543.52,243.76 -543.52,243.88 -543.52,244.12 -543.52,244.24 -543.52,244.6 -543.52,244.96 
	-543.52,245.32 -543.52,245.68 -543.52,246.04 -543.52,246.4 -543.52,246.76 -543.52,247.12 -543.52,247.36 -543.52,247.6 
	-543.52,247.72 -543.52,247.84 -543.52,247.96 "/>
<polyline class="st0" points="-543.52,190.48 -543.52,190.6 -543.52,190.72 -543.52,190.84 -543.52,190.96 -543.52,191.2 
	-543.52,191.32 -543.52,191.44 -543.52,191.68 -543.52,191.8 -543.52,191.92 -543.52,192.04 -543.52,192.16 -543.52,192.28 "/>
<polyline class="st0" points="-543.52,238.24 -543.52,238.36 -543.52,238.48 -543.52,238.6 -543.52,238.72 -543.52,238.96 
	-543.52,239.08 -543.52,239.2 -543.52,239.44 -543.52,239.56 -543.52,239.68 -543.52,239.8 -543.52,239.92 -543.52,240.04 "/>
<polyline class="st0" points="-543.52,233.8 -543.52,233.92 -543.52,234.04 -543.52,234.16 -543.52,234.28 -543.52,234.52 
	-543.52,234.64 -543.52,234.76 -543.52,235 -543.52,235.12 -543.52,235.24 -543.52,235.36 -543.52,235.48 -543.52,235.6 "/>
<polyline class="st0" points="-543.4,262.24 -543.4,262.12 -543.4,261.88 -543.28,261.76 -543.28,261.64 -543.28,261.52 
	-543.28,261.28 -543.28,261.16 -543.28,261.04 -543.4,260.92 -543.4,260.8 -543.4,260.68 -543.4,260.56 "/>
<polyline class="st0" points="-543.4,257.8 -543.4,257.68 -543.4,257.56 -543.4,257.44 -543.28,257.32 -543.28,257.2 
	-543.28,257.08 -543.28,256.84 -543.28,256.72 -543.28,256.6 -543.4,256.36 -543.4,256.24 -543.4,256.12 "/>
<polyline class="st0" points="-543.4,253.36 -543.4,253.24 -543.4,253.12 -543.4,253 -543.28,252.88 -543.28,252.76 -543.28,252.64 
	-543.28,252.4 -543.28,252.28 -543.28,252.16 -543.4,251.92 -543.4,251.8 -543.4,251.68 -543.4,251.56 "/>
<polyline class="st0" points="-543.4,240.04 -543.4,239.92 -543.4,239.8 -543.4,239.68 -543.28,239.56 -543.28,239.44 
	-543.28,239.2 -543.28,239.08 -543.28,238.96 -543.28,238.72 -543.4,238.6 -543.4,238.48 -543.4,238.36 -543.4,238.24 "/>
<polyline class="st0" points="-543.4,235.6 -543.4,235.48 -543.4,235.36 -543.4,235.24 -543.28,235.12 -543.28,235 -543.28,234.76 
	-543.28,234.64 -543.28,234.52 -543.28,234.28 -543.4,234.16 -543.4,234.04 -543.4,233.92 -543.4,233.8 "/>
<polyline class="st0" points="-543.4,187.84 -543.4,187.72 -543.4,187.6 -543.4,187.48 -543.28,187.36 -543.28,187.24 -543.28,187 
	-543.28,186.88 -543.28,186.76 -543.28,186.52 -543.4,186.4 -543.4,186.28 -543.4,186.16 -543.4,186.04 "/>
<polyline class="st0" points="-543.4,192.28 -543.4,192.16 -543.4,192.04 -543.4,191.92 -543.28,191.8 -543.28,191.68 
	-543.28,191.44 -543.28,191.32 -543.28,191.2 -543.28,190.96 -543.4,190.84 -543.4,190.72 -543.4,190.6 -543.4,190.48 "/>
<polyline class="st0" points="-543.4,196.72 -543.4,196.6 -543.4,196.48 -543.4,196.36 -543.28,196.24 -543.28,196.12 -543.28,196 
	-543.28,195.76 -543.28,195.64 -543.28,195.52 -543.4,195.28 -543.4,195.16 -543.4,195.04 -543.4,194.92 "/>
<polyline class="st0" points="-543.4,201.16 -543.4,201.04 -543.4,200.92 -543.4,200.8 -543.28,200.68 -543.28,200.56 
	-543.28,200.44 -543.28,200.2 -543.28,200.08 -543.28,199.96 -543.4,199.72 -543.4,199.6 -543.4,199.48 "/>
<polyline class="st0" points="-543.4,205.6 -543.4,205.48 -543.4,205.36 -543.4,205.24 -543.28,205.12 -543.28,205 -543.28,204.88 
	-543.28,204.64 -543.28,204.52 -543.28,204.4 -543.4,204.28 -543.4,204.16 -543.4,204.04 -543.4,203.92 "/>
<polyline class="st0" points="-543.4,210.04 -543.4,209.92 -543.4,209.8 -543.28,209.56 -543.28,209.44 -543.28,209.32 
	-543.28,209.08 -543.28,208.96 -543.28,208.84 -543.4,208.72 -543.4,208.6 -543.4,208.48 -543.4,208.36 "/>
<polyline class="st0" points="-543.4,214.6 -543.4,214.48 -543.4,214.36 -543.4,214.24 -543.28,214 -543.28,213.88 -543.28,213.76 
	-543.28,213.52 -543.28,213.4 -543.28,213.28 -543.4,213.16 -543.4,213.04 -543.4,212.92 -543.4,212.8 "/>
<polyline class="st0" points="-543.4,244.48 -543.4,244.36 -543.4,244.24 -543.4,244.12 -543.28,244 -543.28,243.88 -543.28,243.64 
	-543.28,243.52 -543.28,243.4 -543.28,243.16 -543.4,243.04 -543.4,242.92 -543.4,242.8 -543.4,242.68 "/>
<polyline class="st0" points="-543.4,248.92 -543.4,248.8 -543.4,248.68 -543.4,248.56 -543.28,248.44 -543.28,248.32 
	-543.28,248.2 -543.28,247.96 -543.28,247.84 -543.28,247.72 -543.4,247.48 -543.4,247.36 -543.4,247.24 -543.4,247.12 "/>
<polyline class="st0" points="-457.72,186.04 -457.72,186.16 -457.84,186.16 -457.84,186.28 -457.84,186.4 -457.84,186.52 
	-457.84,186.76 -457.84,186.88 -457.84,187 -457.84,187.24 -457.84,187.36 -457.84,187.48 -457.84,187.6 -457.84,187.72 
	-457.72,187.84 "/>
<polyline class="st0" points="-457.72,190.48 -457.72,190.6 -457.84,190.6 -457.84,190.72 -457.84,190.84 -457.84,190.96 
	-457.84,191.2 -457.84,191.32 -457.84,191.44 -457.84,191.68 -457.84,191.8 -457.84,191.92 -457.84,192.04 -457.84,192.16 
	-457.72,192.28 "/>
<polyline class="st0" points="-457.72,194.92 -457.72,195.04 -457.84,195.16 -457.84,195.28 -457.84,195.52 -457.84,195.64 
	-457.84,195.76 -457.84,196 -457.84,196.12 -457.84,196.24 -457.84,196.36 -457.84,196.48 -457.84,196.6 -457.72,196.72 "/>
<polyline class="st0" points="-457.72,199.48 -457.84,199.6 -457.84,199.72 -457.84,199.96 -457.84,200.08 -457.84,200.2 
	-457.84,200.44 -457.84,200.56 -457.84,200.68 -457.84,200.8 -457.84,200.92 -457.84,201.04 -457.72,201.16 "/>
<polyline class="st0" points="-457.72,203.92 -457.84,204.04 -457.84,204.16 -457.84,204.28 -457.84,204.4 -457.84,204.52 
	-457.84,204.64 -457.84,204.88 -457.84,205 -457.84,205.12 -457.84,205.24 -457.84,205.36 -457.84,205.48 -457.72,205.6 "/>
<polyline class="st0" points="-457.72,208.36 -457.84,208.48 -457.84,208.6 -457.84,208.72 -457.84,208.84 -457.84,208.96 
	-457.84,209.08 -457.84,209.32 -457.84,209.44 -457.84,209.56 -457.84,209.8 -457.84,209.92 -457.72,210.04 "/>
<polyline class="st0" points="-457.72,212.8 -457.84,212.92 -457.84,213.04 -457.84,213.16 -457.84,213.28 -457.84,213.4 
	-457.84,213.52 -457.84,213.76 -457.84,213.88 -457.84,214 -457.84,214.24 -457.84,214.36 -457.72,214.48 -457.72,214.6 "/>
<polyline class="st0" points="-457.72,260.56 -457.84,260.68 -457.84,260.8 -457.84,260.92 -457.84,261.04 -457.84,261.16 
	-457.84,261.28 -457.84,261.52 -457.84,261.64 -457.84,261.76 -457.84,261.88 -457.84,262.12 -457.72,262.24 "/>
<polyline class="st0" points="-457.72,256.12 -457.84,256.24 -457.84,256.36 -457.84,256.6 -457.84,256.72 -457.84,256.84 
	-457.84,257.08 -457.84,257.2 -457.84,257.32 -457.84,257.44 -457.84,257.56 -457.84,257.68 -457.72,257.8 "/>
<polyline class="st0" points="-457.72,251.56 -457.72,251.68 -457.84,251.8 -457.84,251.92 -457.84,252.16 -457.84,252.28 
	-457.84,252.4 -457.84,252.64 -457.84,252.76 -457.84,252.88 -457.84,253 -457.84,253.12 -457.84,253.24 -457.72,253.36 "/>
<polyline class="st0" points="-457.72,247.12 -457.72,247.24 -457.84,247.36 -457.84,247.48 -457.84,247.72 -457.84,247.84 
	-457.84,247.96 -457.84,248.2 -457.84,248.32 -457.84,248.44 -457.84,248.56 -457.84,248.68 -457.84,248.8 -457.72,248.92 "/>
<polyline class="st0" points="-457.72,242.68 -457.72,242.8 -457.84,242.8 -457.84,242.92 -457.84,243.04 -457.84,243.16 
	-457.84,243.4 -457.84,243.52 -457.84,243.64 -457.84,243.88 -457.84,244 -457.84,244.12 -457.84,244.24 -457.84,244.36 
	-457.72,244.48 "/>
<polyline class="st0" points="-457.72,238.24 -457.72,238.36 -457.84,238.36 -457.84,238.48 -457.84,238.6 -457.84,238.72 
	-457.84,238.96 -457.84,239.08 -457.84,239.2 -457.84,239.44 -457.84,239.56 -457.84,239.68 -457.84,239.8 -457.84,239.92 
	-457.72,240.04 "/>
<polyline class="st0" points="-457.72,233.8 -457.72,233.92 -457.84,233.92 -457.84,234.04 -457.84,234.16 -457.84,234.28 
	-457.84,234.52 -457.84,234.64 -457.84,234.76 -457.84,235 -457.84,235.12 -457.84,235.24 -457.84,235.36 -457.84,235.48 
	-457.72,235.6 "/>
<polyline class="st0" points="-543.52,247.96 -543.52,247.84 -543.52,247.72 -543.52,247.6 -543.52,247.36 -543.4,247.12 
	-543.4,246.76 -543.4,246.4 -543.4,246.04 -543.4,245.68 -543.4,245.32 -543.4,244.96 -543.4,244.6 -543.52,244.24 -543.52,244.12 
	-543.52,243.88 -543.52,243.76 "/>
</svg>
