<?xml version="1.0" encoding="utf-8"?>
<!-- Generator: Adobe Illustrator 23.0.0, SVG Export Plug-In . SVG Version: 6.00 Build 0)  -->
<svg version="1.1" id="图层_1" xmlns="http://www.w3.org/2000/svg" xmlns:xlink="http://www.w3.org/1999/xlink" x="0px" y="0px"
	 viewBox="0 0 75 75" style="enable-background:new 0 0 75 75;" xml:space="preserve">
<style type="text/css">
	.st0{fill:none;stroke:#000000;stroke-width:0.375;stroke-linecap:round;stroke-linejoin:round;stroke-miterlimit:10;}
	.st1{fill:none;stroke:#000000;stroke-width:2;stroke-linecap:round;stroke-linejoin:round;stroke-miterlimit:10;}
	.st2{fill:none;stroke:#000000;stroke-linecap:round;stroke-linejoin:round;stroke-miterlimit:10;}
</style>
<line class="st0" x1="67" y1="71.69" x2="67.06" y2="71.76"/>
<line class="st0" x1="2.95" y1="7.64" x2="2.88" y2="7.58"/>
<line class="st0" x1="7.88" y1="2.71" x2="7.82" y2="2.64"/>
<line class="st1" x1="4.08" y1="7.98" x2="11.29" y2="15.18"/>
<line class="st1" x1="66.66" y1="70.56" x2="59.46" y2="63.29"/>
<line class="st1" x1="8.22" y1="3.84" x2="15.42" y2="11.05"/>
<line class="st1" x1="70.8" y1="66.42" x2="63.53" y2="59.15"/>
<line class="st0" x1="71.93" y1="66.76" x2="72" y2="66.76"/>
<line class="st0" x1="67.06" y1="71.76" x2="7.82" y2="71.76"/>
<line class="st1" x1="8.22" y1="71.69" x2="66.66" y2="71.69"/>
<line class="st1" x1="9.23" y1="69.4" x2="65.65" y2="69.4"/>
<line class="st0" x1="70.8" y1="66.42" x2="71.93" y2="66.42"/>
<line class="st0" x1="4.08" y1="66.42" x2="2.95" y2="66.42"/>
<line class="st1" x1="59.46" y1="64.29" x2="15.42" y2="64.29"/>
<line class="st1" x1="58.68" y1="61.4" x2="16.2" y2="61.4"/>
<line class="st0" x1="15.96" y1="61.15" x2="58.92" y2="61.15"/>
<line class="st0" x1="15.96" y1="60.95" x2="58.92" y2="60.95"/>
<line class="st1" x1="57.98" y1="58.57" x2="16.83" y2="58.57"/>
<line class="st1" x1="11.29" y1="59.15" x2="12.35" y2="59.15"/>
<line class="st1" x1="63.53" y1="59.15" x2="62.53" y2="59.15"/>
<line class="st0" x1="13.69" y1="58.68" x2="13.49" y2="58.68"/>
<line class="st0" x1="61.39" y1="58.68" x2="61.19" y2="58.68"/>
<line class="st0" x1="61.26" y1="58.35" x2="61.33" y2="58.35"/>
<line class="st0" x1="13.62" y1="58.35" x2="13.55" y2="58.35"/>
<line class="st1" x1="55.21" y1="55.77" x2="19.65" y2="55.77"/>
<line class="st0" x1="13.55" y1="57.42" x2="13.62" y2="57.42"/>
<line class="st0" x1="61.33" y1="57.42" x2="61.26" y2="57.42"/>
<line class="st0" x1="61.26" y1="55.88" x2="61.33" y2="55.88"/>
<line class="st0" x1="13.62" y1="55.88" x2="13.55" y2="55.88"/>
<line class="st0" x1="13.55" y1="54.95" x2="13.62" y2="54.95"/>
<line class="st0" x1="61.33" y1="54.95" x2="61.26" y2="54.95"/>
<line class="st0" x1="61.26" y1="53.41" x2="61.33" y2="53.41"/>
<line class="st0" x1="13.62" y1="53.41" x2="13.55" y2="53.41"/>
<line class="st0" x1="13.55" y1="52.41" x2="13.62" y2="52.41"/>
<line class="st0" x1="61.33" y1="52.41" x2="61.26" y2="52.41"/>
<line class="st0" x1="61.26" y1="50.94" x2="61.33" y2="50.94"/>
<line class="st0" x1="13.62" y1="50.94" x2="13.69" y2="50.94"/>
<line class="st0" x1="13.62" y1="50.68" x2="13.69" y2="50.68"/>
<line class="st0" x1="13.62" y1="49.94" x2="13.69" y2="49.94"/>
<line class="st0" x1="61.33" y1="49.94" x2="61.26" y2="49.94"/>
<line class="st0" x1="61.26" y1="48.48" x2="61.33" y2="48.48"/>
<line class="st0" x1="13.62" y1="48.48" x2="13.69" y2="48.48"/>
<line class="st0" x1="13.69" y1="47.81" x2="13.62" y2="47.81"/>
<line class="st0" x1="13.62" y1="47.47" x2="13.69" y2="47.47"/>
<line class="st0" x1="61.33" y1="47.47" x2="61.26" y2="47.47"/>
<line class="st0" x1="61.26" y1="46.01" x2="61.33" y2="46.01"/>
<line class="st0" x1="13.62" y1="46.01" x2="13.55" y2="46.01"/>
<line class="st0" x1="13.55" y1="45.01" x2="13.62" y2="45.01"/>
<line class="st0" x1="61.33" y1="45.01" x2="61.26" y2="45.01"/>
<line class="st0" x1="23.16" y1="44.81" x2="51.72" y2="44.81"/>
<line class="st1" x1="21.96" y1="45.55" x2="52.93" y2="45.55"/>
<line class="st0" x1="51.58" y1="44.54" x2="23.23" y2="44.54"/>
<line class="st0" x1="23.03" y1="44.47" x2="22.83" y2="44.47"/>
<line class="st0" x1="51.85" y1="44.47" x2="52.05" y2="44.47"/>
<line class="st0" x1="23.1" y1="44.34" x2="51.78" y2="44.34"/>
<line class="st0" x1="61.26" y1="43.54" x2="61.33" y2="43.54"/>
<line class="st0" x1="13.62" y1="43.54" x2="13.55" y2="43.54"/>
<line class="st0" x1="13.55" y1="42.54" x2="13.62" y2="42.54"/>
<line class="st0" x1="61.33" y1="42.54" x2="61.26" y2="42.54"/>
<line class="st0" x1="61.26" y1="40.87" x2="61.33" y2="40.87"/>
<line class="st0" x1="13.62" y1="40.87" x2="13.55" y2="40.87"/>
<line class="st0" x1="72" y1="7.58" x2="72" y2="66.76"/>
<line class="st1" x1="71.93" y1="66.42" x2="71.93" y2="7.98"/>
<line class="st1" x1="69.64" y1="65.41" x2="69.64" y2="8.99"/>
<line class="st0" x1="13.55" y1="33.46" x2="13.62" y2="33.46"/>
<line class="st0" x1="61.33" y1="33.46" x2="61.26" y2="33.46"/>
<line class="st0" x1="13.55" y1="31.86" x2="13.62" y2="31.86"/>
<line class="st0" x1="61.33" y1="31.86" x2="61.26" y2="31.86"/>
<line class="st0" x1="61.26" y1="30.86" x2="61.33" y2="30.86"/>
<line class="st0" x1="13.62" y1="30.86" x2="13.55" y2="30.86"/>
<line class="st0" x1="13.55" y1="29.33" x2="13.62" y2="29.33"/>
<line class="st0" x1="61.33" y1="29.33" x2="61.26" y2="29.33"/>
<line class="st0" x1="61.26" y1="28.39" x2="61.33" y2="28.39"/>
<line class="st0" x1="13.62" y1="28.39" x2="13.55" y2="28.39"/>
<line class="st0" x1="66.66" y1="70.56" x2="66.66" y2="71.69"/>
<line class="st0" x1="66.66" y1="3.84" x2="66.66" y2="2.71"/>
<line class="st1" x1="64.53" y1="15.18" x2="64.53" y2="59.15"/>
<line class="st1" x1="61.64" y1="15.96" x2="61.64" y2="58.37"/>
<line class="st0" x1="13.55" y1="26.86" x2="13.62" y2="26.86"/>
<line class="st0" x1="61.33" y1="26.86" x2="61.26" y2="26.86"/>
<line class="st0" x1="61.26" y1="25.92" x2="61.33" y2="25.92"/>
<line class="st0" x1="13.62" y1="25.92" x2="13.55" y2="25.92"/>
<line class="st0" x1="13.55" y1="24.39" x2="13.62" y2="24.39"/>
<line class="st0" x1="61.33" y1="24.39" x2="61.26" y2="24.39"/>
<line class="st0" x1="61.26" y1="23.46" x2="61.33" y2="23.46"/>
<line class="st0" x1="13.62" y1="23.46" x2="13.55" y2="23.46"/>
<line class="st0" x1="23.1" y1="22.59" x2="51.78" y2="22.59"/>
<line class="st0" x1="51.85" y1="22.52" x2="52.05" y2="22.52"/>
<line class="st0" x1="23.03" y1="22.52" x2="22.83" y2="22.52"/>
<line class="st0" x1="23.23" y1="22.46" x2="51.58" y2="22.46"/>
<line class="st1" x1="52.93" y1="21.38" x2="21.96" y2="21.38"/>
<line class="st0" x1="51.72" y1="22.19" x2="23.16" y2="22.19"/>
<line class="st0" x1="13.55" y1="21.92" x2="13.62" y2="21.92"/>
<line class="st0" x1="61.33" y1="21.92" x2="61.26" y2="21.92"/>
<line class="st0" x1="61.26" y1="20.92" x2="61.33" y2="20.92"/>
<line class="st0" x1="13.62" y1="20.92" x2="13.55" y2="20.92"/>
<line class="st0" x1="13.55" y1="19.45" x2="13.62" y2="19.45"/>
<line class="st0" x1="61.33" y1="19.45" x2="61.26" y2="19.45"/>
<line class="st0" x1="61.39" y1="58.68" x2="61.39" y2="15.65"/>
<line class="st0" x1="61.33" y1="40.87" x2="61.33" y2="33.46"/>
<line class="st0" x1="61.26" y1="33.46" x2="61.26" y2="40.87"/>
<line class="st1" x1="59.19" y1="16.65" x2="59.19" y2="57.68"/>
<line class="st1" x1="59.46" y1="11.05" x2="59.46" y2="12.11"/>
<line class="st1" x1="59.46" y1="63.29" x2="59.46" y2="62.29"/>
<line class="st0" x1="58.92" y1="13.25" x2="58.92" y2="13.45"/>
<line class="st0" x1="58.92" y1="61.15" x2="58.92" y2="60.95"/>
<line class="st1" x1="56" y1="19.43" x2="56" y2="54.99"/>
<line class="st0" x1="61.26" y1="18.45" x2="61.33" y2="18.45"/>
<line class="st0" x1="13.62" y1="18.45" x2="13.55" y2="18.45"/>
<line class="st0" x1="13.55" y1="16.98" x2="13.62" y2="16.98"/>
<line class="st0" x1="61.33" y1="16.98" x2="61.26" y2="16.98"/>
<line class="st1" x1="19.65" y1="18.64" x2="55.21" y2="18.64"/>
<line class="st0" x1="61.26" y1="15.98" x2="61.33" y2="15.98"/>
<line class="st0" x1="13.62" y1="15.98" x2="13.55" y2="15.98"/>
<line class="st0" x1="61.19" y1="15.65" x2="61.39" y2="15.65"/>
<line class="st0" x1="13.49" y1="15.65" x2="13.69" y2="15.65"/>
<line class="st1" x1="11.29" y1="15.18" x2="12.35" y2="15.18"/>
<line class="st1" x1="63.53" y1="15.18" x2="62.53" y2="15.18"/>
<line class="st0" x1="58.92" y1="13.45" x2="15.96" y2="13.45"/>
<line class="st0" x1="58.92" y1="13.25" x2="15.96" y2="13.25"/>
<line class="st1" x1="16.2" y1="13" x2="58.68" y2="13"/>
<line class="st1" x1="15.42" y1="63.29" x2="8.22" y2="70.56"/>
<line class="st1" x1="70.8" y1="7.98" x2="63.53" y2="15.18"/>
<line class="st0" x1="7.82" y1="71.76" x2="7.88" y2="71.69"/>
<line class="st0" x1="52.05" y1="44.47" x2="52.05" y2="22.52"/>
<line class="st0" x1="51.85" y1="44.47" x2="51.85" y2="22.52"/>
<line class="st1" x1="53" y1="45.26" x2="53" y2="21.67"/>
<line class="st0" x1="51.72" y1="44.61" x2="51.72" y2="44.81"/>
<line class="st0" x1="51.72" y1="22.32" x2="51.72" y2="22.19"/>
<line class="st0" x1="51.58" y1="22.46" x2="51.58" y2="44.54"/>
<line class="st1" x1="15.42" y1="10.05" x2="59.46" y2="10.05"/>
<line class="st0" x1="70.8" y1="7.98" x2="71.93" y2="7.98"/>
<line class="st0" x1="4.08" y1="7.98" x2="2.95" y2="7.98"/>
<line class="st1" x1="65.65" y1="5" x2="9.23" y2="5"/>
<line class="st0" x1="2.95" y1="66.76" x2="2.88" y2="66.76"/>
<line class="st1" x1="4.08" y1="66.42" x2="11.29" y2="59.15"/>
<line class="st1" x1="66.66" y1="3.84" x2="59.46" y2="11.05"/>
<line class="st0" x1="67" y1="2.71" x2="67.06" y2="2.64"/>
<line class="st0" x1="66.66" y1="2.71" x2="8.22" y2="2.71"/>
<line class="st1" x1="7.82" y1="2.64" x2="67.06" y2="2.64"/>
<line class="st0" x1="23.23" y1="22.46" x2="23.23" y2="44.54"/>
<line class="st0" x1="23.16" y1="44.61" x2="23.16" y2="44.81"/>
<line class="st0" x1="23.16" y1="22.32" x2="23.16" y2="22.19"/>
<line class="st0" x1="23.1" y1="44.34" x2="23.1" y2="22.59"/>
<line class="st1" x1="21.81" y1="21.6" x2="21.81" y2="45.4"/>
<line class="st0" x1="22.83" y1="22.52" x2="22.83" y2="44.47"/>
<line class="st1" x1="18.87" y1="54.99" x2="18.87" y2="19.43"/>
<line class="st0" x1="15.96" y1="13.25" x2="15.96" y2="13.45"/>
<line class="st0" x1="15.96" y1="61.15" x2="15.96" y2="60.95"/>
<line class="st1" x1="15.42" y1="11.05" x2="15.42" y2="12.11"/>
<line class="st1" x1="15.42" y1="63.29" x2="15.42" y2="62.29"/>
<line class="st1" x1="16.07" y1="57.74" x2="16.07" y2="16.59"/>
<line class="st0" x1="13.69" y1="58.68" x2="13.69" y2="15.65"/>
<line class="st0" x1="13.62" y1="33.46" x2="13.62" y2="40.87"/>
<line class="st0" x1="13.55" y1="40.87" x2="13.55" y2="33.46"/>
<line class="st0" x1="13.49" y1="15.65" x2="13.49" y2="58.68"/>
<line class="st1" x1="13.24" y1="58.37" x2="13.24" y2="15.96"/>
<line class="st1" x1="10.29" y1="59.15" x2="10.29" y2="15.18"/>
<line class="st0" x1="8.22" y1="70.56" x2="8.22" y2="71.69"/>
<line class="st0" x1="8.22" y1="3.84" x2="8.22" y2="2.71"/>
<line class="st1" x1="5.24" y1="8.99" x2="5.24" y2="65.41"/>
<line class="st0" x1="2.95" y1="7.98" x2="2.95" y2="66.42"/>
<line class="st1" x1="2.88" y1="66.76" x2="2.88" y2="7.58"/>
<line class="st0" x1="8.22" y1="3.84" x2="7.82" y2="3.91"/>
<line class="st0" x1="70.73" y1="66.82" x2="70.8" y2="66.42"/>
<polyline class="st0" points="51.85,22.52 51.78,22.39 51.72,22.32 "/>
<polyline class="st0" points="51.78,22.59 51.72,22.46 51.58,22.46 "/>
<polyline class="st0" points="52.05,22.52 51.92,22.26 51.72,22.19 "/>
<polyline class="st1" points="56,19.43 55.88,19 55.58,18.76 55.21,18.64 "/>
<line class="st0" x1="4.15" y1="7.58" x2="4.08" y2="7.98"/>
<line class="st0" x1="66.66" y1="70.56" x2="67.06" y2="70.49"/>
<polyline class="st0" points="23.16,22.32 23.03,22.39 23.03,22.52 "/>
<polyline class="st0" points="23.23,22.46 23.16,22.46 23.1,22.59 "/>
<polyline class="st0" points="23.16,22.19 22.96,22.26 22.83,22.52 "/>
<polyline class="st1" points="19.65,18.64 19.23,18.76 18.99,19 18.87,19.43 "/>
<line class="st0" x1="7.82" y1="70.49" x2="8.22" y2="70.56"/>
<line class="st0" x1="70.8" y1="7.98" x2="70.73" y2="7.58"/>
<polygon class="st2" points="24.43,53.61 25.23,53.48 25.96,53.15 26.56,52.55 26.9,51.88 27.03,51.08 26.9,50.28 26.56,49.54 
	25.96,49.01 25.23,48.61 24.43,48.48 23.63,48.61 22.96,49.01 22.36,49.54 22.03,50.28 21.89,51.08 22.03,51.88 22.36,52.55 
	22.96,53.15 23.63,53.48 "/>
<polygon class="st2" points="33.1,53.61 33.9,53.48 34.64,53.15 35.17,52.55 35.57,51.88 35.71,51.08 35.57,50.28 35.17,49.54 
	34.64,49.01 33.9,48.61 33.1,48.48 32.3,48.61 31.57,49.01 31.04,49.54 30.63,50.28 30.57,51.08 30.63,51.88 31.04,52.55 
	31.57,53.15 32.3,53.48 "/>
<polygon class="st2" points="33.1,53.55 33.9,53.41 34.57,53.08 35.1,52.55 35.44,51.81 35.57,51.08 35.44,50.28 35.1,49.61 
	34.57,49.08 33.9,48.68 33.1,48.61 32.37,48.68 31.64,49.08 31.1,49.61 30.77,50.28 30.63,51.08 30.77,51.81 31.1,52.55 
	31.64,53.08 32.37,53.41 "/>
<polygon class="st2" points="24.43,53.55 25.23,53.41 25.9,53.08 26.43,52.55 26.83,51.81 26.9,51.08 26.83,50.28 26.43,49.61 
	25.9,49.08 25.23,48.68 24.43,48.61 23.7,48.68 23.03,49.08 22.43,49.61 22.09,50.28 21.96,51.08 22.09,51.81 22.43,52.55 
	23.03,53.08 23.7,53.41 "/>
<polygon class="st2" points="24.43,53.35 25.16,53.28 25.83,52.95 26.3,52.41 26.63,51.75 26.77,51.08 26.63,50.35 26.3,49.68 
	25.83,49.21 25.16,48.88 24.43,48.74 23.76,48.88 23.1,49.21 22.56,49.68 22.23,50.35 22.16,51.08 22.23,51.75 22.56,52.41 
	23.1,52.95 23.76,53.28 "/>
<polygon class="st2" points="33.1,53.35 33.84,53.28 34.44,52.95 34.97,52.41 35.31,51.75 35.44,51.08 35.31,50.35 34.97,49.68 
	34.44,49.21 33.84,48.88 33.1,48.74 32.37,48.88 31.77,49.21 31.24,49.68 30.9,50.35 30.77,51.08 30.9,51.75 31.24,52.41 
	31.77,52.95 32.37,53.28 "/>
<polygon class="st2" points="41.78,53.61 42.58,53.48 43.24,53.15 43.84,52.55 44.18,51.88 44.31,51.08 44.18,50.28 43.84,49.54 
	43.24,49.01 42.58,48.61 41.78,48.48 40.98,48.61 40.24,49.01 39.71,49.54 39.31,50.28 39.17,51.08 39.31,51.88 39.71,52.55 
	40.24,53.15 40.98,53.48 "/>
<polygon class="st2" points="50.45,53.61 51.18,53.48 51.92,53.15 52.52,52.55 52.85,51.88 52.99,51.08 52.85,50.28 52.52,49.54 
	51.92,49.01 51.18,48.61 50.45,48.48 49.65,48.61 48.92,49.01 48.32,49.54 47.98,50.28 47.85,51.08 47.98,51.88 48.32,52.55 
	48.92,53.15 49.65,53.48 "/>
<polygon class="st2" points="41.78,53.55 42.51,53.41 43.24,53.08 43.78,52.55 44.11,51.81 44.25,51.08 44.11,50.28 43.78,49.61 
	43.24,49.08 42.51,48.68 41.78,48.61 40.98,48.68 40.31,49.08 39.78,49.61 39.44,50.28 39.31,51.08 39.44,51.81 39.78,52.55 
	40.31,53.08 40.98,53.41 "/>
<polygon class="st0" points="50.45,53.55 51.18,53.41 51.85,53.08 52.45,52.55 52.79,51.81 52.92,51.08 52.79,50.28 52.45,49.61 
	51.85,49.08 51.18,48.68 50.45,48.61 49.65,48.68 48.98,49.08 48.45,49.61 48.05,50.28 47.98,51.08 48.05,51.81 48.45,52.55 
	48.98,53.08 49.65,53.41 "/>
<polygon class="st2" points="41.78,53.35 42.51,53.28 43.11,52.95 43.64,52.41 43.98,51.75 44.05,51.08 43.98,50.35 43.64,49.68 
	43.11,49.21 42.51,48.88 41.78,48.74 41.04,48.88 40.38,49.21 39.91,49.68 39.57,50.35 39.44,51.08 39.57,51.75 39.91,52.41 
	40.38,52.95 41.04,53.28 "/>
<polygon class="st2" points="50.45,53.35 51.12,53.28 51.78,52.95 52.32,52.41 52.59,51.75 52.72,51.08 52.59,50.35 52.32,49.68 
	51.78,49.21 51.12,48.88 50.45,48.74 49.72,48.88 49.05,49.21 48.58,49.68 48.25,50.35 48.11,51.08 48.25,51.75 48.58,52.41 
	49.05,52.95 49.72,53.28 "/>
<polyline class="st0" points="51.72,44.61 51.78,44.54 51.85,44.47 "/>
<polyline class="st0" points="51.58,44.54 51.72,44.47 51.78,44.34 "/>
<polyline class="st0" points="51.72,44.81 51.92,44.67 52.05,44.47 "/>
<polyline class="st1" points="55.21,55.77 55.58,55.65 55.88,55.35 56,54.99 "/>
<polyline class="st1" points="16.2,61.4 15.04,61.21 14.46,61.01 14.01,60.63 13.63,60.11 13.43,59.6 13.24,58.37 "/>
<polyline class="st1" points="61.64,58.37 61.45,59.6 61.25,60.11 60.87,60.63 60.42,61.01 59.84,61.21 58.68,61.4 "/>
<polyline class="st1" points="58.68,13 59.84,13.13 60.42,13.39 60.87,13.77 61.25,14.22 61.45,14.8 61.64,15.96 "/>
<polyline class="st1" points="13.24,15.96 13.43,14.8 13.63,14.22 14.01,13.77 14.46,13.39 15.04,13.13 16.2,13 "/>
<polyline class="st1" points="5.3,65.79 5.69,67.08 6.53,68.11 7.56,68.88 8.85,69.34 "/>
<polyline class="st1" points="14.42,64.29 12.89,63.89 12.22,63.55 11.62,63.02 11.09,62.42 10.69,61.75 10.29,60.15 "/>
<polyline class="st0" points="2.95,66.76 3.01,67.69 3.28,68.62 3.75,69.49 4.41,70.23 5.15,70.89 6.02,71.29 6.88,71.63 
	7.88,71.69 "/>
<line class="st0" x1="66.66" y1="71.69" x2="67" y2="71.69"/>
<line class="st0" x1="7.88" y1="71.69" x2="8.22" y2="71.69"/>
<polyline class="st0" points="67,71.69 67.93,71.63 68.86,71.29 69.73,70.89 70.47,70.23 71.13,69.49 71.53,68.62 71.87,67.69 
	71.93,66.76 "/>
<line class="st0" x1="71.93" y1="7.98" x2="71.93" y2="7.64"/>
<line class="st0" x1="71.93" y1="66.76" x2="71.93" y2="66.42"/>
<polyline class="st0" points="71.93,7.64 71.87,6.64 71.53,5.71 71.13,4.91 70.47,4.11 69.73,3.51 68.86,3.04 67.93,2.77 67,2.71 
	"/>
<line class="st0" x1="7.82" y1="70.49" x2="7.88" y2="71.69"/>
<line class="st0" x1="67.06" y1="70.49" x2="67" y2="71.69"/>
<line class="st0" x1="70.73" y1="66.82" x2="71.93" y2="66.76"/>
<line class="st0" x1="70.73" y1="7.58" x2="71.93" y2="7.64"/>
<line class="st0" x1="67.06" y1="3.91" x2="67" y2="2.71"/>
<polyline class="st0" points="7.82,3.91 7.88,2.71 8.22,2.71 "/>
<line class="st0" x1="4.15" y1="7.58" x2="2.95" y2="7.64"/>
<line class="st0" x1="67" y1="2.71" x2="66.66" y2="2.71"/>
<polyline class="st0" points="7.88,2.71 6.88,2.77 6.02,3.04 5.15,3.51 4.41,4.11 3.75,4.91 3.28,5.71 3.01,6.64 2.95,7.64 "/>
<line class="st0" x1="2.95" y1="7.64" x2="2.95" y2="7.98"/>
<polyline class="st1" points="8.85,5.06 7.56,5.45 6.53,6.29 5.69,7.32 5.3,8.61 "/>
<polyline class="st1" points="10.29,14.18 10.69,12.65 11.09,11.98 11.62,11.38 12.22,10.85 12.89,10.45 14.42,10.05 "/>
<polyline class="st1" points="66.03,69.34 67.32,68.88 68.35,68.11 69.12,67.08 69.58,65.79 "/>
<polyline class="st1" points="64.53,60.15 64.13,61.75 63.79,62.42 63.26,63.02 62.66,63.55 61.99,63.89 60.46,64.29 "/>
<polyline class="st1" points="69.58,8.61 69.12,7.32 68.35,6.29 67.32,5.45 66.03,5.06 "/>
<polyline class="st1" points="60.46,10.05 61.99,10.45 62.66,10.85 63.26,11.38 63.79,11.98 64.13,12.65 64.53,14.18 "/>
<polyline class="st0" points="58.92,60.95 59.86,60.82 60.66,60.42 61.06,59.62 61.19,58.68 "/>
<polyline class="st0" points="61.19,15.65 61.06,14.72 60.66,13.98 59.86,13.58 58.92,13.45 "/>
<polyline class="st0" points="15.96,13.45 15.02,13.52 14.22,13.98 13.82,14.78 13.69,15.65 "/>
<polyline class="st0" points="13.69,58.68 13.82,59.62 14.22,60.42 15.02,60.82 15.96,60.95 "/>
<line class="st0" x1="13.62" y1="47.81" x2="13.62" y2="48.48"/>
<line class="st1" x1="16.82" y1="15.68" x2="59" y2="15.68"/>
<line class="st0" x1="13.62" y1="49.94" x2="13.62" y2="50.68"/>
<polyline class="st1" points="16.83,58.57 16.52,58.57 16.26,58.38 16.07,58.12 16.07,57.74 "/>
<polyline class="st1" points="59,57.74 58.94,58.19 58.75,58.5 58.43,58.69 57.98,58.76 "/>
<line class="st1" x1="57.98" y1="58.76" x2="16.83" y2="58.76"/>
<polyline class="st1" points="19.65,55.89 19.29,55.83 18.99,55.65 18.81,55.35 18.75,54.93 "/>
<line class="st1" x1="15.88" y1="57.74" x2="15.88" y2="16.59"/>
<polyline class="st1" points="15.88,16.59 15.94,16.21 16.13,15.89 16.45,15.7 16.83,15.57 "/>
<polyline class="st0" points="58.92,61.15 59.92,61.02 60.39,60.82 60.79,60.55 61.06,60.15 61.26,59.68 61.39,58.68 "/>
<polyline class="st0" points="61.39,15.65 61.26,14.72 61.06,14.25 60.79,13.85 60.39,13.52 59.92,13.38 58.92,13.25 "/>
<polyline class="st0" points="15.96,13.25 14.96,13.38 14.09,13.85 13.62,14.72 13.49,15.65 "/>
<polyline class="st0" points="13.49,58.68 13.62,59.68 13.76,60.15 14.09,60.55 14.49,60.82 14.96,61.02 15.96,61.15 "/>
<polyline class="st1" points="7.82,2.64 6.88,2.77 5.95,3.04 5.08,3.51 4.35,4.11 3.75,4.84 3.28,5.71 3.01,6.64 2.88,7.58 "/>
<polyline class="st1" points="72,7.58 71.87,6.64 71.6,5.71 71.13,4.84 70.53,4.11 69.8,3.51 68.93,3.04 68,2.77 67.06,2.64 "/>
<polyline class="st1" points="67.06,71.76 68,71.63 68.93,71.36 69.8,70.89 70.53,70.29 71.13,69.56 71.6,68.69 71.87,67.76 
	72,66.76 "/>
<polyline class="st1" points="2.88,66.76 3.01,67.76 3.28,68.69 3.75,69.56 4.35,70.29 5.08,70.89 5.95,71.36 6.88,71.63 
	7.82,71.76 "/>
<polyline class="st0" points="13.62,47.47 13.62,47.54 13.62,47.61 13.62,47.67 13.62,47.74 13.62,47.81 "/>
<polyline class="st0" points="61.33,58.35 61.33,58.28 61.33,58.15 61.33,58.08 61.33,58.02 61.33,57.95 61.33,57.82 61.33,57.75 
	61.33,57.68 61.33,57.62 61.33,57.55 61.33,57.48 61.33,57.42 "/>
<polyline class="st0" points="61.33,55.88 61.33,55.81 61.33,55.75 61.33,55.68 61.33,55.61 61.33,55.55 61.33,55.48 61.33,55.35 
	61.33,55.28 61.33,55.21 61.33,55.08 61.33,55.01 61.33,54.95 "/>
<polyline class="st0" points="13.55,20.92 13.55,20.99 13.55,21.05 13.55,21.12 13.55,21.25 13.55,21.32 13.55,21.39 13.55,21.52 
	13.55,21.59 13.55,21.65 13.55,21.72 13.55,21.79 13.55,21.85 13.55,21.92 "/>
<polyline class="st0" points="61.33,53.41 61.33,53.35 61.33,53.28 61.33,53.21 61.33,53.15 61.33,53.08 61.33,53.01 61.33,52.88 
	61.33,52.81 61.33,52.75 61.33,52.61 61.33,52.55 61.33,52.48 61.33,52.41 "/>
<polyline class="st0" points="13.55,57.42 13.55,57.48 13.55,57.55 13.55,57.62 13.55,57.68 13.55,57.75 13.55,57.82 13.55,57.95 
	13.55,58.02 13.55,58.08 13.55,58.15 13.55,58.28 13.55,58.35 "/>
<polyline class="st0" points="61.33,50.94 61.33,50.88 61.33,50.81 61.33,50.74 61.33,50.68 61.33,50.61 61.33,50.54 61.33,50.41 
	61.33,50.34 61.33,50.28 61.33,50.14 61.33,50.08 61.33,50.01 61.33,49.94 "/>
<polyline class="st0" points="13.55,54.95 13.55,55.01 13.55,55.08 13.55,55.21 13.55,55.28 13.55,55.35 13.55,55.48 13.55,55.55 
	13.55,55.61 13.55,55.68 13.55,55.75 13.55,55.81 13.55,55.88 "/>
<polyline class="st0" points="61.33,48.48 61.33,48.41 61.33,48.34 61.33,48.28 61.33,48.21 61.33,48.14 61.33,48.01 61.33,47.94 
	61.33,47.87 61.33,47.74 61.33,47.67 61.33,47.61 61.33,47.54 61.33,47.47 "/>
<polyline class="st0" points="61.33,46.01 61.33,45.94 61.33,45.87 61.33,45.81 61.33,45.74 61.33,45.67 61.33,45.54 61.33,45.47 
	61.33,45.41 61.33,45.27 61.33,45.21 61.33,45.14 61.33,45.07 61.33,45.01 "/>
<polyline class="st0" points="13.55,52.41 13.55,52.48 13.55,52.55 13.55,52.61 13.55,52.75 13.55,52.81 13.55,52.88 13.55,53.01 
	13.55,53.08 13.55,53.15 13.55,53.21 13.55,53.28 13.55,53.35 13.55,53.41 "/>
<polyline class="st0" points="61.33,43.54 61.33,43.47 61.33,43.4 61.33,43.34 61.33,43.27 61.33,43.2 61.33,43.07 61.33,43 
	61.33,42.94 61.33,42.8 61.33,42.74 61.33,42.67 61.33,42.6 61.33,42.54 "/>
<polyline class="st0" points="13.55,23.46 13.55,23.52 13.55,23.59 13.55,23.72 13.55,23.79 13.55,23.86 13.55,23.99 13.55,24.06 
	13.55,24.12 13.55,24.19 13.55,24.26 13.55,24.32 13.55,24.39 "/>
<polyline class="st0" points="61.33,24.39 61.33,24.32 61.33,24.26 61.33,24.19 61.33,24.12 61.33,24.06 61.33,23.99 61.33,23.86 
	61.33,23.79 61.33,23.72 61.33,23.59 61.33,23.52 61.33,23.46 "/>
<polyline class="st0" points="13.55,25.92 13.55,25.99 13.55,26.06 13.55,26.12 13.55,26.19 13.55,26.26 13.55,26.32 13.55,26.46 
	13.55,26.53 13.55,26.59 13.55,26.66 13.55,26.73 13.55,26.79 13.55,26.86 "/>
<polyline class="st0" points="13.55,28.39 13.55,28.46 13.55,28.53 13.55,28.59 13.55,28.66 13.55,28.73 13.55,28.79 13.55,28.93 
	13.55,28.99 13.55,29.06 13.55,29.19 13.55,29.26 13.55,29.33 "/>
<polyline class="st0" points="61.33,26.86 61.33,26.79 61.33,26.73 61.33,26.66 61.33,26.59 61.33,26.53 61.33,26.46 61.33,26.32 
	61.33,26.26 61.33,26.19 61.33,26.12 61.33,26.06 61.33,25.99 61.33,25.92 "/>
<polyline class="st0" points="13.62,50.68 13.62,50.74 13.62,50.81 13.62,50.88 13.62,50.94 "/>
<polyline class="st0" points="61.33,29.33 61.33,29.26 61.33,29.19 61.33,29.06 61.33,28.99 61.33,28.93 61.33,28.79 61.33,28.73 
	61.33,28.66 61.33,28.59 61.33,28.53 61.33,28.46 61.33,28.39 "/>
<polyline class="st0" points="13.55,30.86 13.55,30.93 13.55,31 13.55,31.06 13.55,31.13 13.55,31.2 13.55,31.26 13.55,31.4 
	13.55,31.46 13.55,31.53 13.55,31.66 13.55,31.73 13.55,31.8 13.55,31.86 "/>
<polyline class="st0" points="61.33,31.86 61.33,31.8 61.33,31.73 61.33,31.66 61.33,31.53 61.33,31.46 61.33,31.4 61.33,31.26 
	61.33,31.2 61.33,31.13 61.33,31.06 61.33,31 61.33,30.93 61.33,30.86 "/>
<polyline class="st0" points="61.33,16.98 61.33,16.92 61.33,16.85 61.33,16.78 61.33,16.72 61.33,16.65 61.33,16.52 61.33,16.45 
	61.33,16.38 61.33,16.25 61.33,16.18 61.33,16.12 61.33,16.05 61.33,15.98 "/>
<polyline class="st0" points="13.55,15.98 13.55,16.05 13.55,16.12 13.55,16.18 13.55,16.25 13.55,16.38 13.55,16.45 13.55,16.52 
	13.55,16.65 13.55,16.72 13.55,16.78 13.55,16.85 13.55,16.92 13.55,16.98 "/>
<polyline class="st0" points="61.33,19.45 61.33,19.39 61.33,19.32 61.33,19.25 61.33,19.19 61.33,19.12 61.33,18.99 61.33,18.92 
	61.33,18.85 61.33,18.72 61.33,18.65 61.33,18.59 61.33,18.52 61.33,18.45 "/>
<polyline class="st0" points="61.33,21.92 61.33,21.85 61.33,21.79 61.33,21.72 61.33,21.65 61.33,21.59 61.33,21.52 61.33,21.39 
	61.33,21.32 61.33,21.25 61.33,21.12 61.33,21.05 61.33,20.99 61.33,20.92 "/>
<polyline class="st0" points="13.55,48.08 13.55,48.14 13.55,48.28 13.55,48.34 13.55,48.54 13.55,48.74 13.55,48.94 13.55,49.14 
	13.55,49.34 13.55,49.54 13.55,49.74 13.55,49.94 13.55,50.08 13.55,50.21 13.55,50.28 13.55,50.34 13.55,50.41 "/>
<polyline class="st0" points="13.55,18.45 13.55,18.52 13.55,18.59 13.55,18.65 13.55,18.72 13.55,18.85 13.55,18.92 13.55,18.99 
	13.55,19.12 13.55,19.19 13.55,19.25 13.55,19.32 13.55,19.39 13.55,19.45 "/>
<polyline class="st0" points="13.55,45.01 13.55,45.07 13.55,45.14 13.55,45.21 13.55,45.27 13.55,45.41 13.55,45.47 13.55,45.54 
	13.55,45.67 13.55,45.74 13.55,45.81 13.55,45.87 13.55,45.94 13.55,46.01 "/>
<polyline class="st0" points="13.55,42.54 13.55,42.6 13.55,42.67 13.55,42.74 13.55,42.8 13.55,42.94 13.55,43 13.55,43.07 
	13.55,43.2 13.55,43.27 13.55,43.34 13.55,43.4 13.55,43.47 13.55,43.54 "/>
<polyline class="st0" points="13.62,58.35 13.62,58.28 13.62,58.15 13.69,58.08 13.69,58.02 13.69,57.95 13.69,57.82 13.69,57.75 
	13.69,57.68 13.62,57.62 13.62,57.55 13.62,57.48 13.62,57.42 "/>
<polyline class="st0" points="13.62,55.88 13.62,55.81 13.62,55.75 13.62,55.68 13.69,55.61 13.69,55.55 13.69,55.48 13.69,55.35 
	13.69,55.28 13.69,55.21 13.62,55.08 13.62,55.01 13.62,54.95 "/>
<polyline class="st0" points="13.62,53.41 13.62,53.35 13.62,53.28 13.62,53.21 13.69,53.15 13.69,53.08 13.69,53.01 13.69,52.88 
	13.69,52.81 13.69,52.75 13.62,52.61 13.62,52.55 13.62,52.48 13.62,52.41 "/>
<polyline class="st0" points="13.62,46.01 13.62,45.94 13.62,45.87 13.62,45.81 13.69,45.74 13.69,45.67 13.69,45.54 13.69,45.47 
	13.69,45.41 13.69,45.27 13.62,45.21 13.62,45.14 13.62,45.07 13.62,45.01 "/>
<polyline class="st0" points="13.62,43.54 13.62,43.47 13.62,43.4 13.62,43.34 13.69,43.27 13.69,43.2 13.69,43.07 13.69,43 
	13.69,42.94 13.69,42.8 13.62,42.74 13.62,42.67 13.62,42.6 13.62,42.54 "/>
<polyline class="st0" points="13.62,16.98 13.62,16.92 13.62,16.85 13.62,16.78 13.69,16.72 13.69,16.65 13.69,16.52 13.69,16.45 
	13.69,16.38 13.69,16.25 13.62,16.18 13.62,16.12 13.62,16.05 13.62,15.98 "/>
<polyline class="st0" points="13.62,19.45 13.62,19.39 13.62,19.32 13.62,19.25 13.69,19.19 13.69,19.12 13.69,18.99 13.69,18.92 
	13.69,18.85 13.69,18.72 13.62,18.65 13.62,18.59 13.62,18.52 13.62,18.45 "/>
<polyline class="st0" points="13.62,21.92 13.62,21.85 13.62,21.79 13.62,21.72 13.69,21.65 13.69,21.59 13.69,21.52 13.69,21.39 
	13.69,21.32 13.69,21.25 13.62,21.12 13.62,21.05 13.62,20.99 13.62,20.92 "/>
<polyline class="st0" points="13.62,24.39 13.62,24.32 13.62,24.26 13.62,24.19 13.69,24.12 13.69,24.06 13.69,23.99 13.69,23.86 
	13.69,23.79 13.69,23.72 13.62,23.59 13.62,23.52 13.62,23.46 "/>
<polyline class="st0" points="13.62,26.86 13.62,26.79 13.62,26.73 13.62,26.66 13.69,26.59 13.69,26.53 13.69,26.46 13.69,26.32 
	13.69,26.26 13.69,26.19 13.62,26.12 13.62,26.06 13.62,25.99 13.62,25.92 "/>
<polyline class="st0" points="13.62,29.33 13.62,29.26 13.62,29.19 13.69,29.06 13.69,28.99 13.69,28.93 13.69,28.79 13.69,28.73 
	13.69,28.66 13.62,28.59 13.62,28.53 13.62,28.46 13.62,28.39 "/>
<polyline class="st0" points="13.62,31.86 13.62,31.8 13.62,31.73 13.62,31.66 13.69,31.53 13.69,31.46 13.69,31.4 13.69,31.26 
	13.69,31.2 13.69,31.13 13.62,31.06 13.62,31 13.62,30.93 13.62,30.86 "/>
<polyline class="st0" points="13.62,48.48 13.62,48.41 13.62,48.34 13.62,48.28 13.69,48.21 13.69,48.14 13.69,48.01 13.69,47.94 
	13.69,47.87 13.69,47.74 13.62,47.67 13.62,47.61 13.62,47.54 13.62,47.47 "/>
<polyline class="st0" points="13.62,50.94 13.62,50.88 13.62,50.81 13.62,50.74 13.69,50.68 13.69,50.61 13.69,50.54 13.69,50.41 
	13.69,50.34 13.69,50.28 13.62,50.14 13.62,50.08 13.62,50.01 13.62,49.94 "/>
<polyline class="st0" points="61.26,15.98 61.26,16.05 61.19,16.05 61.19,16.12 61.19,16.18 61.19,16.25 61.19,16.38 61.19,16.45 
	61.19,16.52 61.19,16.65 61.19,16.72 61.19,16.78 61.19,16.85 61.19,16.92 61.26,16.98 "/>
<polyline class="st0" points="61.26,18.45 61.26,18.52 61.19,18.52 61.19,18.59 61.19,18.65 61.19,18.72 61.19,18.85 61.19,18.92 
	61.19,18.99 61.19,19.12 61.19,19.19 61.19,19.25 61.19,19.32 61.19,19.39 61.26,19.45 "/>
<polyline class="st0" points="61.26,20.92 61.26,20.99 61.19,21.05 61.19,21.12 61.19,21.25 61.19,21.32 61.19,21.39 61.19,21.52 
	61.19,21.59 61.19,21.65 61.19,21.72 61.19,21.79 61.19,21.85 61.26,21.92 "/>
<polyline class="st0" points="61.26,23.46 61.19,23.52 61.19,23.59 61.19,23.72 61.19,23.79 61.19,23.86 61.19,23.99 61.19,24.06 
	61.19,24.12 61.19,24.19 61.19,24.26 61.19,24.32 61.26,24.39 "/>
<polyline class="st0" points="61.26,25.92 61.19,25.99 61.19,26.06 61.19,26.12 61.19,26.19 61.19,26.26 61.19,26.32 61.19,26.46 
	61.19,26.53 61.19,26.59 61.19,26.66 61.19,26.73 61.19,26.79 61.26,26.86 "/>
<polyline class="st0" points="61.26,28.39 61.19,28.46 61.19,28.53 61.19,28.59 61.19,28.66 61.19,28.73 61.19,28.79 61.19,28.93 
	61.19,28.99 61.19,29.06 61.19,29.19 61.19,29.26 61.26,29.33 "/>
<polyline class="st0" points="61.26,30.86 61.19,30.93 61.19,31 61.19,31.06 61.19,31.13 61.19,31.2 61.19,31.26 61.19,31.4 
	61.19,31.46 61.19,31.53 61.19,31.66 61.19,31.73 61.26,31.8 61.26,31.86 "/>
<polyline class="st0" points="61.26,57.42 61.19,57.48 61.19,57.55 61.19,57.62 61.19,57.68 61.19,57.75 61.19,57.82 61.19,57.95 
	61.19,58.02 61.19,58.08 61.19,58.15 61.19,58.28 61.26,58.35 "/>
<polyline class="st0" points="61.26,54.95 61.19,55.01 61.19,55.08 61.19,55.21 61.19,55.28 61.19,55.35 61.19,55.48 61.19,55.55 
	61.19,55.61 61.19,55.68 61.19,55.75 61.19,55.81 61.26,55.88 "/>
<polyline class="st0" points="61.26,52.41 61.26,52.48 61.19,52.55 61.19,52.61 61.19,52.75 61.19,52.81 61.19,52.88 61.19,53.01 
	61.19,53.08 61.19,53.15 61.19,53.21 61.19,53.28 61.19,53.35 61.26,53.41 "/>
<polyline class="st0" points="61.26,49.94 61.26,50.01 61.19,50.08 61.19,50.14 61.19,50.28 61.19,50.34 61.19,50.41 61.19,50.54 
	61.19,50.61 61.19,50.68 61.19,50.74 61.19,50.81 61.19,50.88 61.26,50.94 "/>
<polyline class="st0" points="61.26,47.47 61.26,47.54 61.19,47.54 61.19,47.61 61.19,47.67 61.19,47.74 61.19,47.87 61.19,47.94 
	61.19,48.01 61.19,48.14 61.19,48.21 61.19,48.28 61.19,48.34 61.19,48.41 61.26,48.48 "/>
<polyline class="st0" points="61.26,45.01 61.26,45.07 61.19,45.07 61.19,45.14 61.19,45.21 61.19,45.27 61.19,45.41 61.19,45.47 
	61.19,45.54 61.19,45.67 61.19,45.74 61.19,45.81 61.19,45.87 61.19,45.94 61.26,46.01 "/>
<polyline class="st0" points="61.26,42.54 61.26,42.6 61.19,42.6 61.19,42.67 61.19,42.74 61.19,42.8 61.19,42.94 61.19,43 
	61.19,43.07 61.19,43.2 61.19,43.27 61.19,43.34 61.19,43.4 61.19,43.47 61.26,43.54 "/>
<polyline class="st0" points="13.55,50.41 13.55,50.34 13.55,50.28 13.55,50.21 13.55,50.08 13.62,49.94 13.62,49.74 13.62,49.54 
	13.62,49.34 13.62,49.14 13.62,48.94 13.62,48.74 13.62,48.54 13.55,48.34 13.55,48.28 13.55,48.14 13.55,48.08 "/>
</svg>
