<?xml version="1.0" encoding="utf-8"?>
<!-- Generator: Adobe Illustrator 24.0.0, SVG Export Plug-In . SVG Version: 6.00 Build 0)  -->
<svg version="1.1" id="图层_1" xmlns="http://www.w3.org/2000/svg" xmlns:xlink="http://www.w3.org/1999/xlink" x="0px" y="0px"
	 viewBox="0 0 73.06 73.29" style="enable-background:new 0 0 73.06 73.29;" xml:space="preserve">
<path d="M37.86,46.08L29.75,60.6c-0.12,0.22,0.03,0.5,0.28,0.52l5.67,0.38c0.19,0.01,0.34,0.18,0.32,0.37l-0.74,11.05
	c-0.03,0.38,0.48,0.52,0.65,0.18l7.41-14.37c0.11-0.22-0.03-0.49-0.28-0.5l-4.98-0.4c-0.19-0.02-0.33-0.18-0.32-0.37l0.75-11.18
	C38.54,45.91,38.04,45.76,37.86,46.08z"/>
<path d="M23.45,56.76L23.45,56.76c0.57-0.88,0.36-2.03-0.47-2.67c-5.8-4.49-9.33-11.78-8.52-19.84C15.5,23.97,23.73,15.64,34,14.49
	C47.37,13,58.74,23.47,58.74,36.54c0,7.26-3.51,13.72-8.92,17.77c-0.84,0.63-1.07,1.78-0.51,2.67v0c0.61,0.98,1.95,1.26,2.87,0.56
	c7.12-5.32,11.47-14.17,10.39-23.94c-1.32-12.04-11-21.74-23.04-23.08c-15.78-1.76-29.19,10.6-29.19,26.03
	c0,8.43,4.01,15.94,10.21,20.73C21.48,57.99,22.82,57.74,23.45,56.76z"/>
<path d="M17.79,65.45L17.79,65.45c0.57-0.88,0.36-2.06-0.48-2.68C8.53,56.32,3.09,45.57,4.13,33.66C5.5,17.86,18.4,5.19,34.22,4.08
	c18.99-1.33,34.87,13.75,34.87,32.46c0,10.96-5.45,20.67-13.78,26.57c-0.86,0.61-1.1,1.78-0.54,2.68h0
	c0.61,0.98,1.92,1.24,2.86,0.57c9.68-6.87,15.89-18.31,15.43-31.16C72.35,15.56,55.85-0.19,36.19,0C16.2,0.19,0,16.51,0,36.54
	c0,12.06,5.88,22.77,14.92,29.43C15.85,66.66,17.17,66.42,17.79,65.45z"/>
<path d="M42.16,35.52l16.42-23.56L37.62,31.59c-2.27-0.53-4.74,0.19-6.36,2.07c-2.33,2.7-2.02,6.78,0.68,9.1
	c2.7,2.33,6.78,2.02,9.1-0.68C42.66,40.21,43,37.68,42.16,35.52z"/>
</svg>
