<?xml version="1.0" encoding="utf-8"?>
<!-- Generator: Adobe Illustrator 24.0.0, SVG Export Plug-In . SVG Version: 6.00 Build 0)  -->
<svg version="1.1" id="图层_1" xmlns="http://www.w3.org/2000/svg" xmlns:xlink="http://www.w3.org/1999/xlink" x="0px" y="0px"
	 viewBox="0 0 600 600" style="enable-background:new 0 0 600 600;" xml:space="preserve">
<style type="text/css">
	.st0{fill:none;stroke:#000000;stroke-miterlimit:10;}
</style>
<line class="st0" x1="52.1" y1="88.2" x2="52.1" y2="500.5"/>
<line class="st0" x1="54.7" y1="88.2" x2="54.7" y2="500.5"/>
<line class="st0" x1="57.2" y1="88.2" x2="57.2" y2="500.5"/>
<line class="st0" x1="68.1" y1="500.5" x2="68.1" y2="88.2"/>
<line class="st0" x1="69.4" y1="500.5" x2="69.4" y2="88.2"/>
<line class="st0" x1="96.9" y1="545.3" x2="509.1" y2="545.3"/>
<line class="st0" x1="96.9" y1="542.7" x2="509.1" y2="542.7"/>
<line class="st0" x1="96.9" y1="540.8" x2="509.1" y2="540.8"/>
<line class="st0" x1="509.1" y1="529.3" x2="96.9" y2="529.3"/>
<line class="st0" x1="509.1" y1="528" x2="96.9" y2="528"/>
<line class="st0" x1="95.6" y1="500.5" x2="95.6" y2="88.2"/>
<line class="st0" x1="96.9" y1="540.8" x2="96.9" y2="545.3"/>
<line class="st0" x1="96.9" y1="87" x2="96.9" y2="59.4"/>
<line class="st0" x1="96.9" y1="48.6" x2="96.9" y2="44.1"/>
<polyline class="st0" points="96.9,529.3 96.9,501.7 509.1,501.7 "/>
<line class="st0" x1="57.2" y1="500.5" x2="52.1" y2="500.5"/>
<line class="st0" x1="68.1" y1="500.5" x2="95.6" y2="500.5"/>
<line class="st0" x1="549.4" y1="500.5" x2="553.9" y2="500.5"/>
<line class="st0" x1="537.9" y1="500.5" x2="510.4" y2="500.5"/>
<line class="st0" x1="326.7" y1="321.2" x2="280" y2="321.2"/>
<line class="st0" x1="280" y1="312.3" x2="326.7" y2="312.3"/>
<line class="st0" x1="326.7" y1="298.8" x2="280" y2="298.8"/>
<line class="st0" x1="280" y1="289.9" x2="326.7" y2="289.9"/>
<line class="st0" x1="326.7" y1="276.4" x2="280" y2="276.4"/>
<line class="st0" x1="280" y1="267.5" x2="326.7" y2="267.5"/>
<line class="st0" x1="509.1" y1="540.8" x2="509.1" y2="545.3"/>
<line class="st0" x1="509.1" y1="529.3" x2="509.1" y2="501.7"/>
<line class="st0" x1="509.1" y1="87" x2="509.1" y2="59.4"/>
<line class="st0" x1="509.1" y1="48.6" x2="509.1" y2="44.1"/>
<line class="st0" x1="510.4" y1="88.2" x2="510.4" y2="500.5"/>
<line class="st0" x1="95.6" y1="88.2" x2="68.1" y2="88.2"/>
<line class="st0" x1="57.2" y1="88.2" x2="52.1" y2="88.2"/>
<line class="st0" x1="510.4" y1="88.2" x2="537.9" y2="88.2"/>
<line class="st0" x1="549.4" y1="88.2" x2="553.9" y2="88.2"/>
<line class="st0" x1="96.9" y1="87" x2="509.1" y2="87"/>
<line class="st0" x1="536.6" y1="88.2" x2="536.6" y2="500.5"/>
<line class="st0" x1="537.9" y1="88.2" x2="537.9" y2="500.5"/>
<line class="st0" x1="96.9" y1="61.4" x2="509.1" y2="61.4"/>
<line class="st0" x1="96.9" y1="59.4" x2="509.1" y2="59.4"/>
<line class="st0" x1="549.4" y1="500.5" x2="549.4" y2="88.2"/>
<line class="st0" x1="551.3" y1="500.5" x2="551.3" y2="88.2"/>
<line class="st0" x1="553.9" y1="500.5" x2="553.9" y2="88.2"/>
<line class="st0" x1="509.1" y1="48.6" x2="96.9" y2="48.6"/>
<line class="st0" x1="509.1" y1="46" x2="96.9" y2="46"/>
<line class="st0" x1="509.1" y1="44.1" x2="96.9" y2="44.1"/>
<polyline class="st0" points="509.1,544.6 517.4,544 525.8,541.4 533.4,537 540.5,531.8 545.6,524.8 550.1,517.1 552.6,508.8 
	553.3,500.5 "/>
<polyline class="st0" points="553.3,88.2 552.6,79.9 550.1,71.6 545.6,63.9 540.5,56.9 533.4,51.8 525.8,47.3 517.4,44.7 
	509.1,44.1 "/>
<polyline class="st0" points="96.9,44.1 88.6,44.7 80.2,47.3 72.6,51.8 65.5,56.9 60.4,63.9 55.9,71.6 53.4,79.9 52.7,88.2 "/>
<polyline class="st0" points="52.7,500.5 53.4,508.8 55.9,517.1 60.4,524.8 65.5,531.8 72.6,537 80.2,541.4 88.6,544 96.9,544.6 "/>
<polyline class="st0" points="509.1,542.7 517.4,542.1 525.1,539.5 532.8,535.7 539.2,530.5 544.3,524.1 548.2,516.5 550.7,508.8 
	551.3,500.5 "/>
<polyline class="st0" points="551.3,88.2 550.7,79.9 548.2,72.2 544.3,64.6 539.2,58.2 532.8,53 525.1,49.2 517.4,46.6 509.1,46 "/>
<polyline class="st0" points="96.9,46 88.6,46.6 80.9,49.2 73.2,53 66.8,58.2 61.7,64.6 57.8,72.2 55.3,79.9 54.7,88.2 "/>
<polyline class="st0" points="54.7,500.5 55.3,508.8 57.8,516.5 61.7,524.1 66.8,530.5 73.2,535.7 80.9,539.5 88.6,542.1 
	96.9,542.7 "/>
<polyline class="st0" points="548.8,88.2 547.5,79.3 545,71 539.8,63.3 534.1,57.5 526.4,52.4 518.1,49.8 509.1,48.6 "/>
<polyline class="st0" points="509.1,540.2 518.1,538.9 526.4,536.3 534.1,531.2 539.8,525.4 545,517.7 547.5,509.4 548.8,500.5 "/>
<polyline class="st0" points="57.2,500.5 58.5,509.4 61,517.7 66.2,525.4 71.9,531.2 79.6,536.3 87.9,538.9 96.9,540.2 "/>
<polyline class="st0" points="96.9,48.6 87.9,49.8 79.6,52.4 71.9,57.5 66.2,63.3 61,71 58.5,79.3 57.2,88.2 "/>
<polyline class="st0" points="537.3,88.2 536.6,81.2 533.4,74.2 529,68.4 523.2,63.9 516.2,60.7 509.1,60.1 "/>
<polyline class="st0" points="96.9,60.1 89.8,60.7 82.8,63.9 77.1,68.4 72.6,74.2 69.4,81.2 68.7,88.2 "/>
<polyline class="st0" points="68.7,500.5 69.4,507.5 72.6,514.5 77.1,520.3 82.8,524.8 89.8,528 96.9,528.6 "/>
<polyline class="st0" points="509.1,528.6 516.2,528 523.2,524.8 529,520.3 533.4,514.5 536.6,507.5 537.3,500.5 "/>
<polyline class="st0" points="509.1,527.3 516.2,526.7 522.5,523.5 528.3,519.7 532.2,513.9 535.3,507.5 536,500.5 "/>
<polyline class="st0" points="70,500.5 70.7,507.5 73.8,513.9 77.7,519.7 83.4,523.5 89.8,526.7 96.9,527.3 "/>
<polyline class="st0" points="96.9,61.4 89.8,62 83.4,65.2 77.7,69 73.8,74.8 70.7,81.2 70,88.2 "/>
<polyline class="st0" points="536,88.2 535.3,81.2 532.2,74.8 528.3,69 522.5,65.2 516.2,62 509.1,61.4 "/>
<polyline class="st0" points="280,312.9 277.4,314.2 276.1,316.8 277.4,319.3 280,320.6 "/>
<polyline class="st0" points="326.7,320.6 329.2,319.3 330.5,316.8 329.2,314.2 326.7,312.9 "/>
<polyline class="st0" points="280,290.5 277.4,291.8 276.1,294.4 277.4,296.9 280,298.2 "/>
<polyline class="st0" points="326.7,298.2 329.2,296.9 330.5,294.4 329.2,291.8 326.7,290.5 "/>
<polyline class="st0" points="280,268.1 277.4,269.4 276.1,272 277.4,274.5 280,275.8 "/>
<polyline class="st0" points="326.7,275.8 329.2,274.5 330.5,272 329.2,269.4 326.7,268.1 "/>
<line class="st0" x1="509.1" y1="501.1" x2="509.7" y2="500.5"/>
<line class="st0" x1="96.3" y1="500.5" x2="96.9" y2="501.1"/>
<line class="st0" x1="96.9" y1="87.6" x2="96.3" y2="88.2"/>
<line class="st0" x1="509.7" y1="88.2" x2="509.1" y2="87.6"/>
</svg>
