<?xml version="1.0" encoding="UTF-8"?>
<svg width="320px" height="320px" viewBox="0 0 320 320" version="1.1" xmlns="http://www.w3.org/2000/svg" xmlns:xlink="http://www.w3.org/1999/xlink">
    <title>images / Namron 3802963</title>
    <g id="images-/-Namron-3802963" stroke="none" stroke-width="1" fill="none" fill-rule="evenodd">
        <path d="M159.545873,3 C189.118441,3 214,86.3762788 214,154.766888 C214,200.422319 202.982837,227.813274 186.823959,241 L184,241 L184,255 C184,257.761424 181.761424,260 179,260 L179,260 L179,260 L179.138226,299.236041 C179.146227,301.507114 177.622613,303.498312 175.428435,304.084333 L172,305 L172,305 L165.99644,317 L156.04659,317 L150,305 L145.058833,303.936915 C142.760584,303.44245 141.117182,301.413746 141.11053,299.062917 L141,260 L141,260 C138.238576,260 136,257.761424 136,255 L136,241 L136,241 L132.520336,241 C116.654842,227.783893 106,200.360714 106,154.766888 C106,86.3762788 129.973304,3 159.545873,3 Z M168.729,291 L151.27,291 L151.27027,295 L168.72973,295 L168.729,291 Z M168.729,281 L151.27,281 L151.27,284 L168.729,284 L168.729,281 Z M168.729,271 L151.27,271 L151.27,274 L168.729,274 L168.729,271 Z M168.72973,260 L151.27027,260 L151.27,264 L168.729,264 L168.72973,260 Z M174,241 L146,241 L146,250 L174,250 L174,241 Z M203.894359,156.000651 L116.105691,156.000651 C116.267251,192.85917 123.682217,217.822406 136.107809,230.64664 L136.455,231 L183.036,231 L183.087239,230.953646 C196.105472,218.496189 203.73199,193.732123 203.894359,156.000651 Z M159.545873,12.9864639 C155.938439,12.9864639 151.566205,16.3622272 147.008709,22.7213378 L146.460958,23.498726 L145.91165,24.3046037 C145.361639,25.1246758 144.809627,25.9872561 144.256617,26.8916664 L143.703311,27.809995 C143.242006,28.5868464 142.780241,29.3925895 142.318593,30.2268318 L141.720052,31.3245991 C141.520592,31.6958253 141.321201,32.0723449 141.121925,32.4541261 L140.524491,33.6152229 C139.131507,36.3611321 137.746482,39.3633073 136.385471,42.6108776 L135.803697,44.017686 L135.225145,45.4543525 C135.129004,45.6962745 135.033009,45.9394328 134.937165,46.1838232 L134.363971,47.6649205 C133.69748,49.4100443 133.038998,51.215158 132.390534,53.0789026 L131.837208,54.690725 C131.653614,55.2327642 131.470886,55.7795579 131.289068,56.3310744 C122.674746,82.4613719 117.142752,115.475322 116.235165,146.001121 L203.759662,146.001121 C202.820849,115.599149 197.121497,82.605901 188.278591,56.3963967 C187.534544,54.1911155 186.77594,52.0608557 186.005846,50.0077276 L185.426169,48.4823768 C184.844434,46.9715541 184.256668,45.5044149 183.664165,44.0818494 L183.070131,42.6741747 L182.772019,41.9815426 L182.173788,40.6188127 C181.774122,39.7203742 181.37283,38.842076 180.970297,37.9841819 L180.365612,36.7126768 C180.163772,36.2939647 179.961669,35.8803867 179.759352,35.4719756 L179.151803,34.2622763 L178.543255,33.0837766 C178.34027,32.6961653 178.137167,32.3137869 177.933993,31.9366745 L177.324307,30.8211677 C177.121039,30.45462 176.917749,30.0933711 176.714483,29.7374541 L176.104809,28.6857316 L175.495574,27.666198 C175.116246,27.0411458 174.737341,26.4349461 174.359171,25.8478139 L173.792506,24.9814433 L173.227179,24.1438355 C173.133083,24.00664 173.039052,23.8706498 172.945091,23.7358681 L172.382211,22.9417072 C172.007573,22.4219708 171.634218,21.9216787 171.262458,21.4410461 L170.706056,20.7348687 C166.635119,15.6647561 162.776218,12.9864639 159.545873,12.9864639 Z" id="Shape" fill="#000000"></path>
    </g>
</svg>