<?xml version="1.0" encoding="utf-8"?>
<!-- Generator: Adobe Illustrator 24.0.1, SVG Export Plug-In . SVG Version: 6.00 Build 0)  -->
<svg version="1.1" id="图层_1" xmlns="http://www.w3.org/2000/svg" xmlns:xlink="http://www.w3.org/1999/xlink" x="0px" y="0px"
	width="30px" height="30px" viewBox="0 0 283.46 283.46" style="enable-background:new 0 0 283.46 283.46;" xml:space="preserve">
<g>
	<path d="M79.22,116.23c0.48-1.28,1.71-2.13,3.08-2.13h5.9h5.93c1.39,0,2.63,0.87,3.1,2.18L133.04,216c0.77,2.14-0.82,4.4-3.1,4.4
		h-3.05h-5.39c-1.4,0-2.64-0.88-3.1-2.2l-9.29-26.41c-0.46-1.32-1.71-2.2-3.1-2.2H68.21c-1.38,0-2.62,0.87-3.09,2.17l-9.59,26.47
		c-0.47,1.3-1.71,2.17-3.09,2.17h-5.08h-2.7c-2.3,0-3.89-2.3-3.08-4.45L79.22,116.23z M75.16,176.87H99.3
		c2.26,0,3.85-2.23,3.11-4.37l-14.88-42.78h0.04l-15.51,42.74C71.29,174.6,72.88,176.87,75.16,176.87z"/>
</g>
<path d="M87.3,81.59c-25.89,0-47.27,19.34-50.49,44.36c-0.45,3.47,2.28,6.55,5.78,6.55h0c2.89,0,5.38-2.11,5.74-4.98
	c2.45-19.34,18.96-34.3,38.97-34.3s36.52,14.96,38.97,34.3c0.36,2.86,2.85,4.98,5.74,4.98h0c3.5,0,6.22-3.08,5.78-6.55
	C134.57,100.93,113.19,81.59,87.3,81.59z"/>
</svg>
