<?xml version="1.0" encoding="UTF-8"?>
<svg width="30px" height="30px" viewBox="0 0 30 30" version="1.1" xmlns="http://www.w3.org/2000/svg" xmlns:xlink="http://www.w3.org/1999/xlink">
    <title>images / datetime</title>
    <g id="images-/-datetime" stroke="none" stroke-width="1" fill="none" fill-rule="evenodd">
        <path d="M21.5000495,2.11607143 C21.7681714,1.96130952 22.0985893,1.96130952 22.3667162,2.11607143 C22.634843,2.27083333 22.8000495,2.55693733 22.8000495,2.86665429 L22.8000495,2.86665429 L22.8000495,3.73332095 L24.7170667,3.73332095 C25.5874476,3.73431143 26.4219733,4.08038381 27.0373562,4.69596476 C27.652947,5.31134762 27.9990328,6.14592286 28,7.01625429 L28,7.01625429 L28,24.7170543 C27.9990095,25.5874352 27.6529371,26.421961 27.0373562,27.0373438 C26.4219733,27.6529347 25.5873981,27.9990204 24.7170667,27.9999876 L24.7170667,27.9999876 L5.28293333,27.9999876 C4.41255238,27.9989971 3.57802667,27.6529248 2.96264381,27.0373438 C2.34705295,26.421961 2.00096725,25.5873857 2,24.7170543 L2,24.7170543 L2,7.01625429 C2.00099048,6.14587333 2.34706286,5.31134762 2.96264381,4.69596476 C3.57802667,4.0803739 4.4126019,3.7342882 5.28293333,3.73332095 L5.28293333,3.73332095 L7.20004952,3.73332095 L7.20004952,2.86665429 C7.20004952,2.55694724 7.36526095,2.27083333 7.63338286,2.11607143 C7.90150476,1.96130952 8.23192267,1.96130952 8.50004952,2.11607143 C8.76817638,2.27083333 8.93338286,2.55693733 8.93338286,2.86665429 L8.93338286,2.86665429 L8.93338286,3.73332095 L14.1393257,3.73332095 L14.1393257,2.95332095 C14.1393257,2.6436139 14.3045322,2.3575 14.572659,2.2027381 C14.840781,2.04797619 15.1711989,2.04797619 15.4393257,2.2027381 C15.7074526,2.3575 15.872659,2.643604 15.872659,2.95332095 L15.872659,2.95332095 L15.872659,3.73332095 L21.0667162,3.73332095 L21.0667162,2.86665429 C21.0667162,2.55694724 21.2319276,2.27083333 21.5000495,2.11607143 Z M26.2668251,10.6667137 L3.73349181,10.6667137 L3.73349181,24.7171137 C3.7338781,25.1278147 3.89734629,25.5218608 4.18791238,25.8122337 C4.47827048,26.1027998 4.87233143,26.2662674 5.28303238,26.2666543 L5.28303238,26.2666543 L24.7172846,26.2666543 C25.1279855,26.266268 25.5220316,26.1027998 25.8124046,25.8122337 C26.1029707,25.5218756 26.2664383,25.1278147 26.2668251,24.7171137 L26.2668251,24.7171137 L26.2668251,10.6667137 Z M15.000099,12.3999876 C16.6084343,12.401721 18.1504571,13.0416676 19.2877714,14.1789819 C20.4250857,15.3162962 21.0650247,16.8582695 21.0667657,18.4666543 C21.0667657,20.0755838 20.4276114,21.6187457 19.289901,22.7564562 C18.1521905,23.8941667 16.6090286,24.533321 15.000099,24.533321 C13.3911695,24.533321 11.8480076,23.8941667 10.7102971,22.7564562 C9.57258667,21.6187457 8.93343238,20.0755838 8.93343238,18.4666543 C8.93343238,16.8577248 9.57258667,15.3145629 10.7102971,14.1768524 C11.8480076,13.0391419 13.3911695,12.3999876 15.000099,12.3999876 Z M15.000099,14.133321 C13.8508,14.133321 12.748707,14.589881 11.9360114,15.4025667 C11.1233158,16.2152524 10.6667657,17.3173552 10.6667657,18.4666543 C10.6667657,19.6159533 11.1233257,20.7180463 11.9360114,21.5307419 C12.7486971,22.3434375 13.8508,22.7999876 15.000099,22.7999876 C16.1490019,22.7986505 17.2503619,22.3416943 18.0626514,21.5292067 C18.875144,20.7169171 19.3320782,19.6155571 19.3334324,18.4666543 C19.3334324,17.3173552 18.8768724,16.2152623 18.0641867,15.4025667 C17.251501,14.589871 16.1493981,14.133321 15.000099,14.133321 Z M14.5667657,15.1158733 C14.8348876,14.9611114 15.1653055,14.9611114 15.4334324,15.1158733 C15.7015592,15.2706352 15.8667657,15.5567392 15.8667657,15.8664562 L15.8667657,15.8664562 L15.8667657,18.1076067 L16.4794198,18.7204638 C16.6920255,18.9405971 16.772888,19.2565145 16.6920255,19.551721 C16.610955,19.8467343 16.3803722,20.077332 16.0853589,20.1583876 C15.7901474,20.2392501 15.4742499,20.1583876 15.2541017,19.9457819 L15.2541017,19.9457819 L14.387435,19.0791152 C14.2247444,18.9166177 14.1334324,18.6962764 14.1334324,18.4664562 L14.1334324,18.4664562 L14.1334324,15.8664562 C14.1334324,15.5567491 14.2986438,15.2706352 14.5667657,15.1158733 Z M7.20014857,5.46665429 L5.28301257,5.46665429 C4.87231162,5.46704057 4.47826552,5.63050876 4.18789257,5.92107486 C3.89732648,6.21143295 3.73385888,6.6054939 3.733472,7.01619486 L3.733472,7.01619486 L3.733472,8.93331105 L26.2668053,8.93331105 L26.2668053,7.01619486 C26.266419,6.6054939 26.1029509,6.21144781 25.8123848,5.92107486 C25.5220267,5.63050876 25.1279657,5.46704117 24.7172648,5.46665429 L24.7172648,5.46665429 L22.8001486,5.46665429 L22.8001486,6.33332095 C22.8001486,6.643028 22.6349371,6.9291419 22.3668152,7.08390381 C22.0986933,7.23866571 21.7682754,7.23866571 21.5001486,7.08390381 C21.2320217,6.9291419 21.0668152,6.6430379 21.0668152,6.33332095 L21.0668152,6.33332095 L21.0668152,5.46665429 L15.8727581,5.46665429 L15.8727581,6.41998762 C15.8727581,6.72969467 15.7075516,7.01580857 15.4394248,7.17057048 C15.1713029,7.32533238 14.840885,7.32533238 14.5727581,7.17057048 C14.3046312,7.01580857 14.1394248,6.72970457 14.1394248,6.41998762 L14.1394248,6.41998762 L14.1394248,5.46665429 L8.9334819,5.46665429 L8.9334819,6.33332095 C8.9334819,6.643028 8.76827048,6.9291419 8.50014857,7.08390381 C8.23202667,7.23866571 7.90160876,7.23866571 7.6334819,7.08390381 C7.36535505,6.9291419 7.20014857,6.6430379 7.20014857,6.33332095 L7.20014857,6.33332095 L7.20014857,5.46665429 Z" id="Combined-Shape" fill="#000000" fill-rule="nonzero"></path>
    </g>
</svg>