<?xml version="1.0" encoding="UTF-8"?>
<svg width="30px" height="30px" viewBox="0 0 30 30" version="1.1" xmlns="http://www.w3.org/2000/svg" xmlns:xlink="http://www.w3.org/1999/xlink">
    <title>images / internal_over_heat</title>
    <g id="images-/-internal_over_heat" stroke="none" stroke-width="1" fill="none" fill-rule="evenodd">
        <path d="M9.23748387,4.10257257 C9.55578308,3.94698312 9.93260478,3.97153844 10.2281545,4.16686101 C10.5237041,4.36241216 10.6937971,4.69950646 10.6752706,5.05329861 C10.6567441,5.40709076 10.4522725,5.72473852 10.1379735,5.8883626 C9.4149714,6.36718291 8.83591826,7.03372547 8.46201669,7.81610151 C8.08833798,8.59876328 7.93431431,9.46822873 8.01623778,10.3314082 C8.05954248,11.8196085 8.48207468,13.2721272 9.24416415,14.5509815 C10.1538199,16.1044188 10.6493758,17.8654077 10.6830823,19.6652555 C10.7688002,20.8987935 10.5136751,22.1323316 9.94579391,23.2306067 C9.37771267,24.3291105 8.51893339,25.2503495 7.4628886,25.8936911 C7.14344648,26.0539665 6.76284176,26.0316455 6.46438911,25.8352086 C6.16593645,25.6387432 5.99494748,25.2981116 6.01570722,24.9413993 C6.03669097,24.5846927 6.24629986,24.2661535 6.56550768,24.1058781 C7.28896694,23.6282007 7.86823722,22.9622868 8.24146448,22.1799107 C8.61447459,21.3973061 8.76716106,20.5280693 8.68300321,19.6652898 C8.63991567,18.1770552 8.21715488,16.7245365 7.45506541,15.4454537 C6.54540968,13.8922449 6.05007725,12.131256 6.01614724,10.3314082 C5.9306579,9.09769872 6.18578872,7.86416069 6.75389281,6.76565695 C7.32197405,5.66715322 8.1812105,4.74591415 9.23748387,4.10257257 Z M22.5710037,4.10281258 C22.8893029,3.94611451 23.2669989,3.96977265 23.5632172,4.16531809 C23.8596583,4.36064066 24.0299759,4.69836356 24.0112248,5.05284145 C23.9926983,5.40731363 23.7873296,5.72518425 23.4721391,5.8883626 C22.7493655,6.36718291 22.1700895,7.03372547 21.7964108,7.81610151 C21.4227321,8.59876328 21.2684856,9.46822873 21.3506319,10.3314082 C21.3937195,11.8196427 21.8162517,13.2721615 22.5785697,14.5510157 C23.488254,16.1044873 23.983587,17.8654763 24.0172936,19.6653241 C24.1030115,20.8988621 23.8478864,22.1324002 23.2800052,23.2306753 C22.7121525,24.329179 21.8531447,25.2504181 20.7970999,25.8937597 C20.4776578,26.0540351 20.097053,26.0317141 19.7986004,25.8352772 C19.5001477,25.6388117 19.3291582,25.2981801 19.3501414,24.9414679 C19.3709022,24.5847613 19.5805111,24.2662221 19.8999418,24.1059467 C20.6231725,23.6282693 21.2026657,22.9623554 21.57567,22.1799793 C21.9486802,21.3973747 22.1013666,20.5281378 22.0172088,19.6653584 C21.9741212,18.1771238 21.551589,16.7246051 20.789271,15.4455222 C19.879621,13.8923135 19.384288,12.1313245 19.3505814,10.3314768 C19.2648635,9.09793873 19.5199943,7.8644007 20.0880984,6.76589696 C20.655951,5.66739323 21.5149589,4.74615416 22.5710037,4.10281258 Z M15.9041723,4.10279544 C16.2224716,3.94698312 16.599299,3.97153844 16.8950715,4.16686101 C17.1906212,4.36218358 17.3607153,4.69948932 17.3421876,5.05329861 C17.3236611,5.40709076 17.1194125,5.72473852 16.8051134,5.8883626 C16.0821113,6.36718291 15.5028353,7.03372547 15.1291566,7.81610151 C14.7554779,8.59876328 14.6014542,9.46822873 14.6833777,10.3314082 C14.7264653,11.8196599 15.149226,13.2721786 15.9113155,14.5510329 C16.8209712,16.1044702 17.3163037,17.8654592 17.3502337,19.6653069 C17.435723,20.898845 17.1808208,22.132383 16.6127167,23.2306582 C16.044864,24.3291619 15.1858562,25.250401 14.1298114,25.8937425 C13.8105978,26.0540179 13.4299931,26.0317255 13.1315405,25.8352601 C12.8330878,25.6387946 12.6620988,25.298163 12.6828586,24.9414507 C12.7038423,24.5847442 12.9132283,24.2662049 13.232659,24.1059296 C13.9558897,23.6282522 14.5353829,22.9623382 14.9083873,22.1799622 C15.2816202,21.3973576 15.4343067,20.5281207 15.3501488,19.6653412 C15.3070613,18.1771067 14.8843005,16.7245879 14.1222111,15.4455051 C13.2125553,13.8922964 12.7169995,12.1313074 12.6832929,10.3314596 C12.5978035,9.09792159 12.8529286,7.86438356 13.4208099,6.76587982 C13.9888911,5.6671475 14.8481276,4.74590843 15.9041723,4.10279544 Z" id="Combined-Shape" fill="#000000" fill-rule="nonzero"></path>
    </g>
</svg>