<?xml version="1.0" encoding="UTF-8"?>
<svg width="30px" height="30px" viewBox="0 0 30 30" version="1.1" xmlns="http://www.w3.org/2000/svg" xmlns:xlink="http://www.w3.org/1999/xlink">
    <title>images / leave_home</title>
    <g id="images-/-leave_home" stroke="none" stroke-width="1" fill="none" fill-rule="evenodd">
        <path d="M18.002584,2 L18.1172529,2.00662417 C18.6466724,2.06784955 19.0878553,2.54504737 19.0878553,3.08527132 L19.0878553,3.08527132 L19.0878553,9.1627907 C19.0878553,9.74160207 18.5813953,10.248062 18.002584,10.248062 C17.4237726,10.248062 16.9173127,9.74160207 16.9173127,9.1627907 L16.9173127,9.1627907 L16.9173127,4.17054264 L3.17054264,4.17054264 L3.17054264,25.4418605 L16.9173127,25.4418605 L16.9173127,20.4496124 C16.9173127,19.870801 17.4237726,19.3643411 18.002584,19.3643411 C18.5813953,19.3643411 19.0878553,19.7984496 19.0878553,20.4496124 L19.0878553,20.4496124 L19.0878553,26.5271318 C19.0878553,27.1059432 18.5813953,27.6124031 18.002584,27.6124031 L18.002584,27.6124031 L2.08527132,27.6124031 C1.50645995,27.6124031 1,27.1059432 1,26.5271318 L1,26.5271318 L1,3.08527132 C1,2.50645995 1.50645995,2 2.08527132,2 L2.08527132,2 L18.002584,2 L18.002584,2 Z M21.4754522,8.65633075 C21.9095607,8.22222222 22.5607235,8.22222222 22.994832,8.65633075 L22.994832,8.65633075 L28.8552972,14.5891473 L28.8552972,14.6614987 L28.9276486,14.7338501 C28.9276486,14.8062016 29,14.8062016 29,14.878553 L29,14.878553 L29,15.3850129 L28.9276486,15.3850129 C28.9276486,15.4573643 28.8552972,15.5297158 28.8552972,15.6020672 L28.8552972,15.6020672 L28.8552972,15.6744186 L28.8017035,15.74677 C28.7749067,15.7950043 28.7588286,15.8432386 28.7105943,15.8914729 L28.7105943,15.8914729 L28.7105943,15.9638243 C28.6382429,15.9638243 28.6382429,16.0361757 28.6382429,16.0361757 L28.6382429,16.0361757 L22.9224806,21.8966408 C22.7054264,22.1136951 22.4160207,22.2583979 22.126615,22.2583979 C21.9095607,22.2583979 21.620155,22.1860465 21.4031008,21.9689922 C20.9689922,21.5348837 20.9689922,20.8837209 21.4031008,20.4496124 L21.4031008,20.4496124 L25.3100775,16.3979328 L10.0439276,16.3979328 C9.46511628,16.3979328 8.95865633,15.8914729 8.95865633,15.3126615 C8.95865633,14.7338501 9.46511628,14.2273902 10.0439276,14.2273902 L10.0439276,14.2273902 L25.3824289,14.2273902 L21.4754522,10.1757106 L21.4754522,10.1757106 L21.3890735,10.0795233 C21.0435585,9.64968623 21.0723514,9.05943152 21.4754522,8.65633075 Z" id="Combined-Shape" fill="#000000" fill-rule="nonzero"></path>
    </g>
</svg>