<?xml version="1.0" encoding="UTF-8"?>
<svg width="100" height="100" version="1.1" viewBox="0 0 2217.3 2217.3" xmlns="http://www.w3.org/2000/svg">
 <path d="m1857 2028.5c81.85-155.9 124.72-311.81 124.72-463.81 0-495-249.44-498.89-249.44-912.04 0-233.87 116.93-339.1 116.93-417.05 0-70.149-54.566-124.72-124.72-124.72-38.983 0-85.749 19.483-116.93 77.949-81.85 155.9-124.72 311.81-124.72 463.81 0 495 249.45 498.89 249.45 912.04 0 233.87-116.93 339.1-116.93 417.05 0 70.149 54.566 124.72 124.72 124.72 38.983 0 85.749-19.483 116.93-77.949zm-623.61 0c81.849-155.9 124.72-311.81 124.72-463.81 0-495-249.44-498.89-249.44-912.04 0-233.87 116.93-339.1 116.93-417.05 0-70.149-54.566-124.72-124.72-124.72-38.983 0-85.75 19.483-116.93 77.949-81.849 155.9-124.72 311.81-124.72 463.81 0 495 249.44 498.89 249.44 912.04 0 233.87-116.93 339.1-116.93 417.05 0 70.149 54.566 124.72 124.72 124.72 38.983 0 85.75-19.483 116.93-77.949zm-623.61 0c81.849-155.9 124.72-311.81 124.72-463.81 0-495-249.45-498.89-249.45-912.04 0-233.87 116.93-339.1 116.93-417.05 0-70.149-54.566-124.72-124.72-124.72-38.983 0-85.75 19.483-116.93 77.949-81.849 155.9-124.72 311.81-124.72 463.81 0 495 249.44 498.89 249.44 912.04 0 233.87-116.93 339.1-116.93 417.05 0 70.149 54.566 124.72 124.72 124.72 38.983 0 85.75-19.483 116.93-77.949z" stroke-width="22.173"/>
</svg>
