<?xml version="1.0" encoding="UTF-8"?>
<svg width="30px" height="30px" viewBox="0 0 30 30" version="1.1" xmlns="http://www.w3.org/2000/svg" xmlns:xlink="http://www.w3.org/1999/xlink">
    <title>images / t7e_zg_sensor_mode</title>
    <g id="images-/-t7e_zg_sensor_mode" stroke="none" stroke-width="1" fill="none" fill-rule="evenodd">
        <path d="M12 6V4m0 2a2 2 0 100 4m0-4a2 2 0 110 4m-6 8a2 2 0 100-4m0 4a2 2 0 110-4m0 4v2m0-6V4m6 6v10m6-2a2 2 0 100-4m0 4a2 2 0 110-4m0 4v2m0-6V4" id="Combined-Shape" fill="#ffffff"></path>
    </g>
</svg>