<?xml version="1.0" encoding="UTF-8"?>
<svg width="30px" height="30px" viewBox="0 0 30 30" version="1.1" xmlns="http://www.w3.org/2000/svg" xmlns:xlink="http://www.w3.org/1999/xlink">
    <title>images / window_open_check</title>
    <g id="images-/-window_open_check" stroke="none" stroke-width="1" fill="none" fill-rule="evenodd">
        <path d="M28,5 L28,25.4285714 L2,25.4285714 L2,5 L28,5 Z M26.1428571,6.85714286 L3.85714286,6.85714286 L3.857,6.942 L12.2142857,7.70325559 L12.214,14.876 L12.2455021,15.4670156 L12.214,15.469 L12.2142857,22.4675724 L3.857,23.461 L3.85714286,23.5714286 L26.1428571,23.5714286 L26.142,23.461 L17.7857143,22.4675724 L17.785,15.469 L17.7567599,15.4670156 L17.785,14.914 L17.7857143,7.70325559 L26.142,6.942 L26.1428571,6.85714286 Z M10.859,15.54 L3.857,15.906 L3.85714286,22.1910701 L10.8594806,21.3562091 L10.859,15.54 Z M19.14,15.539 L19.1405194,21.3562091 L26.1428571,22.1910701 L26.142,15.906 L19.14,15.539 Z M26.1428571,8.40567129 L19.1405194,9.03679926 L19.14,14.145 L26.142,14.512 L26.1428571,8.40567129 Z M3.85714286,8.40567129 L3.857,14.512 L10.859,14.145 L10.8594806,9.03679926 L3.85714286,8.40567129 Z" id="Combined-Shape" fill="#000000"></path>
    </g>
</svg>