<?xml version="1.0" encoding="utf-8"?>
<!-- Generator: Adobe Illustrator 24.0.0, SVG Export Plug-In . SVG Version: 6.00 Build 0)  -->
<svg version="1.1" id="图层_1" xmlns="http://www.w3.org/2000/svg" xmlns:xlink="http://www.w3.org/1999/xlink" x="0px" y="0px"
	 viewBox="0 0 492.4 508.1" style="enable-background:new 0 0 492.4 508.1;" xml:space="preserve">
<style type="text/css">
	.st0{fill:none;stroke:#000000;stroke-miterlimit:10;}
</style>
<title>门磁感应报警器-Model</title>
<polyline class="st0" points="304.6,508.1 40.6,508.1 304.6,508.1 "/>
<line class="st0" x1="40.6" y1="505.9" x2="304.6" y2="505.9"/>
<line class="st0" x1="304.6" y1="493.5" x2="40.6" y2="493.5"/>
<line class="st0" x1="304.6" y1="492.4" x2="40.6" y2="492.4"/>
<line class="st0" x1="304.6" y1="468.1" x2="40.6" y2="468.1"/>
<line class="st0" x1="0" y1="467.5" x2="2.2" y2="467.5"/>
<line class="st0" x1="14.6" y1="467.5" x2="40" y2="467.5"/>
<line class="st0" x1="305.7" y1="467.5" x2="330.6" y2="467.5"/>
<line class="st0" x1="343.1" y1="467.5" x2="345.8" y2="467.5"/>
<polyline class="st0" points="0,467.5 0,40.6 0,467.5 "/>
<line class="st0" x1="2.2" y1="40.6" x2="2.2" y2="467.5"/>
<line class="st0" x1="14.6" y1="467.5" x2="14.6" y2="40.6"/>
<line class="st0" x1="16.2" y1="467.5" x2="16.2" y2="40.6"/>
<line class="st0" x1="40" y1="467.5" x2="40" y2="40.6"/>
<line class="st0" x1="40.6" y1="0" x2="40.6" y2="2.2"/>
<line class="st0" x1="40.6" y1="468.1" x2="40.6" y2="493.5"/>
<line class="st0" x1="40.6" y1="508.1" x2="40.6" y2="505.9"/>
<line class="st0" x1="40.6" y1="40" x2="40.6" y2="14.6"/>
<line class="st0" x1="148.3" y1="232.7" x2="148.3" y2="275.4"/>
<line class="st0" x1="156.4" y1="275.4" x2="156.4" y2="232.7"/>
<line class="st0" x1="168.8" y1="232.7" x2="168.8" y2="275.4"/>
<line class="st0" x1="176.9" y1="275.4" x2="176.9" y2="232.7"/>
<line class="st0" x1="188.9" y1="232.7" x2="188.9" y2="275.4"/>
<line class="st0" x1="197" y1="275.4" x2="197" y2="232.7"/>
<line class="st0" x1="304.6" y1="508.1" x2="304.6" y2="505.9"/>
<line class="st0" x1="304.6" y1="493.5" x2="304.6" y2="468.1"/>
<line class="st0" x1="304.6" y1="40" x2="304.6" y2="14.6"/>
<line class="st0" x1="304.6" y1="2.2" x2="304.6" y2="0"/>
<line class="st0" x1="305.7" y1="40.6" x2="305.7" y2="467.5"/>
<line class="st0" x1="329.5" y1="40.6" x2="329.5" y2="467.5"/>
<line class="st0" x1="330.6" y1="40.6" x2="330.6" y2="467.5"/>
<line class="st0" x1="343.1" y1="467.5" x2="343.1" y2="40.6"/>
<line class="st0" x1="345.2" y1="467.5" x2="345.2" y2="40.6"/>
<line class="st0" x1="345.8" y1="40.6" x2="345.8" y2="467.5"/>
<line class="st0" x1="0" y1="40.6" x2="2.2" y2="40.6"/>
<line class="st0" x1="14.6" y1="40.6" x2="40" y2="40.6"/>
<line class="st0" x1="305.7" y1="40.6" x2="330.6" y2="40.6"/>
<line class="st0" x1="343.1" y1="40.6" x2="345.8" y2="40.6"/>
<line class="st0" x1="40.6" y1="40" x2="304.6" y2="40"/>
<line class="st0" x1="40.6" y1="16.2" x2="304.6" y2="16.2"/>
<line class="st0" x1="40.6" y1="14.6" x2="304.6" y2="14.6"/>
<line class="st0" x1="304.6" y1="2.2" x2="40.6" y2="2.2"/>
<polyline class="st0" points="304.6,0 40.6,0 304.6,0 "/>
<polyline class="st0" points="304.6,508.1 312.8,507.6 320.3,504.9 327.4,501.1 333.3,496.2 338.2,490.2 342,483.2 344.7,475.6 
	345.2,467.5 "/>
<polyline class="st0" points="0,467.5 0.5,475.6 3.2,483.2 7,490.2 11.9,496.2 17.9,501.1 24.9,504.9 32.5,507.6 40.6,508.1 "/>
<polyline class="st0" points="40.6,0 32.5,0.5 24.9,3.2 17.9,7 11.9,11.9 7,17.9 3.2,24.9 0.5,32.5 0,40.6 "/>
<polyline class="st0" points="345.2,40.6 344.7,32.5 342,24.9 338.2,17.9 333.3,11.9 327.4,7 320.3,3.2 312.8,0.5 304.6,0 "/>
<polyline class="st0" points="0.5,467.5 1.1,475.1 3.8,482.7 7,489.7 12.4,495.6 18.4,501.1 25.4,504.3 33,507 40.6,507.6 "/>
<polyline class="st0" points="40.6,0.5 33,1.1 25.4,3.8 18.4,7 12.4,12.4 7,18.4 3.8,25.4 1.1,33 0.5,40.6 "/>
<polyline class="st0" points="344.7,40.6 344.1,33 341.4,25.4 338.2,18.4 332.8,12.4 326.8,7 319.8,3.8 312.2,1.1 304.6,0.5 "/>
<polyline class="st0" points="304.6,507.6 312.2,507 319.8,504.3 326.8,501.1 332.8,495.6 338.2,489.7 341.4,482.7 344.1,475.1 
	344.7,467.5 "/>
<polyline class="st0" points="342.5,40.6 342,33 339.8,26 336,19.5 331.2,14.1 325.8,9.2 319.2,5.4 312.2,3.2 304.6,2.7 "/>
<polyline class="st0" points="304.6,505.4 312.2,504.9 319.2,502.7 325.8,498.9 331.2,494 336,488.6 339.8,482.1 342,475.1 
	342.5,467.5 "/>
<polyline class="st0" points="2.7,467.5 3.2,475.1 5.4,482.1 9.2,488.6 14.1,494 19.5,498.9 26,502.7 33,504.9 40.6,505.4 "/>
<polyline class="st0" points="40.6,2.7 33,3.2 26,5.4 19.5,9.2 14.1,14.1 9.2,19.5 5.4,26 3.2,33 2.7,40.6 "/>
<polyline class="st0" points="15.1,467.5 16.2,474 18.4,480.5 22.7,485.4 28.1,489.7 34.1,491.9 40.6,493 "/>
<polyline class="st0" points="304.6,493 311.1,491.9 317.6,489.7 322.5,485.4 326.8,480 329,474 330.1,467.5 "/>
<polyline class="st0" points="330.1,40.6 329,34.1 326.8,27.6 322.5,22.7 317.1,18.4 311.1,16.2 304.6,15.1 "/>
<polyline class="st0" points="40.6,15.1 34.1,16.2 27.6,18.4 22.7,22.7 18.4,28.1 16.2,34.1 15.1,40.6 "/>
<polyline class="st0" points="304.6,491.9 311.1,490.8 317.1,488.6 322,484.8 325.8,479.4 327.9,474 329,467.5 "/>
<polyline class="st0" points="329,40.6 327.9,34.1 325.8,28.1 322,23.3 316.5,19.5 311.1,17.3 304.6,16.2 "/>
<polyline class="st0" points="40.6,16.2 34.1,17.3 28.1,19.5 23.3,23.3 19.5,28.7 17.3,34.1 16.2,40.6 "/>
<polyline class="st0" points="16.2,467.5 17.3,474 19.5,480 23.3,484.8 28.7,488.6 34.1,490.8 40.6,491.9 "/>
<polyline class="st0" points="197,232.7 196.4,230.5 194.3,228.9 192.1,228.9 189.9,230.5 189.4,232.7 "/>
<polyline class="st0" points="189.4,275.4 189.9,277.6 192.1,279.2 194.3,279.2 196.4,277.6 197,275.4 "/>
<polyline class="st0" points="168.8,275.4 169.4,277.6 171.5,279.2 173.7,279.2 175.9,277.6 176.4,275.4 "/>
<polyline class="st0" points="176.4,232.7 175.9,230.5 173.7,228.9 171.5,228.9 169.4,230.5 168.8,232.7 "/>
<polyline class="st0" points="148.8,275.4 149.3,277.6 151.5,279.2 153.7,279.2 155.8,277.6 156.4,275.4 "/>
<polyline class="st0" points="156.4,232.7 155.8,230.5 153.7,228.9 151.5,228.9 149.3,230.5 148.8,232.7 "/>
<line class="st0" x1="40" y1="467.5" x2="40.6" y2="468.1"/>
<line class="st0" x1="40.6" y1="40" x2="40" y2="40.6"/>
<line class="st0" x1="305.2" y1="40.6" x2="304.6" y2="40"/>
<line class="st0" x1="304.6" y1="468.1" x2="305.2" y2="467.5"/>
<polyline class="st0" points="462.1,508.1 431.8,508.1 462.1,508.1 "/>
<line class="st0" x1="431.8" y1="505.9" x2="462.1" y2="505.9"/>
<line class="st0" x1="462.1" y1="498.9" x2="431.8" y2="498.9"/>
<line class="st0" x1="462.1" y1="498.4" x2="431.8" y2="498.4"/>
<line class="st0" x1="431.8" y1="478.9" x2="462.1" y2="478.9"/>
<line class="st0" x1="483.2" y1="477.8" x2="463.2" y2="477.8"/>
<line class="st0" x1="401" y1="477.8" x2="403.1" y2="477.8"/>
<line class="st0" x1="410.2" y1="477.8" x2="430.7" y2="477.8"/>
<line class="st0" x1="490.2" y1="477.8" x2="492.4" y2="477.8"/>
<line class="st0" x1="401" y1="30.3" x2="401" y2="477.8"/>
<line class="st0" x1="401.5" y1="30.3" x2="401.5" y2="477.8"/>
<line class="st0" x1="403.1" y1="30.3" x2="403.1" y2="477.8"/>
<line class="st0" x1="410.2" y1="477.8" x2="410.2" y2="30.3"/>
<line class="st0" x1="411.2" y1="477.8" x2="411.2" y2="30.3"/>
<polyline class="st0" points="430.7,30.3 430.7,239.7 430.7,268.4 430.7,477.8 "/>
<line class="st0" x1="431.8" y1="0" x2="431.8" y2="2.2"/>
<line class="st0" x1="431.8" y1="9.2" x2="431.8" y2="29.2"/>
<line class="st0" x1="431.8" y1="508.1" x2="431.8" y2="505.9"/>
<line class="st0" x1="431.8" y1="498.9" x2="431.8" y2="478.9"/>
<line class="st0" x1="436.1" y1="268.4" x2="436.1" y2="239.7"/>
<line class="st0" x1="444.2" y1="239.7" x2="444.2" y2="268.4"/>
<line class="st0" x1="449.7" y1="268.4" x2="449.7" y2="239.7"/>
<line class="st0" x1="457.8" y1="239.7" x2="457.8" y2="268.4"/>
<line class="st0" x1="462.1" y1="9.2" x2="462.1" y2="29.2"/>
<line class="st0" x1="462.1" y1="498.9" x2="462.1" y2="478.9"/>
<line class="st0" x1="462.1" y1="2.2" x2="462.1" y2="0"/>
<line class="st0" x1="462.1" y1="505.9" x2="462.1" y2="508.1"/>
<polyline class="st0" points="463.2,477.8 463.2,268.4 463.2,239.7 463.2,30.3 "/>
<line class="st0" x1="482.1" y1="30.3" x2="482.1" y2="477.8"/>
<line class="st0" x1="483.2" y1="30.3" x2="483.2" y2="477.8"/>
<line class="st0" x1="490.2" y1="477.8" x2="490.2" y2="30.3"/>
<polyline class="st0" points="492.4,477.8 492.4,30.3 492.4,477.8 "/>
<line class="st0" x1="483.2" y1="30.3" x2="463.2" y2="30.3"/>
<line class="st0" x1="401" y1="30.3" x2="403.1" y2="30.3"/>
<line class="st0" x1="410.2" y1="30.3" x2="430.7" y2="30.3"/>
<line class="st0" x1="490.2" y1="30.3" x2="492.4" y2="30.3"/>
<line class="st0" x1="462.1" y1="29.2" x2="431.8" y2="29.2"/>
<line class="st0" x1="431.8" y1="10.3" x2="462.1" y2="10.3"/>
<line class="st0" x1="431.8" y1="9.2" x2="462.1" y2="9.2"/>
<line class="st0" x1="462.1" y1="2.2" x2="431.8" y2="2.2"/>
<polyline class="st0" points="462.1,0 431.8,0 462.1,0 "/>
<polyline class="st0" points="401.5,477.8 402,484.3 404.8,490.8 408,496.7 412.9,501.6 418.8,504.9 425.3,507.6 431.8,508.1 "/>
<polyline class="st0" points="402,477.8 402.6,484.3 404.8,490.8 408.5,496.2 413.4,501.1 418.8,504.9 425.3,507 431.8,507.6 "/>
<polyline class="st0" points="403.7,477.8 404.2,484.3 406.4,490.2 409.6,495.1 414.5,500 419.4,503.2 425.3,505.4 431.8,505.9 "/>
<polyline class="st0" points="410.7,477.8 411.2,483.2 413.4,488.6 416.6,493 421.5,496.2 426.4,498.4 431.8,498.9 "/>
<polyline class="st0" points="411.8,477.8 412.3,483.2 414.5,488.1 417.7,491.9 422.1,495.1 426.4,497.3 431.8,497.8 "/>
<polyline class="st0" points="430.7,268.4 431.3,270.5 433.4,271.1 435.6,270.5 436.1,268.4 "/>
<line class="st0" x1="431.3" y1="477.8" x2="431.8" y2="478.3"/>
<polyline class="st0" points="431.8,0 425.3,0.5 418.8,3.2 412.9,6.5 408,11.4 404.8,17.3 402,23.8 401.5,30.3 "/>
<polyline class="st0" points="431.8,0.5 425.3,1.1 418.8,3.2 413.4,7 408.5,11.9 404.8,17.3 402.6,23.8 402,30.3 "/>
<polyline class="st0" points="431.8,2.2 425.3,2.7 419.4,4.9 414.5,8.1 409.6,13 406.4,17.9 404.2,23.8 403.7,30.3 "/>
<polyline class="st0" points="431.8,9.2 426.4,9.7 421,11.9 416.6,15.1 413.4,20 411.2,24.9 410.7,30.3 "/>
<polyline class="st0" points="431.8,10.3 426.4,10.8 421.5,13 417.7,16.2 414.5,20.6 412.3,24.9 411.8,30.3 "/>
<polyline class="st0" points="436.1,239.7 435.6,237.6 433.4,237 431.3,237.6 430.7,239.7 "/>
<line class="st0" x1="431.8" y1="29.8" x2="431.3" y2="30.3"/>
<polyline class="st0" points="462.1,508.1 468.6,507.6 475.1,504.9 481,501.6 485.9,496.7 489.2,490.8 491.9,484.3 492.4,477.8 "/>
<polyline class="st0" points="462.1,507.6 468.6,507 475.1,504.9 480.5,501.1 485.4,496.2 489.2,490.8 491.3,484.3 491.9,477.8 "/>
<polyline class="st0" points="462.1,505.9 468.6,505.4 474.5,503.2 479.4,500 484.3,495.1 487.5,490.2 489.7,484.3 490.2,477.8 "/>
<polyline class="st0" points="462.1,498.9 467.5,498.4 472.9,496.2 477.3,493 480.5,488.1 482.7,483.2 483.2,477.8 "/>
<polyline class="st0" points="462.1,497.8 467.5,497.3 472.4,495.1 476.2,491.9 479.4,487.5 481.6,483.2 482.1,477.8 "/>
<polyline class="st0" points="457.8,268.4 458.3,270.5 460.5,271.1 462.6,270.5 463.2,268.4 "/>
<polyline class="st0" points="444.2,268.4 444.8,270.5 447,271.1 449.1,270.5 449.7,268.4 "/>
<line class="st0" x1="462.1" y1="478.3" x2="462.6" y2="477.8"/>
<polyline class="st0" points="492.4,30.3 491.9,23.8 489.2,17.3 485.9,11.4 481,6.5 475.1,3.2 468.6,0.5 462.1,0 "/>
<polyline class="st0" points="491.9,30.3 491.3,23.8 489.2,17.3 485.4,11.9 480.5,7 475.1,3.2 468.6,1.1 462.1,0.5 "/>
<polyline class="st0" points="490.2,30.3 489.7,23.8 487.5,17.9 484.3,13 479.4,8.1 474.5,4.9 468.6,2.7 462.1,2.2 "/>
<polyline class="st0" points="483.2,30.3 482.7,24.9 480.5,19.5 477.3,15.1 472.4,11.9 467.5,9.7 462.1,9.2 "/>
<polyline class="st0" points="482.1,30.3 481.6,24.9 479.4,20 476.2,16.2 471.9,13 467.5,10.8 462.1,10.3 "/>
<polyline class="st0" points="463.2,239.7 462.6,237.6 460.5,237 458.3,237.6 457.8,239.7 "/>
<polyline class="st0" points="449.7,239.7 449.1,237.6 447,237 444.8,237.6 444.2,239.7 "/>
<line class="st0" x1="462.6" y1="30.3" x2="462.1" y2="29.8"/>
</svg>
