<?xml version="1.0" encoding="UTF-8"?>
<svg width="320px" height="320px" viewBox="0 0 320 320" version="1.1" xmlns="http://www.w3.org/2000/svg" xmlns:xlink="http://www.w3.org/1999/xlink">
    <title>images / Namron 3308432</title>
    <g id="images-/-Namron-3308432" stroke="none" stroke-width="1" fill="none" fill-rule="evenodd">
        <path d="M160,93 C245.604136,93 315,127.697932 315,170.5 C315,171.470847 314.964297,172.437525 314.893511,173.399723 C314.964787,174.261997 315,175.129141 315,176 C315,214.659932 245.604136,246 160,246 C74.3958638,246 5,214.659932 5,176 C5,175.129141 5.03521331,174.261997 5.10503198,173.398841 C5.0357031,172.437525 5,171.470847 5,170.5 C5,127.697932 74.3958638,93 160,93 Z M160,113 C77.8223322,113 12,142.726215 12,176 C12,209.273785 77.8223322,239 160,239 C242.177668,239 308,209.273785 308,176 C308,142.726215 242.177668,113 160,113 Z M160,75 C219.919975,75 270.371502,92.7749008 285.423677,116.954999 C257.24429,97.5886784 211.562388,85 160,85 C108.437612,85 62.7557103,97.5886784 34.5774806,116.954443 C49.6284981,92.7749008 100.080025,75 160,75 Z" id="Combined-Shape" fill="#000000"></path>
    </g>
</svg>