<?xml version="1.0" encoding="utf-8"?>
<!-- Generator: Adobe Illustrator 24.0.0, SVG Export Plug-In . SVG Version: 6.00 Build 0)  -->
<svg version="1.1" id="图层_1" xmlns="http://www.w3.org/2000/svg" xmlns:xlink="http://www.w3.org/1999/xlink" x="0px" y="0px"
	 viewBox="0 0 600 600" style="enable-background:new 0 0 600 600;" xml:space="preserve">
<style type="text/css">
	.st0{fill:none;stroke:#000000;stroke-miterlimit:10;}
</style>
<polyline class="st0" points="319.8,239.3 320.3,239.3 320.3,239.8 "/>
<line class="st0" x1="327" y1="242.2" x2="327" y2="242.2"/>
<line class="st0" x1="327.5" y1="242.2" x2="327.5" y2="242.7"/>
<polyline class="st0" points="300,26.8 281.6,27.3 263.8,29.2 245.9,32.1 228.1,36.4 210.7,41.8 193.8,48.5 177.3,56.2 161.4,64.9 
	145.9,74.6 131.5,85.2 117.5,96.8 104.4,109.9 92.3,123.4 81.2,137.4 70.6,152.4 61.4,167.8 53.2,184.2 46.5,201.1 40.2,218 
	35.4,235.4 32,253.3 29.6,271.6 28.1,289.5 28.1,307.9 29.6,325.7 32,344.1 35.4,361.9 40.2,379.3 46.5,396.2 53.2,413.1 
	61.4,429.5 70.6,445 81.2,460 92.3,474 104.4,487.5 117.5,500.5 131.5,512.1 145.9,522.8 161.4,532.4 177.3,541.1 193.8,548.8 
	210.7,555.6 228.1,560.9 245.9,565.2 263.8,568.2 281.6,570.1 300,570.6 318.4,570.1 336.2,568.2 354.1,565.2 372,560.9 
	389.3,555.6 406.2,548.8 422.7,541.1 438.6,532.4 454,522.8 468.5,512.1 482.5,500.5 495.6,487.5 507.7,474 518.8,460 529.4,445 
	538.6,429.5 546.8,413.1 553.5,396.2 559.8,379.3 564.6,361.9 568,344.1 570.4,325.7 571.9,307.9 571.9,289.5 570.4,271.6 
	568,253.3 564.6,235.4 559.8,218 553.5,201.1 546.8,184.2 538.6,167.8 529.4,152.4 518.8,137.4 507.7,123.4 495.6,109.9 482.5,96.8 
	468.5,85.2 454,74.6 438.6,64.9 422.7,56.2 406.2,48.5 389.3,41.8 372,36.4 354.1,32.1 336.2,29.2 318.4,27.3 300,26.8 "/>
<polyline class="st0" points="300,28.7 282.1,29.2 263.8,31.1 246.4,34 228.5,38.4 211.6,43.7 194.7,50 178.3,57.7 162.4,66.4 
	147.4,76 132.9,86.7 118.9,98.3 105.9,110.8 93.8,124.3 82.7,138.4 72.6,153.3 63.4,168.8 55.2,185.2 47.9,201.6 42.1,218.5 
	37.3,235.9 33.9,253.8 31.5,271.6 30,289.5 30,307.9 31.5,325.7 33.9,343.6 37.3,361.5 42.1,378.8 47.9,395.8 55.2,412.2 
	63.4,428.6 72.6,444 82.7,459 93.8,473 105.9,486.5 118.9,499.1 132.9,510.7 147.4,521.3 162.4,531 178.3,539.7 194.7,547.4 
	211.6,553.7 228.5,559 246.4,563.3 263.8,566.2 282.1,568.2 300,568.6 317.9,568.2 336.2,566.2 353.6,563.3 371.5,559 388.4,553.7 
	405.3,547.4 421.7,539.7 437.6,531 452.6,521.3 467.1,510.7 481.1,499.1 494.1,486.5 506.2,473 517.3,459 527.5,444 536.6,428.6 
	544.8,412.2 552.1,395.8 557.9,378.8 562.7,361.5 566.1,343.6 568.5,325.7 570,307.9 570,289.5 568.5,271.6 566.1,253.8 
	562.7,235.9 557.9,218.5 552.1,201.6 544.8,185.2 536.6,168.8 527.5,153.3 517.3,138.4 506.2,124.3 494.1,110.8 481.1,98.3 
	467.1,86.7 452.6,76 437.6,66.4 421.7,57.7 405.3,50 388.4,43.7 371.5,38.4 353.6,34 336.2,31.1 317.9,29.2 300,28.7 "/>
<polyline class="st0" points="300,29.2 282.1,29.7 264.3,31.6 246.4,34.5 229,38.9 211.6,44.2 194.7,50.5 178.3,58.2 162.9,66.9 
	147.4,76.5 132.9,87.2 119.4,98.7 106.3,111.3 94.3,124.8 83.2,138.8 73,153.8 63.8,169.3 55.6,185.2 48.4,201.6 42.6,219 
	37.8,236.4 34.4,253.8 32,271.6 30.5,289.5 30.5,307.9 32,325.7 34.4,343.6 37.8,361 42.6,378.4 48.4,395.8 55.6,412.2 63.8,428.1 
	73,443.6 83.2,458.5 94.3,472.5 106.3,486 119.4,498.6 132.9,510.2 147.4,520.8 162.9,530.5 178.3,539.2 194.7,546.9 211.6,553.2 
	229,558.5 246.4,562.8 264.3,565.7 282.1,567.7 300,568.2 317.9,567.7 335.7,565.7 353.6,562.8 371,558.5 388.4,553.2 405.3,546.9 
	421.7,539.2 437.1,530.5 452.6,520.8 467.1,510.2 480.6,498.6 493.6,486 505.7,472.5 516.8,458.5 527,443.6 536.2,428.1 
	544.4,412.2 551.6,395.8 557.4,378.4 562.2,361 565.6,343.6 568,325.7 569.5,307.9 569.5,289.5 568,271.6 565.6,253.8 562.2,236.4 
	557.4,219 551.6,201.6 544.4,185.2 536.2,169.3 527,153.8 516.8,138.8 505.7,124.8 493.6,111.3 480.6,98.7 467.1,87.2 452.6,76.5 
	437.1,66.9 421.7,58.2 405.3,50.5 388.4,44.2 371,38.9 353.6,34.5 335.7,31.6 317.9,29.7 300,29.2 "/>
<polyline class="st0" points="300,30.7 282.1,31.1 264.3,33.1 246.4,36 229,40.3 212.1,45.6 195.2,51.9 179.3,59.6 163.3,67.8 
	148.4,77.5 133.9,88.1 120.3,99.7 107.3,112.3 95.2,125.8 84.1,139.8 74,154.3 64.8,169.7 57.1,185.7 49.8,202.6 44,219.5 
	39.2,236.4 35.8,254.2 33.4,271.6 32,289.5 32,307.9 33.4,325.7 35.8,343.1 39.2,361 44,377.9 49.8,394.8 57.1,411.7 64.8,427.6 
	74,443.1 84.1,457.6 95.2,471.6 107.3,485.1 120.3,497.6 133.9,509.2 148.4,519.9 163.3,529.5 179.3,537.7 195.2,545.5 212.1,551.7 
	229,557 246.4,561.4 264.3,564.3 282.1,566.2 300,566.7 317.9,566.2 335.7,564.3 353.6,561.4 371,557 387.9,551.7 404.8,545.5 
	420.7,537.7 436.7,529.5 451.6,519.9 466.1,509.2 479.6,497.6 492.7,485.1 504.8,471.6 515.9,457.6 526,443.1 535.2,427.6 
	542.9,411.7 550.2,394.8 556,377.9 560.8,361 564.2,343.1 566.6,325.7 568,307.9 568,289.5 566.6,271.6 564.2,254.2 560.8,236.4 
	556,219.5 550.2,202.6 542.9,185.7 535.2,169.7 526,154.3 515.9,139.8 504.8,125.8 492.7,112.3 479.6,99.7 466.1,88.1 451.6,77.5 
	436.7,67.8 420.7,59.6 404.8,51.9 387.9,45.6 371,40.3 353.6,36 335.7,33.1 317.9,31.1 300,30.7 "/>
<polyline class="st0" points="300,39.8 282.1,40.3 264.8,42.2 247.4,45.1 230,49.5 213.6,54.8 196.7,61.1 180.7,68.8 165.8,77.5 
	150.8,87.2 136.8,97.8 123.2,109.4 110.7,121.9 99.1,135.4 88.5,149.5 78.8,164.4 70.1,179.4 62.4,195.3 56.1,212.2 50.8,228.7 
	46.5,246 43.6,263.4 41.6,280.8 41.2,298.7 41.6,316.5 43.6,333.9 46.5,351.3 50.8,368.7 56.1,385.1 62.4,402 70.1,418 78.8,432.9 
	88.5,447.9 99.1,461.9 110.7,475.4 123.2,488 136.8,499.6 150.8,510.2 165.8,519.9 180.7,528.5 196.7,536.3 213.6,542.5 230,547.9 
	247.4,552.2 264.8,555.1 282.1,557 300,557.5 317.9,557 335.2,555.1 352.6,552.2 370,547.9 386.4,542.5 403.3,536.3 419.3,528.5 
	434.2,519.9 449.2,510.2 463.2,499.6 476.8,488 489.3,475.4 500.9,461.9 511.5,447.9 521.2,432.9 529.9,418 537.6,402 543.9,385.1 
	549.2,368.7 553.5,351.3 556.4,333.9 558.4,316.5 558.8,298.7 558.4,280.8 556.4,263.4 553.5,246 549.2,228.7 543.9,212.2 
	537.6,195.3 529.9,179.4 521.2,164.4 511.5,149.5 500.9,135.4 489.3,121.9 476.8,109.4 463.2,97.8 449.2,87.2 434.2,77.5 
	419.3,68.8 403.3,61.1 386.4,54.8 370,49.5 352.6,45.1 335.2,42.2 317.9,40.3 300,39.8 "/>
<polyline class="st0" points="300,40.3 282.1,40.8 264.8,42.7 247.4,45.6 230.5,50 213.6,55.3 197.1,61.6 181.2,69.3 165.8,78 
	150.8,87.6 136.8,98.3 123.7,109.9 111.2,122.4 99.6,135.4 89,149.5 79.3,164.4 70.6,179.9 62.9,195.8 56.6,212.2 51.3,229.1 
	47,246 44,263.4 42.1,280.8 41.6,298.7 42.1,316.5 44,333.9 47,351.3 51.3,368.2 56.6,385.1 62.9,401.5 70.6,417.5 79.3,432.9 
	89,447.9 99.6,461.9 111.2,474.9 123.7,487.5 136.8,499.1 150.8,509.7 165.8,519.4 181.2,528.1 197.1,535.8 213.6,542.1 
	230.5,547.4 247.4,551.7 264.8,554.6 282.1,556.6 300,557 317.9,556.6 335.2,554.6 352.6,551.7 369.5,547.4 386.4,542.1 
	402.9,535.8 418.8,528.1 434.2,519.4 449.2,509.7 463.2,499.1 476.3,487.5 488.8,474.9 500.4,461.9 511,447.9 520.7,432.9 
	529.4,417.5 537.1,401.5 543.4,385.1 548.7,368.2 553,351.3 556,333.9 557.9,316.5 558.4,298.7 557.9,280.8 556,263.4 553,246 
	548.7,229.1 543.4,212.2 537.1,195.8 529.4,179.9 520.7,164.4 511,149.5 500.4,135.4 488.8,122.4 476.3,109.9 463.2,98.3 
	449.2,87.6 434.2,78 418.8,69.3 402.9,61.6 386.4,55.3 369.5,50 352.6,45.6 335.2,42.7 317.9,40.8 300,40.3 "/>
<polyline class="st0" points="300,70.3 283.1,70.7 266.7,72.7 250.3,75.6 234.3,79.9 218.4,85.2 202.9,92 188.4,99.7 174,108.4 
	160.4,118.1 147.4,128.7 135.3,140.3 124.2,152.4 114.1,165.9 104.9,179.9 96.7,194.4 89.9,209.3 83.7,224.8 78.8,240.7 75.4,257.1 
	73,273.6 71.6,290.5 71.6,306.9 73,323.8 75.4,340.2 78.8,356.6 83.7,372.6 89.9,388 96.7,403 104.9,417.5 114.1,431.5 124.2,445 
	135.3,457.1 147.4,468.7 160.4,479.3 174,489 188.4,497.6 202.9,505.4 218.4,512.1 234.3,517.4 250.3,521.8 266.7,524.7 
	283.1,526.6 300,527.1 316.9,526.6 333.3,524.7 349.7,521.8 365.7,517.4 381.6,512.1 397.1,505.4 411.5,497.6 426,489 439.6,479.3 
	452.6,468.7 464.7,457.1 475.8,445 485.9,431.5 495.1,417.5 503.3,403 510.1,388 516.3,372.6 521.2,356.6 524.6,340.2 527,323.8 
	528.4,306.9 528.4,290.5 527,273.6 524.6,257.1 521.2,240.7 516.3,224.8 510.1,209.3 503.3,194.4 495.1,179.9 485.9,165.9 
	475.8,152.4 464.7,140.3 452.6,128.7 439.6,118.1 426,108.4 411.5,99.7 397.1,92 381.6,85.2 365.7,79.9 349.7,75.6 333.3,72.7 
	316.9,70.7 300,70.3 "/>
<polyline class="st0" points="300,190 288.4,190.5 277.3,192.4 266.2,195.3 255.6,199.2 245.4,204.5 236.2,210.8 227.1,218 
	219.4,225.8 212.1,234.9 205.8,244.1 200.5,254.2 196.7,264.9 193.8,276 191.8,287.1 191.3,298.7 191.8,310.3 193.8,321.4 
	196.7,332.5 200.5,343.1 205.8,353.2 212.1,362.4 219.4,371.6 227.1,379.3 236.2,386.6 245.4,392.9 255.6,398.2 266.2,402 
	277.3,404.9 288.4,406.9 300,407.3 311.6,406.9 322.7,404.9 333.8,402 344.4,398.2 354.6,392.9 363.8,386.6 372.9,379.3 
	380.6,371.6 387.9,362.4 394.2,353.2 399.5,343.1 403.3,332.5 406.2,321.4 408.2,310.3 408.7,298.7 408.2,287.1 406.2,276 
	403.3,264.9 399.5,254.2 394.2,244.1 387.9,234.9 380.6,225.8 372.9,218 363.8,210.8 354.6,204.5 344.4,199.2 333.8,195.3 
	322.7,192.4 311.6,190.5 300,190 "/>
<polyline class="st0" points="300,229.1 290.8,229.6 282.1,231.6 273.4,234.4 265.2,238.3 257.5,243.6 250.7,249.4 244.9,256.2 
	239.6,263.9 235.8,272.1 232.9,280.8 230.9,289.5 230.5,298.7 230.9,307.9 232.9,316.5 235.8,325.2 239.6,333.5 244.9,341.2 
	250.7,347.9 257.5,353.7 265.2,359 273.4,362.9 282.1,365.8 290.8,367.7 300,368.2 309.2,367.7 317.9,365.8 326.6,362.9 334.8,359 
	342.5,353.7 349.3,347.9 355,341.2 360.4,333.5 364.2,325.2 367.1,316.5 369.1,307.9 369.5,298.7 369.1,289.5 367.1,280.8 
	364.2,272.1 360.4,263.9 355,256.2 349.3,249.4 342.5,243.6 334.8,238.3 326.6,234.4 317.9,231.6 309.2,229.6 300,229.1 "/>
<polyline class="st0" points="300,231.1 290.8,231.6 282.1,233.5 273.4,236.4 265.7,240.7 258,245.6 251.2,251.8 245.4,258.6 
	240.6,266.3 236.7,274.5 234.3,283.2 232.9,291.9 232.4,301.1 233.4,309.8 235.3,318.5 238.7,327.2 243,334.9 248.3,342.1 
	254.6,348.9 261.9,354.2 269.6,359 277.8,362.4 286.5,364.8 295.6,366.3 304.4,366.3 313.5,364.8 322.2,362.4 330.4,359 
	338.1,354.2 345.4,348.9 351.7,342.1 357,334.9 361.3,327.2 364.7,318.5 366.6,309.8 367.6,301.1 367.1,291.9 365.7,283.2 
	363.3,274.5 359.4,266.3 354.6,258.6 348.8,251.8 342,245.6 334.3,240.7 326.6,236.4 317.9,233.5 309.2,231.6 300,231.1 "/>
<polyline class="st0" points="300,235.9 291.3,236.4 282.6,238.3 274.4,241.2 266.7,245.6 259.4,250.4 253.2,256.7 247.8,263.4 
	243.5,271.1 240.1,279.4 238.2,287.6 237.2,296.3 237.7,305.4 239.1,313.6 241.6,322.3 245.4,330.1 250.7,337.3 256.5,344.1 
	263.3,349.4 270.5,354.2 278.8,357.6 287,360 295.6,361.5 304.4,361.5 313,360 321.2,357.6 329.5,354.2 336.7,349.4 343.5,344.1 
	349.3,337.3 354.6,330.1 358.4,322.3 360.9,313.6 362.3,305.4 362.8,296.3 361.8,287.6 359.9,279.4 356.5,271.1 352.2,263.4 
	346.8,256.7 340.6,250.4 333.3,245.6 325.6,241.2 317.4,238.3 308.7,236.4 300,235.9 "/>
<polyline class="st0" points="320.3,239.3 311.6,236.9 302.9,235.9 293.7,236.4 285,237.8 276.8,240.2 268.6,244.1 261.4,249.4 
	254.6,255.2 248.8,262 244.5,269.7 240.6,277.9 238.7,286.1 237.2,295.3 237.2,304 238.7,312.7 241.6,321.4 245.4,329.6 
	250.3,336.8 "/>
<polyline class="st0" points="253.2,340.2 259.4,346.5 266.7,351.8 274.4,356.1 282.6,359 291.3,361 300,361.5 308.7,361 317.4,359 
	325.6,356.1 333.3,351.8 340.6,346.5 346.8,340.2 352.2,333.5 356.5,325.7 359.9,317.5 361.8,308.8 "/>
<line class="st0" x1="362.3" y1="305.4" x2="362.8" y2="298.2"/>
<line class="st0" x1="362.8" y1="294.8" x2="360.9" y2="283.2"/>
<line class="st0" x1="359.9" y1="279.9" x2="357.5" y2="273.1"/>
<line class="st0" x1="356" y1="270.2" x2="349.3" y2="260"/>
<polyline class="st0" points="347.3,257.1 338.1,248.9 327.5,242.2 "/>
<line class="st0" x1="327.5" y1="242.7" x2="320.3" y2="239.8"/>
<polyline class="st0" points="300,237.4 291.3,237.8 283.1,239.8 274.9,242.7 267.6,246.5 260.4,251.8 254.6,257.6 249.3,264.4 
	244.9,271.6 241.6,279.9 239.6,288.1 238.7,296.8 239.1,305 240.6,313.6 243,321.9 246.9,329.1 251.7,336.4 257.5,342.6 
	263.8,348.4 271,352.8 279.2,356.1 287.4,358.6 295.6,360 304.4,360 312.6,358.6 320.8,356.1 329,352.8 336.2,348.4 342.5,342.6 
	348.3,336.4 353.1,329.1 357,321.9 359.4,313.6 360.9,305 361.3,296.8 360.4,288.1 358.4,279.9 355,271.6 350.7,264.4 345.4,257.6 
	339.6,251.8 332.4,246.5 325.1,242.7 316.9,239.8 308.7,237.8 300,237.4 "/>
</svg>
