<svg id="图层_1" data-name="图层 1" xmlns="http://www.w3.org/2000/svg" viewBox="0 0 123.14 123.14"><defs><style>.cls-1,.cls-2{fill:none;stroke:#010101;stroke-linecap:round;stroke-linejoin:round;}.cls-1{stroke-width:0.24px;}.cls-2{stroke-width:0.09px;}</style></defs><title>t10-2</title><line class="cls-1" x1="0.12" y1="1.54" x2="0.12" y2="121.59"/><path class="cls-1" d="M68.78,182v.28m0-121.85v.28m-1.13,1.24V180.85m-.38,0V61.94" transform="translate(-66.67 -59.82)"/><line class="cls-1" x1="1.54" y1="123.02" x2="121.59" y2="123.02"/><path class="cls-1" d="M188.93,180.85h.29m-121.95,0h.38M68.78,182H187.7m0,.28H68.78" transform="translate(-66.67 -59.82)"/><path class="cls-1" d="M123.35,81.39V80.16m9.87,81.23h-9.87v1.14m45.27,0H87.86m45.36,0h34.93m-79.72,0h34.92m-36.25-.76V81m0,80.19V81.49" transform="translate(-66.67 -59.82)"/><path class="cls-1" d="M187.7,182.27l.57.57M66.79,61.37l.48.57m0,118.91-.48.57M188.27,59.94l-.57.48" transform="translate(-66.67 -59.82)"/><path class="cls-2" d="M133.22,161.39v1.14m0-82.37v1.23" transform="translate(-66.67 -59.82)"/><path class="cls-1" d="M189.69,181.42l-.47-.57M68.78,60.42l-.56-.48m0,122.9.56-.57M189.22,61.94l.47-.57" transform="translate(-66.67 -59.82)"/><path class="cls-1" d="M123.35,80.16H88.43m79.72,0H133.22m-45.36.09h80.76m-35.4,1.14h-9.87m46.13,79.81V81.49m-.1-.48v80.76" transform="translate(-66.67 -59.82)"/><path class="cls-1" d="M189.22,61.94V180.85m-.29,0V61.94M187.7,60.7v-.28m0,121.85V182" transform="translate(-66.67 -59.82)"/><line class="cls-1" x1="123.02" y1="121.59" x2="123.02" y2="1.54"/><path class="cls-1" d="M68.78,60.42H187.7m0,.28H68.78m-1.13,1.24h-.38m122,0h-.29" transform="translate(-66.67 -59.82)"/><line class="cls-1" x1="1.54" y1="0.12" x2="121.59" y2="0.12"/><polyline class="cls-2" points="57.06 102.14 56.87 101.85 56.68 101.66"/><polyline class="cls-2" points="57.16 102.14 57.25 102.33 57.44 102.42 57.63 102.52 57.82 102.61"/><polyline class="cls-1" points="0.69 121.03 0.78 121.41 0.88 121.78 1.07 122.07 1.35 122.26 1.73 122.35 2.11 122.45"/><polyline class="cls-1" points="0.12 121.59 0.21 121.97 0.31 122.26 0.5 122.64 0.88 122.83 1.16 122.92 1.54 123.02"/><polyline class="cls-1" points="0.97 121.03 1.07 121.5 1.35 121.78 1.64 122.07 2.11 122.16"/><polyline class="cls-2" points="20.52 101.95 20.62 102.23 20.71 102.42 20.9 102.52 21.19 102.61"/><polyline class="cls-2" points="57.44 20.43 57.06 20.52 56.68 20.52"/><polyline class="cls-2" points="65.79 102.61 66.17 102.52 66.55 102.52"/><polygon class="cls-1" points="98.53 61.52 98.44 58.58 98.06 55.73 97.49 52.88 96.73 50.13 95.69 47.38 94.55 44.72 93.12 42.26 91.51 39.79 89.71 37.51 87.71 35.42 85.63 33.43 83.35 31.63 80.88 30.01 78.41 28.59 75.76 27.45 73 26.41 70.25 25.65 67.41 25.08 64.56 24.7 61.62 24.6 58.67 24.7 55.83 25.08 52.98 25.65 50.23 26.41 47.48 27.45 44.82 28.59 42.35 30.01 39.88 31.63 37.6 33.43 35.52 35.42 33.52 37.51 31.72 39.79 30.11 42.26 28.68 44.72 27.55 47.38 26.5 50.13 25.74 52.88 25.17 55.73 24.79 58.58 24.7 61.52 24.79 64.46 25.17 67.31 25.74 70.16 26.5 72.91 27.55 75.66 28.68 78.32 30.11 80.79 31.72 83.25 33.52 85.53 35.52 87.62 37.6 89.61 39.88 91.42 42.35 93.03 44.82 94.45 47.48 95.59 50.23 96.64 52.98 97.39 55.83 97.96 58.67 98.34 61.62 98.44 64.56 98.34 67.41 97.96 70.25 97.39 73 96.64 75.76 95.59 78.41 94.45 80.88 93.03 83.35 91.42 85.63 89.61 87.71 87.62 89.71 85.53 91.51 83.25 93.12 80.79 94.55 78.32 95.69 75.66 96.73 72.91 97.49 70.16 98.06 67.31 98.44 64.46 98.53 61.52"/><polygon class="cls-1" points="98.06 61.52 97.96 58.67 97.58 55.83 97.01 52.98 96.25 50.23 95.31 47.57 94.07 45.01 92.65 42.45 91.13 40.07 89.33 37.89 87.43 35.71 85.25 33.81 83.06 32.01 80.69 30.49 78.13 29.06 75.57 27.83 72.91 26.88 70.16 26.12 67.31 25.55 64.46 25.17 61.62 25.08 58.77 25.17 55.92 25.55 53.07 26.12 50.32 26.88 47.66 27.83 45.1 29.06 42.54 30.49 40.17 32.01 37.98 33.81 35.8 35.71 33.9 37.89 32.1 40.07 30.58 42.45 29.16 45.01 27.93 47.57 26.98 50.23 26.22 52.98 25.65 55.83 25.27 58.67 25.17 61.52 25.27 64.37 25.65 67.22 26.22 70.06 26.98 72.81 27.93 75.47 29.16 78.03 30.58 80.6 32.1 82.97 33.9 85.15 35.8 87.33 37.98 89.23 40.17 91.04 42.54 92.55 45.1 93.98 47.66 95.21 50.32 96.16 53.07 96.92 55.92 97.49 58.77 97.87 61.62 97.96 64.46 97.87 67.31 97.49 70.16 96.92 72.91 96.16 75.57 95.21 78.13 93.98 80.69 92.55 83.06 91.04 85.25 89.23 87.43 87.33 89.33 85.15 91.13 82.97 92.65 80.6 94.07 78.03 95.31 75.47 96.25 72.81 97.01 70.06 97.58 67.22 97.96 64.37 98.06 61.52"/><polygon class="cls-1" points="97.96 61.52 97.87 58.67 97.49 55.83 96.92 52.98 96.16 50.23 95.21 47.57 93.98 45.01 92.65 42.45 91.03 40.07 89.23 37.89 87.33 35.71 85.25 33.81 82.97 32.01 80.6 30.49 78.13 29.06 75.57 27.83 72.81 26.88 70.06 26.12 67.31 25.55 64.46 25.17 61.62 25.08 58.77 25.17 55.92 25.55 53.17 26.12 50.42 26.88 47.66 27.83 45.1 29.06 42.63 30.49 40.26 32.01 37.98 33.81 35.9 35.71 34 37.89 32.2 40.07 30.58 42.45 29.25 45.01 28.02 47.57 27.07 50.23 26.31 52.98 25.74 55.83 25.36 58.67 25.27 61.52 25.36 64.37 25.74 67.22 26.31 70.06 27.07 72.81 28.02 75.47 29.25 78.03 30.58 80.6 32.2 82.97 34 85.15 35.9 87.33 37.98 89.23 40.26 91.04 42.63 92.55 45.1 93.98 47.66 95.21 50.42 96.16 53.17 96.92 55.92 97.49 58.77 97.87 61.62 97.96 64.46 97.87 67.31 97.49 70.06 96.92 72.81 96.16 75.57 95.21 78.13 93.98 80.6 92.55 82.97 91.04 85.25 89.23 87.33 87.33 89.23 85.15 91.03 82.97 92.65 80.6 93.98 78.03 95.21 75.47 96.16 72.81 96.92 70.06 97.49 67.22 97.87 64.37 97.96 61.52"/><polygon class="cls-1" points="97.39 61.52 97.3 58.67 96.92 55.92 96.44 53.17 95.69 50.51 94.64 47.85 93.5 45.29 92.08 42.83 90.56 40.45 88.85 38.27 86.95 36.18 84.87 34.28 82.68 32.58 80.31 31.06 77.84 29.63 75.28 28.5 72.62 27.45 69.97 26.69 67.21 26.22 64.46 25.84 61.62 25.74 58.77 25.84 56.02 26.22 53.26 26.69 50.61 27.45 47.95 28.5 45.39 29.63 42.92 31.06 40.55 32.58 38.36 34.28 36.28 36.18 34.38 38.27 32.67 40.45 31.15 42.83 29.73 45.29 28.59 47.85 27.55 50.51 26.79 53.17 26.31 55.92 25.93 58.67 25.84 61.52 25.93 64.37 26.31 67.12 26.79 69.87 27.55 72.53 28.59 75.19 29.73 77.75 31.15 80.22 32.67 82.59 34.38 84.77 36.28 86.86 38.36 88.76 40.55 90.47 42.92 91.98 45.39 93.41 47.95 94.55 50.61 95.59 53.26 96.35 56.02 96.83 58.77 97.2 61.62 97.3 64.46 97.2 67.21 96.83 69.97 96.35 72.62 95.59 75.28 94.55 77.84 93.41 80.31 91.98 82.68 90.47 84.87 88.76 86.95 86.86 88.85 84.77 90.56 82.59 92.08 80.22 93.5 77.75 94.64 75.19 95.69 72.53 96.44 69.87 96.92 67.12 97.3 64.37 97.39 61.52"/><polygon class="cls-1" points="97.11 61.52 97.01 58.67 96.63 55.83 96.06 52.98 95.31 50.32 94.26 47.57 93.03 45.01 91.61 42.54 89.99 40.17 88.19 37.98 86.19 35.9 84.11 34 81.73 32.29 79.36 30.77 76.8 29.44 74.24 28.3 71.48 27.45 68.73 26.79 65.89 26.31 63.04 26.03 60.19 26.03 57.34 26.31 54.5 26.79 51.75 27.45 48.99 28.3 46.43 29.44 43.87 30.77 41.5 32.29 39.12 34 37.04 35.9 35.04 37.98 33.24 40.17 31.63 42.54 30.2 45.01 28.97 47.57 27.93 50.32 27.17 52.98 26.6 55.83 26.22 58.67 26.12 61.52 26.22 64.37 26.6 67.22 27.17 70.06 27.93 72.72 28.97 75.47 30.2 78.03 31.63 80.5 33.24 82.87 35.04 85.06 37.04 87.14 39.12 89.04 41.5 90.75 43.87 92.27 46.43 93.6 48.99 94.74 51.75 95.59 54.5 96.25 57.34 96.73 60.19 97.02 63.04 97.02 65.89 96.73 68.73 96.25 71.48 95.59 74.24 94.74 76.8 93.6 79.36 92.27 81.73 90.75 84.11 89.04 86.19 87.14 88.19 85.06 89.99 82.87 91.61 80.5 93.03 78.03 94.26 75.47 95.31 72.72 96.06 70.06 96.63 67.22 97.01 64.37 97.11 61.52"/><polygon class="cls-1" points="95.78 61.52 95.69 58.77 95.31 56.02 94.83 53.36 93.98 50.7 93.03 48.14 91.89 45.67 90.47 43.3 88.95 41.02 87.14 38.84 85.25 36.85 83.25 35.04 81.07 33.43 78.7 31.91 76.23 30.68 73.76 29.54 71.11 28.68 68.45 28.02 65.7 27.64 62.94 27.36 60.29 27.36 57.53 27.64 54.78 28.02 52.13 28.68 49.47 29.54 47 30.68 44.53 31.91 42.16 33.43 39.98 35.04 37.98 36.85 36.09 38.84 34.28 41.02 32.77 43.3 31.34 45.67 30.2 48.14 29.25 50.7 28.4 53.36 27.93 56.02 27.55 58.77 27.45 61.52 27.55 64.27 27.93 67.03 28.4 69.68 29.25 72.34 30.2 74.9 31.34 77.37 32.77 79.74 34.28 82.02 36.09 84.2 37.98 86.2 39.98 88 42.16 89.61 44.53 91.13 47 92.36 49.47 93.5 52.13 94.36 54.78 95.02 57.53 95.4 60.29 95.69 62.94 95.69 65.7 95.4 68.45 95.02 71.11 94.36 73.76 93.5 76.23 92.36 78.7 91.13 81.07 89.61 83.25 88 85.25 86.2 87.14 84.2 88.95 82.02 90.47 79.74 91.89 77.37 93.03 74.9 93.98 72.34 94.83 69.68 95.31 67.03 95.69 64.27 95.78 61.52"/><polygon class="cls-1" points="95.5 61.52 95.4 58.77 95.02 56.11 94.55 53.45 93.79 50.8 92.74 48.23 91.6 45.77 90.28 43.4 88.66 41.21 86.95 39.03 85.06 37.13 83.06 35.23 80.88 33.62 78.51 32.2 76.14 30.87 73.67 29.82 71.01 28.97 68.35 28.3 65.7 27.93 62.94 27.64 60.29 27.64 57.53 27.93 54.88 28.3 52.22 28.97 49.56 29.82 47.1 30.87 44.63 32.2 42.35 33.62 40.17 35.23 38.17 37.13 36.28 39.03 34.57 41.21 32.95 43.4 31.63 45.77 30.49 48.23 29.44 50.8 28.68 53.45 28.21 56.11 27.83 58.77 27.74 61.52 27.83 64.27 28.21 66.93 28.68 69.59 29.44 72.25 30.49 74.81 31.63 77.28 32.95 79.65 34.57 81.83 36.28 84.01 38.17 85.91 40.17 87.81 42.35 89.42 44.63 90.85 47.1 92.17 49.56 93.22 52.22 94.07 54.88 94.74 57.53 95.12 60.29 95.4 62.94 95.4 65.7 95.12 68.35 94.74 71.01 94.07 73.67 93.22 76.14 92.17 78.6 90.85 80.88 89.42 83.06 87.81 85.06 85.91 86.95 84.01 88.66 81.83 90.28 79.65 91.6 77.28 92.74 74.81 93.79 72.25 94.55 69.59 95.02 66.93 95.4 64.27 95.5 61.52"/><polygon class="cls-1" points="95.21 61.52 95.12 58.77 94.74 56.02 94.17 53.26 93.41 50.61 92.36 48.05 91.13 45.58 89.71 43.11 88.09 40.93 86.29 38.74 84.39 36.85 82.21 35.04 80.03 33.43 77.56 32.01 75.09 30.77 72.53 29.73 69.87 28.97 67.12 28.4 64.37 28.02 61.62 27.93 58.86 28.02 56.11 28.4 53.36 28.97 50.7 29.73 48.14 30.77 45.67 32.01 43.2 33.43 41.02 35.04 38.84 36.85 36.94 38.74 35.14 40.93 33.52 43.11 32.1 45.58 30.87 48.05 29.82 50.61 29.06 53.26 28.49 56.02 28.11 58.77 28.02 61.52 28.11 64.27 28.49 67.03 29.06 69.78 29.82 72.44 30.87 75 32.1 77.46 33.52 79.93 35.14 82.11 36.94 84.3 38.84 86.2 41.02 88 43.2 89.61 45.67 91.04 48.14 92.27 50.7 93.31 53.36 94.07 56.11 94.64 58.86 95.02 61.62 95.12 64.37 95.02 67.12 94.64 69.87 94.07 72.53 93.31 75.09 92.27 77.56 91.04 80.03 89.61 82.21 88 84.39 86.2 86.29 84.3 88.09 82.11 89.71 79.93 91.13 77.46 92.36 75 93.41 72.44 94.17 69.78 94.74 67.03 95.12 64.27 95.21 61.52"/><polygon class="cls-1" points="95.02 61.52 94.93 58.77 94.55 56.02 93.98 53.36 93.22 50.7 92.17 48.14 91.03 45.58 89.61 43.2 88 41.02 86.19 38.93 84.2 36.94 82.11 35.14 79.93 33.52 77.56 32.1 75 30.96 72.43 29.92 69.78 29.16 67.12 28.59 64.37 28.21 61.62 28.11 58.86 28.21 56.11 28.59 53.45 29.16 50.8 29.92 48.23 30.96 45.67 32.1 43.3 33.52 41.12 35.14 39.03 36.94 37.04 38.93 35.23 41.02 33.62 43.2 32.2 45.58 31.06 48.14 30.01 50.7 29.25 53.36 28.68 56.02 28.3 58.77 28.21 61.52 28.3 64.27 28.68 67.03 29.25 69.68 30.01 72.34 31.06 74.9 32.2 77.46 33.62 79.84 35.23 82.02 37.04 84.11 39.03 86.1 41.12 87.9 43.3 89.52 45.67 90.94 48.23 92.08 50.8 93.12 53.45 93.88 56.11 94.45 58.86 94.83 61.62 94.93 64.37 94.83 67.12 94.45 69.78 93.88 72.43 93.12 75 92.08 77.56 90.94 79.93 89.52 82.11 87.9 84.2 86.1 86.19 84.11 88 82.02 89.61 79.84 91.03 77.46 92.17 74.9 93.22 72.34 93.98 69.68 94.55 67.03 94.93 64.27 95.02 61.52"/><polygon class="cls-1" points="92.36 61.52 92.27 58.96 91.89 56.3 91.42 53.74 90.56 51.27 89.61 48.9 88.47 46.53 87.05 44.34 85.53 42.16 83.82 40.26 81.92 38.46 79.93 36.85 77.75 35.33 75.47 34.09 73.1 32.95 70.63 32.1 68.07 31.44 65.51 31.06 62.94 30.77 60.29 30.77 57.73 31.06 55.16 31.44 52.6 32.1 50.13 32.95 47.76 34.09 45.48 35.33 43.3 36.85 41.31 38.46 39.41 40.26 37.7 42.16 36.18 44.34 34.76 46.53 33.62 48.9 32.67 51.27 31.82 53.74 31.34 56.3 30.96 58.96 30.87 61.52 30.96 64.08 31.34 66.74 31.82 69.3 32.67 71.77 33.62 74.14 34.76 76.52 36.18 78.7 37.7 80.88 39.41 82.78 41.31 84.58 43.3 86.2 45.48 87.71 47.76 88.95 50.13 90.09 52.6 90.94 55.16 91.61 57.73 91.98 60.29 92.27 62.94 92.27 65.51 91.98 68.07 91.61 70.63 90.94 73.1 90.09 75.47 88.95 77.75 87.71 79.93 86.2 81.92 84.58 83.82 82.78 85.53 80.88 87.05 78.7 88.47 76.52 89.61 74.14 90.56 71.77 91.42 69.3 91.89 66.74 92.27 64.08 92.36 61.52"/><polygon class="cls-1" points="92.27 61.52 92.17 58.96 91.79 56.3 91.32 53.83 90.56 51.27 89.52 48.9 88.38 46.53 87.05 44.34 85.44 42.26 83.73 40.36 81.83 38.55 79.84 36.85 77.65 35.42 75.38 34.19 73 33.05 70.63 32.2 68.07 31.53 65.51 31.15 62.94 30.87 60.29 30.87 57.73 31.15 55.16 31.53 52.6 32.2 50.23 33.05 47.85 34.19 45.58 35.42 43.39 36.85 41.4 38.55 39.5 40.36 37.8 42.26 36.18 44.34 34.85 46.53 33.71 48.9 32.67 51.27 31.91 53.83 31.44 56.3 31.06 58.96 30.96 61.52 31.06 64.08 31.44 66.74 31.91 69.21 32.67 71.77 33.71 74.14 34.85 76.52 36.18 78.7 37.8 80.79 39.5 82.68 41.4 84.49 43.39 86.2 45.58 87.62 47.85 88.85 50.23 89.99 52.6 90.85 55.16 91.51 57.73 91.89 60.29 92.17 62.94 92.17 65.51 91.89 68.07 91.51 70.63 90.85 73 89.99 75.38 88.85 77.65 87.62 79.84 86.2 81.83 84.49 83.73 82.68 85.44 80.79 87.05 78.7 88.38 76.52 89.52 74.14 90.56 71.77 91.32 69.21 91.79 66.74 92.17 64.08 92.27 61.52"/><polyline class="cls-1" points="2.11 0.69 1.73 0.78 1.35 0.88 1.07 1.07 0.88 1.35 0.78 1.73 0.69 2.11"/><polyline class="cls-1" points="1.54 0.12 1.16 0.21 0.88 0.31 0.5 0.5 0.31 0.88 0.21 1.16 0.12 1.54"/><polyline class="cls-1" points="2.11 0.97 1.64 1.07 1.35 1.35 1.07 1.64 0.97 2.11"/><polyline class="cls-2" points="21.19 20.52 20.9 20.62 20.71 20.71 20.62 20.9 20.52 21.19"/><polyline class="cls-1" points="121.02 122.45 121.4 122.35 121.78 122.26 122.07 122.07 122.26 121.78 122.35 121.41 122.45 121.03"/><polyline class="cls-1" points="121.59 123.02 121.97 122.92 122.26 122.83 122.64 122.64 122.83 122.26 122.92 121.97 123.02 121.59"/><polyline class="cls-1" points="121.02 122.16 121.5 122.07 121.78 121.78 122.07 121.5 122.16 121.03"/><polyline class="cls-1" points="101.95 102.61 102.23 102.52 102.42 102.42 102.52 102.23 102.61 101.95"/><polyline class="cls-2" points="66.17 20.9 66.36 21.19 66.55 21.38"/><polyline class="cls-2" points="65.98 20.9 65.89 20.71 65.7 20.62 65.51 20.52 65.32 20.43"/><polyline class="cls-1" points="122.45 2.11 122.35 1.73 122.26 1.35 122.07 1.07 121.78 0.88 121.4 0.78 121.03 0.69"/><polyline class="cls-1" points="123.02 1.54 122.92 1.16 122.83 0.88 122.64 0.5 122.26 0.31 121.97 0.21 121.59 0.12"/><polyline class="cls-1" points="122.16 2.11 122.07 1.64 121.78 1.35 121.5 1.07 121.02 0.97"/><polyline class="cls-2" points="102.61 21.19 102.52 20.9 102.42 20.71 102.23 20.62 101.95 20.52"/><polyline class="cls-2" points="20.52 101.38 20.52 101.67 20.71 102.05 20.9 102.23 21.09 102.42 21.47 102.61 21.76 102.61"/><polyline class="cls-2" points="21.76 20.43 21.47 20.43 21.09 20.62 20.9 20.81 20.71 21 20.52 21.38 20.52 21.66"/><polyline class="cls-2" points="102.71 21.66 102.71 21.38 102.52 21 102.33 20.81 102.14 20.62 101.76 20.43 101.47 20.43"/><polyline class="cls-1" points="101.47 102.61 101.76 102.61 102.14 102.42 102.33 102.23 102.52 102.05 102.71 101.67 102.71 101.38"/><path d="M115.64,127.24h-1.48v-9.49a7.81,7.81,0,0,1-1.41,1,9.72,9.72,0,0,1-1.57.77V118.1a8.82,8.82,0,0,0,2.18-1.42,5.65,5.65,0,0,0,1.33-1.62h1Z" transform="translate(-66.67 -59.82)"/><path d="M127.18,118.08l-1.48.12a2.83,2.83,0,0,0-.56-1.28,2,2,0,0,0-1.49-.63,2.09,2.09,0,0,0-1.25.39,3.36,3.36,0,0,0-1.11,1.5,7.81,7.81,0,0,0-.42,2.8,3.5,3.5,0,0,1,2.95-1.61,3.36,3.36,0,0,1,2.53,1.1,3.91,3.91,0,0,1,1.05,2.83,4.75,4.75,0,0,1-.49,2.12,3.49,3.49,0,0,1-1.36,1.5,3.65,3.65,0,0,1-2,.52,3.8,3.8,0,0,1-3-1.36c-.79-.92-1.18-2.42-1.18-4.52,0-2.34.43-4,1.3-5.11a3.72,3.72,0,0,1,3-1.39,3.23,3.23,0,0,1,3.44,3Zm-6.08,5.23a3.43,3.43,0,0,0,.33,1.47,2.37,2.37,0,0,0,.92,1.07,2.24,2.24,0,0,0,1.23.37,2.08,2.08,0,0,0,1.62-.76,3,3,0,0,0,.68-2.07,2.82,2.82,0,0,0-.67-2,2.21,2.21,0,0,0-1.69-.72,2.3,2.3,0,0,0-1.71.72A2.6,2.6,0,0,0,121.1,123.31Z" transform="translate(-66.67 -59.82)"/><path d="M129.72,127.24v-1.7h1.69v1.7Z" transform="translate(-66.67 -59.82)"/><path d="M133.59,124.06l1.56-.13a2.87,2.87,0,0,0,.81,1.72,2.19,2.19,0,0,0,1.52.57,2.36,2.36,0,0,0,1.82-.81,3,3,0,0,0,.75-2.15,2.75,2.75,0,0,0-.72-2,2.5,2.5,0,0,0-1.87-.74,2.59,2.59,0,0,0-1.3.33,2.49,2.49,0,0,0-.91.85l-1.4-.19,1.18-6.22h6v1.42h-4.84l-.66,3.26a4,4,0,0,1,2.3-.76,3.62,3.62,0,0,1,2.68,1.1,3.86,3.86,0,0,1,1.09,2.83,4.41,4.41,0,0,1-1,2.84,3.85,3.85,0,0,1-3.19,1.47,3.91,3.91,0,0,1-2.7-.92A3.62,3.62,0,0,1,133.59,124.06Z" transform="translate(-66.67 -59.82)"/><path d="M145.56,115.27a1,1,0,0,1,.38.08,1,1,0,0,1,.31.21,1.06,1.06,0,0,1,.21.31,1.17,1.17,0,0,1,.07.38,1,1,0,0,1-.28.68,1,1,0,0,1-1.38,0,1,1,0,0,1-.27-.69.94.94,0,0,1,.28-.69A.91.91,0,0,1,145.56,115.27Zm0,.4a.53.53,0,0,0-.41.17.58.58,0,0,0,0,.82.61.61,0,0,0,.82,0,.53.53,0,0,0,.17-.41.57.57,0,0,0-.17-.41A.53.53,0,0,0,145.56,115.67Zm5,0v.65a2.24,2.24,0,0,0-.66-.44,2.12,2.12,0,0,0-.75-.14,1.51,1.51,0,0,0-1.2.48,2.51,2.51,0,0,0,0,2.75,1.51,1.51,0,0,0,1.2.48,2.12,2.12,0,0,0,.75-.14,2.24,2.24,0,0,0,.66-.44v.65a3.12,3.12,0,0,1-.69.33,2.68,2.68,0,0,1-.76.11,2.11,2.11,0,0,1-1.63-.64,2.82,2.82,0,0,1,0-3.45,2.11,2.11,0,0,1,1.63-.64,2.76,2.76,0,0,1,.77.11A2.25,2.25,0,0,1,150.58,115.71Z" transform="translate(-66.67 -59.82)"/></svg>