<?xml version="1.0" encoding="UTF-8"?>
<svg width="320px" height="320px" viewBox="0 0 320 320" version="1.1" xmlns="http://www.w3.org/2000/svg" xmlns:xlink="http://www.w3.org/1999/xlink">
    <title>images / Namron 3802960</title>
    <g id="images-/-Namron-3802960" stroke="none" stroke-width="1" fill="none" fill-rule="evenodd">
        <path d="M161.4986,10.0406348 L162.737965,10.0577163 C163.356804,10.0691884 163.974387,10.085105 164.590759,10.10568 L165.821901,10.1531043 C166.641603,10.1889457 167.459205,10.2333218 168.274812,10.2867395 L169.496739,10.3737104 C186.786563,11.7036582 203.199484,17.2307991 219.749225,31.817218 C237.126139,47.1326811 248.496511,67.5481772 248.496511,97.0394697 C248.496511,109.953914 244.700854,121.752388 240.578161,130.717552 L240.082091,131.779662 C239.916358,132.129092 239.750325,132.473879 239.584212,132.813913 L239.085858,133.819645 L238.58836,134.796198 L238.093051,135.742915 C238.010756,135.898178 237.928607,136.05217 237.846633,136.204878 L237.357103,137.105601 L236.873092,137.974838 L236.39593,138.81193 L235.926951,139.616216 L235.241737,140.759693 L234.79904,141.479081 L234.369187,142.163356 L233.95351,142.811858 L233.55334,143.423928 L233.17001,143.998906 L232.804852,144.536134 L232.294101,145.269749 L231.831728,145.914714 L231.422228,146.468805 L231.070098,146.929794 L230.869437,147.184299 L230.697602,147.395777 C230.596824,147.668493 230.456557,147.988019 230.280692,148.355445 L230.052816,148.819417 L229.650194,149.602511 L228.829454,151.143519 L227.62632,153.389944 L227.178842,154.236861 L226.710637,155.133531 L226.2232,156.080373 L225.718024,157.077804 L225.196605,158.126245 L224.660436,159.226113 L224.111012,160.377827 L223.831795,160.973257 L223.265289,162.203526 L222.729863,163.395137 L222.187405,164.632832 L221.822452,165.48373 L221.455265,166.35536 L221.086199,167.247822 L220.71561,168.161214 L220.343854,169.095637 L219.971287,170.05119 L219.411696,171.524359 L219.411696,171.524359 L218.852284,173.045633 L218.852284,173.045633 L218.480035,174.086707 L218.108757,175.14941 L217.738804,176.233843 L217.370533,177.340105 L217.004301,178.468297 L216.640462,179.618517 L216.279374,180.790865 L215.921392,181.985442 L215.391024,183.819205 L215.391024,183.819205 L215.042366,185.06979 L214.698061,186.342952 L214.358465,187.638792 L214.190544,188.295248 L214.190544,188.295248 L213.85868,189.625291 C213.748971,190.072455 213.640196,190.523439 213.532414,190.978262 L213.212103,192.354259 L213.054293,193.050924 L213.054293,193.050924 L212.743583,194.461649 C212.436236,195.883995 212.139158,197.341256 211.853951,198.833881 L211.57276,200.33831 C211.434202,201.096435 211.298746,201.863439 211.166591,202.639377 L210.906742,204.203182 L210.656054,205.790912 L210.414882,207.402667 C210.139204,209.297101 209.883683,211.24079 209.650862,213.234447 L209.45692,214.955549 C208.986261,219.28898 208.623178,223.85279 208.392712,228.653997 L207.585092,229.690171 L206.810435,230.701316 C206.684072,230.867754 206.559083,231.033149 206.435467,231.197502 L205.710255,232.171101 L205.018006,233.11967 L204.358721,234.043209 L204.041439,234.495592 L203.431598,235.381586 L202.85472,236.24255 C201.733928,237.939446 200.810914,239.486162 200.08568,240.882697 L195.679978,240.882697 L195.679978,294.405415 L171.975888,310.035025 L148.767134,310.035025 L125.063044,294.405415 L125.063044,240.882697 L120.657342,240.882697 C120.415597,240.417186 120.151877,239.934987 119.866181,239.436102 L119.421156,238.675259 C118.498143,237.128543 117.377351,235.431646 116.058779,233.584568 L115.383012,232.648514 C115.152262,232.332325 114.916018,232.011963 114.674281,231.68743 L113.932587,230.701316 L113.15793,229.690171 L112.35031,228.653997 C111.953808,220.393856 111.16478,212.836381 110.110729,205.945837 L109.852734,204.304893 C109.370652,201.319905 108.839238,198.463481 108.26935,195.732578 L107.954752,194.255425 L107.632915,192.803058 C107.524473,192.323055 107.41489,191.847164 107.304231,191.375368 L106.96909,189.972246 L106.799222,189.279863 L106.799222,189.279863 L106.368238,187.575567 L106.368238,187.575567 L105.928851,185.909185 L105.481824,184.280503 L105.481824,184.280503 L105.027924,182.689308 L104.84461,182.063278 L104.84461,182.063278 L104.289294,180.22083 L104.289294,180.22083 L103.915093,179.022098 L103.538158,177.84689 L103.158879,176.695096 L102.77765,175.566607 L102.203003,173.917331 L102.203003,173.917331 L101.818608,172.846624 L101.433633,171.798838 L101.048469,170.773863 L100.663508,169.771589 L100.279141,168.791906 L99.8957608,167.834705 L99.5137585,166.899875 L99.1335258,165.987308 L98.5673516,164.659958 L98.0073624,163.38208 L97.6381252,162.557462 L97.2726161,161.754558 L96.9112267,160.973257 L96.2187577,159.509164 L95.5464169,158.126245 L95.0249976,157.077804 L94.5198224,156.080373 L94.0323852,155.133531 L93.337757,153.807209 L91.3996023,150.183275 L91.0928281,149.602511 L90.690206,148.819417 L90.46233,148.355445 C90.2864649,147.988019 90.1461978,147.668493 90.0454198,147.395777 L89.7767747,147.062384 L89.4447667,146.632922 L89.053891,146.109618 L88.7628229,145.709713 L88.2838242,145.03495 L87.9381698,144.536134 L87.5730117,143.998906 L87.1896819,143.423928 L86.7895124,142.811858 L86.3738351,142.163356 L85.943982,141.479081 L85.2755364,140.387037 L84.816071,139.616216 L84.3470916,138.81193 L83.8699302,137.974838 L83.3859187,137.105601 L83.1417604,136.659134 L82.6499711,135.742915 L82.4026731,135.273328 L81.906103,134.31161 L81.4080106,133.320385 L80.8174594,132.108129 L80.8174594,132.108129 L80.2288591,130.856439 C79.602848,129.500661 78.9839522,128.079455 78.3842868,126.59882 L77.9383327,125.477294 C74.7708826,117.361177 72.246511,107.571421 72.246511,97.0394697 C72.246511,67.5481772 83.6168829,47.1326811 100.993797,31.817218 C117.570797,17.2067744 133.842782,11.6854757 151.114125,10.367173 L152.320741,10.2819563 L153.530697,10.2100095 L154.744094,10.1509641 C155.351668,10.1246052 155.96057,10.102946 156.570854,10.085779 L157.79328,10.0573735 L159.326647,10.0350254 L160.255807,10.0350254 C160.670652,10.0350254 161.084912,10.0350254 161.4986,10.0406348 Z M186.292447,288.903062 L140.057614,292.982377 L151.564098,300.570257 L169.177506,300.570257 L186.292447,289.285414 L186.292447,288.903062 Z M186.291988,278.409473 L134.449636,282.982849 L134.449636,286.826491 L186.291988,282.253116 L186.291988,278.409473 Z M186.291988,267.998228 L134.449636,272.571604 L134.449636,276.332903 L186.291988,271.759527 L186.291988,267.998228 Z M186.291988,257.586983 L134.449636,262.160359 L134.449636,265.921658 L186.291988,261.348282 L186.291988,257.586983 Z M186.291988,240.941295 L134.449636,240.941295 L134.449636,255.510413 L186.291988,250.937037 L186.291988,240.941295 Z M217.762524,151.9726 L102.980498,151.9726 C105.548527,157.01746 107.832748,162.109043 110.026725,167.949578 C116.107601,184.137335 120.173219,202.783955 121.531726,224.653793 L121.563197,225.180539 L121.842037,225.550993 C123.329939,227.531609 124.648661,229.394022 125.800098,231.145655 L125.97711,231.417822 L134.450353,231.417929 L134.449636,231.476527 L186.291988,231.476527 L186.292669,231.417929 L194.764494,231.417822 L194.942924,231.145655 C195.966424,229.588648 197.122099,227.944111 198.411281,226.206831 L199.179345,225.180539 L199.211296,224.653793 C200.545544,203.174487 204.491084,184.804313 210.392468,168.819136 L210.716297,167.949578 C212.910274,162.109043 215.194495,157.01746 217.762524,151.9726 Z M160.949448,19.4997695 L159.67596,19.4997695 C138.740343,19.5953415 123.03624,24.960926 107.172001,38.9431641 C90.2583761,53.850299 81.6338199,72.2608344 81.6338199,97.0394697 C81.6338199,106.973395 84.2324519,117.061901 88.6812962,126.736313 C90.3556323,130.377307 92.2059354,133.760695 94.0908372,136.760967 C94.5469254,137.486941 94.9922902,138.16963 95.4182977,138.799428 L95.9196627,139.529184 L96.3028722,140.070752 L96.6904288,140.602415 L97.0133357,141.029929 L97.184061,141.247132 L98.2258884,142.507707 L222.515736,142.507707 L223.558961,141.247132 L223.82906,140.900239 L224.175458,140.435772 L224.580682,139.873868 C225.220154,138.973275 225.922444,137.922525 226.652185,136.760967 C228.537087,133.760695 230.38739,130.377307 232.061726,126.736313 C236.51057,117.061901 239.109202,106.973395 239.109202,97.0394697 C239.109202,72.2608344 230.484646,53.850299 213.571021,38.9431641 C197.775334,25.0213457 181.933169,19.6175302 160.949448,19.4997695 Z" id="Shape" fill="#000000" fill-rule="nonzero"></path>
    </g>
</svg>