<?xml version="1.0" encoding="UTF-8"?>
<svg width="320px" height="320px" viewBox="0 0 320 320" version="1.1" xmlns="http://www.w3.org/2000/svg" xmlns:xlink="http://www.w3.org/1999/xlink">
    <title>images / MultiSensor Back</title>
    <g id="images-/-MultiSensor-Back" stroke="none" stroke-width="1" fill="none" fill-rule="evenodd">
        <path d="M288.206976,10 C295.311266,10 298.170459,10.6934726 300.782822,12.0009659 L301.130026,12.17893 C301.187766,12.2091948 301.245472,12.2397611 301.303188,12.270628 C304.073559,13.7522383 306.247762,15.9264411 307.729372,18.6968115 L307.82107,18.8699743 L307.999034,19.2171777 C309.306527,21.8295406 310,24.6887342 310,31.7930242 L310,288.206976 C310,295.311266 309.306527,298.170459 307.999034,300.782822 L307.82107,301.130026 C307.790805,301.187766 307.760239,301.245472 307.729372,301.303188 C306.247762,304.073559 304.073559,306.247762 301.303188,307.729372 L301.130026,307.82107 L300.782822,307.999034 C298.170459,309.306527 295.311266,310 288.206976,310 L31.7930242,310 C24.6887342,310 21.8295406,309.306527 19.2171777,307.999034 L18.8699743,307.82107 C18.8122339,307.790805 18.7545276,307.760239 18.6968115,307.729372 C15.9264411,306.247762 13.7522383,304.073559 12.270628,301.303188 L12.17893,301.130026 L12.0009659,300.782822 C10.6934726,298.170459 10,295.311266 10,288.206976 L10,31.7930242 C10,24.6887342 10.6934726,21.8295406 12.0009659,19.2171777 L12.17893,18.8699743 C12.2091948,18.8122339 12.2397611,18.7545276 12.270628,18.6968115 C13.7522383,15.9264411 15.9264411,13.7522383 18.6968115,12.270628 L18.8699743,12.17893 L19.2171777,12.0009659 C21.8295406,10.6934726 24.6887342,10 31.7930242,10 L288.206976,10 Z M35.3833112,20 C30.0341988,20 28.0944813,20.5569537 26.1389258,21.6027962 C24.1833702,22.6486388 22.6486388,24.1833702 21.6027962,26.1389258 C20.5569537,28.0944813 20,30.0341988 20,35.3833112 L20,284.616689 C20,289.965801 20.5569537,291.905519 21.6027962,293.861074 C22.6486388,295.81663 24.1833702,297.351361 26.1389258,298.397204 C28.0944813,299.443046 30.0341988,300 35.3833112,300 L284.616689,300 C289.965801,300 291.905519,299.443046 293.861074,298.397204 C295.81663,297.351361 297.351361,295.81663 298.397204,293.861074 C299.443046,291.905519 300,289.965801 300,284.616689 L300,35.3833112 C300,30.0341988 299.443046,28.0944813 298.397204,26.1389258 C297.351361,24.1833702 295.81663,22.6486388 293.861074,21.6027962 C291.905519,20.5569537 289.965801,20 284.616689,20 Z" id="Combined-Shape" fill="#000000"></path>
        <circle id="Oval" fill="#000000" cx="196" cy="160" r="8"></circle>
        <path d="M289,25 C292.313708,25 295,27.6862915 295,31 L295,127 C295,130.313708 292.313708,133 289,133 L31,133 C27.6862915,133 25,130.313708 25,127 L25,31 C25,27.6862915 27.6862915,25 31,25 L289,25 Z M289,29 L31,29 C29.8954305,29 29,29.8954305 29,31 L29,127 C29,128.104569 29.8954305,129 31,129 L289,129 C290.104569,129 291,128.104569 291,127 L291,31 C291,29.8954305 290.104569,29 289,29 Z" id="Combined-Shape" fill="#000000"></path>
        <g id="Action" transform="translate(152.481445, 180.889160)" fill="#000000" fill-rule="nonzero">
            <path d="M1.81744422,23.9350913 C2.75862069,23.9350913 3.29411765,23.4807302 3.63488844,22.4259635 L5.40365112,17.3955375 L14.3610548,17.3955375 L16.1460446,22.4421907 C16.4705882,23.4807302 17.0060852,23.9350913 17.979716,23.9350913 C19.0344828,23.9350913 19.7971602,23.2373225 19.7971602,22.2799189 C19.7971602,21.9716024 19.7322515,21.663286 19.5699797,21.2089249 L12.4300203,1.88235294 C11.9432049,0.584178499 11.1643002,0 9.89858012,0 C8.61663286,0 7.82150101,0.60040568 7.35091278,1.89858012 L0.227180527,21.2089249 C0.0649087221,21.6470588 0,22.0040568 0,22.2799189 C0,23.2697769 0.730223124,23.9350913 1.81744422,23.9350913 Z M6.32860041,14.4259635 L9.81744422,4.15415822 L9.9148073,4.15415822 L13.4361055,14.4259635 L6.32860041,14.4259635 Z" id="Shape"></path>
            <path d="M28.6740771,24 C31.8383773,24 34.6132252,22.3286004 35.5057201,19.9756592 C35.6355375,19.6348884 35.7004462,19.3427992 35.7004462,19.0669371 C35.7004462,18.1906694 35.0675862,17.6064909 34.2075456,17.6064909 C33.4448682,17.6064909 33.071643,17.8985801 32.5848276,18.7423935 C31.7572414,20.2190669 30.6051116,21.0628803 28.7065314,21.0628803 C25.9965923,21.0628803 24.1791481,18.8559838 24.1791481,15.1399594 C24.1791481,11.505071 25.9641379,9.21703854 28.7065314,9.21703854 C30.5077485,9.21703854 31.7085598,9.9959432 32.5848276,11.6186613 C33.0067343,12.3975659 33.428641,12.6896552 34.1750913,12.6896552 C35.0351318,12.6896552 35.6679919,12.137931 35.6679919,11.2454361 C35.6679919,11.0020284 35.6030832,10.7099391 35.5057201,10.4340771 C34.7592698,8.04868154 31.9357404,6.29614604 28.6416227,6.29614604 C23.7734686,6.29614604 20.6091684,9.76876268 20.6091684,15.1724138 C20.6091684,20.6085193 23.7896957,24 28.6740771,24 Z" id="Path"></path>
            <path d="M38.8978499,19.5862069 C38.8978499,22.4097363 40.3582961,23.821501 43.2305071,23.821501 L43.4090061,23.821501 C45.1290872,23.821501 45.9404462,23.2860041 45.9404462,22.2312373 C45.9404462,21.4036511 45.4374037,20.9979716 44.4313185,20.9006085 L44.1554564,20.8843813 C42.8897363,20.7870183 42.4191481,20.1703854 42.4191481,18.8073022 L42.4191481,9.37931034 L44.4150913,9.37931034 C45.3238134,9.37931034 45.8755375,8.86004057 45.8755375,8 C45.8755375,7.13995943 45.3238134,6.60446247 44.4150913,6.60446247 L42.4191481,6.60446247 L42.4191481,4.07302231 C42.4191481,2.95334686 41.7213793,2.20689655 40.6666126,2.20689655 C39.5956187,2.20689655 38.8978499,2.95334686 38.8978499,4.07302231 L38.8978499,6.60446247 L37.6645842,6.60446247 C36.7558621,6.60446247 36.2041379,7.12373225 36.2041379,8 C36.2041379,8.86004057 36.7558621,9.37931034 37.6645842,9.37931034 L38.8978499,9.37931034 L38.8978499,19.5862069 Z" id="Path"></path>
            <path d="M49.7382556,4.02434077 C50.8741582,4.02434077 51.7828803,3.11561866 51.7828803,2.01217039 C51.7828803,0.892494929 50.8741582,0.0162271805 49.7382556,0.0162271805 C48.6185801,0.0162271805 47.709858,0.892494929 47.709858,2.01217039 C47.709858,3.11561866 48.6185801,4.02434077 49.7382556,4.02434077 Z M49.7382556,23.9837728 C50.7930223,23.9837728 51.4907911,23.2535497 51.4907911,22.1338742 L51.4907911,8.16227181 C51.4907911,7.02636917 50.7930223,6.29614604 49.7382556,6.29614604 C48.6834888,6.29614604 47.9857201,7.02636917 47.9857201,8.16227181 L47.9857201,22.1338742 C47.9857201,23.2535497 48.6834888,23.9837728 49.7382556,23.9837728 Z" id="Shape"></path>
            <path d="M61.7470183,24 C66.6313996,24 69.8443813,20.6409736 69.8443813,15.1399594 C69.8443813,9.65517241 66.6151724,6.29614604 61.7470183,6.29614604 C56.8788641,6.29614604 53.6496552,9.65517241 53.6496552,15.1399594 C53.6496552,20.6409736 56.8626369,24 61.7470183,24 Z M61.7470183,21.1115619 C59.0046247,21.1115619 57.2196349,18.9371197 57.2196349,15.1399594 C57.2196349,11.3590264 59.0046247,9.18458418 61.7470183,9.18458418 C64.4894118,9.18458418 66.2744016,11.3590264 66.2744016,15.1399594 C66.2744016,18.9371197 64.5056389,21.1115619 61.7470183,21.1115619 Z" id="Shape"></path>
            <path d="M73.6421907,23.9837728 C74.664503,23.9837728 75.3947262,23.2860041 75.3947262,22.1338742 L75.3947262,13.7281947 C75.3947262,11.0831643 76.9849899,9.3306288 79.4515213,9.3306288 C81.8855984,9.3306288 83.0864097,10.7423935 83.0864097,13.306288 L83.0864097,22.1338742 C83.0864097,23.2860041 83.8166329,23.9837728 84.8389452,23.9837728 C85.8774848,23.9837728 86.6077079,23.2860041 86.6077079,22.1338742 L86.6077079,12.6247465 C86.6077079,8.71399594 84.4494929,6.31237323 80.684787,6.31237323 C78.0559838,6.31237323 76.2709939,7.48073022 75.3460446,9.42799189 L75.2649087,9.42799189 L75.2649087,8.0811359 C75.2649087,6.99391481 74.56714,6.29614604 73.5610548,6.29614604 C72.5387424,6.29614604 71.8896552,6.99391481 71.8896552,8.06490872 L71.8896552,22.1338742 C71.8896552,23.2860041 72.6036511,23.9837728 73.6421907,23.9837728 Z" id="Path"></path>
        </g>
    </g>
</svg>