<svg id="图层_1" data-name="图层 1" xmlns="http://www.w3.org/2000/svg" viewBox="0 0 423.23 423.23"><defs><style>.cls-1{fill:none;stroke:#000;stroke-linecap:round;stroke-linejoin:round;}</style></defs><line class="cls-1" x1="422.73" y1="389.05" x2="389.44" y2="422.34"/><line class="cls-1" x1="389.44" y1="0.5" x2="422.73" y2="34.18"/><line class="cls-1" x1="378.86" y1="361.63" x2="362.02" y2="378.47"/><line class="cls-1" x1="362.02" y1="44.76" x2="378.86" y2="61.21"/><line class="cls-1" x1="422.73" y1="389.05" x2="422.73" y2="366.33"/><line class="cls-1" x1="422.73" y1="329.9" x2="422.73" y2="92.94"/><line class="cls-1" x1="422.73" y1="56.51" x2="422.73" y2="34.18"/><line class="cls-1" x1="417.64" y1="90.59" x2="417.64" y2="58.86"/><line class="cls-1" x1="417.64" y1="332.25" x2="417.64" y2="363.98"/><line class="cls-1" x1="389.44" y1="0.5" x2="367.11" y2="0.5"/><line class="cls-1" x1="330.69" y1="0.5" x2="93.33" y2="0.5"/><line class="cls-1" x1="56.9" y1="0.5" x2="34.58" y2="0.5"/><line class="cls-1" x1="333.04" y1="5.59" x2="364.37" y2="5.59"/><line class="cls-1" x1="90.98" y1="5.59" x2="59.25" y2="5.59"/><line class="cls-1" x1="314.24" y1="362.81" x2="363.2" y2="313.45"/><line class="cls-1" x1="363.2" y1="109.39" x2="314.24" y2="60.04"/><line class="cls-1" x1="380.43" y1="177.15" x2="380.43" y2="176.37"/><line class="cls-1" x1="380.43" y1="245.69" x2="380.43" y2="246.87"/><line class="cls-1" x1="370.25" y1="248.04" x2="370.25" y2="242.95"/><line class="cls-1" x1="326.77" y1="343.61" x2="344" y2="326.38"/><line class="cls-1" x1="338.91" y1="321.68" x2="322.07" y2="338.52"/><line class="cls-1" x1="352.62" y1="303.27" x2="303.66" y2="352.23"/><line class="cls-1" x1="286.43" y1="349.88" x2="282.12" y2="351.84"/><line class="cls-1" x1="344" y1="96.46" x2="327.16" y2="79.62"/><line class="cls-1" x1="322.07" y1="84.32" x2="338.91" y2="101.55"/><line class="cls-1" x1="303.66" y1="70.61" x2="352.62" y2="119.96"/><line class="cls-1" x1="365.94" y1="4.42" x2="365.94" y2="1.68"/><line class="cls-1" x1="365.94" y1="418.42" x2="365.94" y2="421.17"/><line class="cls-1" x1="351.06" y1="214.36" x2="351.06" y2="208.48"/><line class="cls-1" x1="287.6" y1="348.7" x2="286.43" y2="349.88"/><line class="cls-1" x1="418.82" y1="57.69" x2="421.56" y2="57.69"/><line class="cls-1" x1="4.81" y1="57.69" x2="2.07" y2="57.69"/><line class="cls-1" x1="342.44" y1="241.38" x2="342.44" y2="230.42"/><line class="cls-1" x1="342.44" y1="192.42" x2="342.44" y2="181.85"/><line class="cls-1" x1="331.86" y1="421.17" x2="331.86" y2="418.42"/><line class="cls-1" x1="331.86" y1="1.68" x2="331.86" y2="4.42"/><line class="cls-1" x1="276.24" y1="320.11" x2="276.64" y2="319.72"/><line class="cls-1" x1="273.5" y1="316.59" x2="273.11" y2="316.98"/><line class="cls-1" x1="2.07" y1="91.76" x2="4.81" y2="91.76"/><line class="cls-1" x1="421.56" y1="91.76" x2="418.82" y2="91.76"/><line class="cls-1" x1="325.99" y1="214.75" x2="325.99" y2="208.09"/><line class="cls-1" x1="321.68" y1="235.51" x2="321.68" y2="187.72"/><line class="cls-1" x1="321.68" y1="231.98" x2="322.85" y2="230.42"/><line class="cls-1" x1="148.56" y1="97.25" x2="275.07" y2="97.25"/><line class="cls-1" x1="275.07" y1="103.51" x2="148.56" y2="103.51"/><line class="cls-1" x1="275.07" y1="103.9" x2="214.36" y2="103.9"/><line class="cls-1" x1="209.66" y1="103.9" x2="148.56" y2="103.9"/><line class="cls-1" x1="148.56" y1="111.74" x2="209.66" y2="111.74"/><line class="cls-1" x1="214.36" y1="111.74" x2="275.07" y2="111.74"/><line class="cls-1" x1="321.68" y1="190.86" x2="322.85" y2="192.42"/><line class="cls-1" x1="255.09" y1="286.43" x2="256.66" y2="285.25"/><line class="cls-1" x1="148.56" y1="127.8" x2="209.66" y2="127.8"/><line class="cls-1" x1="214.36" y1="127.8" x2="275.07" y2="127.8"/><line class="cls-1" x1="274.68" y1="134.46" x2="149.34" y2="134.46"/><line class="cls-1" x1="287.6" y1="348.7" x2="287.6" y2="311.89"/><line class="cls-1" x1="286.43" y1="311.89" x2="286.43" y2="348.7"/><line class="cls-1" x1="284.86" y1="350.27" x2="284.86" y2="310.32"/><line class="cls-1" x1="278.2" y1="319.72" x2="278.2" y2="340.87"/><line class="cls-1" x1="276.64" y1="340.87" x2="276.64" y2="319.72"/><line class="cls-1" x1="276.24" y1="340.48" x2="276.24" y2="320.11"/><line class="cls-1" x1="275.07" y1="97.25" x2="275.07" y2="140.33"/><line class="cls-1" x1="274.68" y1="143.46" x2="274.68" y2="134.46"/><line class="cls-1" x1="273.5" y1="345.57" x2="273.5" y2="344"/><line class="cls-1" x1="273.5" y1="316.59" x2="273.5" y2="315.02"/><line class="cls-1" x1="269.19" y1="111.74" x2="269.19" y2="103.9"/><line class="cls-1" x1="263.32" y1="140.33" x2="160.7" y2="140.33"/><line class="cls-1" x1="157.56" y1="149.34" x2="266.45" y2="149.34"/><line class="cls-1" x1="263.32" y1="149.34" x2="263.32" y2="140.33"/><line class="cls-1" x1="150.12" y1="344" x2="150.51" y2="343.61"/><line class="cls-1" x1="147.77" y1="340.48" x2="147.38" y2="340.87"/><line class="cls-1" x1="185.77" y1="286.43" x2="187.33" y2="285.25"/><line class="cls-1" x1="235.9" y1="193.6" x2="235.9" y2="229.24"/><line class="cls-1" x1="139.16" y1="350.66" x2="138.37" y2="351.84"/><line class="cls-1" x1="109.78" y1="362.81" x2="120.35" y2="352.23"/><line class="cls-1" x1="352.62" y1="119.96" x2="363.2" y2="109.39"/><line class="cls-1" x1="112.91" y1="347.92" x2="114.48" y2="346.35"/><line class="cls-1" x1="346.75" y1="114.09" x2="348.31" y2="112.52"/><line class="cls-1" x1="354.19" y1="100.38" x2="343.61" y2="110.95"/><line class="cls-1" x1="111.35" y1="343.22" x2="100.77" y2="353.8"/><line class="cls-1" x1="351.06" y1="97.25" x2="340.48" y2="107.82"/><line class="cls-1" x1="108.21" y1="340.09" x2="97.64" y2="350.66"/><line class="cls-1" x1="380.04" y1="175.19" x2="377.3" y2="175.19"/><line class="cls-1" x1="54.16" y1="175.19" x2="43.59" y2="175.19"/><line class="cls-1" x1="54.16" y1="175.19" x2="53.77" y2="175.19"/><line class="cls-1" x1="53.77" y1="176.76" x2="54.16" y2="176.76"/><line class="cls-1" x1="53.77" y1="177.15" x2="54.16" y2="177.15"/><line class="cls-1" x1="81.19" y1="181.85" x2="99.2" y2="181.85"/><line class="cls-1" x1="324.42" y1="181.85" x2="342.44" y2="181.85"/><line class="cls-1" x1="342.44" y1="190.86" x2="321.68" y2="190.86"/><line class="cls-1" x1="102.34" y1="190.86" x2="81.19" y2="190.86"/><line class="cls-1" x1="363.2" y1="313.45" x2="352.62" y2="303.27"/><line class="cls-1" x1="120.35" y1="70.61" x2="109.78" y2="60.04"/><line class="cls-1" x1="114.48" y1="76.49" x2="112.91" y2="74.92"/><line class="cls-1" x1="100.77" y1="69.04" x2="111.35" y2="79.62"/><line class="cls-1" x1="343.61" y1="311.89" x2="354.19" y2="322.46"/><line class="cls-1" x1="97.64" y1="72.18" x2="108.21" y2="82.75"/><line class="cls-1" x1="340.48" y1="315.02" x2="351.06" y2="325.6"/><line class="cls-1" x1="220.23" y1="103.9" x2="220.23" y2="111.74"/><line class="cls-1" x1="217.88" y1="221.8" x2="217.88" y2="201.04"/><line class="cls-1" x1="214.36" y1="103.9" x2="214.36" y2="127.8"/><line class="cls-1" x1="209.66" y1="127.8" x2="209.66" y2="103.9"/><line class="cls-1" x1="396.88" y1="43.19" x2="401.19" y2="38.49"/><line class="cls-1" x1="344" y1="96.46" x2="336.56" y2="103.9"/><line class="cls-1" x1="104.3" y1="336.17" x2="96.85" y2="343.61"/><line class="cls-1" x1="38.88" y1="400.8" x2="43.59" y2="396.1"/><line class="cls-1" x1="347.14" y1="211.62" x2="350.66" y2="211.62"/><line class="cls-1" x1="76.88" y1="211.62" x2="72.96" y2="211.62"/><line class="cls-1" x1="338.91" y1="321.68" x2="344" y2="326.38"/><line class="cls-1" x1="43.59" y1="26.74" x2="38.88" y2="22.04"/><line class="cls-1" x1="344" y1="326.38" x2="337.74" y2="320.11"/><line class="cls-1" x1="336.56" y1="319.33" x2="338.91" y2="321.68"/><line class="cls-1" x1="96.85" y1="79.62" x2="104.3" y2="86.67"/><line class="cls-1" x1="401.19" y1="384.35" x2="396.88" y2="380.04"/><line class="cls-1" x1="203.39" y1="111.74" x2="203.39" y2="103.9"/><line class="cls-1" x1="27.13" y1="380.04" x2="22.83" y2="384.35"/><line class="cls-1" x1="327.16" y1="79.62" x2="319.72" y2="86.67"/><line class="cls-1" x1="87.45" y1="319.33" x2="80.01" y2="326.77"/><line class="cls-1" x1="72.57" y1="325.6" x2="83.14" y2="315.02"/><line class="cls-1" x1="315.8" y1="82.75" x2="326.38" y2="72.18"/><line class="cls-1" x1="69.44" y1="322.46" x2="80.01" y2="311.89"/><line class="cls-1" x1="312.28" y1="79.62" x2="322.85" y2="69.04"/><line class="cls-1" x1="385.13" y1="22.04" x2="380.43" y2="26.74"/><line class="cls-1" x1="81.19" y1="231.98" x2="102.34" y2="231.98"/><line class="cls-1" x1="321.68" y1="231.98" x2="342.44" y2="231.98"/><line class="cls-1" x1="380.43" y1="396.1" x2="385.13" y2="400.8"/><line class="cls-1" x1="80.01" y1="96.46" x2="87.45" y2="103.9"/><line class="cls-1" x1="322.07" y1="338.52" x2="319.72" y2="336.17"/><line class="cls-1" x1="320.5" y1="337.35" x2="326.77" y2="343.61"/><line class="cls-1" x1="326.38" y1="350.66" x2="315.8" y2="340.09"/><line class="cls-1" x1="83.14" y1="107.82" x2="72.57" y2="97.25"/><line class="cls-1" x1="322.85" y1="353.8" x2="312.28" y2="343.22"/><line class="cls-1" x1="80.01" y1="110.95" x2="69.44" y2="100.38"/><line class="cls-1" x1="22.83" y1="38.49" x2="27.13" y2="43.19"/><line class="cls-1" x1="326.77" y1="343.61" x2="322.07" y2="338.52"/><line class="cls-1" x1="188.12" y1="193.6" x2="188.12" y2="229.24"/><line class="cls-1" x1="310.71" y1="74.92" x2="309.15" y2="76.49"/><line class="cls-1" x1="76.88" y1="308.75" x2="75.31" y2="310.32"/><line class="cls-1" x1="314.24" y1="60.04" x2="303.66" y2="70.61"/><line class="cls-1" x1="71" y1="303.27" x2="60.82" y2="313.45"/><line class="cls-1" x1="342.44" y1="241.38" x2="324.42" y2="241.38"/><line class="cls-1" x1="99.2" y1="241.38" x2="81.19" y2="241.38"/><line class="cls-1" x1="370.25" y1="245.69" x2="369.86" y2="245.69"/><line class="cls-1" x1="370.25" y1="246.08" x2="369.86" y2="246.08"/><line class="cls-1" x1="369.46" y1="247.65" x2="370.25" y2="247.65"/><line class="cls-1" x1="43.59" y1="248.04" x2="46.72" y2="248.04"/><line class="cls-1" x1="380.04" y1="248.04" x2="369.86" y2="248.04"/><line class="cls-1" x1="256.66" y1="283.29" x2="255.09" y2="282.12"/><line class="cls-1" x1="75.31" y1="112.52" x2="76.88" y2="114.09"/><line class="cls-1" x1="60.82" y1="109.39" x2="71" y2="119.96"/><line class="cls-1" x1="303.66" y1="352.23" x2="314.24" y2="362.81"/><line class="cls-1" x1="285.64" y1="351.84" x2="284.86" y2="350.66"/><line class="cls-1" x1="160.7" y1="140.33" x2="160.7" y2="149.34"/><line class="cls-1" x1="154.43" y1="103.9" x2="154.43" y2="111.74"/><line class="cls-1" x1="150.91" y1="186.16" x2="150.91" y2="193.99"/><line class="cls-1" x1="150.12" y1="315.02" x2="150.12" y2="316.59"/><line class="cls-1" x1="150.12" y1="344" x2="150.12" y2="345.57"/><line class="cls-1" x1="276.64" y1="340.87" x2="276.24" y2="340.48"/><line class="cls-1" x1="273.11" y1="343.61" x2="273.5" y2="344"/><line class="cls-1" x1="149.34" y1="134.46" x2="149.34" y2="143.46"/><line class="cls-1" x1="148.56" y1="140.33" x2="148.56" y2="97.25"/><line class="cls-1" x1="147.77" y1="320.11" x2="147.77" y2="340.48"/><line class="cls-1" x1="147.38" y1="319.72" x2="147.38" y2="340.87"/><line class="cls-1" x1="145.81" y1="340.87" x2="145.81" y2="319.72"/><line class="cls-1" x1="139.16" y1="310.32" x2="139.16" y2="350.27"/><line class="cls-1" x1="137.59" y1="348.7" x2="137.59" y2="311.89"/><line class="cls-1" x1="136.02" y1="311.89" x2="136.02" y2="348.7"/><line class="cls-1" x1="254.31" y1="282.12" x2="238.25" y2="282.12"/><line class="cls-1" x1="184.98" y1="282.12" x2="168.92" y2="282.12"/><line class="cls-1" x1="168.92" y1="286.82" x2="184.98" y2="286.82"/><line class="cls-1" x1="238.25" y1="286.82" x2="254.31" y2="286.82"/><line class="cls-1" x1="187.33" y1="283.29" x2="185.77" y2="282.12"/><line class="cls-1" x1="102.34" y1="190.86" x2="101.16" y2="192.42"/><line class="cls-1" x1="284.86" y1="308.75" x2="139.16" y2="308.75"/><line class="cls-1" x1="139.16" y1="310.32" x2="284.86" y2="310.32"/><line class="cls-1" x1="286.43" y1="311.89" x2="137.59" y2="311.89"/><line class="cls-1" x1="102.34" y1="231.98" x2="101.16" y2="230.42"/><line class="cls-1" x1="102.34" y1="235.51" x2="102.34" y2="187.72"/><line class="cls-1" x1="97.64" y1="214.75" x2="97.64" y2="208.09"/><line class="cls-1" x1="92.15" y1="421.17" x2="92.15" y2="418.42"/><line class="cls-1" x1="92.15" y1="1.68" x2="92.15" y2="4.42"/><line class="cls-1" x1="150.12" y1="315.02" x2="273.5" y2="315.02"/><line class="cls-1" x1="273.5" y1="316.59" x2="150.12" y2="316.59"/><line class="cls-1" x1="273.11" y1="316.98" x2="150.51" y2="316.98"/><line class="cls-1" x1="278.2" y1="319.72" x2="276.64" y2="319.72"/><line class="cls-1" x1="147.38" y1="319.72" x2="145.81" y2="319.72"/><line class="cls-1" x1="2.07" y1="331.08" x2="4.81" y2="331.08"/><line class="cls-1" x1="421.56" y1="331.08" x2="418.82" y2="331.08"/><line class="cls-1" x1="150.51" y1="316.98" x2="150.12" y2="316.59"/><line class="cls-1" x1="81.19" y1="181.85" x2="81.19" y2="192.42"/><line class="cls-1" x1="81.19" y1="230.42" x2="81.19" y2="241.38"/><line class="cls-1" x1="72.96" y1="208.48" x2="72.96" y2="214.36"/><line class="cls-1" x1="145.81" y1="340.87" x2="147.38" y2="340.87"/><line class="cls-1" x1="276.64" y1="340.87" x2="278.2" y2="340.87"/><line class="cls-1" x1="150.51" y1="343.61" x2="273.11" y2="343.61"/><line class="cls-1" x1="150.12" y1="344" x2="273.5" y2="344"/><line class="cls-1" x1="273.5" y1="345.57" x2="150.12" y2="345.57"/><line class="cls-1" x1="137.59" y1="348.7" x2="286.43" y2="348.7"/><line class="cls-1" x1="284.86" y1="350.27" x2="139.16" y2="350.27"/><line class="cls-1" x1="139.16" y1="351.84" x2="284.86" y2="351.84"/><line class="cls-1" x1="147.38" y1="319.72" x2="147.77" y2="320.11"/><line class="cls-1" x1="58.08" y1="4.42" x2="58.08" y2="1.68"/><line class="cls-1" x1="58.08" y1="418.42" x2="58.08" y2="421.17"/><line class="cls-1" x1="53.77" y1="175.19" x2="53.77" y2="180.28"/><line class="cls-1" x1="418.82" y1="365.16" x2="421.56" y2="365.16"/><line class="cls-1" x1="4.81" y1="365.16" x2="2.07" y2="365.16"/><line class="cls-1" x1="170.1" y1="370.25" x2="182.24" y2="370.25"/><line class="cls-1" x1="141.9" y1="351.84" x2="137.2" y2="349.88"/><line class="cls-1" x1="137.2" y1="349.88" x2="136.02" y2="348.7"/><line class="cls-1" x1="43.19" y1="177.15" x2="43.19" y2="176.37"/><line class="cls-1" x1="43.19" y1="245.69" x2="43.19" y2="246.87"/><line class="cls-1" x1="71" y1="119.96" x2="120.35" y2="70.61"/><line class="cls-1" x1="85.1" y1="101.55" x2="101.95" y2="84.32"/><line class="cls-1" x1="96.85" y1="79.62" x2="80.01" y2="96.46"/><line class="cls-1" x1="109.78" y1="60.04" x2="60.82" y2="109.39"/><line class="cls-1" x1="120.35" y1="352.23" x2="71" y2="303.27"/><line class="cls-1" x1="101.95" y1="338.52" x2="85.1" y2="321.68"/><line class="cls-1" x1="80.01" y1="326.77" x2="96.85" y2="343.61"/><line class="cls-1" x1="60.82" y1="313.45" x2="109.78" y2="362.81"/><line class="cls-1" x1="5.98" y1="90.59" x2="5.98" y2="58.86"/><line class="cls-1" x1="5.98" y1="332.25" x2="5.98" y2="363.98"/><line class="cls-1" x1="0.89" y1="329.9" x2="0.89" y2="92.94"/><line class="cls-1" x1="0.89" y1="34.18" x2="0.89" y2="56.51"/><line class="cls-1" x1="0.89" y1="366.33" x2="0.89" y2="389.05"/><line class="cls-1" x1="333.04" y1="417.25" x2="364.37" y2="417.25"/><line class="cls-1" x1="90.98" y1="417.25" x2="59.25" y2="417.25"/><line class="cls-1" x1="34.58" y1="422.34" x2="56.9" y2="422.34"/><line class="cls-1" x1="93.33" y1="422.34" x2="330.69" y2="422.34"/><line class="cls-1" x1="367.11" y1="422.34" x2="389.44" y2="422.34"/><line class="cls-1" x1="45.15" y1="61.21" x2="61.6" y2="44.76"/><line class="cls-1" x1="61.6" y1="378.47" x2="45.15" y2="361.63"/><line class="cls-1" x1="0.89" y1="34.18" x2="34.58" y2="0.5"/><line class="cls-1" x1="34.58" y1="422.34" x2="0.89" y2="389.05"/><path class="cls-1" d="M359,232l-.27.23" transform="translate(-37.27 -40.54)"/><path class="cls-1" d="M268.77,84.44A17.82,17.82,0,1,0,272.1,63.9" transform="translate(-37.27 -40.54)"/><path class="cls-1" d="M415.14,67.52a11.95,11.95,0,0,0-15.88,17.8" transform="translate(-37.27 -40.54)"/><path class="cls-1" d="M415.71,102.17a12,12,0,0,0,17.81-15.88" transform="translate(-37.27 -40.54)"/><path class="cls-1" d="M438.34,79A11.56,11.56,0,0,0,422,62.7" transform="translate(-37.27 -40.54)"/><path class="cls-1" d="M359,252.35a11.14,11.14,0,0,0,3.87,8.45" transform="translate(-37.27 -40.54)"/><path class="cls-1" d="M385.75,259a11.2,11.2,0,0,0,2.18-6.63" transform="translate(-37.27 -40.54)"/><path class="cls-1" d="M434.72,214.24a10.38,10.38,0,0,0-20.34,4.15" transform="translate(-37.27 -40.54)"/><path class="cls-1" d="M303.52,189.88a8.82,8.82,0,0,0,8.82-8.82" transform="translate(-37.27 -40.54)"/><path class="cls-1" d="M415.23,67.29a1.77,1.77,0,0,0,2.32-.11" transform="translate(-37.27 -40.54)"/><path class="cls-1" d="M433.86,83.88a1.77,1.77,0,0,0-.11,2.32" transform="translate(-37.27 -40.54)"/><path class="cls-1" d="M369.13,42.41A1.37,1.37,0,0,0,367.76,41" transform="translate(-37.27 -40.54)"/><path class="cls-1" d="M368.74,45.15a1.37,1.37,0,0,0,1.37,1.37" transform="translate(-37.27 -40.54)"/><path class="cls-1" d="M401.44,46.52a1.37,1.37,0,0,0,1.37-1.37" transform="translate(-37.27 -40.54)"/><path class="cls-1" d="M404.19,41a1.37,1.37,0,0,0-1.38,1.37" transform="translate(-37.27 -40.54)"/><path class="cls-1" d="M458.63,98.62A1.37,1.37,0,0,0,460,97.24" transform="translate(-37.27 -40.54)"/><path class="cls-1" d="M455.89,98.22a1.37,1.37,0,0,0-1.37,1.38" transform="translate(-37.27 -40.54)"/><path class="cls-1" d="M454.52,131.32a1.37,1.37,0,0,0,1.37,1.37" transform="translate(-37.27 -40.54)"/><path class="cls-1" d="M460,133.67a1.37,1.37,0,0,0-1.37-1.37" transform="translate(-37.27 -40.54)"/><path class="cls-1" d="M379.51,282.31a30,30,0,1,0,0-59.92" transform="translate(-37.27 -40.54)"/><path class="cls-1" d="M379.51,272.91a20.56,20.56,0,0,0,0-41.12" transform="translate(-37.27 -40.54)"/><path class="cls-1" d="M358.74,272.13l.27.23" transform="translate(-37.27 -40.54)"/><path class="cls-1" d="M416.6,272.05a17.82,17.82,0,1,0,20.54,3.33" transform="translate(-37.27 -40.54)"/><path class="cls-1" d="M387.93,252.35a11.22,11.22,0,0,0-2.46-7" transform="translate(-37.27 -40.54)"/><path class="cls-1" d="M362.82,243.9a11.14,11.14,0,0,0-3.87,8.45" transform="translate(-37.27 -40.54)"/><path class="cls-1" d="M369.91,252.35a9.21,9.21,0,1,0,9.21-9.2,9.21,9.21,0,0,0-9.21,9.2" transform="translate(-37.27 -40.54)"/><path class="cls-1" d="M379.51,243.55a8.81,8.81,0,1,0,.09,17.6" transform="translate(-37.27 -40.54)"/><path class="cls-1" d="M433.52,418.41a12,12,0,0,0-17.81-15.88" transform="translate(-37.27 -40.54)"/><path class="cls-1" d="M399.26,419a11.95,11.95,0,0,0,15.88,17.8" transform="translate(-37.27 -40.54)"/><path class="cls-1" d="M422,441.61a11.56,11.56,0,0,0,16.34-16.34" transform="translate(-37.27 -40.54)"/><path class="cls-1" d="M433.75,418.11a1.77,1.77,0,0,0,.11,2.32" transform="translate(-37.27 -40.54)"/><path class="cls-1" d="M417.55,437.13a1.77,1.77,0,0,0-2.32-.11" transform="translate(-37.27 -40.54)"/><path class="cls-1" d="M402.81,461.9a1.37,1.37,0,0,0,1.38,1.37" transform="translate(-37.27 -40.54)"/><path class="cls-1" d="M402.81,459.16a1.37,1.37,0,0,0-1.37-1.37" transform="translate(-37.27 -40.54)"/><path class="cls-1" d="M370.11,457.79a1.37,1.37,0,0,0-1.37,1.37" transform="translate(-37.27 -40.54)"/><path class="cls-1" d="M367.76,463.27a1.37,1.37,0,0,0,1.37-1.37" transform="translate(-37.27 -40.54)"/><path class="cls-1" d="M458.63,372a1.37,1.37,0,0,0,1.37-1.37" transform="translate(-37.27 -40.54)"/><path class="cls-1" d="M455.89,371.62a1.37,1.37,0,0,0-1.37,1.37" transform="translate(-37.27 -40.54)"/><path class="cls-1" d="M454.52,404.72a1.37,1.37,0,0,0,1.37,1.37" transform="translate(-37.27 -40.54)"/><path class="cls-1" d="M460,407.07a1.37,1.37,0,0,0-1.37-1.38" transform="translate(-37.27 -40.54)"/><path class="cls-1" d="M324.87,352.62a2.94,2.94,0,0,0-2.94-2.94" transform="translate(-37.27 -40.54)"/><path class="cls-1" d="M323.3,352.62a1.37,1.37,0,0,0-1.37-1.37" transform="translate(-37.27 -40.54)"/><path class="cls-1" d="M291.38,327.75a1.39,1.39,0,0,0,.82-.27" transform="translate(-37.27 -40.54)"/><path class="cls-1" d="M293.77,326.3a1.37,1.37,0,0,0,0-2.19" transform="translate(-37.27 -40.54)"/><path class="cls-1" d="M292.2,322.93a1.32,1.32,0,0,0-.82-.27" transform="translate(-37.27 -40.54)"/><path class="cls-1" d="M273.05,234.37a30,30,0,0,0-47.94,0" transform="translate(-37.27 -40.54)"/><path class="cls-1" d="M273.14,244.65a25.26,25.26,0,0,0-48.12,0" transform="translate(-37.27 -40.54)"/><path class="cls-1" d="M268.08,325.2a15.47,15.47,0,1,0,15.47-15.47,15.47,15.47,0,0,0-15.47,15.47" transform="translate(-37.27 -40.54)"/><path class="cls-1" d="M269.25,325.2a14.3,14.3,0,1,0,14.3-14.29,14.3,14.3,0,0,0-14.3,14.29" transform="translate(-37.27 -40.54)"/><path class="cls-1" d="M270,325.2a13.52,13.52,0,1,0,13.52-13.51A13.52,13.52,0,0,0,270,325.2" transform="translate(-37.27 -40.54)"/><path class="cls-1" d="M270.43,325.2a13.12,13.12,0,1,0,13.12-13.12,13.12,13.12,0,0,0-13.12,13.12" transform="translate(-37.27 -40.54)"/><path class="cls-1" d="M271.6,325.2a11.95,11.95,0,1,0,11.95-11.94A11.95,11.95,0,0,0,271.6,325.2" transform="translate(-37.27 -40.54)"/><path class="cls-1" d="M275.32,322.66a2.55,2.55,0,0,0,0,5.09" transform="translate(-37.27 -40.54)"/><path class="cls-1" d="M283.35,372.21A11.17,11.17,0,1,0,294.51,361a11.16,11.16,0,0,0-11.16,11.17" transform="translate(-37.27 -40.54)"/><path class="cls-1" d="M253.19,372.21A11.17,11.17,0,1,0,264.35,361a11.16,11.16,0,0,0-11.16,11.17" transform="translate(-37.27 -40.54)"/><path class="cls-1" d="M286.8,438a10.38,10.38,0,0,0-4.15-20.34" transform="translate(-37.27 -40.54)"/><path class="cls-1" d="M315.08,360.46a4.51,4.51,0,0,0-4.51-4.51" transform="translate(-37.27 -40.54)"/><path class="cls-1" d="M310.57,386.11a4.51,4.51,0,0,0,4.51-4.5" transform="translate(-37.27 -40.54)"/><path class="cls-1" d="M321.93,392.38a2.94,2.94,0,0,0,2.94-2.94" transform="translate(-37.27 -40.54)"/><path class="cls-1" d="M310.18,384.15a2.94,2.94,0,0,0,2.94-2.94" transform="translate(-37.27 -40.54)"/><path class="cls-1" d="M313.12,360.85a2.94,2.94,0,0,0-2.94-2.94" transform="translate(-37.27 -40.54)"/><path class="cls-1" d="M313.51,360.46a2.94,2.94,0,0,0-2.94-2.94" transform="translate(-37.27 -40.54)"/><path class="cls-1" d="M310.57,384.54a2.94,2.94,0,0,0,2.94-2.93" transform="translate(-37.27 -40.54)"/><path class="cls-1" d="M321.93,390.81a1.37,1.37,0,0,0,1.37-1.37" transform="translate(-37.27 -40.54)"/><path class="cls-1" d="M211,66.32a10.38,10.38,0,1,0,4.15,20.34" transform="translate(-37.27 -40.54)"/><path class="cls-1" d="M225.11,270.33a30,30,0,0,0,47.94,0" transform="translate(-37.27 -40.54)"/><path class="cls-1" d="M225,260.05a25.26,25.26,0,0,0,48.12,0" transform="translate(-37.27 -40.54)"/><path class="cls-1" d="M185.82,230.81A11.17,11.17,0,1,0,197,219.65a11.17,11.17,0,0,0-11.17,11.16" transform="translate(-37.27 -40.54)"/><path class="cls-1" d="M187,230.81a10,10,0,1,0,10-10,10,10,0,0,0-10,10" transform="translate(-37.27 -40.54)"/><path class="cls-1" d="M205,227.07a8.82,8.82,0,1,0-4.95,12" transform="translate(-37.27 -40.54)"/><path class="cls-1" d="M185.82,181.06a8.82,8.82,0,0,0,8.82,8.82" transform="translate(-37.27 -40.54)"/><path class="cls-1" d="M64.25,86.29a11.95,11.95,0,0,0,17.8,15.88" transform="translate(-37.27 -40.54)"/><path class="cls-1" d="M98.9,85.32A11.95,11.95,0,0,0,83,67.52" transform="translate(-37.27 -40.54)"/><path class="cls-1" d="M76.16,62.7A11.56,11.56,0,0,0,59.82,79" transform="translate(-37.27 -40.54)"/><path class="cls-1" d="M64.41,86.2a1.77,1.77,0,0,0-.11-2.32" transform="translate(-37.27 -40.54)"/><path class="cls-1" d="M80.61,67.18a1.77,1.77,0,0,0,2.32.11" transform="translate(-37.27 -40.54)"/><path class="cls-1" d="M39.14,132.3a1.37,1.37,0,0,0-1.37,1.37" transform="translate(-37.27 -40.54)"/><path class="cls-1" d="M41.88,132.69a1.37,1.37,0,0,0,1.37-1.37" transform="translate(-37.27 -40.54)"/><path class="cls-1" d="M43.25,99.6a1.37,1.37,0,0,0-1.37-1.38" transform="translate(-37.27 -40.54)"/><path class="cls-1" d="M37.77,97.24a1.37,1.37,0,0,0,1.37,1.38" transform="translate(-37.27 -40.54)"/><path class="cls-1" d="M95.34,42.41A1.37,1.37,0,0,0,94,41" transform="translate(-37.27 -40.54)"/><path class="cls-1" d="M95,45.15a1.37,1.37,0,0,0,1.37,1.37" transform="translate(-37.27 -40.54)"/><path class="cls-1" d="M128.05,46.52a1.37,1.37,0,0,0,1.37-1.37" transform="translate(-37.27 -40.54)"/><path class="cls-1" d="M130.4,41A1.37,1.37,0,0,0,129,42.41" transform="translate(-37.27 -40.54)"/><path class="cls-1" d="M139.42,232.18l-.28-.23" transform="translate(-37.27 -40.54)"/><path class="cls-1" d="M81.17,232.26a17.82,17.82,0,1,0-20.54-3.33" transform="translate(-37.27 -40.54)"/><path class="cls-1" d="M109.84,252.35a11.14,11.14,0,0,0,2.4,6.92" transform="translate(-37.27 -40.54)"/><path class="cls-1" d="M135.34,260.8a11.14,11.14,0,0,0,3.87-8.45" transform="translate(-37.27 -40.54)"/><path class="cls-1" d="M437.43,275.53A189.83,189.83,0,0,0,435,214.4" transform="translate(-37.27 -40.54)"/><path class="cls-1" d="M225.9,440.7A189.82,189.82,0,0,0,287,438.29" transform="translate(-37.27 -40.54)"/><path class="cls-1" d="M60.73,229.18a189.77,189.77,0,0,0,2.41,61.12" transform="translate(-37.27 -40.54)"/><path class="cls-1" d="M272.25,64a190.05,190.05,0,0,0-61.12,2.41" transform="translate(-37.27 -40.54)"/><path class="cls-1" d="M416.53,272.14a168.37,168.37,0,0,0-2.24-53.51" transform="translate(-37.27 -40.54)"/><path class="cls-1" d="M229.29,419.8a168.37,168.37,0,0,0,53.51-2.24" transform="translate(-37.27 -40.54)"/><path class="cls-1" d="M81.63,232.56a168.37,168.37,0,0,0,2.24,53.51" transform="translate(-37.27 -40.54)"/><path class="cls-1" d="M268.87,84.9a168.66,168.66,0,0,0-53.51,2.24" transform="translate(-37.27 -40.54)"/><path class="cls-1" d="M200.1,239.18c-.09.33-.18.65-.26,1" transform="translate(-37.27 -40.54)"/><path class="cls-1" d="M205.64,226.17c-.17.28-.34.56-.5.84" transform="translate(-37.27 -40.54)"/><path class="cls-1" d="M273.06,266.82a28,28,0,0,0,0-29" transform="translate(-37.27 -40.54)"/><path class="cls-1" d="M225.1,237.88a28,28,0,0,0,0,29" transform="translate(-37.27 -40.54)"/><path class="cls-1" d="M225.18,240.16a26.8,26.8,0,0,0,0,24.38" transform="translate(-37.27 -40.54)"/><path class="cls-1" d="M273,264.54a26.8,26.8,0,0,0,0-24.38" transform="translate(-37.27 -40.54)"/><path class="cls-1" d="M237.13,252.35a11.95,11.95,0,1,0,12-11.95,11.95,11.95,0,0,0-12,11.95" transform="translate(-37.27 -40.54)"/><path class="cls-1" d="M255,245.78a8.81,8.81,0,1,0,0,13.14" transform="translate(-37.27 -40.54)"/><path class="cls-1" d="M239.87,325.2a9.21,9.21,0,1,0,9.21-9.2,9.21,9.21,0,0,0-9.21,9.2" transform="translate(-37.27 -40.54)"/><path class="cls-1" d="M241.05,325.2a8,8,0,1,0,8-8,8,8,0,0,0-8,8" transform="translate(-37.27 -40.54)"/><path class="cls-1" d="M241.83,325.2a7.25,7.25,0,1,0,7.25-7.24,7.25,7.25,0,0,0-7.25,7.24" transform="translate(-37.27 -40.54)"/><path class="cls-1" d="M243,325.2a6.07,6.07,0,1,0,6.07-6.07A6.07,6.07,0,0,0,243,325.2" transform="translate(-37.27 -40.54)"/><path class="cls-1" d="M222.88,322.93a1.37,1.37,0,0,0-.83-.27" transform="translate(-37.27 -40.54)"/><path class="cls-1" d="M198.75,325.2a15.47,15.47,0,1,0,15.47-15.47,15.47,15.47,0,0,0-15.47,15.47" transform="translate(-37.27 -40.54)"/><path class="cls-1" d="M199.92,325.2a14.3,14.3,0,1,0,14.3-14.29,14.3,14.3,0,0,0-14.3,14.29" transform="translate(-37.27 -40.54)"/><path class="cls-1" d="M200.71,325.2a13.51,13.51,0,1,0,13.51-13.51,13.51,13.51,0,0,0-13.51,13.51" transform="translate(-37.27 -40.54)"/><path class="cls-1" d="M201.1,325.2a13.12,13.12,0,1,0,13.12-13.12A13.12,13.12,0,0,0,201.1,325.2" transform="translate(-37.27 -40.54)"/><path class="cls-1" d="M202.27,325.2a12,12,0,1,0,11.95-11.94,11.95,11.95,0,0,0-11.95,11.94" transform="translate(-37.27 -40.54)"/><path class="cls-1" d="M222.05,327.75a1.44,1.44,0,0,0,.83-.27" transform="translate(-37.27 -40.54)"/><path class="cls-1" d="M224.44,326.3a1.37,1.37,0,0,0,0-2.19" transform="translate(-37.27 -40.54)"/><path class="cls-1" d="M176.23,349.68a2.94,2.94,0,0,0-2.94,2.94" transform="translate(-37.27 -40.54)"/><path class="cls-1" d="M206,322.66a2.55,2.55,0,0,0,0,5.09" transform="translate(-37.27 -40.54)"/><path class="cls-1" d="M176.23,351.25a1.37,1.37,0,0,0-1.37,1.37" transform="translate(-37.27 -40.54)"/><path class="cls-1" d="M229,419.87a17.82,17.82,0,1,0-3.33,20.54" transform="translate(-37.27 -40.54)"/><path class="cls-1" d="M192.48,372.21A11.17,11.17,0,1,0,203.64,361a11.16,11.16,0,0,0-11.16,11.17" transform="translate(-37.27 -40.54)"/><path class="cls-1" d="M222.64,372.21A11.17,11.17,0,1,0,233.8,361a11.16,11.16,0,0,0-11.16,11.17" transform="translate(-37.27 -40.54)"/><path class="cls-1" d="M182.69,381.61a4.51,4.51,0,0,0,4.5,4.5" transform="translate(-37.27 -40.54)"/><path class="cls-1" d="M187.19,356a4.51,4.51,0,0,0-4.5,4.51" transform="translate(-37.27 -40.54)"/><path class="cls-1" d="M173.29,389.44a2.94,2.94,0,0,0,2.94,2.94" transform="translate(-37.27 -40.54)"/><path class="cls-1" d="M184.65,381.21a2.94,2.94,0,0,0,2.94,2.94" transform="translate(-37.27 -40.54)"/><path class="cls-1" d="M187.59,357.91a2.94,2.94,0,0,0-2.94,2.94" transform="translate(-37.27 -40.54)"/><path class="cls-1" d="M184.26,381.61a2.94,2.94,0,0,0,2.93,2.93" transform="translate(-37.27 -40.54)"/><path class="cls-1" d="M187.19,357.52a2.94,2.94,0,0,0-2.93,2.94" transform="translate(-37.27 -40.54)"/><path class="cls-1" d="M174.86,389.44a1.37,1.37,0,0,0,1.37,1.37" transform="translate(-37.27 -40.54)"/><path class="cls-1" d="M118.26,222.39a30,30,0,1,0,0,59.92" transform="translate(-37.27 -40.54)"/><path class="cls-1" d="M118.26,231.79a20.56,20.56,0,1,0,0,41.12" transform="translate(-37.27 -40.54)"/><path class="cls-1" d="M139.14,272.36a3.11,3.11,0,0,0,.28-.23" transform="translate(-37.27 -40.54)"/><path class="cls-1" d="M139.21,252.35a11.14,11.14,0,0,0-3.87-8.45" transform="translate(-37.27 -40.54)"/><path class="cls-1" d="M112.14,245.56a11.13,11.13,0,0,0-2.3,6.79" transform="translate(-37.27 -40.54)"/><path class="cls-1" d="M63,290.07a10.38,10.38,0,0,0,20.34-4.15" transform="translate(-37.27 -40.54)"/><path class="cls-1" d="M109.44,252.35a9.21,9.21,0,1,0,9.21-9.2,9.22,9.22,0,0,0-9.21,9.2" transform="translate(-37.27 -40.54)"/><path class="cls-1" d="M118.25,261.15a8.81,8.81,0,1,0-.09-17.6" transform="translate(-37.27 -40.54)"/><path class="cls-1" d="M83,436.79A11.95,11.95,0,0,0,98.9,419" transform="translate(-37.27 -40.54)"/><path class="cls-1" d="M82.05,402.53a11.95,11.95,0,0,0-17.8,15.88" transform="translate(-37.27 -40.54)"/><path class="cls-1" d="M59.82,425.27a11.56,11.56,0,0,0,16.34,16.34" transform="translate(-37.27 -40.54)"/><path class="cls-1" d="M82.93,437a1.77,1.77,0,0,0-2.32.11" transform="translate(-37.27 -40.54)"/><path class="cls-1" d="M64.3,420.43a1.77,1.77,0,0,0,.11-2.32" transform="translate(-37.27 -40.54)"/><path class="cls-1" d="M129,461.9a1.37,1.37,0,0,0,1.37,1.37" transform="translate(-37.27 -40.54)"/><path class="cls-1" d="M129.42,459.16a1.37,1.37,0,0,0-1.37-1.37" transform="translate(-37.27 -40.54)"/><path class="cls-1" d="M96.32,457.79A1.37,1.37,0,0,0,95,459.16" transform="translate(-37.27 -40.54)"/><path class="cls-1" d="M94,463.27a1.37,1.37,0,0,0,1.37-1.37" transform="translate(-37.27 -40.54)"/><path class="cls-1" d="M39.14,405.69a1.37,1.37,0,0,0-1.37,1.38" transform="translate(-37.27 -40.54)"/><path class="cls-1" d="M41.88,406.09a1.37,1.37,0,0,0,1.37-1.37" transform="translate(-37.27 -40.54)"/><path class="cls-1" d="M43.25,373a1.37,1.37,0,0,0-1.37-1.37" transform="translate(-37.27 -40.54)"/><path class="cls-1" d="M37.77,370.64A1.37,1.37,0,0,0,39.14,372" transform="translate(-37.27 -40.54)"/><polyline class="cls-1" points="81.58 220.63 81.19 220.23 80.4 219.84 80.01 219.45 79.62 219.06 79.23 218.28 78.84 217.88 78.44 217.1 78.05 216.71 77.66 215.93 77.66 215.53 77.27 214.75 77.27 213.97 76.88 213.57 76.88 212.79 76.88 212.01 76.88 211.62"/><polyline class="cls-1" points="76.88 211.62 76.88 210.83 76.88 210.05 76.88 209.27 77.27 208.88 77.27 208.09 77.66 207.7 77.66 206.92 78.05 206.13 78.44 205.74 78.84 204.96 79.23 204.57 79.62 204.17 80.01 203.39 80.4 203 81.19 202.61 81.58 202.22"/><line class="cls-1" x1="43.59" y1="248.04" x2="43.59" y2="248.04"/><polyline class="cls-1" points="43.59 248.04 43.59 247.65 43.19 247.65 43.19 247.26 43.19 246.87"/><polyline class="cls-1" points="43.59 243.73 43.98 242.56 44.37 240.99 44.76 239.82 45.54 238.64"/><line class="cls-1" x1="47.89" y1="189.29" x2="47.89" y2="189.29"/><polyline class="cls-1" points="47.89 189.29 47.89 188.9 47.5 188.9"/><polyline class="cls-1" points="47.5 188.9 47.11 188.12 47.11 187.72 46.72 186.94 46.33 186.55 45.94 185.76 45.94 185.37 45.15 184.2 44.76 182.63 44.37 181.46 43.98 180.28 43.59 179.11"/><polyline class="cls-1" points="43.59 179.11 43.59 178.72 43.19 178.72 43.19 177.93 43.19 177.54 43.19 177.15"/><polyline class="cls-1" points="43.19 176.37 43.19 175.97 43.19 175.58 43.59 175.19"/><polyline class="cls-1" points="43.19 245.69 43.19 245.3 43.19 244.91 43.19 244.52 43.59 244.13 43.59 243.73"/><polyline class="cls-1" points="342.05 202.22 342.83 202.61 343.22 203 343.61 203.39 344.4 204.17 344.79 204.57 345.18 204.96 345.57 205.74 345.57 206.13 345.96 206.92 346.36 207.31 346.36 208.09 346.75 208.88 346.75 209.27 347.14 210.05 347.14 210.83 347.14 211.62"/><polyline class="cls-1" points="347.14 211.62 347.14 212.01 347.14 212.79 346.75 213.57 346.75 213.97 346.36 214.75 346.36 215.53 345.96 215.93 345.57 216.71 345.57 217.1 345.18 217.88 344.79 218.28 344.4 219.06 343.61 219.45 343.22 219.84 342.83 220.23 342.05 220.63"/><polyline class="cls-1" points="380.04 175.19 380.43 175.19 380.43 175.58 380.43 175.97 380.43 176.37"/><polyline class="cls-1" points="380.43 179.11 380.04 180.28 379.26 181.85 378.86 183.02 378.47 184.2"/><line class="cls-1" x1="376.12" y1="233.55" x2="376.12" y2="233.55"/><polyline class="cls-1" points="376.12 233.55 376.12 233.94 376.12 234.33"/><polyline class="cls-1" points="376.12 234.33 376.51 234.73 376.91 235.51 377.3 235.9 377.3 236.68 377.69 237.08 378.08 237.86 378.47 239.03 378.86 240.21 379.65 241.38 380.04 242.56 380.43 243.73"/><polyline class="cls-1" points="380.43 243.73 380.43 244.13 380.43 244.52 380.43 244.91 380.43 245.3 380.43 245.69"/><line class="cls-1" x1="380.43" y1="246.87" x2="380.43" y2="246.87"/><polyline class="cls-1" points="380.43 246.87 380.43 247.26 380.43 247.65 380.43 248.04 380.04 248.04"/><polyline class="cls-1" points="380.43 177.15 380.43 177.54 380.43 177.93 380.43 178.72 380.43 179.11"/><polyline class="cls-1" points="97.64 208.09 97.64 206.92 97.64 206.13 97.64 204.96 98.03 204.17 98.03 203 98.03 201.82 98.42 201.04 98.42 199.87 98.81 199.08 98.81 197.91 99.2 197.12 99.2 196.73 99.59 195.95 99.59 195.56 99.59 195.17 99.99 194.77 99.99 194.38 100.38 193.6 100.77 193.21 100.77 192.82 101.16 192.42"/><polyline class="cls-1" points="101.16 230.42 100.77 230.03 100.77 229.63 100.38 229.24 99.99 228.85 99.99 228.46 99.59 227.68 99.59 227.28 99.59 226.89 99.2 226.5 99.2 225.72 98.81 224.93 98.42 223.76 98.42 222.97 98.42 221.8 98.03 221.02 98.03 219.84 98.03 219.06 97.64 217.88 97.64 217.1 97.64 215.93 97.64 214.75"/><polyline class="cls-1" points="325.99 208.09 325.99 206.92 325.99 206.13 325.99 204.96 325.99 204.17 325.99 203 325.6 201.82 325.6 201.04 325.6 199.87 325.2 199.08 324.81 197.91 324.81 197.12 324.42 196.73 324.42 195.95 324.42 195.56 324.03 195.17 324.03 194.77 323.64 194.38 323.64 193.6 323.25 193.21 322.85 192.82 322.85 192.42"/><polyline class="cls-1" points="322.85 230.42 322.85 230.03 323.25 229.63 323.64 229.24 323.64 228.85 324.03 228.46 324.03 227.68 324.42 227.28 324.42 226.89 324.42 226.5 324.81 225.72 324.81 224.93 325.2 223.76 325.6 222.97 325.6 221.8 325.6 221.02 325.99 219.84 325.99 219.06 325.99 217.88 325.99 217.1 325.99 215.93 325.99 214.75"/><polyline class="cls-1" points="82.75 202.22 82.75 201.82 82.75 201.04 82.75 200.26 82.75 199.87 82.75 199.08 82.75 198.3 82.75 197.91 82.75 197.12 82.75 196.73 82.75 195.95 82.75 195.56 82.36 194.77 82.36 193.99 81.97 193.99 81.97 193.6 81.97 193.21 81.58 192.82 81.19 192.42"/><polyline class="cls-1" points="82.75 220.63 82.75 221.41 82.75 221.8 82.75 222.58 82.75 223.37 82.75 223.76 82.75 224.54 82.75 224.93 82.75 225.72 82.75 226.5 82.75 226.89 82.36 227.68 82.36 228.07 82.36 228.85 81.97 229.24 81.97 229.63 81.58 230.03 81.19 230.42"/><polyline class="cls-1" points="324.42 181.85 324.03 183.81 323.25 186.16 322.85 187.33 322.85 188.12 322.46 188.51 322.46 189.29 322.07 189.68 322.07 190.47 321.68 190.47 321.68 190.86"/><polyline class="cls-1" points="321.68 187.72 321.68 187.33 321.68 186.94 321.68 186.16 321.68 185.76 322.07 185.37 322.07 184.98 322.46 184.59 322.85 184.2 322.85 183.81 323.64 183.02 324.03 182.24 324.42 181.85"/><polyline class="cls-1" points="81.19 230.42 82.75 230.81 83.93 230.81 85.1 230.81 86.28 230.81 87.45 230.81 88.63 230.81 90.19 230.81 91.37 230.81 93.72 230.81 96.07 230.81 98.81 230.81 99.99 230.42 101.16 230.42"/><polyline class="cls-1" points="322.85 192.42 324.03 192.42 325.2 192.42 326.38 192.03 327.55 192.03 329.9 192.03 332.65 192.03 333.82 192.03 335 192.03 336.17 192.03 337.35 192.03 338.91 192.03 340.09 192.03 341.26 192.42 342.44 192.42"/><polyline class="cls-1" points="342.44 230.42 341.26 230.81 340.09 230.81 338.91 230.81 337.35 230.81 336.17 230.81 335 230.81 333.82 230.81 332.65 230.81 329.9 230.81 327.55 230.81 326.38 230.81 325.2 230.81 324.03 230.42 322.85 230.42"/><polyline class="cls-1" points="341.26 220.63 341.26 221.41 341.26 221.8 340.87 222.58 340.87 223.37 340.87 223.76 340.87 224.54 340.87 224.93 340.87 225.72 341.26 226.5 341.26 226.89 341.26 227.68 341.26 228.07 341.65 228.85 341.65 229.24 342.05 229.63 342.05 230.03 342.44 230.03 342.44 230.42"/><polyline class="cls-1" points="97.64 214.75 96.07 214.75 94.11 214.36 92.15 214.36 91.37 214.36 90.59 214.36"/><polyline class="cls-1" points="81.19 192.42 80.4 192.42 80.01 192.42 79.62 192.42 79.23 192.82 78.84 192.82 78.44 192.82 78.05 192.82 77.27 193.21 76.88 193.21 76.49 193.21 76.09 193.6 75.7 193.6 75.31 193.6 74.92 193.99 74.53 193.99 74.14 194.38 73.74 194.38 73.35 194.77 72.96 195.17 72.57 195.17 72.18 195.56 71.79 195.56 71.39 195.95 71 196.34 70.61 196.34 70.22 197.12 69.44 197.91 69.04 198.3 68.26 199.08 67.87 199.87 67.09 200.65 66.69 201.43 66.3 202.22 65.91 203 65.52 203.78 65.13 204.57 65.13 205.35 64.74 206.13 64.34 206.92 64.34 208.09 64.34 208.88 63.95 209.66 63.95 210.44 63.95 211.62 63.95 212.4 63.95 213.18 64.34 213.97 64.34 215.14 64.34 215.93 64.74 216.71 65.13 217.49 65.13 218.28 65.52 219.45 65.91 220.23 66.3 221.02 66.69 221.8 67.09 222.58 67.87 223.37 68.26 223.76 69.04 224.54 69.44 225.32 70.22 225.72 70.61 226.5 71.39 226.89 72.18 227.68 72.96 228.07 73.74 228.46 74.14 228.46 74.53 228.85 74.92 228.85 75.31 229.24 75.7 229.24 76.09 229.63 76.49 229.63 76.88 229.63 77.27 230.03 78.05 230.03 78.44 230.03 78.84 230.03 79.23 230.42 79.62 230.42 80.4 230.42 81.19 230.42"/><polyline class="cls-1" points="325.99 208.09 327.95 208.09 329.9 208.48 331.47 208.48 332.25 208.48 333.43 208.48"/><polyline class="cls-1" points="333.43 214.36 332.25 214.36 331.47 214.36 329.9 214.36 327.95 214.75 325.99 214.75"/><polyline class="cls-1" points="341.26 202.22 341.26 201.82 341.26 201.04 340.87 200.26 340.87 199.87 340.87 199.08 340.87 198.3 340.87 197.91 340.87 197.12 340.87 196.73 341.26 195.95 341.26 195.56 341.26 194.77 341.65 193.99 341.65 193.6 342.05 193.21 342.05 192.82 342.44 192.82 342.44 192.42"/><polyline class="cls-1" points="342.44 230.42 343.22 230.42 344.4 230.42 344.79 230.42 345.18 230.03 345.57 230.03 345.96 230.03 346.36 230.03 346.75 229.63 347.14 229.63 347.53 229.63 347.92 229.24 348.7 229.24 349.1 228.85 349.49 228.85 349.88 228.46 350.27 228.46 351.06 228.07 351.45 227.68 352.23 226.89 353.01 226.5 353.8 225.72 354.19 225.32 354.97 224.54 355.36 223.76 356.15 223.37 356.54 222.58 356.93 221.8 357.32 221.02 358.11 220.23 358.11 219.45 358.5 218.28 358.89 217.49 359.28 216.71 359.28 215.93 359.67 215.14 359.67 213.97 359.67 213.18 359.67 212.4 359.67 211.62 359.67 210.44 359.67 209.66 359.67 208.88 359.67 208.09 359.28 206.92 359.28 206.13 358.89 205.35 358.5 204.57 358.11 203.78 358.11 203 357.32 202.22 356.93 201.43 356.54 200.65 356.15 199.87 355.36 199.08 354.97 198.3 354.19 197.91 353.8 197.12 353.01 196.34 352.62 196.34 352.23 195.95 351.84 195.56 351.45 195.56 351.45 195.17 351.06 195.17 350.66 194.77 350.27 194.38 349.88 194.38 349.49 193.99 349.1 193.99 348.31 193.6 347.92 193.6 347.53 193.6 347.14 193.21 346.75 193.21 346.36 193.21 345.96 192.82 345.57 192.82 345.18 192.82 344.79 192.82 344.4 192.42 343.61 192.42 343.22 192.42 342.44 192.42"/><polyline class="cls-1" points="99.2 241.38 99.99 239.03 100.38 236.68 100.77 235.51 101.16 234.73 101.16 234.33 101.55 233.94 101.55 233.16 101.95 232.77 101.95 232.38 102.34 231.98"/><polyline class="cls-1" points="90.59 208.48 91.37 208.48 92.15 208.48 94.11 208.48 96.07 208.09 97.64 208.09"/><polyline class="cls-1" points="102.34 190.86 101.95 190.47 101.55 189.68 101.55 189.29 101.16 188.51 101.16 188.12 100.77 187.33 100.38 186.16 99.99 183.81 99.2 181.85"/><polyline class="cls-1" points="324.42 241.38 324.03 240.6 323.64 239.82 322.85 239.43 322.85 239.03 322.46 238.64 322.46 238.25 322.07 237.86 322.07 237.47 321.68 237.08 321.68 236.68 321.68 236.29 321.68 235.9 321.68 235.51"/><polyline class="cls-1" points="321.68 231.98 321.68 232.38 322.07 232.77 322.07 233.16 322.46 233.94 322.46 234.33 322.85 234.73 322.85 235.51 323.25 236.68 324.03 239.03 324.42 241.38"/><polyline class="cls-1" points="99.2 241.38 99.99 240.6 100.38 239.82 100.77 239.43 101.16 239.03 101.16 238.64 101.55 238.25 101.55 237.86 101.95 237.47 101.95 237.08 101.95 236.68 102.34 236.29 102.34 235.9 102.34 235.51"/><polyline class="cls-1" points="81.19 192.42 81.97 192.42 82.75 192.42 83.93 192.03 85.1 192.03 86.28 192.03 87.45 192.03 88.63 192.03 90.19 192.03 91.37 192.03 93.72 192.03 96.07 192.03 98.81 192.42 101.16 192.42"/><polyline class="cls-1" points="102.34 187.72 102.34 187.33 102.34 186.94 101.95 186.16 101.95 185.76 101.95 185.37 101.55 184.98 101.55 184.59 101.16 184.59 101.16 184.2 100.77 183.81 100.38 183.02 99.99 182.24 99.2 181.85"/></svg>