<?xml version="1.0" encoding="utf-8"?>
<!-- Generator: Adobe Illustrator 24.0.0, SVG Export Plug-In . SVG Version: 6.00 Build 0)  -->
<svg version="1.1" id="图层_1" xmlns="http://www.w3.org/2000/svg" xmlns:xlink="http://www.w3.org/1999/xlink" x="0px" y="0px"
	 viewBox="0 0 600 600" style="enable-background:new 0 0 600 600;" xml:space="preserve">
<style type="text/css">
	.st0{fill:none;stroke:#000000;stroke-miterlimit:10;}
</style>
<line class="st0" x1="172.1" y1="547" x2="173.4" y2="543.1"/>
<line class="st0" x1="174.8" y1="536.5" x2="182" y2="498.2"/>
<line class="st0" x1="48.7" y1="423.6" x2="52.6" y2="422.9"/>
<line class="st0" x1="59.2" y1="421.6" x2="97.5" y2="413.7"/>
<line class="st0" x1="561" y1="423.6" x2="556.4" y2="422.9"/>
<line class="st0" x1="512.1" y1="413.7" x2="549.8" y2="421.6"/>
<line class="st0" x1="170.8" y1="34.7" x2="172.1" y2="39.3"/>
<line class="st0" x1="181.4" y1="83.5" x2="173.4" y2="45.9"/>
<line class="st0" x1="285.7" y1="172.7" x2="285.7" y2="139"/>
<line class="st0" x1="292.3" y1="139" x2="292.3" y2="172.7"/>
<line class="st0" x1="301.5" y1="172.7" x2="301.5" y2="139"/>
<line class="st0" x1="308.1" y1="139" x2="308.1" y2="172.7"/>
<line class="st0" x1="317.4" y1="172.7" x2="317.4" y2="139"/>
<line class="st0" x1="324" y1="139" x2="324" y2="172.7"/>
<line class="st0" x1="438.2" y1="34.7" x2="437.5" y2="39.3"/>
<line class="st0" x1="428.3" y1="83.5" x2="436.2" y2="45.9"/>
<line class="st0" x1="561" y1="157.5" x2="556.4" y2="158.8"/>
<line class="st0" x1="512.1" y1="168.1" x2="549.8" y2="160.1"/>
<line class="st0" x1="59.2" y1="160.1" x2="97.5" y2="168.1"/>
<line class="st0" x1="48.7" y1="157.5" x2="52.6" y2="158.8"/>
<line class="st0" x1="436.9" y1="547" x2="436.2" y2="543.1"/>
<line class="st0" x1="434.9" y1="536.5" x2="427" y2="498.2"/>
<polyline class="st0" points="560.3,423.6 566.3,390.6 570.9,357.5 573.5,324.5 574.2,290.9 573.5,257.2 570.9,224.2 566.3,191.2 
	560.3,158.2 "/>
<polyline class="st0" points="558.3,423.6 564.3,390.6 568.9,357.5 571.5,324.5 572.2,290.9 571.5,257.2 568.9,224.2 564.3,191.2 
	558.3,158.2 "/>
<polyline class="st0" points="556.4,422.9 561.7,389.9 566.3,357.5 568.9,323.9 569.6,290.9 568.9,257.9 566.3,224.2 561.7,191.8 
	556.4,158.8 "/>
<polyline class="st0" points="549.8,421.6 555.7,389.2 559.7,356.2 562.3,323.9 563,290.9 562.3,257.9 559.7,225.5 555.7,192.5 
	549.8,160.1 "/>
<polyline class="st0" points="548.4,421.6 554.4,389.2 558.3,356.2 561,323.9 561.7,290.9 561,257.9 558.3,225.5 554.4,192.5 
	548.4,160.1 "/>
<polyline class="st0" points="511.5,413.7 517.4,378.7 521.4,343.7 524,308.7 524,273 521.4,238 517.4,203.1 511.5,168.1 "/>
<polyline class="st0" points="48.7,424.2 52.6,440.1 58.5,455.9 66.5,471.1 75.7,485 86.3,498.2 98.2,510.1 111.4,520.6 
	125.2,529.9 140.4,537.1 156.3,543.1 172.1,547 "/>
<polyline class="st0" points="50.6,423.6 54.6,439.4 60.5,455.3 68.4,469.8 77,483.6 87.6,496.9 99.5,508.7 112,518.6 126.6,527.9 
	141.1,535.2 156.9,541.1 172.8,545 "/>
<polyline class="st0" points="53.3,422.9 57.2,438.8 63.2,453.9 70.4,468.5 79.7,482.3 89.6,494.9 101.5,506.8 114,516.7 
	127.9,525.2 142.4,533.2 157.6,538.5 173.4,542.4 "/>
<polyline class="st0" points="59.9,421.6 63.8,436.8 69.1,451.3 76.4,465.2 85,478.4 94.2,490.2 105.4,501.5 118,511.4 131.2,520 
	145,526.6 159.6,532.5 174.8,536.5 "/>
<polyline class="st0" points="61.2,421.6 65.2,436.1 70.4,450.6 77,464.5 85.6,477.7 95.5,489.6 106.8,500.8 118.6,510.1 
	131.8,518.6 145.7,525.9 159.6,531.2 174.8,535.2 "/>
<polyline class="st0" points="97.5,413.7 101.5,427.5 106.8,440.1 114,452.6 122.6,463.2 132.5,473.1 143.7,481.7 155.6,488.9 
	168.8,494.2 182,498.2 "/>
<polyline class="st0" points="170.8,34.7 154.9,39.3 139.1,45.3 124.6,52.5 110.7,61.8 97.5,72.3 85.6,84.2 75.1,97.4 66.5,111.3 
	58.5,125.8 52.6,141.6 48.7,157.5 "/>
<polyline class="st0" points="171.4,36.7 155.6,41.3 140.4,46.6 125.2,54.5 111.4,63.1 98.8,73.6 86.9,85.5 77,98.1 67.8,111.9 
	60.5,127.1 54.6,142.3 50.6,158.2 "/>
<polyline class="st0" points="172.1,39.3 156.3,43.3 141.1,49.2 126.6,56.5 113.3,65.7 100.8,75.6 88.9,87.5 79,100.1 70.4,113.3 
	63.2,127.8 57.2,143 53.3,158.8 "/>
<polyline class="st0" points="173.4,45.9 158.2,49.9 143.7,55.2 129.9,62.4 117.3,71 104.8,80.9 94.2,91.5 84.3,103.4 75.7,116.6 
	69.1,130.4 63.8,144.9 59.9,160.1 "/>
<polyline class="st0" points="173.4,47.2 157.6,51.9 141.7,57.8 126.6,65.7 112.7,75.6 100.1,86.8 88.9,99.4 79.7,113.3 71.8,128.4 
	65.2,144.3 61.2,160.1 "/>
<polyline class="st0" points="181.4,84.2 168.1,87.5 154.9,92.8 143.1,100.1 131.8,108.6 122.6,118.5 114,129.8 106.8,141.6 
	101.5,154.2 97.5,168.1 "/>
<polyline class="st0" points="286.3,172.7 287.6,174.7 290.3,174.7 291.6,172.7 "/>
<polyline class="st0" points="291.6,139 291,137 289,136.4 287,137 286.3,139 "/>
<polyline class="st0" points="48.7,158.2 42.7,191.2 38.1,224.2 35.4,257.2 34.8,290.9 35.4,324.5 38.1,357.5 42.7,390.6 
	48.7,423.6 "/>
<polyline class="st0" points="50.6,158.2 44.7,191.2 40.1,224.2 37.4,257.2 36.8,290.9 37.4,324.5 40.1,357.5 44.7,390.6 
	50.6,423.6 "/>
<polyline class="st0" points="52.6,158.8 47.3,191.8 42.7,224.2 40.1,257.9 39.4,290.9 40.1,323.9 42.7,357.5 47.3,389.9 
	52.6,422.9 "/>
<polyline class="st0" points="438.2,34.7 405.2,28.7 372.2,24.1 338.5,21.5 304.8,20.8 271.1,21.5 237.5,24.1 204.5,28.7 
	171.4,34.7 "/>
<polyline class="st0" points="59.2,160.1 53.3,192.5 49.3,225.5 46.7,257.9 46,290.9 46.7,323.9 49.3,356.2 53.3,389.2 59.2,421.6 
	"/>
<polyline class="st0" points="438.2,36.7 405.2,30.7 371.5,26.1 338.5,23.5 304.8,22.8 271.1,23.5 238.1,26.1 204.5,30.7 
	171.4,36.7 "/>
<polyline class="st0" points="60.5,160.1 54.6,192.5 50.6,225.5 48,257.9 47.3,290.9 48,323.9 50.6,356.2 54.6,389.2 60.5,421.6 "/>
<polyline class="st0" points="437.5,39.3 404.5,33.4 371.5,28.7 338.5,26.1 304.8,25.4 271.1,26.1 238.1,28.7 205.1,33.4 
	172.1,39.3 "/>
<polyline class="st0" points="436.2,45.9 403.9,40 370.8,35.3 337.8,32.7 304.8,32 271.8,32.7 238.8,35.3 205.8,40 173.4,45.9 "/>
<polyline class="st0" points="435.5,47.2 403.2,41.3 370.8,36.7 337.8,34 304.8,33.4 271.8,34 238.8,36.7 206.4,41.3 174.1,47.2 "/>
<polyline class="st0" points="97.5,168.1 91.6,203.1 87.6,238 85,273 85,308.7 87.6,343.7 91.6,378.7 97.5,413.7 "/>
<polyline class="st0" points="428.3,84.2 393.3,77.6 357.6,73.6 322.6,71 287,71 252,73.6 216.4,77.6 181.4,84.2 "/>
<polyline class="st0" points="437.5,547 453.4,543.1 469.2,537.1 484.4,529.9 498.3,520.6 511.5,510.1 523.3,498.2 533.9,485 
	543.2,471.1 551.1,455.9 557,440.1 561,424.2 "/>
<polyline class="st0" points="436.9,545 452.7,541.1 468.5,535.2 483.1,527.9 497.6,518.6 510.1,508.7 522,496.9 532.6,483.6 
	541.2,469.8 549.1,455.3 555,439.4 559,423.6 "/>
<polyline class="st0" points="436.2,542.4 452,538.5 467.2,533.2 481.8,525.2 495.6,516.7 508.2,506.8 520,494.9 530,482.3 
	539.2,468.5 546.5,453.9 552.4,438.8 556.4,422.9 "/>
<polyline class="st0" points="434.9,536.5 450.1,532.5 464.6,526.6 478.5,520 491.7,511.4 504.2,501.5 515.4,490.2 524.7,478.4 
	533.3,465.2 540.5,451.3 545.8,436.8 549.8,421.6 "/>
<polyline class="st0" points="434.9,535.2 450.1,531.2 463.9,525.9 477.8,518.6 491,510.1 502.9,500.8 514.1,489.6 524,477.7 
	532.6,464.5 539.2,450.6 544.5,436.1 548.4,421.6 "/>
<polyline class="st0" points="427.6,498.2 440.8,494.2 454,488.9 465.9,481.7 477.1,473.1 487,463.2 495.6,452.6 502.9,440.1 
	508.2,427.5 512.1,413.7 "/>
<polyline class="st0" points="172.8,547 205.1,553 238.1,556.9 271.8,559.6 304.8,560.2 337.8,559.6 371.5,556.9 404.5,553 
	436.9,547 "/>
<polyline class="st0" points="172.8,545 205.8,551 238.8,555 271.8,557.6 304.8,558.3 337.8,557.6 370.8,555 403.9,551 436.9,545 
	"/>
<polyline class="st0" points="173.4,542.4 205.8,548.3 238.8,552.3 271.8,555 304.8,555.6 337.8,555 370.8,552.3 403.9,548.3 
	436.2,542.4 "/>
<polyline class="st0" points="174.8,535.8 207.1,541.8 239.4,545.7 271.8,548.3 304.8,549 337.8,548.3 370.2,545.7 402.5,541.8 
	434.9,535.8 "/>
<polyline class="st0" points="174.8,534.5 207.1,540.4 239.4,544.4 272.5,547 304.8,547.7 337.2,547 370.2,544.4 402.5,540.4 
	434.9,534.5 "/>
<polyline class="st0" points="182.7,497.5 217,504.1 252,508.1 287,510.1 322.6,510.1 357.6,508.1 392.6,504.1 427,497.5 "/>
<polyline class="st0" points="561,157.5 557,141.6 551.1,125.8 543.2,111.3 534.6,97.4 524,84.2 512.1,72.3 498.9,61.8 485.1,52.5 
	470.5,45.3 454.7,39.3 438.8,34.7 "/>
<polyline class="st0" points="559,158.2 555,142.3 549.1,127.1 541.8,111.9 532.6,98.1 522.7,85.5 510.8,73.6 498.3,63.1 
	484.4,54.5 469.2,46.6 454,41.3 438.2,36.7 "/>
<polyline class="st0" points="556.4,158.8 552.4,143 546.5,127.8 539.2,113.3 530.6,100.1 520.7,87.5 508.8,75.6 496.3,65.7 
	483.1,56.5 468.5,49.2 453.4,43.3 437.5,39.3 "/>
<polyline class="st0" points="549.8,160.1 545.8,144.9 540.5,130.4 533.9,116.6 525.3,103.4 515.4,91.5 504.9,80.9 492.3,71 
	479.8,62.4 465.9,55.2 451.4,49.9 436.2,45.9 "/>
<polyline class="st0" points="548.4,160.1 544.5,144.3 537.9,128.4 530,113.3 520.7,99.4 509.5,86.8 496.9,75.6 483.1,65.7 
	467.9,57.8 452,51.9 436.2,47.2 "/>
<polyline class="st0" points="512.1,168.1 508.2,154.2 502.9,141.6 495.6,129.8 487,118.5 477.8,108.6 466.6,100.1 454.7,92.8 
	441.5,87.5 428.3,84.2 "/>
<polyline class="st0" points="318,172.7 319.3,174.7 322,174.7 323.3,172.7 "/>
<polyline class="st0" points="323.3,139 322.6,137 320.7,136.4 318.7,137 318,139 "/>
<polyline class="st0" points="307.5,139 306.8,137 304.8,136.4 302.8,137 302.2,139 "/>
<polyline class="st0" points="302.2,172.7 303.5,174.7 306.1,174.7 307.5,172.7 "/>
</svg>
