<?xml version="1.0" encoding="UTF-8"?>
<svg width="100mm" height="100mm" version="1.1" viewBox="0 0 100 100" xmlns="http://www.w3.org/2000/svg">
 <g transform="translate(-58.637 -106.79)" fill="none" stroke="#000" stroke-miterlimit="10">
  <path d="m141.75 198.77h-66.234c-4.8507 0-8.9076-3.9688-8.9076-8.9076v-66.146c0-4.9389 4.057-8.9076 8.9076-8.9076h66.234c4.9389 0 8.9076 3.9688 8.9076 8.9076v66.146c0 4.9389-3.9688 8.9076-8.9076 8.9076z" stroke-width=".97014px"/>
  <path d="m136.64 184.75h-56.003v-55.915h56.003z" stroke-width=".97014px"/>
  <path d="m123.09 178.92h-36.555v-44.264h36.555z" stroke-width=".17926px"/>
  <g transform="translate(-3.175 5.9501)" stroke-width=".52917px">
   <g stroke-linecap="round">
    <path d="m97.216 144.36h6.2618"/>
    <path d="m103.74 151.15v-6.1736"/>
    <path d="m97.216 151.59h6.2618"/>
    <path d="m96.863 158.38v-6.2618"/>
    <path d="m97.216 158.82h6.2618"/>
    <path d="m105.77 144.36h6.1736"/>
    <path d="m105.77 158.82h6.1736"/>
    <path d="m105.42 151.32v-6.35"/>
    <path d="m105.42 158.38v-6.4382"/>
    <path d="m112.3 151.32v-6.35"/>
    <path d="m112.3 158.38v-6.4382"/>
   </g>
   <path d="m115.56 143.83c0 0.52917-0.44097 0.97014-0.97014 0.97014s-0.97014-0.44097-0.97014-0.97014c0-0.52915 0.44097-0.97013 0.97014-0.97013s0.97014 0.44098 0.97014 0.97013z"/>
   <path d="m119.62 145.41c-0.44097-0.44097-1.1465-0.61736-1.7639-0.61736-1.8521 0-3.2632 1.4993-3.2632 3.2632s1.4111 3.2632 3.2632 3.2632c0.70556 0 1.4111-0.26458 2.0285-0.70556" stroke-linecap="round"/>
  </g>
 </g>
 <g transform="translate(0 -.43327)" stroke="#000">
  <path transform="translate(-58.637 -106.79)" d="m131.14 159.95h-3.0547l1.5273-1.5274z" stroke-width=".5715"/>
  <path transform="translate(-58.637 -106.79)" d="m128.08 173.43h3.0547l-1.5274 1.5274z" stroke-width=".5715"/>
  <g transform="translate(.97377 2.6966)">
   <path transform="translate(-58.637 -106.79)" d="m128.64 141.02a0.5 0.5 0 0 0-0.50022 0.50023 0.5 0.5 0 0 0 0.50022 0.49971 0.5 0.5 0 0 0 0.49972-0.49971 0.5 0.5 0 0 0-0.49972-0.50023z" stroke-width=".79375"/>
   <path d="m68 33v-3l2 1.5 2-1.5v3" fill="none" stroke-linejoin="round" stroke-width=".794"/>
  </g>
 </g>
</svg>
