<?xml version="1.0" encoding="UTF-8"?>
<svg width="100mm" height="100mm" version="1.1" viewBox="0 0 100 100" xmlns="http://www.w3.org/2000/svg">
 <style type="text/css">.decrease {
    animation: button 10s infinite;
    }
    .zigbee {
    animation: pairing 10s infinite step-end;
    }

    @keyframes button {
    0%, 5%, 70%, 100% {
    stroke: #000;
    fill: #000;
    }
    10%, 65% {
    stroke: #0078CC;
    fill: #0078CC;
    }
    }

    @keyframes pairing {
    0%, 60%, 68%, 76%, 84%, 92%, 100% {
    fill: rgba(255,255,255,0);
    }
    64%, 72%, 80%, 88%, 96% {
    fill: #000;
    }
    }</style>
 <g transform="translate(-58.637 -106.79)" fill="none" stroke="#000" stroke-miterlimit="10">
  <path d="m141.75 198.77h-66.234c-4.8507 0-8.9076-3.9688-8.9076-8.9076v-66.146c0-4.9389 4.057-8.9076 8.9076-8.9076h66.234c4.9389 0 8.9076 3.9688 8.9076 8.9076v66.146c0 4.9389-3.9688 8.9076-8.9076 8.9076z" stroke-width=".97014px"/>
  <path d="m136.64 184.75h-56.003v-55.915h56.003z" stroke-width=".97014px"/>
  <path d="m123.09 178.92h-36.555v-44.264h36.555z" stroke-width=".17926px"/>
  <g transform="translate(-3.175 5.9501)" stroke-width=".52917px">
   <g stroke-linecap="round">
    <path d="m97.216 144.36h6.2618"/>
    <path d="m103.74 151.15v-6.1736"/>
    <path d="m97.216 151.59h6.2618"/>
    <path d="m96.863 158.38v-6.2618"/>
    <path d="m97.216 158.82h6.2618"/>
    <path d="m105.77 144.36h6.1736"/>
    <path d="m105.77 158.82h6.1736"/>
    <path d="m105.42 151.32v-6.35"/>
    <path d="m105.42 158.38v-6.4382"/>
    <path d="m112.3 151.32v-6.35"/>
    <path d="m112.3 158.38v-6.4382"/>
   </g>
   <path d="m115.56 143.83c0 0.52917-0.44097 0.97014-0.97014 0.97014s-0.97014-0.44097-0.97014-0.97014c0-0.52915 0.44097-0.97013 0.97014-0.97013s0.97014 0.44098 0.97014 0.97013z"/>
   <path d="m119.62 145.41c-0.44097-0.44097-1.1465-0.61736-1.7639-0.61736-1.8521 0-3.2632 1.4993-3.2632 3.2632s1.4111 3.2632 3.2632 3.2632c0.70556 0 1.4111-0.26458 2.0285-0.70556" stroke-linecap="round"/>
  </g>
 </g>
 <g transform="translate(0 -.43327)" stroke="#000">
  <path transform="translate(-58.637 -106.79)" d="m131.14 159.95h-3.0547l1.5273-1.5274z" stroke-width=".5715"/>
  <path class="decrease" transform="translate(-58.637 -106.79)" d="m128.08 173.43h3.0547l-1.5274 1.5274z" stroke-width=".5715"/>
  <g transform="translate(.97377 2.6966)">
   <path transform="translate(-58.637 -106.79)" d="m128.64 141.02a0.5 0.5 0 0 0-0.50022 0.50023 0.5 0.5 0 0 0 0.50022 0.49971 0.5 0.5 0 0 0 0.49972-0.49971 0.5 0.5 0 0 0-0.49972-0.50023z" stroke-width=".79375"/>
   <path d="m68 33v-3l2 1.5 2-1.5v3" fill="none" stroke-linejoin="round" stroke-width=".794"/>
  </g>
 </g>
 <path class="zigbee" d="m54.205 30.532a1.8511 1.8511 0 0 1-1.8511 1.8511 1.8511 1.8511 0 0 1-1.8511-1.8511 1.8511 1.8511 0 0 1 1.8511-1.8511 1.8511 1.8511 0 0 1 1.8511 1.8511zm-3.1872-0.98444c-0.01514 0.0034-0.03029 0.01178-0.04375 0.02188-0.19184 0.27261-0.3029 0.60412-0.3029 0.96256a1.6828 1.6828 0 0 0 1.6828 1.6828c0.50484 0 0.95581-0.22213 1.2621-0.57215l-0.4207 0.04207c-0.46277 0.05049-0.93393 0.05722-1.4034 0.01851-0.11948-0.0034-0.23896-0.03366-0.34834-0.08582-0.14472-0.06563-0.24232-0.2053-0.25579-0.36349-0.0017-0.02692 0.0084-0.0488 0.02692-0.07068l0.36854-0.382 1.2806-1.3294v-0.01683h-0.70509c-0.38199 0.0067-0.76234 0.03702-1.141 0.09255m2.711 1.91c0.01514-5e-3 0.03029-0.0101 0.04375-0.01851 0.1666-0.26252 0.2642-0.57047 0.2642-0.90703a1.6828 1.6828 0 0 0-1.6828-1.6828c-0.46782 0-0.89189 0.19016-1.1965 0.49979h0.04712c0.52335-0.06731 1.0534-0.08414 1.5801-0.05385 0.15818-0.0017 0.31805 0.02861 0.46614 0.0875 0.15482 0.06058 0.26252 0.20362 0.28103 0.37022 0 0.02692-0.01178 0.05553-0.03029 0.07573l-1.5331 1.5768-0.11948 0.12789v0.01851h0.6967c0.39714-0.01009 0.79089-0.04207 1.183-0.09424z" stroke-width=".63602"/>
</svg>
