<?xml version="1.0" encoding="UTF-8"?>
<svg width="320px" height="320px" viewBox="0 0 320 320" version="1.1" xmlns="http://www.w3.org/2000/svg" xmlns:xlink="http://www.w3.org/1999/xlink">
    <title>images / ZG9030A</title>
    <g id="images-/-ZG9030A" stroke="none" stroke-width="1" fill="none" fill-rule="evenodd">
        <path d="M26.3550291,21 L26.9710037,21.0082762 L266.750112,32.2607321 C274.208182,32.6108004 280.131803,38.5523343 280.545406,45.9187822 L280.568485,46.7429286 L280.56803,48.4483271 L298.6171,48.4521424 C306.008272,48.4521424 312,54.4438706 312,61.835042 C312,68.9622429 306.42861,74.788176 299.403447,75.1952233 L298.6171,75.2179416 L280.56803,75.2141264 L280.568485,245.144143 C280.568485,251.916531 275.888743,257.745206 269.364084,259.26346 L268.539097,259.430548 L43.1119851,298.385346 C38.1313278,299.246026 33.0868998,297.449115 29.7726683,293.692175 L29.1719636,292.96495 L15.0268734,274.663354 C13.2825963,272.406524 12.2476526,269.691998 12.0391994,266.862898 L12,265.797285 L12.0059032,35.0925097 L12.0159448,34.818077 C12.3525331,27.6471907 17.843776,21.9382155 24.7402874,21.1043392 L25.5420618,21.029952 L26.3550291,21 Z M266.227213,43.4008832 L37.8557621,32.6788104 L37.8513011,285.954647 L37.9960158,286.144944 C38.6591582,287.002949 39.6897662,287.478706 40.7551779,287.444753 L41.2129438,287.395804 L266.640056,248.441006 C268.083838,248.191514 269.177383,247.039311 269.381654,245.624569 L269.416069,245.144143 L269.416069,46.7429286 C269.416069,45.1050264 268.236304,43.7320944 266.664897,43.4501171 L266.227213,43.4008832 Z M26.8597622,32.161644 L26.2000846,32.1649845 C24.7076981,32.2961797 23.4788671,33.4108212 23.2099575,34.8385904 L23.1587787,35.2756446 L23.1524164,265.797345 C23.1524164,266.389752 23.3096439,266.968768 23.6043896,267.476663 L23.8509256,267.843347 L30.9546468,277.037175 L30.9546468,32.3531599 L26.8597622,32.161644 Z M56.7573429,52.9839227 L56.988752,52.9913622 C59.3902746,53.0754155 61.2936803,55.0466058 61.2936803,57.4495989 L61.2936803,258.776449 C61.2936803,260.970576 59.6981335,262.838934 57.5310594,263.182415 L56.8327138,263.293103 C54.728735,263.626584 52.7527838,262.191312 52.4193031,260.087333 C52.3876482,259.887617 52.3717472,259.685721 52.3717472,259.483513 L52.3717472,57.2934651 C52.3717472,55.0830391 54.0356583,53.2612404 56.1792884,53.0122612 L56.7573429,52.9839227 L56.7573429,52.9839227 Z M74.6012091,53.6084581 L74.8326182,53.6158975 C77.2341408,53.6999508 79.1375465,55.6711411 79.1375465,58.0741342 L79.1375465,255.950776 C79.1375465,258.145726 77.5408317,260.014529 75.3727763,260.357082 L74.6765799,260.467081 C72.5715619,260.799674 70.5954878,259.362839 70.2628949,257.257821 C70.2314223,257.058628 70.2156134,256.857273 70.2156134,256.655609 L70.2156134,57.9180004 C70.2156134,55.7075744 71.8795245,53.8857758 74.0231546,53.6367965 L74.6012091,53.6084581 L74.6012091,53.6084581 Z M92.4450753,54.2285324 L92.6764844,54.2359719 C95.078007,54.3200252 96.9814126,56.2912155 96.9814126,58.6942086 L96.9814126,253.124405 C96.9814126,255.318531 95.3858658,257.18689 93.2187917,257.530371 L92.5204461,257.641059 C90.4164673,257.974539 88.4405161,256.539267 88.1070355,254.435288 C88.0753805,254.235572 88.0594796,254.033677 88.0594796,253.831468 L88.0594796,58.5380748 C88.0594796,56.3276488 89.7233907,54.5058501 91.8670208,54.2568708 L92.4450753,54.2285324 L92.4450753,54.2285324 Z M110.288941,54.8530677 L110.520351,54.8605072 C112.921873,54.9445605 114.825279,56.9157508 114.825279,59.3187439 L114.825279,250.298731 C114.825279,252.493681 113.228564,254.362485 111.060509,254.705037 L110.364312,254.815036 C108.259294,255.147629 106.28322,253.710795 105.950627,251.605777 C105.919155,251.406583 105.903346,251.205229 105.903346,251.003564 L105.903346,59.1626101 C105.903346,56.9521841 107.567257,55.1303854 109.710887,54.8814062 L110.288941,54.8530677 L110.288941,54.8530677 Z M127.55659,55.5037985 L128.208178,55.4773507 L128.36199,55.4826572 C130.764418,55.5655409 132.669145,57.5371143 132.669145,59.9409713 L132.669145,247.47236 C132.669145,249.666486 131.073598,251.534845 128.906524,251.878326 L128.208178,251.989014 C126.1042,252.322495 124.128248,250.887222 123.794768,248.783244 C123.763113,248.583528 123.747212,248.381632 123.747212,248.179423 L123.747212,59.7870679 C123.747212,57.5755755 125.411926,55.7528979 127.55659,55.5037985 L127.55659,55.5037985 Z M145.976674,56.0976774 L146.208083,56.1051169 C148.609606,56.1891701 150.513011,58.1603605 150.513011,60.5633536 L150.513011,244.644107 C150.513011,246.838234 148.917464,248.706592 146.75039,249.050073 L146.052045,249.160761 C143.948066,249.494242 141.972115,248.05897 141.638634,245.954991 C141.606979,245.755275 141.591078,245.553379 141.591078,245.351171 L141.591078,60.4072197 C141.591078,58.1967938 143.254989,56.3749951 145.398619,56.1260158 L145.976674,56.0976774 L145.976674,56.0976774 Z M163.82054,56.7222127 L164.051949,56.7296522 C166.453472,56.8137055 168.356877,58.7848958 168.356877,61.1878889 L168.356877,241.820316 C168.356877,244.014442 166.76133,245.8828 164.594256,246.226282 L163.895911,246.336969 C161.791932,246.67045 159.815981,245.235178 159.4825,243.131199 C159.450845,242.931483 159.434944,242.729588 159.434944,242.527379 L159.434944,61.031755 C159.434944,58.8213291 161.098855,56.9995304 163.242485,56.7505511 L163.82054,56.7222127 L163.82054,56.7222127 Z M181.088189,57.3729435 L181.739777,57.3464957 L181.893589,57.3518022 C184.296016,57.4346859 186.200743,59.4062593 186.200743,61.8101162 L186.200743,238.992063 C186.200743,241.186189 184.605197,243.054548 182.438123,243.398029 L181.739777,243.508717 C179.635798,243.842197 177.659847,242.406925 177.326366,240.302946 C177.294711,240.10323 177.27881,239.901335 177.27881,239.699126 L177.27881,61.6562129 C177.27881,59.4447205 178.943524,57.6220429 181.088189,57.3729435 L181.088189,57.3729435 Z M199.508272,57.9668224 L199.739681,57.9742618 C202.141204,58.0583151 204.04461,60.0295055 204.04461,62.4324985 L204.04461,236.168271 C204.04461,238.362397 202.449063,240.230756 200.281989,240.574237 L199.583643,240.684925 C197.479664,241.018405 195.503713,239.583133 195.170232,237.479154 C195.138578,237.279439 195.122677,237.077543 195.122677,236.875334 L195.122677,62.2763647 C195.122677,60.0659388 196.786588,58.2441401 198.930218,57.9951608 L199.508272,57.9668224 L199.508272,57.9668224 Z M217.352138,58.5913577 L217.583548,58.5987972 C219.98507,58.6828504 221.888476,60.6540408 221.888476,63.0570339 L221.888476,233.340018 C221.888476,235.534144 220.292929,237.402503 218.125855,237.745984 L217.427509,237.856672 C215.323531,238.190153 213.347579,236.75488 213.014099,234.650902 C212.982444,234.451186 212.966543,234.24929 212.966543,234.047081 L212.966543,62.9009 C212.966543,60.6904741 214.630454,58.8686754 216.774084,58.6196961 L217.352138,58.5913577 L217.352138,58.5913577 Z M235.196005,59.211432 L235.427414,59.2188715 C237.828936,59.3029248 239.732342,61.2741151 239.732342,63.6771082 L239.732342,230.514345 C239.732342,232.709295 238.135627,234.578098 235.967572,234.920651 L235.271375,235.03065 C233.166357,235.363243 231.190283,233.926408 230.85769,231.82139 C230.826218,231.622196 230.810409,231.420842 230.810409,231.219177 L230.810409,63.5209744 C230.810409,61.3105484 232.47432,59.4887497 234.61795,59.2397705 L235.196005,59.211432 L235.196005,59.211432 Z M253.039871,59.8359673 L253.27128,59.8434068 C255.672803,59.9274601 257.576208,61.8986504 257.576208,64.3016435 L257.576208,227.687974 C257.576208,229.8821 255.980661,231.750458 253.813587,232.09394 L253.115242,232.204627 C251.011263,232.538108 249.035312,231.102836 248.701831,228.998857 C248.670176,228.799141 248.654275,228.597246 248.654275,228.395037 L248.654275,64.1455097 C248.654275,61.9350837 250.318186,60.1132851 252.461816,59.8643058 L253.039871,59.8359673 L253.039871,59.8359673 Z M298.6171,55.1435922 C294.921515,55.1435922 291.925651,58.1394563 291.925651,61.835042 C291.925651,65.5306277 294.921515,68.5264918 298.6171,68.5264918 C302.312686,68.5264918 305.30855,65.5306277 305.30855,61.835042 C305.30855,58.1394563 302.312686,55.1435922 298.6171,55.1435922 Z M285.234201,55.1435922 L280.56803,55.139777 L280.56803,68.5226766 L285.234201,68.5264918 L285.234201,55.1435922 Z" id="Shape" fill="#000000" fill-rule="nonzero"></path>
    </g>
</svg>