<svg id="图层_1" data-name="图层 1" xmlns="http://www.w3.org/2000/svg" viewBox="0 0 117.89 194.32"><defs><style>.cls-1{fill:none;stroke:#000;stroke-linecap:round;stroke-linejoin:round;}</style></defs><title>S726 (7.15)-1</title><line class="cls-1" x1="106.47" y1="68.78" x2="106.35" y2="67.7"/><line class="cls-1" x1="106.23" y1="78.98" x2="106.35" y2="77.9"/><line class="cls-1" x1="106.35" y1="77.9" x2="106.47" y2="68.9"/><line class="cls-1" x1="104.79" y1="65.9" x2="104.67" y2="65.9"/><polyline class="cls-1" points="106.34 67.94 106.34 67.82 106.34 67.46"/><polyline class="cls-1" points="106.22 67.34 106.22 67.22 105.99 66.62 105.62 66.26 105.27 66.02 104.9 65.9 104.78 65.9"/><polyline class="cls-1" points="104.9 80.78 105.15 80.78 105.38 80.54 105.75 80.3 105.99 79.82 106.22 79.1 106.22 78.98"/><polyline class="cls-1" points="104.55 80.9 104.78 80.9 104.9 80.78"/><polyline class="cls-1" points="79.1 186.98 79.1 187.1 79.1 187.22 79.1 187.34 79.1 187.46 79.1 187.58 79.1 187.7 79.1 187.82 79.1 187.94 79.1 188.06 79.1 188.18 79.22 188.18 79.22 188.3 79.22 188.42 79.22 188.54 79.22 188.66 79.34 188.66 79.34 188.78 79.34 188.9 79.34 189.02 79.47 189.14 79.47 189.26 79.47 189.38 79.59 189.38 79.59 189.5 79.59 189.62 79.71 189.74 79.71 189.86 79.71 189.98 79.82 189.98 79.82 190.1 79.82 190.22 79.94 190.22 79.94 190.34 80.06 190.46 80.19 190.58 80.19 190.7 80.31 190.82 80.43 190.94 80.43 191.06 80.55 191.06 80.55 191.18 80.66 191.3 80.78 191.42 80.78 191.54 80.9 191.54 80.9 191.66 81.03 191.66 81.03 191.78 81.15 191.78 81.15 191.9 81.27 191.9 81.38 192.02 81.5 192.14 81.62 192.14 81.62 192.26 81.75 192.26 81.87 192.38 81.99 192.5 82.1 192.5 82.22 192.62 82.34 192.74 82.47 192.74 82.47 192.86 82.59 192.86 82.71 192.86 82.71 192.98 82.82 192.98 82.94 192.98 83.06 193.1 83.19 193.1 83.31 193.1 83.31 193.22 83.43 193.22 83.55 193.22 83.66 193.34 83.78 193.34 83.9 193.34 84.03 193.34 84.03 193.46 84.15 193.46 84.27 193.46 84.38 193.46 84.5 193.46 84.5 193.58 84.62 193.58 84.75 193.58 84.87 193.58 84.99 193.58 85.1 193.58 85.22 193.58 85.34 193.58 85.47 193.58 85.59 193.58 85.71 193.58 85.82 193.7 85.82 193.58 85.94 193.58 86.06 193.58 86.19 193.58 86.31 193.58 86.43 193.58 86.55 193.58 86.66 193.58 86.78 193.58 86.9 193.58 87.03 193.58 87.03 193.46 87.15 193.46 87.27 193.46 87.38 193.46 87.5 193.46 87.5 193.34 87.62 193.34 87.75 193.34 87.87 193.34 87.99 193.22 88.1 193.22 88.22 193.22 88.22 193.1 88.34 193.1 88.47 193.1 88.59 192.98 88.71 192.98 88.82 192.98 88.82 192.86 88.94 192.86 89.06 192.86 89.06 192.74 89.19 192.74 89.31 192.62 89.43 192.5 89.55 192.5 89.66 192.38 89.78 192.26 89.9 192.26 89.9 192.14 90.03 192.14 90.15 192.02 90.27 191.9 90.38 191.9 90.38 191.78 90.5 191.78 90.5 191.66 90.62 191.66 90.62 191.54 90.75 191.54 90.75 191.42 90.87 191.3 90.99 191.18 90.99 191.06 91.1 191.06 91.1 190.94 91.22 190.82 91.34 190.7 91.34 190.58 91.47 190.46 91.59 190.34 91.59 190.22 91.71 190.22 91.71 190.1 91.71 189.98 91.82 189.98 91.82 189.86 91.82 189.74 91.94 189.62 91.94 189.5 91.94 189.38 92.06 189.38 92.06 189.26 92.06 189.14 92.19 189.02 92.19 188.9 92.19 188.78 92.19 188.66 92.31 188.66 92.31 188.54 92.31 188.42 92.31 188.3 92.31 188.18 92.43 188.18 92.43 188.06 92.43 187.94 92.43 187.82 92.43 187.7 92.43 187.58 92.43 187.46 92.43 187.34 92.43 187.22 92.43 187.1 92.43 186.98 92.55 186.98"/><line class="cls-1" x1="79.11" y1="139.94" x2="79.11" y2="186.98"/><line class="cls-1" x1="92.67" y1="186.98" x2="92.67" y2="139.94"/><line class="cls-1" x1="25.23" y1="139.94" x2="25.23" y2="186.98"/><line class="cls-1" x1="38.79" y1="186.98" x2="38.79" y2="139.94"/><polyline class="cls-1" points="25.23 186.98 25.23 187.1 25.23 187.22 25.23 187.34 25.23 187.46 25.23 187.58 25.23 187.7 25.23 187.82 25.23 187.94 25.23 188.06 25.23 188.18 25.34 188.3 25.34 188.42 25.34 188.54 25.34 188.66 25.47 188.78 25.47 188.9 25.47 189.02 25.59 189.14 25.59 189.26 25.59 189.38 25.7 189.5 25.7 189.62 25.7 189.74 25.83 189.74 25.83 189.86 25.83 189.98 25.95 189.98 25.95 190.1 26.06 190.22 26.06 190.34 26.19 190.46 26.19 190.58 26.31 190.7 26.31 190.82 26.42 190.82 26.42 190.94 26.54 190.94 26.54 191.06 26.67 191.18 26.67 191.3 26.78 191.3 26.78 191.42 26.9 191.42 26.9 191.54 27.03 191.54 27.03 191.66 27.14 191.66 27.14 191.78 27.26 191.78 27.26 191.9 27.39 191.9 27.39 192.02 27.5 192.02 27.5 192.14 27.62 192.14 27.62 192.26 27.75 192.26 27.87 192.38 27.98 192.38 27.98 192.5 28.11 192.5 28.11 192.62 28.23 192.62 28.34 192.74 28.47 192.74 28.59 192.86 28.7 192.86 28.83 192.98 28.95 192.98 28.95 193.1 29.06 193.1 29.19 193.1 29.19 193.22 29.31 193.22 29.42 193.22 29.54 193.34 29.67 193.34 29.78 193.34 29.9 193.46 30.03 193.46 30.14 193.46 30.26 193.58 30.39 193.58 30.5 193.58 30.62 193.58 30.75 193.7 30.87 193.7 30.98 193.7 31.11 193.7 31.23 193.7 31.34 193.7 31.47 193.7 31.59 193.7 31.7 193.7 31.83 193.7 31.95 193.7 32.06 193.82 32.06 193.7 32.19 193.7 32.31 193.7 32.42 193.7 32.54 193.7 32.67 193.7 32.78 193.7 32.9 193.7 33.03 193.7 33.14 193.7 33.26 193.7 33.39 193.58 33.5 193.58 33.62 193.58 33.75 193.58 33.87 193.46 33.98 193.46 34.11 193.46 34.23 193.34 34.34 193.34 34.47 193.34 34.59 193.22 34.7 193.22 34.83 193.22 34.83 193.1 34.95 193.1 35.06 193.1 35.06 192.98 35.19 192.98 35.31 192.86 35.42 192.86 35.54 192.74 35.67 192.74 35.78 192.62 35.9 192.62 35.9 192.5 36.03 192.5 36.03 192.38 36.14 192.38 36.26 192.26 36.39 192.26 36.39 192.14 36.5 192.14 36.5 192.02 36.62 192.02 36.62 191.9 36.75 191.9 36.75 191.78 36.87 191.78 36.87 191.66 36.98 191.66 36.98 191.54 37.11 191.54 37.11 191.42 37.23 191.42 37.23 191.3 37.34 191.3 37.34 191.18 37.47 191.06 37.47 190.94 37.59 190.94 37.59 190.82 37.7 190.82 37.7 190.7 37.83 190.58 37.83 190.46 37.95 190.34 37.95 190.22 38.06 190.1 38.06 189.98 38.19 189.98 38.19 189.86 38.19 189.74 38.31 189.74 38.31 189.62 38.31 189.5 38.42 189.38 38.42 189.26 38.42 189.14 38.54 189.02 38.54 188.9 38.54 188.78 38.67 188.66 38.67 188.54 38.67 188.42 38.67 188.3 38.78 188.18 38.78 188.06 38.78 187.94 38.78 187.82 38.78 187.7 38.78 187.58 38.78 187.46 38.78 187.34 38.78 187.22 38.78 187.1 38.78 186.98 38.9 186.98"/><line class="cls-1" x1="0.51" y1="0.5" x2="1.59" y2="86.66"/><line class="cls-1" x1="116.31" y1="86.66" x2="117.39" y2="0.5"/><polyline class="cls-1" points="114.87 88.1 114.87 87.98 114.99 87.98 115.1 87.98 115.22 87.98 115.34 87.98 115.34 87.86 115.47 87.86 115.59 87.86 115.59 87.74 115.71 87.74 115.71 87.62 115.82 87.62 115.82 87.5 115.94 87.5 115.94 87.38 116.06 87.38 116.06 87.26 116.06 87.14 116.19 87.14 116.19 87.02 116.19 86.9 116.19 86.78 116.19 86.66 116.31 86.66"/><polyline class="cls-1" points="1.59 86.66 1.59 86.78 1.59 86.9 1.59 87.02 1.59 87.14 1.7 87.14 1.7 87.26 1.7 87.38 1.83 87.38 1.83 87.5 1.95 87.5 1.95 87.62 2.06 87.62 2.06 87.74 2.19 87.74 2.19 87.86 2.31 87.86 2.42 87.86 2.42 87.98 2.54 87.98 2.67 87.98 2.78 87.98 2.9 87.98 3.03 88.1"/><line class="cls-1" x1="6.75" y1="88.1" x2="7.71" y2="139.1"/><line class="cls-1" x1="110.19" y1="139.1" x2="111.15" y2="88.1"/><polyline class="cls-1" points="7.7 139.1 7.7 139.22 7.7 139.34 7.7 139.46 7.83 139.46 7.83 139.58 7.95 139.58 7.95 139.7 8.06 139.7 8.06 139.82 8.19 139.82 8.31 139.82 8.42 139.82 8.54 139.94"/><polyline class="cls-1" points="109.34 139.94 109.34 139.82 109.47 139.82 109.59 139.82 109.71 139.82 109.71 139.7 109.82 139.7 109.82 139.58 109.94 139.58 109.94 139.46 110.06 139.46 110.06 139.34 110.06 139.22 110.06 139.1 110.19 139.1"/><line class="cls-1" x1="102.39" y1="81.02" x2="101.79" y2="81.14"/><line class="cls-1" x1="102.03" y1="65.54" x2="102.51" y2="65.78"/><polyline class="cls-1" points="104.9 80.66 105.27 80.54 105.62 80.3 105.99 79.82 106.1 79.34 106.22 78.98"/><line class="cls-1" x1="63.87" y1="135.38" x2="54.03" y2="135.38"/><polyline class="cls-1" points="83.19 186.98 84.38 186.98 85.47 186.98 86.66 186.98 87.87 186.98 88.94 186.98 89.9 186.98 90.87 186.98 91.59 186.98 92.19 186.98 92.55 186.98 92.66 186.98"/><polyline class="cls-1" points="79.1 186.98 79.1 186.98 79.34 186.98 79.82 186.98 80.43 186.98 81.27 186.98 82.1 186.98 83.19 186.98"/><polyline class="cls-1" points="29.31 186.98 30.5 186.98 31.7 186.98 32.78 186.98 33.98 186.98 35.06 186.98 36.14 186.98 36.98 186.98 37.7 186.98 38.31 186.98 38.67 186.98 38.78 186.98"/><polyline class="cls-1" points="25.23 186.98 25.23 186.98 25.47 186.98 25.95 186.98 26.54 186.98 27.39 186.98 28.34 186.98 29.31 186.98"/><polyline class="cls-1" points="1.59 86.66 1.7 86.66 2.06 86.66 2.54 86.66 3.26 86.66 4.23 86.66 5.31 86.66 6.62 86.66 8.19 86.66 9.87 86.66 11.78 86.66 13.83 86.66 15.98 86.66 18.39 86.66 20.9 86.66 23.54 86.66 26.31 86.66 29.31 86.66 32.31 86.66 35.42 86.66 38.54 86.66 41.9 86.66 45.26 86.66 48.62 86.66 51.98 86.66 55.47 86.66 58.94 86.66 62.43 86.66 65.9 86.66 69.27 86.66 72.62 86.66 75.99 86.66 79.22 86.66 82.47 86.66 85.59 86.66 88.59 86.66 91.47 86.66 94.34 86.66 96.99 86.66 99.5 86.66 101.9 86.66 104.06 86.66 106.1 86.66 108.03 86.66 109.71 86.66 111.27 86.66 112.59 86.66 113.66 86.66 114.62 86.66 115.34 86.66 115.82 86.66 116.19 86.66 116.31 86.66"/><polyline class="cls-1" points="7.7 139.1 7.7 139.1 7.83 139.1 7.95 139.1"/><polyline class="cls-1" points="109.94 139.1 110.06 139.1 110.19 139.1"/><line class="cls-1" x1="91.59" y1="68.42" x2="91.71" y2="68.42"/><polyline class="cls-1" points="91.59 68.42 91.59 67.94 91.82 67.22 92.06 66.62 92.66 66.14 93.27 65.9"/><polyline class="cls-1" points="93.27 65.9 93.27 65.9 93.38 65.9 93.62 65.78"/><line class="cls-1" x1="93.63" y1="65.78" x2="93.75" y2="65.78"/><polyline class="cls-1" points="94.22 66.14 94.22 66.02 93.99 65.9 93.62 65.78"/><polyline class="cls-1" points="94.22 66.14 93.75 66.26 93.15 66.5 92.66 66.86 92.31 67.34 92.19 67.94 92.06 68.66"/><polyline class="cls-1" points="91.59 68.42 91.82 68.54 92.06 68.66"/><polyline class="cls-1" points="94.82 69.98 94.82 70.58 94.82 71.06 94.82 73.34 94.82 76.82"/><polyline class="cls-1" points="94.82 76.82 94.1 77.18 93.27 77.54 92.31 77.9 92.06 78.14"/><polyline class="cls-1" points="92.06 68.66 92.06 68.66 92.06 71.54 92.06 74.54 92.06 77.42 92.06 78.14"/><polyline class="cls-1" points="94.82 69.98 94.1 69.5 93.27 69.14 92.43 68.78 92.06 68.66"/><line class="cls-1" x1="94.23" y1="66.14" x2="94.35" y2="66.14"/><polyline class="cls-1" points="96.03 68.54 95.55 67.82 95.06 66.98 94.22 66.14"/><polyline class="cls-1" points="94.82 69.98 94.94 69.38 95.31 68.9 95.66 68.66 96.03 68.54"/><line class="cls-1" x1="92.07" y1="68.66" x2="92.19" y2="68.66"/><line class="cls-1" x1="92.07" y1="78.14" x2="92.07" y2="78.14"/><polyline class="cls-1" points="91.47 78.26 91.71 78.26 91.82 78.26 91.94 78.14 92.06 78.14"/><polyline class="cls-1" points="91.47 78.26 91.59 77.42 91.59 74.42 91.59 71.54 91.59 68.42"/><line class="cls-1" x1="93.51" y1="80.9" x2="93.63" y2="80.9"/><polyline class="cls-1" points="93.5 80.9 93.15 80.78 92.55 80.54 92.06 80.18 91.71 79.7 91.59 78.98 91.47 78.26"/><line class="cls-1" x1="91.47" y1="78.26" x2="91.59" y2="78.26"/><polyline class="cls-1" points="92.06 78.14 92.19 78.98 92.31 79.46 92.66 79.94 93.03 80.3 93.5 80.54 94.1 80.66"/><polyline class="cls-1" points="93.5 80.9 93.75 80.78 93.99 80.66 94.1 80.66"/><polyline class="cls-1" points="95.9 78.14 95.43 78.02 95.06 77.66 94.82 77.3 94.82 76.82"/><polyline class="cls-1" points="95.9 78.14 95.43 78.98 94.94 79.7 94.1 80.54"/><line class="cls-1" x1="94.11" y1="80.66" x2="94.11" y2="80.54"/><line class="cls-1" x1="93.63" y1="65.78" x2="92.91" y2="65.78"/><line class="cls-1" x1="91.59" y1="68.42" x2="91.47" y2="68.42"/><line class="cls-1" x1="91.47" y1="78.26" x2="91.35" y2="78.26"/><line class="cls-1" x1="92.79" y1="80.9" x2="93.51" y2="80.9"/><polyline class="cls-1" points="100.1 74.54 100.1 74.3 100.22 74.06 100.34 73.94 100.47 73.82 100.59 73.82 100.82 73.82 100.94 73.94 101.06 74.18 101.06 74.42 101.06 74.54"/><line class="cls-1" x1="100.11" y1="77.3" x2="100.11" y2="74.54"/><polyline class="cls-1" points="101.06 77.3 101.06 77.54 100.94 77.78 100.82 77.9 100.71 78.02 100.47 78.02 100.34 78.02 100.22 77.78 100.1 77.66 100.1 77.42 100.1 77.3"/><line class="cls-1" x1="101.07" y1="74.54" x2="101.07" y2="77.3"/><polyline class="cls-1" points="102.87 75.62 102.75 75.74 102.62 75.86 102.5 75.86 102.38 75.86 102.15 75.74 102.15 75.5 102.03 75.26 102.03 75.02 102.15 74.78"/><polyline class="cls-1" points="98.06 75.62 97.59 74.42 97.47 72.98 97.71 71.54 98.31 70.34 99.03 69.38 100.1 68.9 101.06 68.9 102.03 69.26 102.75 70.22 103.22 71.3 103.47 72.74 103.34 74.18 102.99 75.5 102.87 75.62"/><polyline class="cls-1" points="98.9 74.78 99.03 75.02 99.03 75.26 99.03 75.5 98.9 75.62 98.78 75.86 98.66 75.86 98.43 75.86 98.31 75.86 98.19 75.74 98.06 75.62"/><polyline class="cls-1" points="102.15 74.78 102.5 73.94 102.5 72.98 102.38 72.02 102.15 71.3 101.66 70.58 100.94 70.34 100.34 70.22 99.62 70.58 99.15 71.18 98.66 71.9 98.55 72.86 98.55 73.82 98.9 74.66 98.9 74.78"/><line class="cls-1" x1="102.75" y1="78.14" x2="101.19" y2="78.14"/><polyline class="cls-1" points="99.99 78.14 99.99 78.14 100.71 78.26 101.19 78.14"/><line class="cls-1" x1="99.99" y1="78.14" x2="98.31" y2="78.14"/><polyline class="cls-1" points="96.15 78.14 97.82 78.14 98.31 78.14"/><polyline class="cls-1" points="96.15 78.14 96.03 78.14 95.9 78.14"/><polyline class="cls-1" points="96.03 68.54 96.15 68.54 96.38 68.54"/><polyline class="cls-1" points="98.31 68.54 97.22 68.54 96.38 68.54"/><line class="cls-1" x1="98.31" y1="68.54" x2="100.11" y2="68.54"/><polyline class="cls-1" points="101.19 68.54 101.19 68.54 101.06 68.54 100.94 68.54 100.82 68.54 100.34 68.54 100.1 68.54"/><line class="cls-1" x1="101.19" y1="68.54" x2="102.87" y2="68.54"/><polyline class="cls-1" points="104.55 68.54 103.34 68.54 102.99 68.54 102.87 68.54"/><polyline class="cls-1" points="104.55 68.54 104.66 68.54 104.78 68.54"/><polyline class="cls-1" points="104.78 68.54 105.15 68.66 105.5 69.02 105.62 69.5 105.75 69.98"/><polyline class="cls-1" points="105.62 76.82 105.62 76.22 105.62 73.82 105.62 71.9 105.75 69.98"/><polyline class="cls-1" points="105.62 76.82 105.5 77.42 105.27 77.9 105.03 78.14 104.78 78.14"/><polyline class="cls-1" points="104.78 78.14 104.66 78.14 104.55 78.14"/><polyline class="cls-1" points="102.75 78.14 103.71 78.14 104.55 78.14"/><polyline class="cls-1" points="105.03 66.14 105.03 66.14 102.5 66.14 99.03 66.14 95.43 66.14 94.22 66.14"/><polyline class="cls-1" points="105.03 66.14 105.15 66.98 105.03 67.82 104.78 68.54"/><polyline class="cls-1" points="104.9 80.54 105.03 79.7 104.9 78.98 104.78 78.14"/><polyline class="cls-1" points="94.1 80.54 94.1 80.54 97.1 80.66 100.71 80.66 103.94 80.66 104.9 80.54"/><line class="cls-1" x1="105.03" y1="66.14" x2="105.15" y2="66.14"/><polyline class="cls-1" points="93.62 65.78 94.94 65.78 98.66 65.9 102.03 65.9 104.66 65.78"/><polyline class="cls-1" points="105.03 66.14 105.03 66.02 104.9 65.9 104.66 65.78"/><line class="cls-1" x1="104.91" y1="80.54" x2="104.91" y2="80.66"/><polyline class="cls-1" points="104.55 80.9 104.66 80.78 104.78 80.66 104.9 80.66"/><polyline class="cls-1" points="104.55 80.9 103.47 80.9 100.22 80.9 96.75 80.9 93.5 80.9"/><polyline class="cls-1" points="93.15 65.66 93.99 65.66 96.87 65.66 99.5 65.66 102.03 65.66"/><line class="cls-1" x1="104.67" y1="65.78" x2="102.03" y2="65.66"/><line class="cls-1" x1="104.67" y1="65.78" x2="104.79" y2="65.78"/><polyline class="cls-1" points="101.78 81.02 99.38 81.02 96.75 81.02 93.87 81.02 93.03 81.02"/><line class="cls-1" x1="104.55" y1="80.9" x2="104.67" y2="80.9"/><line class="cls-1" x1="104.55" y1="80.9" x2="101.79" y2="81.02"/><line class="cls-1" x1="106.47" y1="68.66" x2="106.59" y2="68.66"/><polyline class="cls-1" points="106.47 68.66 106.47 68.78 106.34 69.14 106.1 69.5 105.75 69.98"/><polyline class="cls-1" points="106.47 68.66 106.47 67.94 106.22 67.34 105.99 66.74 105.75 66.5 105.38 66.26 105.03 66.14"/><polyline class="cls-1" points="106.34 78.14 106.34 77.9 106.34 77.54 106.1 77.18 105.62 76.82"/><line class="cls-1" x1="106.35" y1="78.14" x2="106.47" y2="78.14"/><line class="cls-1" x1="63.87" y1="139.7" x2="54.03" y2="139.7"/><polyline class="cls-1" points="106.34 78.38 106.22 79.22 105.99 80.06 105.62 80.66 105.03 81.02 104.66 81.14"/><line class="cls-1" x1="106.47" y1="68.66" x2="106.59" y2="68.66"/><line class="cls-1" x1="106.35" y1="78.14" x2="106.35" y2="78.38"/><polyline class="cls-1" points="104.78 65.54 105.38 65.78 105.87 66.14 106.22 66.98 106.47 67.82"/><polyline class="cls-1" points="93.75 65.54 95.31 65.54 96.87 65.54 98.31 65.54 99.62 65.54 101.06 65.54 102.38 65.54 103.59 65.54 104.78 65.54"/><polyline class="cls-1" points="91.47 68.42 91.59 67.46 91.94 66.62 92.55 66.02 93.27 65.66 93.75 65.54"/><line class="cls-1" x1="91.35" y1="78.38" x2="91.47" y2="68.42"/><polyline class="cls-1" points="93.62 81.14 92.9 81.02 92.19 80.54 91.71 79.82 91.34 78.86 91.34 78.38"/><polyline class="cls-1" points="104.66 81.14 103.47 81.14 102.15 81.14 100.94 81.14 99.5 81.14 98.19 81.14 96.62 81.14 95.19 81.14 93.62 81.14"/><polyline class="cls-1" points="58.94 0.5 55.47 0.5 51.98 0.5 48.5 0.5 45.14 0.5 41.67 0.5 38.42 0.5 35.19 0.5 32.06 0.5 28.95 0.5 26.06 0.5 23.19 0.5 20.54 0.5 17.9 0.5 15.5 0.5 13.23 0.5 11.19 0.5 9.26 0.5 7.47 0.5 5.9 0.5 4.59 0.5 3.39 0.5 2.42 0.5 1.59 0.5 1.11 0.5 0.75 0.5 0.5 0.5"/><polyline class="cls-1" points="117.38 0.5 117.38 0.5 117.15 0.5 116.78 0.5 116.19 0.5 115.47 0.5 114.5 0.5 113.31 0.5 111.99 0.5 110.31 0.5 108.62 0.5 106.71 0.5 104.55 0.5 102.38 0.5 99.87 0.5 97.34 0.5 94.71 0.5 91.82 0.5 88.94 0.5 85.82 0.5 82.71 0.5 79.47 0.5 76.1 0.5 72.75 0.5 69.38 0.5 65.9 0.5 62.43 0.5 58.94 0.5"/><polyline class="cls-1" points="114.87 88.1 114.87 88.1 114.75 88.1 114.38 88.1 113.78 88.1 112.94 88.1 111.99 88.1 110.9 88.1 109.47 88.1 107.9 88.1 106.22 88.1 104.31 88.1 102.27 88.1 99.99 88.1 97.59 88.1 95.06 88.1 92.31 88.1 89.55 88.1 86.66 88.1 83.66 88.1 80.55 88.1 77.31 88.1 74.06 88.1 70.82 88.1 67.47 88.1 64.1 88.1 60.62 88.1 57.27 88.1 53.78 88.1 50.42 88.1 47.06 88.1 43.83 88.1 40.47 88.1 37.34 88.1 34.23 88.1 31.23 88.1 28.34 88.1 25.47 88.1 22.83 88.1 20.31 88.1 17.9 88.1 15.62 88.1 13.59 88.1 11.67 88.1 9.98 88.1 8.42 88.1 6.98 88.1 5.9 88.1 4.83 88.1 4.11 88.1 3.5 88.1 3.14 88.1 3.03 88.1"/><line class="cls-1" x1="102.15" y1="65.54" x2="102.03" y2="65.54"/><line class="cls-1" x1="101.79" y1="81.14" x2="102.39" y2="81.02"/><polyline class="cls-1" points="104.19 139.1 104.31 134.3 104.43 111.62 104.66 88.1"/><polyline class="cls-1" points="63.87 139.1 67.22 139.1 70.59 139.1 73.82 139.1 76.94 139.1 80.06 139.1 83.19 139.1 86.06 139.1 88.82 139.1 91.47 139.1 93.99 139.1 96.38 139.1 98.66 139.1 100.71 139.1 102.5 139.1 104.19 139.1"/><polyline class="cls-1" points="63.87 139.1 63.87 93.38 63.87 88.1"/><polyline class="cls-1" points="13.7 139.1 15.39 139.1 17.19 139.1 19.23 139.1 21.5 139.1 23.78 139.1 26.31 139.1 29.06 139.1 31.83 139.1 34.7 139.1 37.83 139.1 40.83 139.1 44.06 139.1 47.31 139.1 50.67 139.1 54.03 139.1"/><polyline class="cls-1" points="13.23 88.1 13.23 93.74 13.47 116.42 13.7 139.1"/><line class="cls-1" x1="54.03" y1="88.1" x2="54.03" y2="139.1"/><polyline class="cls-1" points="104.19 139.1 104.19 139.34 104.19 139.46 104.06 139.58 103.94 139.7 103.94 139.82 103.71 139.94 103.59 139.94 103.47 139.94"/><polyline class="cls-1" points="103.47 139.94 101.78 139.94 99.99 139.94 97.94 139.94 95.78 139.94 93.5 139.94 90.99 139.94 88.34 139.94 85.59 139.94 82.82 139.94 79.82 139.94 76.71 139.94 73.59 139.94 70.47 139.94 67.22 139.94 63.87 139.94"/><polyline class="cls-1" points="63.87 139.94 63.87 139.94 63.87 139.82 63.87 139.58 63.87 139.34 63.87 139.1"/><polyline class="cls-1" points="54.03 139.94 50.67 139.94 47.42 139.94 44.31 139.94 41.19 139.94 38.06 139.94 35.06 139.94 32.19 139.94 29.54 139.94 26.9 139.94 24.39 139.94 22.11 139.94 19.83 139.94 17.9 139.94 16.11 139.94 14.42 139.94"/><polyline class="cls-1" points="13.7 139.1 13.7 139.34 13.7 139.46 13.83 139.58 13.83 139.7 13.95 139.82 14.06 139.94 14.31 139.94 14.42 139.94"/><polyline class="cls-1" points="54.03 139.1 54.03 139.46 54.03 139.7 54.03 139.82 54.03 139.94"/><line class="cls-1" x1="105.03" y1="88.1" x2="104.55" y2="139.1"/><polyline class="cls-1" points="104.19 139.1 104.43 139.1 104.55 139.1"/><polyline class="cls-1" points="13.34 139.1 13.34 139.1 13.7 139.1"/><line class="cls-1" x1="13.35" y1="139.1" x2="12.87" y2="88.1"/><polyline class="cls-1" points="13.34 139.1 13.34 139.22 13.34 139.34 13.34 139.46 13.47 139.46 13.47 139.58 13.59 139.58 13.59 139.7 13.7 139.7 13.7 139.82 13.83 139.82 13.95 139.82 14.06 139.82 14.19 139.94"/><line class="cls-1" x1="14.43" y1="139.94" x2="14.19" y2="139.94"/><polyline class="cls-1" points="104.55 139.1 104.43 139.1 104.43 139.22 104.43 139.34 104.43 139.46 104.31 139.46 104.31 139.58 104.19 139.58 104.19 139.7 104.06 139.7 104.06 139.82 103.94 139.82 103.82 139.82 103.71 139.82 103.71 139.94"/><polyline class="cls-1" points="103.71 139.94 103.59 139.94 103.47 139.94"/><polyline class="cls-1" points="110.78 88.1 110.78 89.78 110.66 96.62 110.19 123.86 109.94 139.1"/><polyline class="cls-1" points="109.1 139.1 109.22 139.1 109.47 139.1 109.59 139.1 109.71 139.1 109.82 139.1 109.94 139.1"/><line class="cls-1" x1="109.11" y1="139.1" x2="109.95" y2="88.1"/><line class="cls-1" x1="7.95" y1="88.1" x2="8.79" y2="139.1"/><polyline class="cls-1" points="7.95 139.1 7.95 139.1 8.06 139.1 8.19 139.1 8.31 139.1 8.42 139.1 8.67 139.1 8.78 139.1"/><polyline class="cls-1" points="7.95 139.1 7.95 138.26 7.83 131.42 7.34 104.3 7.11 88.1"/><line class="cls-1" x1="8.79" y1="139.1" x2="13.35" y2="139.1"/><line class="cls-1" x1="104.55" y1="139.1" x2="109.11" y2="139.1"/><polyline class="cls-1" points="8.78 139.1 8.78 139.34 8.78 139.46 8.78 139.58 8.78 139.7 8.78 139.82 8.78 139.94"/><line class="cls-1" x1="14.19" y1="139.94" x2="8.79" y2="139.94"/><polyline class="cls-1" points="109.1 139.1 109.1 139.34 109.1 139.46 109.1 139.58 109.1 139.7 109.1 139.82 109.1 139.94"/><line class="cls-1" x1="109.11" y1="139.94" x2="103.71" y2="139.94"/><polyline class="cls-1" points="7.95 139.1 7.95 139.34 7.95 139.46 8.06 139.58 8.19 139.7 8.31 139.82 8.42 139.94 8.54 139.94 8.78 139.94"/><polyline class="cls-1" points="109.94 139.1 109.94 139.34 109.94 139.46 109.82 139.58 109.71 139.7 109.59 139.82 109.47 139.94 109.22 139.94 109.1 139.94"/><polyline class="cls-1" points="8.78 139.94 8.67 139.94 8.54 139.94"/><polyline class="cls-1" points="109.34 139.94 109.34 139.94 109.22 139.94 109.1 139.94"/></svg>